<mxfile host="Electron" agent="Mozilla/5.0 (X11; Linux x86_64) AppleWebKit/537.36 (KHTML, like Gecko) draw.io/24.7.17 Chrome/128.0.6613.36 Electron/32.0.1 Safari/537.36" version="24.7.17">
  <diagram name="Seite-1" id="hYAg3_V9tdOp0hUVIglI">
    <mxGraphModel dx="558" dy="333" grid="1" gridSize="10" guides="1" tooltips="1" connect="1" arrows="1" fold="1" page="1" pageScale="1" pageWidth="827" pageHeight="1169" math="0" shadow="0">
      <root>
        <mxCell id="0" />
        <mxCell id="1" parent="0" />
        <mxCell id="9WVaIaBoCg3rjbjGImSN-12" style="edgeStyle=orthogonalEdgeStyle;rounded=0;orthogonalLoop=1;jettySize=auto;html=1;exitX=0.5;exitY=1;exitDx=0;exitDy=0;entryX=0.5;entryY=0;entryDx=0;entryDy=0;" edge="1" parent="1" source="6V8lK4SGBHfL4y7n1FBj-1" target="9WVaIaBoCg3rjbjGImSN-4">
          <mxGeometry relative="1" as="geometry" />
        </mxCell>
        <mxCell id="6V8lK4SGBHfL4y7n1FBj-1" value="VCD File Import" style="rounded=0;whiteSpace=wrap;html=1;" parent="1" vertex="1">
          <mxGeometry width="120" height="60" as="geometry" />
        </mxCell>
        <mxCell id="9WVaIaBoCg3rjbjGImSN-3" value="Data" style="shape=cylinder3;whiteSpace=wrap;html=1;boundedLbl=1;backgroundOutline=1;size=15;" vertex="1" parent="1">
          <mxGeometry x="246" y="310" width="60" height="80" as="geometry" />
        </mxCell>
        <mxCell id="9WVaIaBoCg3rjbjGImSN-10" style="edgeStyle=orthogonalEdgeStyle;rounded=0;orthogonalLoop=1;jettySize=auto;html=1;exitX=0.25;exitY=1;exitDx=0;exitDy=0;entryX=0.5;entryY=0;entryDx=0;entryDy=0;" edge="1" parent="1" source="9WVaIaBoCg3rjbjGImSN-4" target="9WVaIaBoCg3rjbjGImSN-9">
          <mxGeometry relative="1" as="geometry">
            <Array as="points">
              <mxPoint x="30" y="620" />
              <mxPoint x="66" y="620" />
            </Array>
          </mxGeometry>
        </mxCell>
        <mxCell id="9WVaIaBoCg3rjbjGImSN-4" value="TBD Dissektor" style="rounded=0;whiteSpace=wrap;html=1;" vertex="1" parent="1">
          <mxGeometry y="320" width="120" height="60" as="geometry" />
        </mxCell>
        <mxCell id="9WVaIaBoCg3rjbjGImSN-5" value="Waveform View" style="rounded=0;whiteSpace=wrap;html=1;" vertex="1" parent="1">
          <mxGeometry x="470" y="320" width="120" height="60" as="geometry" />
        </mxCell>
        <mxCell id="9WVaIaBoCg3rjbjGImSN-6" style="edgeStyle=orthogonalEdgeStyle;rounded=0;orthogonalLoop=1;jettySize=auto;html=1;exitX=1;exitY=0.5;exitDx=0;exitDy=0;entryX=0;entryY=0.5;entryDx=0;entryDy=0;entryPerimeter=0;" edge="1" parent="1" source="9WVaIaBoCg3rjbjGImSN-4" target="9WVaIaBoCg3rjbjGImSN-3">
          <mxGeometry relative="1" as="geometry" />
        </mxCell>
        <mxCell id="9WVaIaBoCg3rjbjGImSN-7" style="edgeStyle=orthogonalEdgeStyle;rounded=0;orthogonalLoop=1;jettySize=auto;html=1;exitX=0;exitY=0.5;exitDx=0;exitDy=0;entryX=1;entryY=0.5;entryDx=0;entryDy=0;entryPerimeter=0;" edge="1" parent="1" source="9WVaIaBoCg3rjbjGImSN-5" target="9WVaIaBoCg3rjbjGImSN-3">
          <mxGeometry relative="1" as="geometry" />
        </mxCell>
        <mxCell id="9WVaIaBoCg3rjbjGImSN-18" style="edgeStyle=orthogonalEdgeStyle;rounded=0;orthogonalLoop=1;jettySize=auto;html=1;exitX=0.5;exitY=0;exitDx=0;exitDy=0;entryX=0.25;entryY=1;entryDx=0;entryDy=0;startArrow=classic;startFill=1;endArrow=none;endFill=0;" edge="1" parent="1" source="9WVaIaBoCg3rjbjGImSN-8" target="9WVaIaBoCg3rjbjGImSN-4">
          <mxGeometry relative="1" as="geometry">
            <Array as="points">
              <mxPoint x="306" y="620" />
              <mxPoint x="30" y="620" />
            </Array>
          </mxGeometry>
        </mxCell>
        <mxCell id="9WVaIaBoCg3rjbjGImSN-8" value="AXI Stream Dissektor" style="rounded=0;whiteSpace=wrap;html=1;" vertex="1" parent="1">
          <mxGeometry x="246" y="670" width="120" height="60" as="geometry" />
        </mxCell>
        <mxCell id="9WVaIaBoCg3rjbjGImSN-9" value="AXI MM Dissektor" style="rounded=0;whiteSpace=wrap;html=1;" vertex="1" parent="1">
          <mxGeometry x="6" y="670" width="120" height="60" as="geometry" />
        </mxCell>
        <mxCell id="9WVaIaBoCg3rjbjGImSN-15" value="" style="shape=image;verticalLabelPosition=bottom;labelBackgroundColor=default;verticalAlign=top;aspect=fixed;imageAspect=0;image=data:image/png,iVBORw0KGgoAAAANSUhEUgAABLAAAAFkCAYAAAAwtsJRAAAAAXNSR0IArs4c6QAAIABJREFUeF7snXVcVcv3vx+7O6+t17x267URBAFJEQTEADFAMVAMDAyUMAAVVFRKJAQEFUTAAruxuxMF6Tzn/H6oVwFFD6j3+v289vkTZs9e+5m1Z8+8Z82aEhKJRILwEwgIBAQCAgGBgEBAICAQEAgIBAQCAgGBgEBAICAQEAj8pgRKCALWb9oyglkCAYGAQEAgIBAQCAgEBAICAYGAQEAgIBAQCAgEBALvCQgCluAIAgGBgEBAICAQEAgIBAQCAgGBgEBAICAQEAgIBAQCvzUBQcD6rZtHME4gIBAQCAgEBAICAYGAQEAgIBAQCAgEBAICAYGAQEAQsAQfEAgIBAQCAgGBgEBAICAQEAgIBAQCAgGBgEBAICAQ+K0JCALWb908gnECAYGAQEAgIBAQCAgEBAICAYGAQEAgIBAQCAgEBAKCgCX4gEBAICAQEAgIBAQCAgGBgEBAICAQEAgIBAQCAgGBwG9NQBCwfuvmEYwTCAgEBAICAYGAQEAgIBAQCAgEBAICAYGAQEAgIBAQBCzBBwQCAgGBgEBAICAQEAgIBAQCAgGBgEBAICAQEAgIBH5rAoKA9Vs3j2CcQEAgIBAQCAgEBAICAYGAQEAgIBAQCAgEBAICAYGAIGAJPiAQEAgIBAQCAgGBgEBAICAQEAgIBAQCAgGBgEBAIPBbExAErN+6eQTjBAICAYGAQEAgIBAQCAgEBAICAYGAQEAgIBAQCAgEBAFL8AGBgEBAICAQEAgIBAQCAgGBgEBAICAQEAgIBAQCAoHfmoAgYP3WzSMYJxAQCAgEBAICAYGAQEAgIBAQCAgEBAICAYGAQEAgIAhYgg8IBAQCAgGBgEBAICAQEAgIBAQCAgGBgEBAICAQEAj81gQEAeu3bh7BOIGAQEAgIBAQCAgEBAICAYGAQEAgIBAQCAgEBAICAUHAEnxAICAQEAgIBAQCAgGBgEBAICAQEAgIBAQCAgGBgEDgtybwPyVgSSRi7pwKxWNXMPfeplIqO4vSNZsyfKQBakM6U67Uf9MWL24cxs5+B8PNbJDt9Acl/mUzxBmJHN/ri/+Bo9x//gZxqQrUa9wSGaWRqMv1oHK50v+eRVlJRO/bze7wo8QlZyPKSKdk1br0GqSMrqY89aqW/fds+cqd4u8eY5LRPPrNccFUqRP/DplUAu2siI6vRJ++f/NnswbUrFqJzMQ4bsVe4NiJU/TTs0S9/5+U/Bfp5KS8IjLYj5CoU7zNECOhFC27y2JiNJqG1cr9cktexbgx2mIzbQco0a5RbapWqUiZMl9rkZJ06S/PX01q/HKbnt84zk4PX87ffwGUpFyl6nToq4iulgINq/96JnkfMO7+WXZ5+XP6+hMoIaFUpboM1hiDtnx3KpX6dZ6SnfICH0c77tccyKzJalT5BvXcPvnhhUi8d+3h2ot3lBblUKJqA+TU9dCQ60nFH3zBslJeEbLVnnOl+2I+SYPaUnYfb+6fYf06V9pqzkV3cMuf8l5lp71lj7sjEfFtsZulTbUKhbeBODOZi1HBeAWFc+95HDmUo3aDZgwaromGfB9qVJLyQQphL85IIMTNidBnDXFYMp4KpQu3JSf1LVEhvuyPOk1cWhY5GVmUr9mIXjJK6KoNoVbFMj/2XolSCN3uSOSzWixcOolaRazt2aV9mJlZM2zxLoyHNi3i1fmLi7KSOerjxN571ZhhYULTioVUl/kWfxdbTr2pQa+ePWjdvBE1qpQnLf4F166c58TJKwyZshyVznWLbU9WahwH3R04nNyWuTP0qSdF95GZ+JyIPf7sO3SS+CwJpUqVpXVPeaYYjqZ+5eIPcHLS37HfeyMh9+tgt9CQmhW/XlfClXDGmC6mdvfhdG9ej6pVKxXaJ7fvI0fnFkVtbRBnJhHuvYmAm5VwWGFCpTLf7ste3TnDLk8fztx6gpiSlK1YjTbdhzBGV50mNcsXu33eXyhKJWqnM3tvlmWB9XS+19rxjy8RsGs30ZfuIKIUJSvUoO9wLcZqDCx2n5zw+DJ+3j4cOXuN+NRsKlSvRduOfRg5ejRdm9ei1FcGlLn97ssbJ9jp5c+Fh68pjRhJ+doMUBqFjsogqhbrlRaT/Po2vh47OXzqKm+T0qlQrSatOvVCXUuHvm3rf5d14rOruDhspHSfKczU6PQD/a6E5Ff38HffweFz14lLTKNs5Zq07twLVQ0tBnRo9FVbJNnp3DwRhpvPXm4+eUmWuDQ16jehn6wKWsqDqVtVipfwKzWnvr5HgIc7UWev8DoxjTIVa9CiXVfUtbQZ0KXZ158zJ53YY6HsCj7Ag1eplMjJQFSuGu17DmKM3iha1Cmsc/o25sQnV9+30aHzV3mXlk3FqnVo1bEHOqN16dyyjtTMU19fZ5XZNJ50movLfHkqfLd1vyyQ9Pw6/ju9OXT6Cm9SsihftQatO/RCQ0eXXq3qfsV3M7kc5cHmkLv0+Lsff7VuSp0a1chJfcf9G7GcOHmaSj0mMGd0d4rW20lIjb/PbndPIk/EvveX8lWr82f7HqhpjWZAh4bffDpRZjLnDwXjGxLJk4QMSpQsSZ0WXTGaOoUuDSoXkYyEtDeP2O2+naizV3mVkEqZitXft5Gyxihkunz5jRMn3mem0QRul+/O0B5NqFatGhXKlv1qW9Zp1Ru5nn9KbVP620fs8XDj4JlYXiakUKZCNZq16YLqSG0G9/izUM4J7/3Mk5jYe+RQitLlKtG8Uz8MxoymVb3i+W7Gu6fs2+XB3iNneZWYTplK1WjaqgMqo/QZ3KU5ZQv5FCS/vkXwLl8iT10lq0RpSpSpTDcZVSbqD6dqMcfCGe+eEOrrTWjMJdJEkJWRSdX6LZEZoYmmbE8qfO27JJGQ+vY+/m4eHL54C0qVISunDB37yaOvP5Im1YrmtR8aUUJWyltC/dwJO3qRxGwxOWnpVK7XAhklDXRV+n13npqd+oo9mx04lNQe26V63xyzS+04v0HB/xkBS5KTzrFtc5iw+jC6Cx2YN2YIlcqJid61nulLnOloYIOjuQbVyxfHgYrWUrmTh4sXY3n8+B6H9gWxJyyKp8ll2LL3FIbD2kn9ASnaXb9eOjPxAXYWMzn0tiGmpob0bdOQNzePs95uFX6Rl+mqYY7Lekva1a1IiV+trGW+xXqGIady/mLObBP+bt2AUqIUDrrZMGG2HeW667Nzuz19mv96IeJrtERpL1lhqIZV4G0WeBxgsXYvfmwaKW0LJrB6pAJLA86QWeCS0hVqMkjbAjeHGTT6t8Q9iYiXtw8x3cic5zX6snjZYoZ2+gNxyjPsp03Av/QIwp2mUOdH1Yfv4DnnuQDNqat5nCL5Zsly1dvgGhqBft/G0gIvRjkRZwOcsPa+zKjps9Do355ypcQ8u3USOwsLjqW0Y9NmW/r8WfQJW1GNEYsyOR24hqnzt9BWbS7rFk2kfrWS3DziwySTBdQZYcnGRWOp94MiyCe7xFk8uX2VG3fucuFsDEG7Azl/8xmDDe3YtdWcOoU8QG6ffCHQDl2LncibWmM1RZUaFeF0kAszFzvSYPgctlhNoGaFovTJOTy/c52rd+5w7Ww0QYF7OBH7mK76q9jtbEHTQsaSuSL+1SuxPHz0kCOhgQSHHeJ+QkkWOO9n2fi/izgY/vzAL+7GcvX2Q66ePcye4L2cunyfP1SWcMZjIXWrfE2dyx2MvGDD4lkE3S6PyQwT+ndoQuLdM2x1WsOO4BO0lDFki8tqujWuVqQ++eWDq1y9dZ9r544SvCeEE5fvUqffNK4eXEe1sl9nnJP8mKWmJtyv2puZZpPp/mdtxBlvCXK2YtriTfwx1IxtG5bQrXFV6d1UIiHu8U2uXr/F1dgzhAQGEn3hNn8OnEJY1EaaSF2ThKykB1joaeAY9YQVXieYr9FG6qs/FBQT//Qul6/f5FbsafYGBXDo1G0aDjDEP2ArXQt7XVOesGriCCx9LiMucMdyVeszYsJSXFcbUa1Iq2IiXj24Seyt29w4F8OeoCCiLzykrep8Aj1W0uobiCWibJ7GhmM8yYLUpnKsWDGf/q3rkfH2NtZmUzhTRxvf1YbUKML45tX9a8Teus+N89EEhwRz/PxtaslM5+xuexpU+5rCIeFWhDMqWqbcTvx2n1ymSlMc90QxWUa6iVTc4xvEXr/HzUsxBAcFE33xFtW6j+f6kc3ULHSBTcyVMFeWbT2G4qSZjJbtSvlSEl7eO4fLskUE3q2BnfM65Ds1kN5nJBLin98m9sotrl89R9Buf2Iu3KZhDwPCT+ygsKfJ7ZOvRbljNG0ltQYYs8nGnGa1SnPvZAizppmT2n0q221NaFJNekEtt80fnvFhssU2WsvpMlFXgQblsonYvZ21jlu4nFCJhWvdMNcbSKU8MzuJKJNbh7ajNcmO7vqLWD1Hj/pVSnEl0pvZ81aS09EAb6e51K9chNUDcTYPz+1l8rSVtFAYy0S9ETSsLiE6yB37dVu5+KocM9e5s1C3H5Xz9DWSrFRuX7/MvYePiT64h+D9Edx4kcXoxb54WCp+d+L19YYTcfdkMHMt7KgtM4aJoxRoWk3C2fDdrLBdT+yLskxctonlU4ZT5RMXCTnp8XjYWrD5aCLGs2Yi170lmU9j8dy8jo3eEdTppsHm7RsY1Lq29P6ChIfnQ5i/cA1lumkyVW8EzaqVIPZwAMus13LhqYQJi51YNWMkVfK+UjmpeK02w/1iSUzmzES5V1tKSzI5H7adSZMteFy1L07bt6Ddp5nUtkgkIu5EezPHahuNZPSYqqtIrZKpHAt2Y/W6LdxIqMzcta5YGMh+d+FInJ2Mx+IJGNrtR3aGGwH2oyiKTCMR5/DsUgjGM9bTeLAOU8Yo0riShMN7PFi7fhNnXpXGfPUOFhrK5mmj3EdNJXLHXFQnbCKtwJOXLFuZrsPG4um2hna1iiA0SnJ4dvkgkyYt4A+ZMUwaq0GT2iU5vc8LO3sXTj+Byau3s2KCDFUK9ucSMSmvr7Nw8kSiXtZj/jJrRg1tR8msRALXWDD/QAZhwZtpJbVQLubRhQNYzLSiQr/RTNJVpkXNUlw+HMxya3vOPRIzZtEG7GaqUvXTeyQh5eE5tBSHcuBG8jf9oUTpihjZBbBlhoIUfiPh2dWDLJi7gqy/VDAdq07LmmW5Hh2E1Up7Tt9PR2/eetZY6FMt30RIzP2TgSy08aHvmBkYqfZ9709vn13DY7UVLkeTWbFlC1pF8l0Jb+8eY96cpSQ1kmXWVG1a1ijHxSPBrLGxI/JWIrqz17Nu4Rhq5RkvSsTZPDgXjOGEWeS002aL03La1S/L86tHsDCZytWa6vhtW0SrmkUQ1CRi0l5fZfK4KZTppo+FmQGt6lYi890TPGznMss2gB76y9npOJOGeedkEhHxD06ipzGalLY6bF6zmL8aViH+7ikWzjQj/GVjAoLd6FokwVNC0vMrzNIbj7inPubTx/FXo+pkp7zB034us219aatmic+m2TTNu4AuzuHFg2tcvXmPS2ePERS0h1Oxz2gjM4djUdaFjtmlcJrfqsj/jIB1+9hmBg43w2xHDHNH9cg3Ibl2eANyKubM9jqJmWrXYn40pW83UfxDPP33UrLuX8gN6YffrMHM2HnjPxGwNkxW4lZLE9aaK5L3+5k7yFk3eTgLth2m2XArTgdbUu0bq/TSP31hJcVcdjZG1nwnMjPd8Vgxis+foDRcjeTft13PsfaEbJ9NEaZLP27axxq8LUezaFs49+Nh4b8sYNloDWdt+DXiU1LIeT83KE17xbE4r7NhQOtfL4rkhfjiaiAD+2nxl/Em3K0nUf2j47w8FYi8ui6xbzsQ/TCS/g2q/zT2X6vIZ8kYTG2DqNCwATUrVaBEAYVVlJHM4xfJLPY6zPQR7fP59882LPv2bkbM3Ye10wa6Nf5yKLdiXH8OldRk7/aZVPrZNy9Q38ODdvRSXUDvaS742Brmu9/jgzb0UVvKKLsw1pgMLrYwk++WolRO7g/gQlxZ/h48mFr3t9NNdQld9FZ9U8C6e8IDxeFGqNpFYG08KF/73IrZjorqdDTswrGa0K8IQnEmFw8Gc+xJGn8PHEr5F/tQHGJCfd1vC1iid08I2LOXlIrNGTZ0EEdsdRjjEP3DAlbsQX+OPUijr6w8FR+HoqVhTMrgRYULWOJsdq+YSIREAaclOvmeO3cw5jZPA1P7fTQaOouY/bbUKUR4+pqLXTm8m0O3kuneX5bm8UcYrjORhNbG3xCwMgh1mobuXD90bHxwmT78c7WZb9g4YySzXI4y1MSZkA2Tpf9uSsRcP76XQ7Fv6TJAhl7lz9FjyHhEbQyKJGBJRFl4LB7Hwq2hvEgpVUwBK4cHZyPYf/Hp+8iGtjXuodxNk8ROet8XsIzVWRt6k4TEVETvyZSjp4YRG9cuo2fTmsV4y7O4enQ/UbcT6NV/KDWSDqPYbwKVlL8vYN09tJEB8qbILQpk82L1T9EQd45sQ0vdiNt1NThxZAdd/pD+y3nj8B4ibr6jj4wcNROi0VbW52VXk8IFLImIQ65zGT3NhdINGlC7Su6iV/5VL3FWGs9evsNwTRgrxneX+r2+dXwPYZff0uVvGdpkxaKqpcPjBrrfFLBynhxCfbIzs9e7MrhVtS/aY9N0WVwf9uJIiLX04wmJmHvnDhB25jkd+8nQr/oN+gzW410D9W8KWI+OutJfyYQ/9W3Z42JG3i/jq9NudB04iYHzfdi5VF3qPjnuwWG0Na1YFhhE/2b5F/Ve345geO9hXEhviK3vPuaodvn0/M+v7kNlkDqtpvnjtlQtzzgLnlwNRmOoDq1N/Ni2eATSymkJ96KZOdmSsTsOMqRRfvHgzZ0j6CooEnG/HEsCDrNU47Mt4pQ4DuwN4Km4PkOHDuWW50yUFvr+kICV/uQ8pmbLGb7Ck5F/5Y//Tbl/An1NNfbdFDF94yHsJ3T+sGAsFhGzfS4bLrdgh5NJvmiiXLEl3HEi2rPdqNpdn0tnPKWPEk24gdG4hfQ3d2LcgPxRPKI3F9EaNoLgm1lMtA5kw4z+H/tQCc+ivRikZkwDxaXs87TI45+ZnPFfgYLuCmr0MSQm2pU/pOxpsl+cRUNnOVOctqPYKb8Il3wvigG9R3A1sw4rd+zFYmSnwmuViLgUZIPB9DVceZnOsGIIWAlPT6I7Yjrm/mEMbZnflviHMYzoPoATKfVY6h7MEp3eeWxJJdLNAt2Zu0hKiifz/epBSRr3VGSNoyNafZpLSeNzsaQn57AwnIaq62EUmuT3+HePTzNu2FCCb5XEfGcEdrp5bYF3j08wqu9gnnedRqj/Gpp8DENLeniZSWoD8b9Zk21njjK2k3TLMpkvrzPTZA69F+1ibJf8fXXas8sYaSjgezmN8XZRbJnW42Owg4QnFwIZIafLk/L1qVe7OmULRhuIc4h79YLGCgsIdZ1NTWkiLJMeMHXMdDqYbmCqXP6oL/G7W4wZLs+ui0mMWuCH52LZT+M38dtr6Iw2Q8fWB40uX4q9e5ZrYn6gFmeOb0Har6Qo8zlT1XToYObMNIX2+do4K+k++n26439bzJil2/Gw1Pz0/9ex+/h7wEjKyczhaNBy8lqTePMAXbqq0nyCMwc3TpB6/CJKf0fQIln0XV6yePteFozq+ul+mYmvWKLUBpsTOUzd4M/GqZ/HTGnx97AY3pmImlOJCralYR7RL+3NPRaO6ElolbFEhqyjsbQdb3YiATbG6Kw4yMLtYSzV7fPJFlHyS1YZD2aRzz301u/Dy0z+MzdRBhePhnD4dgaD5RSo9cyftoNm0EwQsIrcf/z6C0RxLNEaik1kWSKvHaJ/gdXinFeXUBwix8U6YzgRsIJWtYugxv4E6x0m9PmPBKzHyLfrxd0a/XHz2kz/FrXybF+U8O78NvoqmXE/sw6BR86i2LnOL9zemEPkslGMsg6iXr/JHNzvnOclFhG1VB3NVXtpNGQqoUEbP30ofgJ+KaoQ8ShiPYvDS9Gj7AnM1kT+6xFYtrrq1Bjrgn7/hqRlZFGqXCWqVipHyV8eFpcfT8bLy0zWUsf/3d8c27+R7k0+Twyy4u+yeuECrlUeipPVeOpW/LXxaauNNCihYomFSrcv21D0jrUzTLjZUIW15lpU/qXiaw7R6yZjsj8LL4+tdGrw5epfrhCwLCgZ9xA32hRlqVIK78xbJPvtTUxHj2BrVCoO4YeZJps/IiX3Q2kg14eT5eUJ8dtK98bFCfz/tlHPIqzp/D0BS5SA3UQ1FvrGERJ7HIU/80/AcuKuYqylzJ5UGaKCHOja6FsbEQu35+YxZ+SkELAK1uBlofJTBKy89d49uh01tW8LWNmZjxg/cBAx4o6sdd6Aeo+m+frk5OsBKKhO5NybaqzzP8oU2bz/l95ZXh33Qk7L6NsCljiFXVaGTFzuR7uRSwn3W5JnwJmM31JDJizzp6WKORF77Iq/and3N50GF1HAkmRxwX8Nzueq0jxpH4s8zhRTwMrPLP5hGHJSCli2JhOpM9kd7Y4VSM/MomyFKlSqkNsnS98O3yp577QbclIIWO/un2Si1khiystzJGgjbep+fqdTnsdit2w5zxuosXqONrUqFCGqJo9xj874oKH4bQErV1DcudiQW+0mslx/4Ff65GTcls0hKrsbLsuNqVSUwMo8tb05H4KihvZ3BKwcLnpbMXbDZZy9fenX7Mt+LsbbkplrL+MSuZfuxV1rebifHt8RsHKSHmNlrIq1/2OWBx1mgUp+cSAj8Rlm8p0JSOqGf3AgQ1pJ84EQE+NqzrAZnmiarWLtEiPq5PncSrLesWOxHia2oXQYaUm43/IP7644hR0Lx2K8/jxup0+j16levnYSvXvIysnK2F9sTHDIToa0kW6KeXrnfBSmbGOwkSUbrUxoUCVP44pS8F4+ET0rH7qMMCfYz44COsEnG0LtjH5YwDofZI2m0Xr+0jZn19pZVCufx+clWQSsNGLkop38KTuBcH8X/qxeipzsV8xRGoTf8/osWuOMsXzenRAS0h9HM0pViwN3SjDf8xRL1QvZ9pePZg7XI11Q1V9Kc+UZ+Lpakv8rJybMwRC1Ge7U7KXL2fDtNKqe24giboY5MGzUbHKaKREYs48+n4ZZYu5GbGGA+lQkjYcSdCKCvlJtSMjibMBqRkzayIDxS9huNzXfNiFxdipeC5QwtD9Gh5ELOOu/opAJvZjXVw8wa3UYQ7qVYdJcF4YWWcASc9bbioFGTihNWsoGm+nUz+u72ckE2k1gjOVu/lScyaF9a/N8W1KJ8lhISIYOtgYdSU3NgNLlqValIqWK2fFeCVzBQIN19NWbjYudBU2q5vXdNPasN0Pd3JU2Q6YQun8TLT52JdlJz7CbpsHSAxkERx1keIfP71JOahw+jkvwuVmFtWuX0LqWdHPKGxGOKGlb0UJtGv4bLamRt7+WZBO2bhqKs7fQqPdIIkN30aZmKZCIuLLPBrsjNdi2ZspXFmpFnPFbyyK/R+xwd6RBJWnSR4h4cMab4SPMqD9sCgGeKwuItmKiXU2QnehClY7KnD+ym6Y1c8e9Ih4e90RlsjPWvodQ/uvL5dpbxzaga+SN3YkTyEgVzCjh9cUQ+siPo8FAQ9w87WmZpzvPXdg74zMPRYO1lO2oztmLgeRuEBalv2XLPHWmbbjA9O3hrB3bL9/bmZ0Wz0rVDqy5UQ+3fUfQ7PLlIsfXvs/ZKW/ZNqkbU7yfMXzWJkLXGH8WjdLi2W7ah0k77jJs7lYO2Bh+/J+Y834r6Td6BQaup9gy/rPolVtAkpPMgU2maCw8hG3gAabJ5RfpChsnSNLfvBfsxq89Rj+jTURvnfK5aOZbtlmoY+QQTa+JLpzeMqnQ4cazYxtpKQhYP2fg9rNrSb8ZzKBhY7leeRSXTznwZ9UCg5ns58ySlcExJp1tp2IY2/NXbjX68un+OwHrDkNb9OLQ80o4Hoxi6oA2+fecJ59hWPcRRDwW4bw/BqOhbaVWqYvVhikP8PELp04PRYbmXbHIecdqPRmW7r6IzFRn/BwnU/knTRKksTPu+kEMZ21ngbML8f6mKC8K/Y8ErC1MlG8tjcm/rEzE1llombigYBPAFlMFqpb5FxuiwFPZLrFiwDgT+jbP/xXMjR7cYzudgDftsVtmwh/FnSlJTTGHGIcpaFj60Hv8EtYumkzL2pXzbO/KZr2pMsHvBuDvbkntYk7cpDHnxcV9qCupc/p1G3wv7GdUpwIrZ6lxLDQYgs2+FGwD92Cu9Hk1XJr6pSkjjYCV+egYaspaHE3tx7nznvxVo8BAJ/sFq8aPZNGuB6yPOISpTFtpbv1Fmf9zAlbGHfT7DMLvhoT52/1Yrjsgf5+cegW9oWrsupzInE0hrBj/d7EiC6USsIDMuFv47omm5QAl/m77ea1flPoCa2MlrLxjUZm3A79VY4r/bSiGgPX0fAizbUKZt8aOi456TNx4/L8RsKZ4Mr5PYZtki+Wyny6STsASE7R6PLpL9qFnvYsNM4dRXpr5SRFNk0bAEudk4bZmBU1GTEb2r/zb8nInGZHO89l6uTI2dpY0r1Y8IS3XbOkELBGXfJahaGxPe20L1i01o32DvFtuc3BfqMWGi00IDnaggTQRCV9jJoWA9fbucfTlhnDgcUO2nzzI+F6t8tUkznjHxmkyzHB7xoIdu1muP0CK1hERsWEG8tM20HLoBAJ8t9KxVt6Gz+TItvloTF1Hza76BB/xpH15yH4Vi5HWCHzuNCX60j561SsQkZcTj8cSI4xWHWWBXxhLR/aSwhaI2TELecN1VOqmzaE92+jQKH9/fsp9EX3HraBBDw327A2gZyHpsH6GgHXWxxKlMSvJbqPG2RO7aFk1fzjDJb8l9NBeRqU2wzhyIICuzSqTk/UUs6GD2HQ6gXHLtrLVQpPSeYc2GQ8w01DHMfIB+ssC2DZPVorowRyuhDmgqDmHrKZyRFwMp1OByIr1F0b2AAAgAElEQVTYsDUoKJuT0HAQJ8/upUu9jws1mW/ZHxBIVqM+qA/s+LkNRKkc3jYLlalbaCo7naj9DtSTajyRwUnv5SiMtaZ2T13CDu+kdd51NnE20V4WqI1bR8VeY7h4yiNftMo/BqQ+v8qi2fPpNWMj7R+50lXXvlgCVswOSwZNWPVeiAkM8aV73by+m82ZgFUo6S2hfGsNQk4H0PXTlO0fAWs0Dsb5o6GkctSvFDrva8mg0Ssp21aByDB/uhXIM3Bptx1dteZSt50cAREH6f8xkO56hBPDVGZTY+hsDgVYU6fcj4+Fr+1bxVCNBaQ3leP02WDaVs8/V721z5YOIywo26wPURHh9GlZFYk4N33Fes5XlGGKUgFhRCLmfowHFuuimLZmI4OaSxuBK+Lu8R3IDjMmqV5/Dl47Ro8C0+a70S4MGTKF13W6c/x8FD0a5ApAYh6d8GKIkjF1ZafiZLOA7s1r51nUEb2PZpzpncn+YztpLtUat5inZ4LoLatNWs2ueB05hVKzvE4v5sFZL4bLjuVFxV4E3T2NTCVIeXWDqTJd8LxRFbsDkZgP65yv9SXZaYQuV0DF+jITbbxwmT1COheSiEh8ehnfsMv0VtSgc6PPwlda/H3MBrfH9UZ5zDcHYTdh8Ic6s9/iMEObWVuv4BRzgam9CuZUy+ZiqCMDVS0YNGsH+2zGSGcLYhKeXmNn4An6q2jRpdnnBYfMhMdYju6H/cG3mLgcYIPxVxaVPt5FELCkxP1fFLsZZMuwcfNJ6mLJjf0L+aNywbcmnlWqg1m89zrmHqdZpd/9XzXzvxOw4PbxQE69rYHG8CFULjCIE90LpO+g8ZxPrIhfxFk0+jT6hRFYhSGX8Op6JHKDlblbpge+EbsZ8Ze0QdM/3ow5aY9YZDqbtpPWod+7MeG2+v+hgLUZ/X71eZeYTGaOiDJly1O1WnUqVyz377SLJIV5Kn2wPfSGjXuPMa5vfV49vcfNGw8oV+9PWrdoSt2a1SjztayxP94U0tUgEXE3yp6JW96wcYMVf9WVbuVLusoLL5X9IJghsoYcv/+WcnXaYr9lK3rDelG1rIjre2zQXhTBQred6PWWPmdFcWx6eNoPteGjuZzUAf9LexnZIX/ouiQjHmtjRZZ4nmXkqhB85ikV5zbfvEYaAevRUQ+UtCbwqPF4rh1y+krulwScTXQwc45i0sYonKYMKpad/9cELCRinlyO5OgDUBw+jIKpM0RPIhmhoE/4k5Ksdo9itnrxciZKK2B9FXruoPikHyPkR/OykTK7drsyrH3+SI4iNVYRBaysuKssmruKrlPWot2rHjvmqPx3AlZuBFaHsiQmpZCVI6Z0uQpUr1aDShWKq4h8JieVgJV5j4nyinhcyWKN32km9inL80d3uX77GZUbNqV1i+bUqVGV0sWMTvjHGmkErELbXCLi6Tkv9KxisNmwhj7NpJ1Efb1G6QQsyHl+lOFDtYm8+Yrytf9kqdNWjEb8TfVyEh4cdUd96lYmOmxnusI3tkt9z5GlELBe3Yxi1CB5jr1pitupcMb2bJl/IpWVjNs8VYzXHUFxnhvBqwy+d9f3/89MiWOf727q9dOgf9sC7584lSD7yRjM96Kp/HTCQx3InTK9unwQrRHKnCsvz4UTPrStXTBCIoUg+2mMnuuBqtVufBepS2VLblRC1N49lO+gyMCOf+TP4yrJItzBDIWZLrQdOJGQvVsKzef2MwQscUY8B/ftR9R8EArdmhRIBC7hqMt0ZKZspF5vbSJDPPirbhnIzct39xRhF14ip6zOHwWwiOMuMk5NnZ0XkzHdeIR14ztKl6s2O4XIfQFkNOiHcu/87Z4L9pT7LIaNW0eJDqrEHtlF01rfioiW8O7JRaYpDML3+R+sdPdhzteizwtpsdzcu3sD/KjWWZnBBZKS5y76hdmOZuSCIBormHE1bP0XCyOirLd42FtyqfY47Ix7c8tvcTEFLMhKe0u4rx+Ve6oxpEOB8bw4nUhXczSnbqLuACMiD2/l8zJcngisMR149y6RjKwcSpYu+34sXLVyhSKPhXPS3nFsfwDZLRSQ696wgO/mcHT7AgYb2dGs+2j2R3rzV260piSTLdNUmbT1FGoLd7Fr3iDiXz7k5vU7ZJatTbt2bahfuyblv3PARMGmyj2g4nBoCEn1+6HSp/kXvnvGYz5/j7WhRofhRB7cQ+c/vqEASSSkv4pFf9QMlFdsY/zAFlK9y58K5aRxNNSftzV7odG/3RfXXtm9kAFa1oj+HMLFk/to+fFQAXHCDUbJyhNw4Qllqv7BTLstzB49lNoVS/H8UhiqugtQXrIFK938EVHfMk4iziRmjx+vanVh5KA8gm7uRRIR1yLXIK9sQUazYUTfCifX2sTnFxnbpxfBT2uwNiKKmUPzX5ebgzXaSQ+5WXvoZWhDtOucovEpUDp3q/HV/Y70VplDvb/1CN67g065EXJATvxDZukMYuNR2HXjDKNaFBwvSbhzyIOeiuOoJ7OQC6ErfizViETEjSgnhgw3p0QnFcJDvej0jcT5goD1Q03/ay8+5DqTUabrEfVfzp09c6n9hYCVgP3IISwIvIye9V62zVOW7uP0k8z+LwWsbw06wx0moTtvG6XbanM62pNm+bJM/qSHL9wAspPjORbizpyFq3lRYwjeOx0Y2LZesUOFi2Ox29IJxDbSw9Zw6PsVudD/SsDSGUFMUiXi0sogO0KVzi0qc26vN4GnX2O6xpUpwzpQ5gcnKd/l8zYa+QGjOPSyPLu8nNjvvoPOapNR6t2c+8fcsbT2oKnKPLbZTKFYh2l814DvF3h7L4ZRGrMxcw9mRJf6RR7MfP8OhZUQczVsIzpjLbgWlw4ly1D/z3a0qFGC1Mq92eRiRe8/f73vJt4+jpaKIhF367PzeDi6BQSz3JMj5+gMwGH/HfpPceHYpsLDiovLQhoB61ywDRq680joMJk7Eeup/8XpTolsnaGDieMB1OZ747NydLH65P9zAta3R3Ec95iHjok92S1GEH7Yj85FSVabp+7iCVgSMpNeE+G/mflWjqQ2VsLHcw098q2wFsNriiRgZbJh1hRedBrDsnFD3ucL2v4fCVg2k8dwNKkiKUmlUNDQoF2DchwJ2kH4lRzMHbcwflCrr54AJy0haQSstJt7kR1hwLX0RjhttSdiyw56605GoVs9rh/wxNLej476C9i+fEK+XEfS2vBPuR8RsBIencVk1CSUHfei07vABLGohkgdgfV+ZsOdY+7o6U7j7LMUKFmauk1b82e9isSLmuHsvp4BbRr8mLgnhYCV+vQaxqoD8b5UEZdDkUwalH9btyg9gTVG/ZjnfYOeY1Zz2sOiGFTyX5IWdwcz5T64ns3GZMNunKYOe/8tvH3CDbXh43nYUIXrx3bR7It0GamErJvBKHNX+hg5EbnZtPiRlR9Nyo6/i4WBIuv238PQfi+bZysWmufrZwhY34SX+oB5Y0Zis+8Wmgu88Vqs8v2IRYmYaxGOqI+aRVytARw8f5ie1X9CmKMojkU68qwIus3w6evYbWtExXxhX/88iYTcU+4uHQphwfxFnIqrzWY/HzT7tPhpi4WZyfcwHtwbjytipth6sGmG8hcYj7gvxOVyXdztzShXEq78gID1rTbKSHjEAtUerItJZ4KtN67mKnnGcalEuc9npc9TcpLf0FVOiwGd63P3xH48g88hN80G2ymKlP1Ji6g5iU9YPlGeZf430V6+m52WGh98N/U+xmrKbDsZh6G1D1XPOVCiiw6G6n1IvBGF5QJr0lqq47drLQ1/fC3jA6705yybqMkS38vITd/BHjttKn7DDbOTX+A8W4vbfexYP75v/ojCH+1hxO9YNVaBBd6x9B+7krAtM6j8yXclPI/dzxiNMRy69w5KlKRmg+a0aVGPF28q4OTlinyXpj9tviLKSmLjuL+ZsesOMpNsiHCZ8d5fMuOfYDmyF/ZHsrAOimS+av7oNHFWKrvnDWL0uvO0VJzJrf1ri0Ul90TX5LgnBLmsZKmDL7VlzNi1cR4t8yyepzy7wXiFbgTd/wO/a6fQaFbwvFoJD4740m24LpXb6xB9zptiLXVLxGS8e06g22qWrPakel8jgt2t+aPat4McBAGrWE3/71y032Eq+rOdQdaauwGzqfXF6VuJOI0ezGzfS2gs8sPDSkuK8OCfZ/vvKGClPzuDmoIqx+Pqs9Z7N0ZDWvxr+ZZyPxrbNzlx4VECSa+ecuHiHbqojGO2mRHd/6xfrIlskVtLIuJ8oDUup6phtWQKDT6Gp/03AtY77HVVufiHFqsXGdG4+sc49JwUvJZNYPKaaBZ77WW6Sg+KcMhUkZGIbvnRS34Ssa+yaNdVBdtNNgzr0uRTe9w6uAmN8Yupq2yF7zpj6lb8WV9uKU3NicfRzICwyjr4WI2m2q+E8VWTxFw76IruuFnEvkh9X6JkmQr0UhrPksVzkOvaTOoEvVI+8ZfFshPwXGiA0dpIzLZEsXrC3/nel7gbISjJ6nD2eTo9DdZxxn1GsW9V2IXSCFjHfa0Yqb+UlJ4m3D2whnpfCFhJuM8ejfH6UORnbMN3zYRiHdP9vyRgZcZdQ1dRgbD7FbHa6sss9c6UKmYOvKIKWKmv7+Lh7MTlZ2kkvHrEpZvP+VvVgFmmE+nYRKokLIX7mZQCVm6UwMmdq/C635AlcydQr+KH1c3/SsCyNdXnZktDVphp06DKh/04uSc0bppjwDzfO6zxCsFwWPG33UsjYL2IdkdOexJ3EivSQXYUDvYr6N/q85bqM/62jJtmQ5txdrguMfilObC+2sCiJLZbTsb1SXtCt86jepFOFP26y0gbgfXhajG3j3kzfpwpJx4kvv9LidLl6TBYm2UrLFHq3bJYW3A/WSaFgEVOCnvsTRmdm5h5TSibpg/N1ye/e3QMlX7DiH6WSeeRS7nkv+TH+mRRGge2LGSkqeP7U2h9Ni+hZe0PY4arR1xQkZ/Cy1bqXD+6k2ZfRPykEeo4E82ZW+iqa8NBz7lFOl3uKx8korYtYpTJWuoOMSHQcyXtvpFj9lcLWMfcFqA3bS1VehsQ6OtEWykWALLfPcRUcxjuZ9OZbu+FrXHxooHzssndUns5aA1qRlZU6DwaX//NdKrz5XhJlBZPlK8TQaefkZIQx7WLV6nWQ4l5s6cztHuLHxYXc22SZKdyxG0pI0wcaKc0E98dK2lRPW/eMBHPruzF0vE0ZisX0eVjJMcvEbBE6RzxXMEIw1U0HTaN3e6raJsvij6NQx6WrNxbjnXr5tHpn+1b4kwOuy1C08SVkSvcWWM2gq8e8lukNyuH497WqBkup3LPcYTsXk/Huh9C88SvL6GprEzIpTiad5Nn4YpVGMi2/zS+e3klFEPdcTxqqE3QTltafTOyTjqjcvOSaRkup3RHLfYEudKh7rcyfedwxteG0StPEn7Yn5Y/4f7/WJkbaXQ7wgUl3TlIWqnhG+xBj3oFfVfC00uhGOuNI+z6mw/9bqkyNO+pwtKVS9GW6fBz5tjibG5HuzNUeSol2qiwy287/Vp8jPAVZRDjtQSFiWsZNt8HfyvNfOPvtNdX0Onbm73302k6ZCoPD22UriHylEp8fAE7u63EZWTw+v5Nrj5JR9VoOqYTRtOs9udoysRHF9GX6UnY62YEXTnJiGZfph14FO1H12E6lG+mRkRsIO2LOH1KfnUNZ7uN3E3KIv7pLS7fT0JBzxRzs/E0rfrtLfuCgFXkpv/3Lgh1mIperoAlt4q7u2cVImANYbbvRUYu9sd96cgfG9QU8dF+NwErNe4mM7XVCHlUhWXOOzAc1uHXT7y/wSzpyVnGqKgR+bwK1ls9mKLcizynQheRtnTF4+8eYsJcX+atXU2fPCf8/DcCFuSkplKiQgVKlcy/5BJ3LRKlYYpcr6pKROgW+jb/wcnkt/Dc8KGrwmQuPc1hrNNeNhgPId9J2znPmaOqgH3oPRz2n8dUse2/IzZ+tPn2gU2MnLGJee4H0end4F+9N9lJHHC3Y8mGCAZNtEC/Zxk229qwa/8pEjJyKF2lCZaO7swzGPx+9fJX/jIT72CurUlEYmucd2xiSNsPqz3vnl5m7fJVHL9wiZhzt+hpvImYzXmSPv4ko6QRsE74WDFyzFKSe5py94D9VwSsZNxn67wXsBRmbsfPfnyxIkj+VwSstLd3WGU6js0nUpht58zsUX//0OSlqAJWQdd4dSMSQx09TrxrxsrNmzFW6FL8b4RUApaYR2cCmb02hqXrV9Ch/udE1/+JgIWY9PRMypUrR8kCffL9U96oyekT38WQfb7r6dKgeOeOSiNgvTzmhpzOZK4lVGHKGn/WTRlM2TypWMSJNzAbrYXzoUQ2hR3BeMifxXrLixuB9fSMP6MmLEV55R7mqbb6KX2y1AJWTipH/ByxtA+i6+gZTJGrh6udNV7BMcSlZlGqYn1Mlm9itZk6xdbVpBGwcqMBEu+zepIenrdqYOe6GfXuH/KsJr24jus6OyLPX+bwoYt00LPmrNf8YrXRh4tyOLdnA4YmK6k00JhtjgtoV+ez/1074oyK/FRetNLg+lGvQgSsWWjO3Ew3fVsi3OdQ3E34ktxtLBFbMJhiRZnOuni6raXld3aP/ioBSyLK5sk5X9RGzqJMt1G4uNjT9Y/vH/WVmfSUzYumYOV3C2MrJ6yM5X984i3J4cG5ENRVxkEXbZyd7ejbTLpTBNLibrNqqh5rDz5hgtVGVk/TLPZhCB+UmCzO7t+C3vgF1JOfhsvaBbSvl7+/Sn4eywKzxcjMc/rkt7mX/nwBK4fY8G1MMFoIPQzY7rKMTvW+PNBAlJWFpFQpSpfKn/wr+flVZij1wetFS7yC96LVu/i5jHN99160FwaGFmS21mCn9yba5s3x/eoiakrKBF94S1cNSyK8LamVdzefKBH3pcaMt97HWLu9bJ0lU+zvda5g9DI2BDXVSWS1U8XF1Ynejb59+E7662uYjh7Fi87zCbTX/36UobQ9jiSHp1ciUFfUJq21Kps2OzKoVYE5hyiTswe2M2/xFhopTWaBbhe81i5nm28UL5IyKFmuGnrm69lkNY7KUuVvK8w4MY8uhmKsNZb7DeRx3rwO2Xb5t+Zlp71k8wwDbA4ls3yHJ+MGfNjGm/b2Id7OtoRdusqBgGgaKJhxJ2y9tBQKKZfDvROBaKga8KreYLbtdEWpc246ecgVusbI9iL0WTOCrhUmYPnTdZg25VuocfBSIB2KKGDlN0rMo7OB6OkYca1EB3b4eKPWo/CTMAUB6web/ldefmTrbLRM15LdZzG39y+k7hdbCN+xZuRg5gdeRtcmlO1zhv+UgZa0z/RbCVipdzEbqYTX4/ZEhrvRtdGP5auQlsH3yqVGr6TdiOW8qd6d/WF7Gdyu5i/bHiZKvMvMscYMWrwT9W758zn8VwJWoV34m+toKQ8j8PRblu4+yRLNn5+U+9O9n4cxZJABR1+XxyP0JHr9CuZEE7F16lCMnY+ivmAbrssnUPMXizV5udgZD2BddGXCToTR+RfqeF+0hSSLgzaTGLv5FhsC/NHs9jlB4+PzAairGnLhWSLlG3Vn155QVLvX/WW++9m2ZFwXGzHPIYL2A2WpI3rGpcdlsNu+gWsbJrLU8wyaK/fgu0DKxJXfe0Hz/F8aAevCHjvU9eYS39aIm4ecaFit4GQiEdcZOkx1PIDqIl98rEYVSyD5nxCw0p+yaII6DqcrcyAqkL9/gkj9owJWbmTL/SBr+hosRdxgIP5h+xn8z/FMRfCV90WlELAyXl5nztS5DFruycj2+V/u/0bAKvwhk+6fY4LqQAJu1MLpYDimMn8Vlcj78tIIWEkX/ZBVN+RaZgOcQ89j0LXghO8NtsY6WLgeRXvhTjyWjyrWBLy4ApbHQlXm+iXhFX0Y2UISdxcVjlQCliSL0+6L0Vx8gOWeAYwf9Fm4exYbyrhR44i6FUeZ2q1x2BXJJNnGxeuTpRSwPjxjGj62psy03k3jXnI0q5jIpdupmK/dSJmIORivPYyCxQ72rh5bVCQfyktyuBu1GcUxy+k51YGdi7S/qOfOCQ/UFMbyoL4ysSd8aPlFDqwPWwi1zV3p9f9PrIvaNLWYE28xz077MFBxGt1N1+FpZSDVAsSvErAexLgzdJgh3Wa6s3WZHjWkmThnvcHRXJf5u+PYHRnO8L8KbvspXjM9OeeDhqohtTTs2Wk3iVpFPHUh68EhevRX5WZ6LVa4HWaOSvPi+S5wK2ojqvqL6T5pI9sXaVOuwNY7ccYbti0340GnBazQbp9vXvRTBSyJiMendjJ8pDltxtgQuHp8keGKk5/jNEuZGa5XMLAPxF3apNxf3EnM69hQBsqMoeUEG/xtjb+M/k66yVglJTzOv0Pb+gDeM3oWmDOKObx5HjKT7Wk3xJQDEY40kcbnvvLUz876M2SwDi2NtuC51pBaUtRzLXAJshN3YOJ3HsuhP++QkVdXQ9BU1KGEzDICnWdSp6Dyn9sHHd6CnJ4dU5z3Mletw6cnenPvBCajRuF/4Rklq9Rn3tZjLNduVWzffXM7Em3l0SR0MeGo5yKqlCsMTCYHti3AeLYz1brI0aGOiAuXHjFmuSsDXtoybGYQPcav4vj2H9+6jSidY9tnojhpM7X7GhB93J1cGTX1+U0mDO9OwO16+F0/hUbzL/uSe0d20SN3C2EnfY6d9qR5kd+AghdkEem+ALlxa2jQRYPwowF0KGQ6LwhYPwz711Vwf78jMvqzedfMhNhjq2lSpcBkSfyaJfIyWEfeZIHPBay0fyCpZzEe43cRsDKenWWszmRK9ZvMOsux1K1U9v1JahlpCVC6MuXL/pAk/B0yEt49vMPrktVo0aTel4MmUSyyrQcTdT+d0Q6huJkM/mn73AsaFrDaAAufZ8gN6PDFB/3BhXBCjj+gt4IaPVvVp2qd5kyZbkajj4fHFKP5v3NJGkHrLXE6nIytkz09mhQ46jXhNuNU5PGIecTEdeFsniH38034p8acO4ztPwyvm2J8D5xiZJ8vk+nvMJNhguNhZEyd2GlnSv3vL3L+HHvfHGVIH02eN9MjJsKBOj9+IIzUdqW8voh63wE0GOfG5oUjC6x2SchOjWOb1VTmOuxDdpEP3vNUKf/VXBdS31K6ghIxKYlviXv7DnGp8tSpV48KWfGYjfwb5xOlcQwOYpqsdMf1SnfDD6WkEbCeHfdFaaQBd6tpcumUKy2rF1jnF7/BwWgU5juOMn3rsfc5Yorz+78uYGW+vsqM8ZOI+1OTNUsn06RGxfd9cmZ6IjlUoFIFqY7x+QKdVAKWJIfXT26TXKIOzRvX+WJRR/I8il49NTn3ugzmLv5Yjx9MEXPWfrDruwJWNp4LxrI6Kp4hvdt8kbPo2vEQoi694O/hWvRoUZMajbpiPH0s38pvW5gvxT8MQ66bJomd9PAP2ErXWl8pmRWPu/0ivGPLsn7Dl1uiUp/GYqw1FO9TKcz1isZGr0dxXFcqAUvy+iQq8loceVWFzeGX0O2Y92ix3Nu+wWGqDjNcjqDw/7eU+ThORbrDwvObXCwBK+E8mkNVuVRRniPR22j8k/pkaQSslNdXmDCgF1kqLnivHsvH3aYfH0pCTvo7fOxnMmOlNz2mOBFga0yl4pyoWyQBK1dkEpOWnMDrNwnklChD7br1qUwaK8f0YmloOsu8Alkk5cl/+VpIlEak12pmrT/GnHUb0BrQ4UM6AXEOSSnpVKxa5f2Y6s21w4xSUeJk9t+cOhdE57oFBi6SRPxWTGXM4l2MWhWM57ziLHBkEu1px2Tr/Zg7bkVn8F9UeN8xiEhKTKFi5WqULmSu+fMFLDGndttgtjoMQ+uNGMi0p3zpkkjEYpKTk6hYuSqlS325ypb97hFLphpyoXRfHO3m0rJulfcnqWVnJpOWXYZqlYs+sMk9Le7y/k1Ms/JlhMUapmn0okKpEuRG2KQkJ1Kxcg1KvbdFQnr8K+7HZdKyTdMvhT/xC8b37o3buRcMnLCS/c5zqJw37FKK3kack8GJncuZ6XQK09WOjJZp/35Xg1iURUpqGlWrfogIOx+4Gu25PgyWH0jlAp37mzun2Bl2jqbdhqHUvzWVq9RFY8oCeuc/gPT71ogzOB6wnqnL9mC61hl9ma4fIiLf+24aFatW/TgfyOK4/wYWbY3BfJ0Liu0LiABpL3Gdp4mx0wlkpm8l0sHo+/f+okQWZ3ZvYIKlF6ZrtmMwrBMVP/pucmIK5SvnHlKUa1sci3WUWbH/HmPtotgxNf8Jd7nVRrvOZ+BEG5r3NSA03I22RZ4jiLm034HJi/zQXbaJifKdqFCm1HvfzfWX8pWqUab0V1aIRYms0lPANkaM15nTKBW1Pb5CLTfP0+2o7Uycu5Whs9YwR6ff+3xtuT6dmpJA+Uo1379HGUkPsBjckTMdl3Fw26wC2zgliLJSObhtCYazHWg0Yh6RnsupWkTfzRXqH57zw2CSPUNn2TNbR+bDThCJiNTkVMpWrfrlDqrc3FCpSbyKe0O2uBQ169anWlkxXtP6Ms7tKabrfd7nCZTmlxvN+eLuNXJqt6HJF1szJTw+EcjA4aN4Uaoxlh7HWaTcENG7x8zVl2F9RDo7Tp/DoEvBuZOI6wdd6TtiMo2VrTgXsBipehhRNq8f3SW1SmOa1/kyWvH5iV006aeLpFIDbDzDMVf/LCjmfVZBwJKm5f+jMtlPIhk6RIezaf04fcWbTrUKhPSn3GOczFA8r1TF98xBRnb8SUuFUj7v7yBgvbwezrTpK+ioZ8lMPTmqfNqjl8LmafrU0XVEre/nfEdSPprUxd49OsrQ3sO5nNGc7RFhGPQsGO54C4V2/Qi/mYji8hAC5ylQ7heJADdO7uPo5adftf2Ilx2+p16gMH4aSt2bU6VafZRV1ahV3Dj77xF6cxJNWS2CriVg63cCc/X8H8rs11fQVmhDAjAAACAASURBVJYj6GwSlt4xLB/d7Xs1/sD/RWwyGcb0HddYG3yEqXIF87tkscVYlklbo9Fa7M6WxQZUl2K16AcM+jQheRiynIEGy6mjvIqTXubFijIorh1xdwPo21GP8d5nWahe4ISUj5XmPI9BZZgOGYqr2L9SnwrFmSxJaWBufo241wlUqVWTCmXy731PeHSUEf2VeN3OgCCvdbSvW3DCK+VNvlFMGgEr59VZRiprEPbwT45d3Uvvf44P/6fe1AfM11fHNiwd10MHGP938daj/i8LWG/vn2DWdAvqDJ3Ggima1PyU0y0NL6uZvOo4nZka+VfFpW09aQSsFxd8GSpnwMPy3fHZ74dKlw/h8J9+CTH07TiCU88lTFrvg4OpQvG2x35XwMrhytH9HL/x4iuPl8LerQ6EXU1AdcIc5DvXo3LNFgxXH0atYqy3SCNgpd+PRlNdnfAbIpwiY5k6MP9WlXf3zjBeZRB7btVkzb6DzFIonkgsTQQWJLBMV4GV4XHY+sYwXbZB/hVt8WtsDbWx8IhBd9Euti8dKVUkTEHQRRewJDw/thVZrWmU7jeX04HLi5XD7mv+LI2AFXcvjIFtR6C8/SR2Y3p+9bUQxV1kgqY2d9tM5MCG2VQpzt5uKQWs3D45IS6ecjVqUals/j455dVFNHv241pdRQL2eNG7kVRTl0/PJMlKYt82Oxz3PWKBnT2D/qr7UWyWEH/1IAs3xLBo43IalAJRwi1MRquy7VR59l0+hHzTz8euv68w4yXOc3WZ5nKb1UGhmCsVcTFXlEb4Nlsc9z1g2srVyHX841PkbPaTw0y0OoDFOhvaFTKZ/5kCljgnjWNu1tgGP2LK0lWM6P65/0p6HsPk6W5YbnL+cAphnl/i8yssmTmN9LZ6WM0dT/1K/7RXJqHOVhwoNYr1xl2KtEtDnJ3O6eC1WLlexGipDSP7fI4ITHhyjllTVrDYzZvmtSuS8jqW8X37EvSiGpY7gliq3buA/8YxaVBPthx7Qo/Ri4jasYSq5aRXh3MTwod7rmTlridYOdkjm+dU75c3IrBcvZ9N7uvfj6Ge3zhOyNErX31/Yg+44RxygXayY5ik0ZPKFaszQEmH1l8T/Qv5MElyT2n0Ws/qXbHMsXNgWOd/djxISLp7EotVQSzYYkfj3HFk6mMsx6myMvAao21C8TaXzVerKOkZ68zkmeN2G13r3eycryLt5/BDOVHG/2PvPMCsqN3vf+i9CtIVwYqACAoWpEhv0qsiSFOKSlGkI1gAEQFBBOkdESkiXarSBcWKyldApUuXtmz5/8/wu7AsW+7d3L17d3LyPDwL7GQm7+fNZJKTNwk2zB6F9+btwYtvDUftUvmv1132V9q9NgPdxo7BQ84MQDhWvN8Oz/T5HNVfn43P36kdpc8ZinUf9USlLqPwYLVuWLV0hE+buYeHXcb2eSMweNYPaDtgGBo9fmNL7wvHd+HFNsPw+sRZ0Z5CePXoLtSvUhM7rpTE6l9XoIRhHzw89Ar2rByHN0atR+uBw9HiqRuHUJw/9hN6tuqK7jOW4J7bM+Dc0a2odEdZPDB8NWa8Win6dvfcAbzRsi5WhpfHN5+NQlYfIhC5D+YPX81Cx77T0WHoeDxfucj19/DS8T8w+PXBaD15Ju77v1eWAtu5f08geebbkCntze/55TP78ELpElgVVgrzVi9H1cLeLPUPw3eLRuLJBq8jS/FnsHDZZ3g8f+RJxAgc3vkFylZrgL9Cc+G1sV9h6PNFgNCzmNyvJdqP2IiBS7/HwOpR+rMRl7Fl4duo3HQ46g6eg7l9GnpVd39dNgrl63fDlTvKYdnqpSjr2f/r/3If3zUf+R9piqtpcuLNKUsxsEXUtuTahRKwvMKdWBddxLj21dB11j7M3/Y96j6U66ZO3rl9G1G5Ui2cKdMPXG6YN0s8er4GpiWugBWOv3YsQpsu76PJmx+h7qM3jh2OiIjA1WO70K3LULw8dQXK3hX7umsDBDi+dyEeL9kER9Ldj3HLvkTrx24+g+Hq/s9Q6rE2+PnS7Ri1bDk6lb3P6ISn+Jb1w3ZP4NWZe9F3xkoMaFo64YWSsH/Qs0Ez/JqvOcYPa498mW6OuDi0awlq1miE/dlrYuWqyXjizhsb+MbXxtjy/bxmHJ5p/DoeemM2pvaoiyyRZk8iLv+FrnVr4MO1BzF+2W68WO3ehCjCrfeMuIwF77yAtoPmoWTbiVg/Pj4zb/Ev6tkj36B6ycoo1u0zjH2tTrT7s4We2I6Gtbug2Ktj8Gbzx/x7IsxNRY/Az/P64clWQ1Gr10xMGdTi+oA1IjwEq4e/hMZvrcDAWSvQo17CLDf1RsACLmPaa03w4pjN+GTDHjz/+M3LUc/v34Ln6tXGnrxt8dX0t3B3rBuWxuy7YBOw6tbrgAsV+mPHjL64PcZdZsNx6LsV6N79HZTqNBLPVyh8vb6wTQ499Sve7jMU5fp/iqYlfJ7WdWB5I2D9tXYUStd8DRdyPYaZS+ag3sORJxUicHrbJyhZ81UcSnkPJiz4Eq3K3enToO661+IUsGJ7N09icJMqGPTlQbw9awt6N7j5hDdf32pvBCyc3ovOz7fFkSJtMXFQS9wWpWO8d+MnqF39RVws2Ror/v8GzA/lv3Vm1JtyeSdgAbvmD0LtF0ahYv/JmNSzPtJHOo027NQveLlZI0zadgUfLduA9k/Fb18YnwWsiBCsnfwamnUeg3uaDseWGa95Y7JX13gjYJ09sgONSz2BrG1mYcbgZtHuARN2+ie82Lw90lQfiJGvVI/fvppeCVgR2PvlSJRr8gbKvPiRc8CJZ76Lwtb26YNQudPH6PzRIgxrU84rBp6LwkP+w8yhnTHn56wY8X5/5I7URQsPu4pdX36IGb/cgZkjOl6PYvliWGc07jcfg7/4Fj1r3LyE5+KRn/F688r4/GIFrPh8Mh4u4P3MXNjlM1gytifGbUuJIUP6465sN/rRjFr4dcXHGPttZkwY+xpiWuHvLwEr9MpprJnyNgYsvYRRI3rjvpw3wIRzE+p10/HW8iuYPnEAcl+fw4nAid83Y0D3nshY+210a1A8Up2IQOjZv/DxOwOQ86UF6FLa+75wWMh/2DBzCLpPPYixE97FA9ePs49womn+/Hoaekw6jEULRiJnhuQ48/dm1LivLHanKIDeE+bhzRZP3FQnwk79gOqlK2HtP+Fo/95MjHm55k373sVcgSIQeuUcFo/uhdHfpMbUT/rjxl7tEQgPC8cPX4zAuF15sXB83Ie7fPHu86g7YAGqdp2Gz99v4vNm/+FXL+Lz0d3w8TfhGDl6CPJF0g9Yd39ZPxljNqbDpx/3uFZ3w89iQu8XMeb7XFg4ZyjujRL9cubATnSo9hS+OH0fZixbjCaPej/pFX7lHFZPHoChK87h3fffxr2RNrSKCAvF/76Zg3eXncfUKQPh0eeO/LICjSo3xJniHbB+0Qe4Pd2NaKiIq6cxuX8bdBixGu0+WI5PXvZ+43+eqrdp7vvoNu0gRo19C0Wv1xeAdffAls/x2rT9mDvvfeS7ReuOwNHdS1C1RiOcyNsA27+bj5h3Poq7qaGPts7/AC+O3IUxU0ahWKT9HCkO/bPjU3QcuhOLV05H7ozJcfHMXrR7uDgOVRmFFR93ihL5eu154Rf+Rt92z+L3fO0x+72WXu/PRSFt2+LR6D5qA0bOmIF7Ii2HCw8Pw6Gfl6HvqB1YsmT8/0VgReDvrfPxeNWWyPfMIHw1uzc8vSWW/dcVn+Cxhj3R6O25mPLaraduRk/nKtZP7I+nO7yHAiVrY/aiBXjqjkhjsogQ7P5iGKo0HoBkBSpg5sb1qPF/uvnvaz9G6eovo/wbi/D523VuWmXEw18+HdwEbSYewZQvV6B5mTvjdg6AHdN64fE2w5H13qew5ItFKHtvpJY1IgzfLxmBh+u/gUwFHsHcFWtR68Ho1xBKwPIKd+JddPznVaj0dEPc1XYMZgxshayRZtuWDn8Wzfuvw+T1O9D4sQJOqHDgUijeaVoK/Rb9iRGLv8bLNUsEdAP5P78aiyZt+mHPsavIlDFtlPXIEQgNuYK0uSvh6+8W4t6bduz2L6HQC0fRsU55pK/5PoZ0rYX0kUNjr57F6PbV0XvWNpRuPQILxnXFbamTx3vtdPxLHorhLR9Hz3m/ofvUJXjnuYrehXnG/4FOOPnPKz/Ei6P/xOSZQ3FfpJMtEHYKIzo2Rq+pu/Dupxvwar2HkDqBK2/41dMY3f4ZvL40DCu3LkXlSNNte5Z+gPqtBuKOVqOx8N3nkT1d7CdfGGGJnDnsPMZ1bYIeH63Eky9PxVejW/vt1t7cKCL0Amb0bI4+X/yLD+d/ioYlbx0kznm7JSZ8dzumTR+GghlTJmDdjcDmMR1Qpfs0NOw3F5MHNrousv62biLqteyNMi9PwOju9ZElgU5C+G3RAJRp8S6K1h+AT6cOQL4YgrxO7F2P5rXrI6LqQMwa/jLyXJ/pBlZ91Aktei3B24u+RodKheItVv+44n1UrP06ctXriyWTBuPubN5syhaKCS/XwEuf7MCroxfivZcq+UWo3rNiNOo16opzpbvhp0VDkSdrdMv/InBo53y0eLYzNh+4gMyZ0t/SJoddDUG63E9iyfalKJ0tPksII3Dgq0mo0bwjzt3dCrs2TkDuKFEhrPeX/v0dLzesixytP8LgVhVvalvCLhzBB52eQd+Zu1Gp42jMH90ZmeIZEXthzxyUrNYeEYUbY+lX03Cf92NDAEfRo241jFz9NwZO2Yj+zYvFT0T7vxf9358X4KmyLfHf/XXx2eez8RjDVm5J4c7ym94LrmL2zAHIH3lPzYuH0L9NQ7y3/ARGL12N9uUKx7vu/rZ+HMpX6YxMlbtgyazRKJIj+rob9t9BDHyhEUZ8dzu+2TgXpfLd6KRunj0QTTqPQtlu4/FJ76bxfud/3TAJ9eq0x/EirfHD8vEoENfpbeEX8dnQtmjTbx5KtPkAX0/q5k1T6sU1ETi0ZT5qNXwOR/I0wq6tM5E/za3fmYjQi/hyRCe8NG4P3pk5H63L3XPLvZeN6Yh3vriESZ9NwgNZ49cmX/xlIcpUa4XzOWti6Tefoli0ek8Eds4cgErthqBil8mYN6LV9Wi0/VvnoGmLV5C70XuY8lYr5PDh5NzQCycxrf+z6PbRWoSlyeAsL4qcuOznysXLaDF0ASZ2rXX9V2f/+had61bHL3e1xWfT3kHhSCdUbZ83EHXajsOLU9ZhYJNiXk+0hF86iTlDOuPFoZ8hIk0mpEsd5b0JD8flS/+hfp/PMHNAvRi+f+FYMKglGr+9GPXfmIrZbzeJX9Re6DnMHNQZLw2bi4g0GW8pi8MlBKjaaTzmDGuKdE5/PwL//r4ObZq0xPKfTyJz5oy3tLvhoVeRIvODWPjLNpTzet7gCua/1R4vvTMXl1KmR/oodZVlCbkcgTItB2PJuFecTa3DLp/C5DfqYEXos5j8wYvIHnlvn9CL+GZ6L9TuOBa3l22PFV98hEJe9ifCw85jUvfGeG38WoRGV1/Cw3HlcnI0HfQJpvSMKwIkHJ8NbIEmby9GxZdGY9FHL/q0NJlLeBe+2wrt3luO0NTpkS7K98fx0aXLqNt/Jub0afR/dTcC/+xejNYdPsI7ixahTIFITgi/gM+GdUHLgQvQ/J2F+Kh7ZaSPsp9XTI1L+JUzWDKqG1r2n4Gw1Blv8RGX/V65dAGVXpmBxcOaXa8XEWEXsWj4y2g8eA2mrN+CVmVuRPgd3rMYTZ95Hifua4WV80egYLTf+mhKFHoBC4Z3Q+s3pyAsdQakj4ZLSEg4Sj83Cl9+/ALS3zJWDcO+TRNQvVZnXCnyLLZvn4X4ryAMwdIRXfBCv6n4L0V6ZIjazkZEIORyGIrU7ok1c/sicwqu4ruCb+cPRoPu89BtwkJ0f+bWpZXb5/dD5xE/4ONlC/BIjtRe9YUpOG2c2A0tekzAyfA0yJju5iATJ9jiymWUaNYXX0/ue72+/LZqMh6r9xLub/w+vprRFR6N9PgvK9Gs/nO48OhrWPTJa8ib3vuxysk/1qF2lVZoN32Ds7di5K/ypVP/Q88aZTD2u6t4acQcjH251o0I1P+OYXKP2ui/PjPmLl+MynffqL9Hvl+MGhWaI0fLSVg4qgUye1l3Tx/cjI5126Ds6FXoWK7gTX2NK6f/waAWFTBk1SE8N3Q+prxWJ8YtHv5Y+QGK1OiJOx97ERs3foR88elWevH1DvQlySJYM9yQIkLxv+2L0aVTf1wqXA4t6tXCXRn+w7KF07Hih6vo9s5otKn+IFJHsx7e7+b/tw+9u3TH1gOXcPXCcRw6cgJXwiKQJn1W5MmfE4wGLt56BIY99ygSVgP4BZUKlcO6/SdjNbFgtb74/stByBLTxgV+ARSBi0d/wYfDhmLVj6dR5NFHUOyeArh65ii2rl2GpdsOo2WPt9Cnc2Pkv2XDZ78UIMabHP5tBbq0fxuHz1/A4SPHcCUiDCnTZUG+3NmQ597yGDN+OO7wfqLS58JGhF7Cji/H492PlyHH/Y+i5IOFEHH6b6xeuhT7wwvg9TeHoGmlB5AmEHWXA9vT+/FR3y6Ytf0CKtergyL5MmHfro1Y+tUPeLpDfwzs1BDZ432sk894gLD/MKF7U3QbswLV+n2GRYPj6nzF4xlxZbl8Cgsnv4+hE5ci+z2l8eSjxZA7cyocPfgHduzYhTxlGuD1ru1wT9Q9R+K6bzx+f/Ho93ipVSecz/0oKpQthszJr+DbDcux9Y9LaPnqm2jb8ElkjjrAiMdzbmS5hK/GD8bwT3fgcthlnDj8D05fCEGylGlwe648yJYpLVIVLIdxQ97A3bkjvSjOiTZr8cpLr+FIthJ4rkl93Js9DGuWzMSyb8+iTZ9h6NKwtM/1etu0Qeg1fT1ShIXg6NEjOHX+MpAiJXLkyo/smdIhIksJTJg4CA9E9sXFgxja6w2s/OEkQi+exJGjx3DxajhSp8mEPAVyOXuWPfBMDwzrVBeZfVh1uW3uO+j58WokSx6GE4eP4PT5iwBSIUeefMiZKQ1SZy+CYVNG4KFs11Sbq5d/xXOPVcX8GJYwe5jfVfFlbF/5AXJGIzzF5Mrti0Zg4MgvcBnAyaN/4SS5JE+JHLnzInvWtMiY4z70H/UJylzfniEcZ/7+ASPeegff/BWChx4tg6IF8+Li8f9h41dfYsPPZ9Gu9/vo9kIt5PYFCsLx3bLxGPzBZzgdGoZTxw7h5NmLiEiREtly5EHOrBmQMuf9eOvdoXj8nuh3bDr0/UK06fw+Tl7+D0ePHEdIaATSps+OPDmz4c5H6uDDj3vD240ADqyejC7vz8ClK2H49/hRnDhzARHJUyBLjtzIlT0rItLdgbc+GILy99844SjsyllsWfQx3p20FvmLlsFDRe5A6L/7sXzpFziZoTh6Dn4LDR8rfMt+XXG9Zrvnf4AeHy9B8rBQHDt2BCfPXXJ8lD1XPuTIkh4RGe/H2AlDUDzvzVzOH/4ZYwZ0x7w9yVGzXhXcd3s6/L57I5Zu3IeaHfug74sNkMXHTunuRSPQ9YMvkCxlOE4eZlkuAEiJ7LnzIVfmtEiV5R68NXU0Ske3fj7sEj4f1g4v9J+LJ16ZgJUj28dleqy/37NyLHq/Ox+XkiXHqWN/48TZizyXHdlz5cVt2dMhQ7a78PrIaagYee4g5ByWzxyNd8d9hrR3lETZMsWRN1tanPjrf9i9axcyFqmGHt1eRPECUZbRxVqScPyyYQYGvD0d/4aG4/TxQ/j39AWEJ0+BrDnyIFe2jEiRvRD6DH4flYremA2/cOxn9Hu5E/5I+SAqlnsYt6W6ih+2rsPGH4+jTrve6Naqmo/iYhi++qgHanUZjZDYypsiD95b+CVefybS1gIRYTjxvx3o2akLfrhaEC1aNEGJfGmwaeWnWLjhT9R9+W30eaHSzZOIcXhv05Q3ULvDezgfFtuFGdB3/la83TjSMvvLxzBxaB/MXHcAXAp59MgR/BcShpSp0yNP/jzIkCYFCpRpgpEDOuOW7WZieNTOef1R6/l3cOJqzEOXFOmyofP4tRj1/MPOADo05CBeqVQFH3/zR6yW5i7VFD99O+96FE7sWK7ihxWjUathL/xzKRYwaXPghXc+xSfXT6qLQMi5I5g5eghmr/8NBYuXRMkidyNlyBns+vorLF69E+Va9cWg19qiaH5vd7S7hM1z3kKtVkNxNjRmLskyFsDgyYvRr0n0W1GcO7EHPZu/hB/OhOLY0cM4HxKK5KnSIm++25EzfzEMnDgFT8S5hDAMm6cNRKUX3sGV2AAmz4E3Z3+Bgc0ev35VRFgIDu7+En3eHIvQ3EXxRKkiSH/1LDat+hLf/gO0e+MddGpa1qe6u3PuIFR5/k2cDY2tMGnRdcY3GNmy1E0XhVw4hiXjB+OtKdtQulZdPP5AXhzb9z0WL/oK+Su1wwdvveK9eAXg5y+HoHLDfjgaEh5jYZKnyYSWI9dgascy0Yg/Ydj39TRUq9UeESU7YM+G8dejjnxrgEPxx5bJqFqlMw5cjKXups6Ker1nYf6btW4EXoRewsaFEzDo/cm4ensxlH/8YdyRMxNO/7Mf3+3+FmF5H8NrPV9BmbtvPjEw5vKF45+di1G2UlMcPB+Lk5JlRMuBkzFjYJPrt7py5iCG9WiLr0/ficpPlwYPL96782us2f4HyrV4DX07NfT5EAXuWXfit014s+8w/HElC8o8XgaF896G4//8gvXLv8COoxnRa8gwvNSwIjLfNEkcgUtn/saHvTpgyrbzaPjcC6hYIj9+37oa0+evwJ1VOuOjt1/C7T6IadwP7Mi+bXin3yD8ej4LHi39GO4tmA1n/vkD61cuxfZD6dD9neHo1KAcMt80OXIFmz4djX4frUIyXMG/Rw85/eRkKVIiZ272k9M6fbBPxn6Au273aUbRt2qWwFe7R8DygLpyBpvWLMPXO/fiQkQq3FO8DGpXr4CcGX0YlSQwdNtvf/rQb1j31Vr8/MffuJwiLQre8yhqPVMReTKnM5pdT+pc2alZt/JLbN+zHxEZsqFE2aqo+lhRpPerGOE9pX/2bsbylZtw4NhZ5ChUErVqVcV9eb07Dtr7p3hzZQTO/LkZUxfvQbmGzVEq6r4e3tzCT9dc+e8Edn2zCbt+3IvjZ0ORq2BxVH+mMgrlvLYJbMDSlVPY8tVafPPdzzgfmgr3laqAapUeRc70Po5iA1HgkPPYsWk11m3eg3NXk+GuoqVRq/rTyJs16X44A4EtkM84vn8P1qzbgL3/O4bwVOlxz0NlUOPpp5Arq2/79QSyzAn/LG62fAjrln2Jnb8dRIqMOVG6QjU8VeqB/9v4N+FLEPUJ+/dswMq1m/HX8UvIeU9x1K1bC4VvOWkuEOWKwPl/vsOMBZtQokYzPHmft3Ki/8sWcvEUfti8Cdt/+BVHT11BzjsexNM1KuGBAtnjHR0Xr1JePY+d69dg07c/4fSVFChUtAxqVH8KeTIlUt8z9CL2bFuPNRt24t9LYbjjvhKoWaMqCub0OrwoXhiUyXsCF07+jW/WrcW3P/2BC2HJkadgMVSqXhn3589udV849PI5Z1Ju3dafcDF5BjzwaDnULF8G2SJFcXtP2fzKU//swcrl6/DrgWNIm+tuVKtVB494LdCYPz/yHcIvHsf8WbOR8p7KaFQx+j1Z/fvE6O/G5aq/bP0GW7//Cf+c+A/Z8tyLctUq4+HCuRGgufZrBQu9hB82r8W6rd/j+H/huOP+kqhVuzIKmPZdwq/i79924auvNuN/R08gVZrsuL9kWVSv/gSyxBrQFYp/ftmBFcvX4Y8TF5Ajz72oXKc2ShY2OS0yDP/8vhtr123Cb38dQ8p0t+GBhx9D1aefxG2+CGKBqBgBfIb7BKwAwtOjREAEREAEREAEREAEREAEREAEREAEREAEEp6ABKyEZ6wniIAIiIAIiIAIiIAIiIAIiIAIiIAIiIAIGBCQgGUAT1lFQAREQAREQAREQAREQAREQAREQAREQAQSnoAErIRnrCeIgAiIgAiIgAiIgAiIgAiIgAiIgAiIgAgYEJCAZQBPWUVABERABERABERABERABERABERABERABBKegASshGesJ4iACIiACIiACIiACIiACIiACIiACIiACBgQkIBlAE9ZRUAEREAEREAEREAEREAEREAEREAEREAEEp6ABKyEZ6wniIAIiIAIiIAIiIAIiIAIiIAIiIAIiIAIGBCQgGUAT1lFQAREQAREQAREQAREQAREQAREQAREQAQSnoAErIRnrCeIgAiIgAiIgAiIgAiIgAiIgAiIgAiIgAgYEJCAZQBPWUVABERABERABERABERABERABERABERABBKegASshGesJ4iACIiACIiACIiACIiACIiACIiACIiACBgQCEoBa/HixZgzZw5CQkIMTFNWWwhkz54d//33n+qLLQ43tDNt2rQIDw9XfTHkaEv2ZMmSOaZGRETYYrLsFAEREAEREAERSOIE2N/NlCkTTpw4kcQtUfEDQSBDhgx44403ULx48UA8zugZQSdg/fHHH6hQoQIIkcKEkgjERiAsLAx79uxBjhw5cMcddwiWCMRK4PLly9i7dy8yZ86MQoUKiZYIxErg0qVL+P3335EuXTrcfffdSJ48uYiJgAiIgAiIgAiIQNAT4Jj6woULKFGiRNCXVQVMfAJHjhzB7bffjhUrVjjj6mBOQSdg/fzzz3jkkUcwZcoUNG/ePJjZqWxBQICRVwULFkSrVq0wYsSIICiRihDMBP73v/+hUqVKePrpp502RkkEYiPwyy+/oF69enjwwQcxa9YsZ2JFSQREQAREQAREQASCnUDDhg3x7bff4uDBg8FeVJUvCAi89dZbmDhxInbu3IlcuXIFQYliLoIErKB2jwoXFwEJWHER0u8jE5CApfrgCwEJWL7QLEG+DwAAIABJREFU0rUiIAIiIAIiIALBQkACVrB4ImmUQwKWgZ8UgWUAz8KsErAsdLqByRKwDOBZmFUCloVOl8kiIAIiIAIi4AICErBc4MQAmiABywC2BCwDeBZmlYBlodMNTJaAZQDPwqwSsCx0ukwWAREQAREQARcQkIDlAicG0AQJWAawJWAZwLMwqwQsC51uYLIELAN4FmaVgGWh02WyCIiACIiACLiAgAQsFzgxgCZIwDKALQHLAJ6FWSVgWeh0A5MlYBnAszCrBCwLnS6TRUAEREAERMAFBCRgucCJATRBApYBbAlYBvAszCoBy0KnG5gsAcsAnoVZJWBZ6HSZLAIiIAIiIAIuICABywVODKAJErAMYEvAMoBnYVYJWBY63cBkCVgG8CzMKgHLQqfLZBEQAREQARFwAQEJWC5wYgBNkIBlAFsClgE8C7NKwLLQ6QYmS8AygGdhVglYFjpdJouACIiACIiACwhIwHKBEwNoggQsA9gSsAzgWZhVApaFTjcwWQKWATwLs0rAstDpMlkEREAEREAEXEBAApYLnBhAEyRgGcCWgGUAz8KsErAsdLqByRKwDOBZmFUCloVOl8kiIAIiIAIi4AICErBc4MQAmiABywC2BCwDeBZmlYBlodMNTJaAZQDPwqwSsCx0ukwWAREQAREQARcQkIDlAicG0AQJWAawJWAZwLMwqwQsC51uYLIELAN4FmaVgGWh02WyCIiACIiACLiAgAQsFzgxgCZIwDKALQHLAJ6FWSVgWeh0A5MlYBnAszCrBCwLnS6TRUAEREAERMAFBCRgucCJATRBApYBbAlYBvAszCoBy0KnG5gsAcsAnoVZJWBZ6HSZLAIiIAIiIAIuICABywVODKAJErAMYEvAMoBnYVYJWBY63cBkCVgG8CzMKgHLQqfLZBEQAREQARFwAQEJWC5wYgBNkIBlAFsClgE8C7NKwLLQ6QYmS8AygGdhVglYFjpdJouACIiACIiACwhIwHKBEwNoggQsA9gSsAzgWZhVApaFTjcwWQKWATwLs0rAstDpMlkEREAEREAEXEBAApYLnBhAEyRgGcCWgGUAz8KsErAsdLqByRKwDOBZmFUCloVOl8kiIAIiIAIi4AICErBc4MQAmiABywC2BCwDeBZmlYBlodMNTJaAZQDPwqwSsCx0ukwWAREQAREQARcQkIDlAicG0AQJWAawJWAZwLMwqwQsC51uYLIELAN4FmaVgGWh02WyCIiACIiACLiAgAQsFzgxgCZIwDKALQHLAJ6FWSVgWeh0A5MlYBnAszCrBCwLnS6TRUAEREAERMAFBCRgucCJATRBApYBbAlYBvAszCoBy0KnG5gsAcsAnoVZJWBZ6HSZLAIiIAIiIAIuICABywVODKAJErAMYEvAMoBnYVYJWBY63cBkCVgG8CzMKgHLQqfLZBEQAREQARFwAQEJWC5wYgBNkIBlAFsClgE8C7NKwLLQ6QYmS8AygGdhVglYFjpdJouACIiACIiACwhIwHKBEwNoggQsA9gSsAzgWZhVApaFTjcwWQKWATwLs0rAstDpMlkEREAEREAEXEBAApYLnBhAEyRgGcCWgGUAz8KsErAsdLqByRKwDOBZmFUCloVOl8kiIAIiIAIi4AICErBc4MQAmiABywC2BCwDeBZmlYBlodMNTJaAZQDPwqwSsCx0ukwWAREQAREQARcQkIDlAicG0AQJWAawJWAZwLMwqwQsC51uYLIELAN4FmaVgGWh02WyCIiACIiACLiAgAQsFzgxgCZIwDKALQHLAJ6FWSVgWeh0A5MlYBnAszCrBCwLnS6TRUAEREAERMAFBCRgucCJATRBApYBbAlYBvAszCoBy0KnG5gsAcsAnoVZJWBZ6HSZLAIiIAIiIAIuICABywVODKAJErAMYEvAMoBnYVYJWBY63cBkCVgG8CzMKgHLQqfLZBEQAREQARFwAQEJWC5wYgBNkIBlAFsClgE8C7NKwLLQ6QYmS8AygGdhVglYFjpdJouACIiACIiACwhIwHKBEwNoggQsA9gSsAzgWZhVApaFTjcwWQKWATwLs0rAstDpMlkEREAEREAEXEBAApYLnBhAEyRgGcCWgGUAz8KsErAsdLqByRKwDOBZmFUCloVOl8kiIAIiIAIi4AICErBc4MQAmiABywC2BCwDeBZmlYBlodMNTJaAZQDPwqwSsCx0ukwWAREQAREQARcQkIDlAicG0AQJWAawJWAZwLMwqwQsC51uYLIELAN4FmaVgGWh02WyCIiACIiACLiAgAQsFzgxgCZIwDKALQHLAJ6FWSVgWeh0A5MlYBnAszCrBCwLnS6TRUAEREAERMAFBCRgucCJATRBApYBbAlYBvAszCoBy0KnG5gsAcsAnoVZJWBZ6HSZLAIiIAIiIAIuICABywVODKAJErAMYEvAMoBnYVYJWBY63cBkCVgG8CzMKgHLQqfLZBEQAREQARFwAQEJWC5wYgBNkIBlAFsClgE8C7NKwLLQ6QYmS8AygGdhVglYFjpdJouACIiACIiACwhIwHKBEwNoggQsA9gSsAzgWZhVApaFTjcwWQKWATwLs0rAstDpMlkEREAEREAEXEBAApYLnBhAEyRgGcCWgGUAz8KsErAsdLqByRKwDOBZmFUCloVOl8kiIAIiIAIi4AICErBc4MQAmiABywC2BCwDeBZmlYBlodMNTJaAZQDPwqwSsCx0ukwWAREQAREQARcQkIDlAicG0AQJWAawJWAZwLMwqwQsC51uYLIELAN4FmaVgGWh02WyCIiACIiACLiAgAQsFzgxgCZIwDKALQHLAJ6FWSVgWeh0A5MlYBnAszCrBCwLnS6TRUAEREAERMAFBCRgucCJATRBApYBbAlYBvAszCoBy0KnG5gsAcsAnoVZJWBZ6HSZLAIiIAIiIAIuICABywVODKAJErAMYEvAMoBnYVYJWBY63cBkCVgG8CzMKgHLQqfLZBEQAREQARFwAQEJWC5wYgBNkIBlAFsClgE8C7NKwLLQ6QYmS8AygGdhVglYFjpdJouACIiACIiACwhIwHKBEwNoggQsA9gSsAzgWZhVApaFTjcwWQKWATwLs0rAstDpMlkEREAEREAEXEBAApYLnBhAEyRgGcCWgGUAz8KsErAsdLqByRKwDOBZmFUCloVOl8kiIAIiIAIi4AICErBc4MQAmiABywC2BCwDeBZmlYBlodMNTJaAZQDPwqwSsCx0ukwWAREQAREQARcQkIDlAicG0AQJWAawJWAZwLMwqwQsC51uYLIELAN4FmaVgGWh02WyCIiACIiACLiAgAQsFzgxgCZIwDKALQHLAJ6FWSVgWeh0A5MlYBnAszCrBCwLnS6TRUAEREAERMAFBCRgucCJATRBApYBbAlYBvAszCoBy0KnG5gsAcsAnoVZJWBZ6HSZLAIiIAIiIAIuICABK35OHDZsGH744QekSJECd9xxBx599FGULVsWt912W/xumERyScAycJQELAN4FmaVgGWh0w1MloBlAM/CrBKwLHS6TBYBERABERABFxCQgHXNiaGhoWjcuDFq1aqFdu3axenZLVu24Pjx4wgPD3d+7tu3Dzt37kTatGnx7rvvolSpUnHeIyleIAHLwGsSsAzgWZhVApaFTjcwWQKWATwLs0rAstDpMlkEREAEREAEXEBAAtY1J169ehXFihVDy5Yt0bdv33h5NiQkBAsWLMDo0aMxadIk535uSxKwDDwqAcsAnoVZJWBZ6HQDkyVgGcCzMKsELAudLpNFQAREQAREwAUEJGD5T8DinRiRNXXqVPz0008YOXKkC2rIzSZIwDJwqQQsA3gWZpWAZaHTDUyWgGUAz8KsErAsdLpMFgEREAEREAEXEJCA5V8BKyIiArt378bAgQPx5ZdfuqCGSMDymxMlYPkNpRU3koBlhZv9ZqQELL+htOJGErCscLOMFAEREAEREAHXEZCA5V8BixFYo0aNwo4dOzBv3jzX1RdFYBm4VAKWATwLs0rAstDpBiZLwDKAZ2FWCVgWOl0mi4AIiIAIiIALCEjA8o+Axcirc+fOYd26dejQoQPatm2LoUOHuqCG3GyCBCwDl0rAMoBnYVYJWBY63cBkCVgG8CzMKgHLQqfLZBEQAREQARFwAQFbBKzTp0+jT58+MXqMkVOffvop7r33Xp9OEKRwdfnyZWzfvh179+517p8pUyZ8/vnnqFKligtqiAQsvzlRApbfUFpxIwlYVrjZb0ZKwPIbSituJAHLCjfLSBEQAREQARFwHQFbBKwLFy5g1qxZOH78OH788Uds2bIFhw4d8rs/kydPjh49euDtt99G6tSp/X7/xL6hIrAMPCABywCehVklYFnodAOTJWAZwLMwqwQsC50uk0VABERABETABQRsEbCiuurq1avYtm0bJk2ahAULFuDixYtG3kyZMiUeeOABvPjii2jTpg3SpUtndL9gzSwBy8AzErAM4FmYVQKWhU43MFkC1q3wQkNDcfbsWZw4cQL79u3DsWPHkDdvXhQuXBg5c+ZE5syZkSJFCgPqSTerBKyk6zuVXAREQAREQARsJmCrgOXxOZcALl26FM2bN3dErGbNmoFMvE2MuMqRIwfuu+8+5MqVy9tsSfY6CVgGrpOAZQDPwqwSsCx0uoHJErBuwOOH/euvv8Ybb7wBtrt8l/h/nsQPN9f6lypVCuPGjXP2DkiWLJkB/aSXVQJW0vOZSiwCIiACIiACIgBHrPn2229x8OBBa3Fw/6vVq1ejQYMG6Nu3r/NHKXoCErAMaoYELAN4FmaVgGWh0w1MloB1DR73BujXrx/mzp2LK1euxEmU4dLdu3fHa6+9hqxZs8Z5vVsukIDlFk/KDhEQAREQARGwi4AErGv+ZvRV5cqVUatWLQlYsbwCErAM2gcJWAbwLMwqActCpxuYLAEL2L9/P1q0aOHsD+BJjLbKnj27s1yQG1NS1OKywjNnzoCzV57UuHFjfPLJJ9aIWBKwDF42ZRUBERABERABEUg0AhKwrqEPCwvDoEGDkCFDBmfVgVL0BCRgGdQMCVgG8CzMKgHLQqcbmGy7gMUlgtWrV3fCqZnSpk3rbErJyKp8+fLdskSQe2INHToU06ZNczoATF27dsWwYcNceQJL1KolAcvgZVNWERABERABERCBRCMgASvR0CfJB0vAMnCbBCwDeBZmlYBlodMNTLZZwGIk1YgRIzBgwAAn0mrIkCHOngBZsmSJdW8ril6nTp1yIq/ee+89R8ji0kOGYrs9ScByu4dlnwiIgAiIgAi4k4AELHf6NaGskoBlQFYClgE8C7NKwLLQ6QYm2yxgnTx5EuXLl0dISAgmT56Mp556ymeSixcvRseOHfHII49gxowZyJYtm8/3SEoZJGAlJW+prCIgAiIgAiIgAh4CErCukeBE7G+//easKNi7dy9at26Ntm3bIlWqVKoskQhIwDKoDhKwDOBZmFUCloVONzDZZgFr48aNqFGjBhYsWICaNWvGm+LMmTPx8ssvg/d76KGH4n2fpJBRAlZS8JLKKAIiIAIiIAIiEJWABKxrRC5cuICKFSti586dzr/z5Mnj9GHvueceVRoJWP6pAxKw/MPRlrtIwLLF0/6x02YBa9y4cc4He/z48UaRU9zcnZu5P/vss2jVqpV/HBOkd5GAFaSOUbFEQAREQAREQARiJSAB6xqePXv2oE6dOjh8+LCzDUbhwoWxfv16FChQQDVIApZ/6oAELP9wtOUuErBs8bR/7LRZwPKcwNKtWzekSJEi3kAZij148GCkT58er7/+erzvkxQySsBKCl5SGUVABERABERABKISkIB1jcj27dudfV95Avfvv//urEJ4+OGHY93/1cbapCWEBl6XgGUAz8KsErAsdLqByTYLWCNHjnT2v+KJgyYCFvEzmuvKlSugGObmJAHLzd6VbSIgAiIgAiLgXgISsK759s8//0S7du0wZ84c5M6dO94O516yzZo1c7bReOaZZ+J9n2DNKAHLwDMSsAzgWZhVApaFTjcw2WYBa926dZgyZQrGjh2LrFmzxpsiTzPs168fihcv7nzIo0u8hpFapkJZvAvpp4wSsPwEUrcRAREQAREQAREIKAEJWNdwc9kgt7woVaoUunbtGu/Iq2PHjjmHIVHo4VYabksSsAw8KgHLAJ6FWSVgWeh0A5NtFrCOHz+O6tWrY9KkSShZsmS8KZ44ccIJw/7www/xwAMPRHufUaNG4a+//sIHH3wQ7+cEQ0YJWMHgBZVBBERABERABETAVwISsK4R44TqoUOH0KlTJ+cE7vhuf8F+beXKlZ3TDBs0aOCrO4L+eglYBi6SgGUAz8KsErAsdLqByTYLWJyBoqD066+/gssJs2TJ4jNJLkHk/lfJkiVD3759kTZt2mjv0b17d2ezzHnz5vn8jGDKIAErmLyhsoiACIiACIiACHhLQALWzaSOHj2K4cOHg1pD/fr1HTGqUKFCXkVkUQTbtGmTE3k1YcIEJ7/bkgQsA49KwDKAZ2FWCVgWOt3AZJsFLGILDQ1FkyZNULBgQScEmhuxU4zyJl28eBGTJ0/GokWLMH/+fOTIkSPabFw+2LJlSyRPnhwzZ8705tZBe40ErKB1jQomAiIgAiIgAiIQCwEJWNfgnDp1Ctu2bXOWEjJRyOJE7t69e3Hbbbc5qxJy5syJdOnSRUuT4tWZM2ewatUqXL161ZmcrVevnuvqngQsA5dKwDKAZ2FWCVgWOt3AZJsFrP379zvL+vgRHjhwoLMJe/v27ZEpU6ZYifLDfeTIEcyYMcP5+DMEO1u2bNHmoUC2ceNGLFmyxBHKpk+fbuCtxM8qASvxfaASiIAIiIAIiIAI+E5AAtY1Zjt37kSlSpVw/vx53yFGyZEmTRoJWMYUzW+QLIKjkyBKErCCyBlJoCgSsJKAk4KoiDYLWMOGDUOfPn3ACKlApNatW2Pq1KmBeFSCPUMCVoKh1Y1FQAREQAREQAQSkIAErGtwuXVG2bJlnUgs0yQBy5Sgf/JLwPIPR90lkQhIwEok8En0sTYLWDyBsEOHDtdDqBPahRKwEpqw7i8CIiACIiACIiAC0ROQgHWNC1cflC5d2ln+16tXL1SsWBEpU6b0egsNxvpwGw0uHZw2bZqzukB7YCXuWycBK3H56+mGBCRgGQK0LLvNAhaX9TVq1AgpUqRAlSpVUKRIEaROndqvNYBLCLnPwJYtW9CsWTMtIfQrXd1MBERABERABERABLwjIAHrGqeTJ0+iRIkSKFeuHGbPnu0dvGiuOnDggNN/5imEZOu2pD2wDDyqJYQG8CzMKgHLQqcbmGyzgLV582Zn1on7X/Xu3dvZZD0hEvfJevbZZ5EqVSpt4p4QgHVPERABERABERABEYiDgASsa4AuX77sTNo2aNAA77//frzrzbFjx1C+fHkMGjQITZs2jfd9gjWjBCwDz0jAMoBnYVYJWBY63cBkmwUsnrZSvHhxR1RK6A9v9+7dnY3f586da+CtxM+qPbAS3wcqgQiIgAiIgAiIgO8EJGBdY8aJ1REjRqBo0aKoWbOm7yD/Lwc3gR87diyqVq2KUqVKxfs+wZpRApaBZyRgGcCzMKsELAudbmCyzQIWjw2uVasW3nvvPec0loRMnOE6ePAgxowZk5CPSfB7S8BKcMR6gAiIgAiIgAiIQAIQkICVAFBdfEsJWAbOlYBlAM/CrBKwLHS6gck2C1gG2KzNKgHLWtfLcBEQAREQARFI0gQkYCVp9wW88BKwDJBLwDKAZ2FWCVgWOt3AZAlYBvAszCoBy0Kny2QREAEREAERcAEBCVjRO/HSpUuYP38+Fi5c6JxQyKWBefPmxeeff46cOXNez7R27Vq8/vrrzuqFbt26IXv27C6oFTGbIAHLwL0SsAzgWZhVApaFTjcw2WYBi3tSPfXUUxg3bpyzfl8pbgISsOJmpCtEQAREQAREQASCj4AErJt9cuXKFUek6tWrF/7++++bflmgQAFs2rQJBQsWvP7/V69exdatW/Hxxx9j//79zrYYjzzyCJIlSxZ8zvZDiSRgGUCUgGUAz8KsErAsdLqBybYLWA899BC4wfobb7zh2g+wQfW4JasELH/S1L1EQAREQAREQAQCRUAC1g3SoaGh+Oijj9C1a1fnP3kSd/r06ZEuXTqkTJkSGTJkwJo1a24SsDy5w8PDsWDBAvTt2xdffPEFHnjggUC5MKDPkYBlgFsClgE8C7NKwLLQ6QYm2yxgcRP3EiVKIFeuXFi0aBEKFSpkQNKOrBKw7PCzrBQBERABERABtxGQgHXNoxEREVi9ejXq16+PkJAQ52fPnj1x1113OQIWI7MobA0ePDhaAYv34EmGn332GaZPn+4sPWQ+tyUJWAYelYBlAM/CrBKwLHS6gckSsErg2LFjKFu2LIYOHYrHHnsMKVKkMCDq7qwSsNztX1knAiIgAiIgAm4lIAHrmmcvXryI8uXLOz8ZhVWhQoWbXM49sLp06YJBgwbFKGAxA8eczZo1Q6dOnVCzZk3XVRsJWAYulYBlAM/CrBKwLHS6gck2C1jcA4sRWMePH0e2bNmQKlUqPPnkk2jbti2eeOIJZM2aVcsKo9QtCVgGL5uyioAIiIAIiIAIJBoBCVjX0H/33Xdo3Lgxpk6d6uwFGzV5K2BxKeHEiROxb98+DB8+PNH8mlAPloBlQFYClgE8C7NKwLLQ6QYm2yxgHT58GEWLFkXJkiUxb9483HbbbVi1apWzJ9ahQ4ectf2cgeKeAErXCEjAUk0QAREQAREQARFIigQkYF3z2rJly5x+78yZM6N1o7cCFpcibtmyBaNHj3ZOMXRbkoBl4FEJWAbwLMwqActCpxuYbLOARZHq/vvvd04hbNmy5XWK3A/gjz/+cDaonDt3LgoXLoxXXnkFlStXtn55oQQsg5dNWUVABERABERABBKNgAQsgFFTs2fPBlchcN+r6JIvAtauXbswcOBARxRzW5KAZeBRCVgG8CzMKgHLQqcbmGyzgMWP+IULF66fuBIdxn///dfZpJJiFje1bNSoEerWretsdGljkoBlo9dlswiIgAiIgAgkfQISsK5t4M5N13/77Tf06dPHSMBiP3ry5MnYtGlTjNFcSbnWSMAy8J4ELAN4FmaVgGWh0w1MtlnA8gUbP/iMynr33Xexfv16Z9P3bt26ORFcGTNm9OVWSfpaCVhJ2n0qvAiIgAiIgAhYS0AC1jXXr1u3DkOGDMHixYuRIUOGW+qDtxFYHHNWrVoVtWvXjlEMS8qVTQKWgfckYBnAszCrBCwLnW5gsgQs3+BxtunMmTPYsGEDevXq5WTmUcNt2rRB2rRpfbtZErxaAlYSdJqKLAIiIAIiIAIiAAlY1yoB94DlYUXc67V9+/bxErBCQ0Od6Kv+/fs7qxTKlSvnuhomAcvApRKwDOBZmFUCloVONzBZApZv8A4cOOB8sJcsWeJsaB4WFubcIHfu3KhWrRpat27tfMSTJ0/u242TyNUSsJKIo1RMERABERABERCBmwhIwLqGg31XTr5yn1eKNB07dryJU1wRWJcuXcKYMWOcva+eeeYZzJgxA2nSpHFdbZOAZeBSCVgG8CzMKgHLQqcbmCwBK254fKe+//57TJkyxdkPi//2JApVhQoVQo0aNZwIrDVr1iBLlizo0KEDKlWqhFy5csX9gCR0hQSsJOQsFVUEREAEREAEROA6AQlYNyrD/v37UadOHezduxdVqlRB586d8dBDDzkTspcvX3ZO4R40aBAKFizoZLp69Sr++ecf/Pjjjxg6dCi2bt3qXMvTu4sXL+7KWiYBy8CtErAM4FmYVQKWhU43MNlmAYszTIymim5Tdi4V5Aecs1MMj+ZpLZFTqlSpUKxYMWdPLEZeeRL3ytqzZw+6d++OX3/9Fb1793bELM5MJUuWzMBTwZFVAlZw+EGlEAEREAEREAER8I2ABKybeX3zzTfOBGzkidmUKVM6E7M85Kh06dLO6ds8tZt6xLlz567fIGvWrJg3b95NfWDfvBH8V0vAMvCRBCwDeBZmlYBlodMNTLZZwOIeAA8++CDGjx+Ppk2bXqf43XffYfjw4c4+V0ePHnVObPGk2267DS+99BKaN2+Oe+65B6lTp46WPvcG4OwWo7Z4OsuECRNQtGhRA08FR1YJWMHhB5VCBERABERABETANwISsG7mxaWEW7ZsQZMmTZz+rrepQIECTr+W4pebkwQsA+9KwDKAZ2FWCVgWOt3AZJsFLEZVMeyZH+BXX30VO3fudCKutm3bhpCQkOtUuTSQ+1o9++yzqFmzJnLkyOE1cXYOli9fjrFjxzonvpQsWdLrvMF4oQSsYPSKyiQCIiACIiACIhAXAQlYtxLiJO3x48cxevRoTJ8+3dngPaaUPXt2tGzZEq+88ooTpeX2JAHLwMMSsAzgWZhVApaFTjcw2XYB6+GHH8axY8duIcjlfhSqKleu7JzSwkgtk8RILEZ0TZ061QnHTqpJAlZS9ZzKLQIiIAIiIAJ2E5CAFbv/OYZcuXIlZs2a5awi4GQut8zInz+/c4IjVytkzJjRmkokAcvA1RKwDOBZmFUCloVONzDZZgGL4dIlSpS4RcAqXLgwhg0bhurVqyN9+vR+2bvqxIkTzikvb775ZpJeSigBy+BlU1YREAEREAEREIFEIyABy3v0jMzifrCc0PX88T63O66UgGXgRwlYBvAszCoBy0KnG5gsAeuagMWTAzmz1KJFCzzyyCPIkCGDAdVbs7IT0Lp1a+dUF26KmVSTBKyk6jmVWwREQAREQATsJiABy27/+2q9BCxfiUW6XgKWATwLs0rAstDpBibbLGBxDyxGYN13332YOHGi89OficsFeUohN2/v0aOHsw/WiBEjkC9fPn8+JqD3koAVUNx6mAiIgAiIgAiIgJ8ISMDyE8j/uw1h/G60AAAgAElEQVRP616zZo3Tz73rrrv8e/MguJsELAMnSMAygGdhVglYFjrdwGTbBaxixYo5ywXbtm1rQPHWrFevXsVjjz2G3bt3O7+88847UadOHYwZM8avzwn0zSRgBZq4nicCIiACIiACIuAPAhKw/EHxxj24FUf58uUxaNAgNGvWzL83D4K7ScAycIIELAN4FmaVgGWh0w1MtlnAOnToEIoUKYJ58+b5/Shg7h3Ak1pmz57teOeZZ57B+PHjkSdPHgNvJX5WCViJ7wOVQAREQAREQAREwHcCErB8ZxZbDo4hqlSpgvfeew+NGjXy782D4G4SsAycIAHLAJ6FWSVgWeh0A5NtFrD4rvDI4Nq1azsRUv5OJ0+exMaNG5EmTRqUK1cOmTJl8vcjAn4/CVgBR64HioAIiIAIiIAI+IGADQLWuXPnnFOveXpgxYoVkTZt2lvI/fvvv/j6668RFhYWb6pcPrh27Vp89tlnmDlzJurXrx/vewVrRglYBp6RgGUAz8KsErAsdLqByTYLWAbYrM0qActa18twERABERABEUjSBNwuYF24cAGNGzfGihUrnJMD27dv7+y/SjErctqxYwcqVaoEjhlNEydpuZKhXr16prcKuvwSsAxcIgHLAJ6FWSVgWeh0A5MlYHkHj52CPn36gLNW/Fjfe++9zh5XZcqUQbp06by7iQuukoDlAifKBBEQAREQARGwkIDbBazvvvvOibo6e/as49077rgDq1atwv3333+Tt6ktPPXUUzh9+rRxLZCAZYzQLzdIFsHNS4IoScAKImckgaJIwEoCTgqiItosYB07dsyZMRo5cqQjRsWWuCn7unXrcOnSJYSEhODw4cP49ddf8f333+PBBx90ThvMnTt3EHk2YYoiASthuOquIiACIiACIiACCUvA7QLWvn37nMiqv/76ywHJ/in7rrfffvtNYA8cOOBMwJ46dQpPP/00qlatekuUVlye4Hhz0aJF+PHHHxWBFResAPxeAlYAIOsRCUdAAlbCsXXjnW0WsP755x8nkmrJkiXOJpTxSZzl4imGv/32GyZMmIAcOXLE5zZJJo8ErCTjKhVUBERABERABEQgEgG3C1iMwZkyZQo++eQTZ++r3r17o3r16rfUgRMnTuDhhx9G0aJFsXz5ciRPnjxe9YR9who1ajgTwQ0aNIjXPYI5k5YQGnhHEVgG8CzMKgHLQqcbmCwBy0zAInpGZbVr1w516tRx5THCkauXBCyDl01ZRUAEREAEREAEEo2A2wUsb8FevHjRic7ixusffPCBt9luue7o0aOoUKECKPRw7y23JQlYBh6VgGUAz8KsErAsdLqByRKwzAUszni9+eabTvh1v379DLwR/FklYAW/j1RCERABERABERCBWwlIwLrGJDQ0FM8995yzD1bnzp3jXVWOHz+O8uXLY8CAAWjevHm87xOsGSVgGXhGApYBPAuzSsCy0OkGJkvAMhew+M6xI8CNM1999VUDbwR/VglYwe8jlVAEREAEREAEREACluqAGQEJWAb8JGAZwLMwqwQsC51uYLIErPgLWGFhYeA+AhMnTnTCp+fPn+/KY4QjVy8JWAYvm7KKgAiIgAiIgAgkGgFFYF1Dz5UDjMLi3lcpUqRINH8E+4MlYBl4SAKWATwLs0rAstDpBia7WcD66aef8NFHH8VIh+/K3LlznQ0o8+fP7zVFfvi5efv69evBkwyZChUq5PybRxa7OUnAcrN3ZZsIiIAIiIAIuJeABKxrvuXJ2iVLlnQmXSnSKEVPQAKWQc2QgGUAz8KsErAsdLqByW4WsHjK4OLFi3H48GHs3r0bW7duxblz5wxoRZ81Y8aMmDZtmtMRcPtMlgQsv1cf3VAEREAEREAERCAABCRgXYPM6KuyZcs6k65cPaAkAcvvdUAClt+RuvqGErBc7V6/G+dmASsqrPPnz2PFihWYMGECNm3a5HzATVL69OlRpkwZ9OzZE1WqVHG9eEVWErBMaozyioAIiIAIiIAIJBYBCVg3BKynn37a6dPNmTMHVatWTSyXBPVzFYFl4B4JWAbwLMwqActCpxuYbJOA5cEUHh6OQYMGYciQIU4Ydf/+/VG8eHGvKfK0wTx58uD+++9H5syZvc7nhgslYLnBi7JBBERABERABOwjIAHrZgHr66+/dqKwPv/8cxQrVgxp0qSxr1LEYrEELIPqIAHLAJ6FWSVgWeh0A5NtFLCIi8JVv379MHz4cKxatcqJoFKKm4AErLgZ6QoREAEREAEREIHgIyAB64aAVaFCBWzevNn5j5QpU6JgwYLo0aMH2rVr5/xbCc7+YDyoaefOnciVK1dQI0kWwR16gyhJwAoiZySBokjASgJOCqIi2ipg0QW0/YknnsCsWbMkYHlZJyVgeQlKl4mACIiACIiACAQVAQlYNwSsJ598EgcPHsTo0aPxyCOP4Ntvv8W8efOwZ88eVKtWDS1atACv4UmFtiYJWAael4BlAM/CrBKwLHS6gck2C1jcE4udmV69eoF7ASjFTUACVtyMdIUIiIAIiIAIiEDwEZCAdUPA4ibupUqVuum0bsbw8ACkMWPGOHvGZsiQAR07dkTFihWd07ptE7MkYBm8wxKwDOBZmFUCloVONzDZZgHLAJu1WSVgWet6GS4CIiACIiACSZqABCzv3Ucxi0vnOnfujO+//x7169fHqFGjkDdvXu9vksSvlIBl4EAJWAbwLMwqActCpxuYLAHLAJ6FWSVgWeh0mSwCIiACIiACLiAgAct3J4aFhTlLDVeuXOlEa6VIkQItW7ZE27ZtkT17dt9vmIRySMAycJYELAN4FmaVgGWh0w1MloBlAM/CrBKwLHS6TBYBERABERABFxCQgGXmxEuXLmH16tUYP348du/ejcaNG6NRo0Z4/PHHXXmCoQQsg/oiAcsAnoVZTQSsK1euOKezxZTSpk3r15MpwsPDwcYwpnMTUqdODf5RSjgCNgtYnFU6e/YsMmXKhFSpUsUKme8VT2Y5fvy4c22hQoVQokQJPPXUU7j77rud/0uWLFnCOSpI7pxYAhbbCLZPTOQcG2teyz9sX9h+6DSdIKk8ASwG/c9vGd/bkJAQp+54/nD2+N5773V1vaD9/LbyHYhv4nvD98e2PU/iy0v5gouA6TvAeh8M34/Q0FBwv062X562jD/5bhctWtSKfoc/a5YErPjTZL07cOAA5syZ42z8fubMmes369ChAyZMmBD/mwdpTglYBo6RgGUAz8KsJgLWO++8g48//hgc2EeXGC765ptv+qXjz49v3759MXPmzBif17t3b7zyyisWejFwJtssYB0+fBhlypRxTiEsX758rNBZXw8dOuTU1cuXL2P//v3OiS0LFy5ElixZMGPGDNxxxx2Bc1wiPSmxBKx///0Xzz33HH788UevBSwKFZMnT9YJk4lUVxLzsRy8zp07F6+++qojZHEQyD/8O08e/fLLL5331q3pwoULqF27Nvbu3RtvEzmAz5o1K2rWrOnsgcIj1pVEIKkQ4LvOyJAdO3bEq8icJOHE1J133olnn33Wuddtt90Wr3uZZNq6dSuaN2/uTLZ52jD+LFy4MH799VcJzD7ClYDlIzDAmRBcsmQJOEakJsHJkcgpR44c+PDDD5166rYkAcvAoxKwDOBZmNVEwGI4KOsbB+hc7zx16lRw4OiZzWYHlqdS3H///cZk//zzT7Rq1Qr8OHsEs9tvv91ZV83ZcUZ7lSxZ0plhSozEzgLLt337dsfeSZMmOR0GtyWbBSyetMK6xg9zlSpV4uVafsh57DAFLAph+fLli9d9kkqmxBKw2CatXbvWaY8468d24/PPP3c69J5UpEgR1KlTB3fddZfTflDAqlChgnNyjknatm0bXn75Zfz1119OB23gwIHIli3b9VueO3cO/fr1c8pD/3/wwQfO0dM2ROSZcE3IvPxm7du3D19//bUjPPPd/P33351H0jfLli1ztYDFwTv3Kzl58iRYP/m+LFq06HoUI8Wp1q1bOyyiRp+SHSM+PPy+++47JxLl4YcfRteuXVGvXj1FRidk5U2AezNygkt+uAEzfd+jRw8nojiuyOMEKErAbslJpzVr1uDo0aNOJCaFrAULFuDixYtOGciBy5/47Y8a6c8+6enTp8HvHduKI0eOIHPmzM73pE+fPihdunTA2neWn3awDHyH+T1iYt9FApbv1UkC1jVmfD/Yd73nnnvw6KOP3gKSv9+zZ48z9uG3hJO2kVfLZMyY0dnU/fnnn3cmgrmSwY1JApaBVyVgGcCzMKuJgBUV18iRI51ZbA4eGfnAxA38OnXqZEyWAwo2iCNGjHBmlrhcgdFfbdq0CYoZpffee88ZlHqWVPbs2dOJPkuXLp2x7cF0AwlYZgIWfcnQfs8xwxRg3ZwSS8CKypQRJowM2bRpk/MrilXsbD344IN+x8+BHiO5PM/54osvnGd70saNG52BjSdR5KKgqaWLfndFvG/IPTtatGjhCDo2CFhRQXEwwoH6unXrnF9xUoaTUXFFVXHAwkmcoUOHOtdTCOGAZdCgQXHmjbez4pHRs2SYooSE41sBUozkIPPUqVPOL/PkyYMtW7YElQ/j4XafsrCOULDiRAMT6z4jMeP6ZrD/y/7q22+/7UzscuDOQe1LL73kTJQEMnE8yK0LOHET7AJWsL6TErCu1ViObdgmVK9eHe+++67zf/TZiRMnnLZh3LhxWL9+/U2ThOzT8NvB6F5G5ZpODgby3YnvsyRgxZcc4ETEPPLII5gyZYrP4XmsjDEtB2OR+KH35wff02DFtKeRZwCgDoZBhYgjqz8FLH7op02b5iy5YNSBZ/nFhg0bjGbu+PF94YUX8NprrzmdajaY6dOnx6effuo0jMGQ+vfv73TaPREeXN/NyIoMGTIEQ/H8VgYJWOYCFts7ipsUUQYMGOA33wTjjYJFwKJoSLGbezEwMYT9hx9+cAZm/k589ydOnOjclj7moIedPk+iiEYBy/Pd43ITtpsSsPztifjfj9FzlSpVcqKKbBSwSI7fXNZLJkZTLV261OuIUQpg7INy8or9gOLFizuRq1xeFQz9OUaJ8T1ltAwjuZVuJsB2m/Xes2cNo4l27drl7N9oU2LkGftxTByIczKCESjepJ9++slp9xnRyXETI7Eo5AZyjzgK8FyZwPYs2AUsRn6WLVvW+XZSKAmWJAHrmic4tqF/0qRJ40xOMJBgyJAhzj5WnKiInHgNr+XEPuufTUkCloG3TQQsdvLZaWGYaXSJnXFGvUQXPhifInN2h8uuuDQnpkRRhBsgKyUMAX8KWAxXZqeV655r1arl+JVHpjKc2aQRo7rPRpJRDXnz5r0uYM2fP995TjAkdlIorvHd4aCYg1Z2+oOhs+5PPhKwzAUsdtQ4s8vla126dPGne4LuXsEiYLGDxT35ODPOxEHr999/nyACFoUximW8/xtvvIFevXrdFC7PJSmcnefyHC5jZIeds+RuayuCrjL6UCB+u55++mn88ccf1gpYrMPcFoDJVwGLeTgZyu8g78O+3n333ecIABxIJ3biUtHu3btLwIrBEVzqzj1HuU8NBRfuDceBWaAjiBK7nrz++ut4//33nWL4KmBRxJ09e7YzpuK7wP3hOH5q1qxZwMzie8eABq5eCHYBi2JpsWLFnGWbErACVkW8fhAFrIoVKzrRVuw/sR/rWV7ruQm3Y2C7yohzTlZQM7AtScAy8LiJgMUKyhk3Dsa55IKzVFzuwJlhzyZs3NuDS8X8UTG53Kxbt26OIOE5/YbiGI/X5J4hfC7DbjlbHjnxxWElYUNHcYsDAZ2uEb9KkxACFkUs7n3hiXZgR4gRSlTl45M4a0U/c7kVG05PBFYwCVi0i50FCjzcnDtXrlzxMTXo80jAir+AxUgEts+c0eW7ETUyJ+idH48C2ihgeQbv9DfbvOiEKUZfUVTjN84f39J4uEZZYiEgAQuO8GQiYHnwDh8+3Pn+c4K0atWqznLZxP4+sv1lP1YRWDG/BBwPeDb157I5GwV2EwGLZI8dO+ZEH/I0YqaHHnrIWZbLid1AJPZJOabiHrLBLmBxssBzYIYErEDUDt+ewfaAkzoU/yMnHlRAwYpbIfBwI66OsTlJwDLwvomAFd1judSB4cOrVq1yOtz8kPHvppsP817cY4IzE8uXL3fuzf2CGMFC5Ta2xFD2Z5555voljHzhzJ5ts0MG1eR61oQQsBjlQOGTghPFRkYkMfw8Pst12Oll5ARFLG6KHswClj/8Eez3cLOARcHes7Y/Oj9QxGfoNEOjfVl2QrGC7xlPIWRIPxMjbjh4YkShm5OtApabfWqDbRKw/Cdgse1jX4/9NiYun+Z+kYkl3LI95hYHbMslYNnwNsffRlMBi4EATZs2deoZEycsvvrqqzhPMY5/iW/OmZQELI4rKYLwvZSA5a8a4L/7RBawWI85Uc92ndGZUYNM/PfUpHcnCVgGPvO3gEURguveuZTPszH3Z5995hwRa5Ko4nJDboblciaMAhYHhdxzIq7TCSiQRN78mNFXPDHEbRtmm/D1Nm9CCVj0IWd+eFIhO6r0WXxCp7nPFZfksFFgKLsELG89mzDXuVnA4rtAwYVtEDuZFMU9gpM/aTK6lPe24eQ5CVj+rDm6V6AISMDyn4BFn3FQ6jnIgAMf9ie5tCkxEiO4ue8cT42TgJUYHkg6zzQVsLihOwf4n3zyiWM0+7DDhg1z9nMNREoqAhbFEe4hSzbse0nACkTt8O0ZniWE1BimT5+OatWqOXsb2xiZGRs5CVi+1aubrva3gMU9qihEsCGkY1iJa9So4Sx/MdmMkCHlFK84wOEacwpYjEb47bffnFM7YkvckJD7x1DY4LVcV07lPrFm9AzclehZE0rAypIlizPLyv2wmJ577jnnlIq4xMnIQFgnmI+nenHpAZMErMStMm4WsKKSZcQVo7JYbynaR92o0ldPMJKV7Rb3CGAElkn76euzE+t6CViJRV7PNSEgAcu/Aha3peCk57Zt25wBDwfw3OA3MRInDziZxtUEErASwwNJ55mmAhZXEHAjeJ7GzcS637t37+v94oQmkVQELPYr2cfnUksJWAldK+J3f88m7tzLkAKWUvQEJGAZ1IyEErDY+eBabs5eUUTgRm5c0hWfxLBaihJU2zkzwT0SfBGw+EwOLlmGAgUKOKeCSAWOjyfgLG3i8cAUKhkRZ5I8m7gz2ooCFv3DzaoPHz7s/Junb7EOeZvY6eVeWvz4e5ZsScDyll7CXGeTgOUhyCUnbKe4ITdPXmHEqC/RAxTWuecF2yrb9geQgJUw76HumrAEJGD5V8Bi/46HGbDtZGLf0bMZcMJ68ua7M6K2QYMGTl+EbbgErEDST3rPMhWwGIHVsWPH66d5ctKK/Vnu7RuIlBQELIp8PKGRe4MyIEECViBqhu/P4J6eDGapW7eus6WLkgQsv9eBhBKw2OCy4nK/KqZJkyY5ooevR39zMMhoBp7QxOgcRmLFR8DyOzhLb5iQAhY35mfEiafOULBkh8AbsZH1hJF13NesdevW16NVTAUsziKwU0ERlSIoT4ZJnTq1s9lyfCP4WFba6vnDfd3YUYlpA+foqppnU2d+zLlvGMuSIUMG5x4sX1zMmD9yOVgG/juyXSwfBxL8Hd9bb+4btaw2ClgeBtwfi+3VypUrnRMnleImYKuAxXeP7xnbGp7Uw/aGbQ3fR1/amqhtC99htgWR2xZew3aNHUz+nW0PQ/t9/TZHFmx5L97Tcz+2FZHbR/6Os+Vr1651ltxWqlTJWRIbWxvKe5GHp42jmEs72MazvIFMLAttpI/IlOVmGTzlNxGweD/ayLaWgje3NqCN/EOfxNSWR9eGk0lk9v5ow73l7K9N3D3P4+Eu7EeSOyOxOSkQ17YCkd8jvkN8l7gE29dvNu/DU846dOjgHP7D5A8Bi/5gnaav+d3mAJxl8/g6JtYxfa+ZL3Jkrue99vQpPO91XP0Bb30cU18kur5E1LJFbi8813veJ/6O77bHFo8fycnTpvBdiOl98FzPuuJp8wJhe1QepgIW+9c8KZuCKRPbAu4H+8ADD8ToIs93g/1T1inPd4P8fe2jBkLAivoOePqt9H9s7bqnDWY/n1FqtFsClsmbm7B56R+O2SlicRWWUvQEFIFlUDMSSsDq3Lkz2AHhem52JBi1w02JeQKBL4kfZC4L69SpE8qVK+csM5OA5QtB/16bkAIWS8qTArmJJRNPqODeF97UGX54n3/+eWfGlhF2nmQiYFE45fH17FRxCRc/sNyLjVGF/DcFCl8ia1gmnsrJzgkHLJ5BCztplStXxoQJE5wDEOJKHCz17NnTKQs3ui9ZsqTTyef7xX06GFrNcufOnTvaW3FWmR2tnTt3Xi8Hy8KONMVD7hHHKDiWldcwGoh+Z2eep4D6Mni0WcBiRCBPyaF4LwErrlp97fc2CljsmHPD6gEDBjiDL7YtHLBv3rzZeQ+5dH7IkCF47LHHYh2QbN261XlnOWiP3L5QLOIsvuc95pIUboDL950DHl7LU95eeeUVZ69IX05//fvvv53ZVZ6UxedyoEx7eLAKo2HZlvNEK0YVsB3lARsUsthpY4QN+wfRLY3l4Sxsozh444mybON46tSePXuc6NwXX3zR6RP4UlbvauCtV3HyjMvXuJyNNpIj+yUcKHIgxWjzI0eOOCcusYwU5hipw3LGldg+khP3fmTEJTv7FPhoJwd25Ma+VFQ72d5zoobbInh8zZ9s8xnRzDZ8//79Tvm2b9/ulJl5XnjhBWdJsi9teFw2eH7vbwGLEVf8lrH/yEQxa8yYMbEKrdwDk99l1kHWGQ7i+R7xdDee6MZ6x/cotrRmzRpnz8GFCxc6fuW9mCigcjlMVHbckJh90iJFisR6X5aDkSNs4/iOs5/Cv//000/OIUf0FfswURO/9/wd++qePgN/Utzge8zT4lgfJ06ciPHjxzsCGd9DfudZB2vXru1sQk8hz9+J7z/7ItzvNnKbw7KxTbjrrrtueiTrOzdyZn8isi3cN3fevHnOO8Dyjx492olCoh3sH/F69o3q16/vMIz8blG44UmV7Pt5fOWxnZPoHDME6hQ/UwGL7z7rhqfO03fsE0e3Xy+/FexLsj2n8M36Th9zf1+2Q2Q6ePBgVK9e3Wu3eyNgsV0hUz4zsojvEctZHxkdFV1iW0pGbLf4XWM79fvvvzsBCjlz5nTaQvYzoya+I4sXL3ZOY6ZtrO9M/HbwPlG3keG3rUuXLtfHEl4D8MOFDRs2dPriBw8e9MPddAu3E5CAZeDhhBKw2HiwgeMAjh9pJm7M6Utjyjzs7LJRY8eFQoYELANn+yFrQgtYbPQrVqzodL75UeJHiwODuGYQObPPddbsxEXu7MdHwOLHkZ0yfjS5DIxCmic6gYMAdrT69u3rDP74e9ZPbw8E4GCPgzIOTPkR5/2YeEomO2GxDXrYsaN9nNUoVqyYE90TOYqB92KHhs9gp5edVnYWo3a4KXJxA0zax2OvyZodPw6aKYqxU8BBU5MmTZwOI5/n4coy8v/i8oenqtksYPFd4V57HHzwdFaluAnYJmDxneWAm6ewcp8fik2e9ovtEJdZc4DC9oL1iNfE1EawXeG7yvebggjbJyZGtXIwyPedbQMHdexkc9DMZ1C05r0pNHGpPtsGbwa7FEpYNrYF7ITxvmxDeB8K6IxcKV26tNOesI3kt59/p1BHm9k2sc2OHPlFHhyEc+BFUY0DIbb/nmt4b7Z7HMhwuTl/nz9//rgrVjyuoOjBNpSiCAeVFNv4bSJ/lpPCEPe7o/0UhfiueytgsS3nhAXt5Cbl5EGxxhMxceDAAWegzgkc+u/DDz+86QRSPp/fHrbf3AeUXJgoHC5ZssRpz+kbDoA5AchrJ0+e7Ag6njY8HkhizeJvAYsDWwp6nnr8+OOPO3upRidGkCdPK+RAmL6IXGfIiiIA+458N8iV3zcKhNEl+oTfRCY+e/Xq1Y6Awv4nJ5qifutZHyj+UmiNLlGM4HtHf3PCi2KXZ09DDvrpQ04MbdiwwRElKZZGfscpovGdpJ/5DnNihInvKEU+lofvBIU05qcowPeMohL9zgjgUqVKYebMmc5g35+J7RLLy3abzzt69Khze4q7HMRH3TaE/Tu2NYxuoy18x5jYn6FvKVaxjaMNtIUiDCM5OJHG94/iDDf3ZxtBsYvPYz1nX5FiLwVGJtYd+oTLyzgG8Yhj/rQ9unuZCFgU9Fg32D7y/aUtfJc9NkV+HkU7vs98l9lXZdSWp16yvtNu1ikKjJw0YP3xZjsCbwQs3pNismelhKdcfD5FYvqH9TFy8tg2atQo5z1he8Z3m+0dbaVwRz9SOGb/klFWkd9ztsGsx0ysD+vXr3f6uPwucHNwil+RE/+f/dfEmDiUgHXDE/S7J+qa33+Km0o3E5CAZVAjElLAYrH4AfVsvsnZYTbQ3s6asmHjhu38ULNzxI+yBCwDZ/sha0ILWOzQ8YPLDzP/zk4MI1jiCoXmR5wRevyQRxZXfBWw+Ex+PDmDzgjCmKKYOLDgbPb58+ed6Ah2Fryt13QD6zYHmxzosZGPS8BiB53XclklO9EcPMYUmcbZRw5aOJPM94edDQ5cokvs0HPgSeGKg092mNjJYGeQHQN2MPmTYhsTO2i0Ny5/eJ5ls4Dlh9fNulvYJGCxrWHbRpGKAnFMQgwjGfiOsu3l4I7tBmeYY0scCDCaigNwCiBsnzhoYBvCzaijJrZ1bHeZGK3F6KaYEsvN+7P9ozjOgTHFl8jtLtsrPp8iFpcPUKjiIIPtHtsSRlgw2oSTA558FNMoQrDNYsR2TIO3f//911lKxo4xBwt8vrcTCN6+UBxcs/wclJMLyxtdG8q2myIaeXAQxrLFFYHFASYHlBQ1GEHLdjo6YYHRXhTpOFCkDzmIi85OtvccHH0VeY0AACAASURBVFAwoIDFbye/E2z3mY/MeX8O6j1iGxn7O/lbwCJLDnj4jWLiwPebb75xmEVOHNByeSEFEL5PUX/vuZZRjhQZKShRJGBfMq5INPqU3z8KhPFZQkihhpGGfL9ZL+jD6MpHwYx1mkIN3z3uLxpdf4IHEnFPLorV7BdzUthzb27RETWakZF8Tz31lNNPoe1Tp071qZ/iSx1h2813nWWMScCKfD++W2RLgY4CFsVgRlExutJzCE/k6/m+sx2k/ziWYDtIMaxs2bLRRq5RxK9Xr54j4jBKkm2QNyKOLzZHvTa+AhaFO4rytJ1/p3BHgYp92ugS+58UifhtiK6PyneeYi4FbIp89D3fkbjs90bAYnnYL6QvKOJTOOVkhEdEjVpe+ou+4jiQwiQnpdm+R00sJyN2OQnLusx+eHTtHb8t9Cf76FpCaFJbEzYvv+cUJdmWsT4yQpXvcExjqoQtTfDeXQKWgW8SWsCiUs4PLj/k/HBzmQM7Wd4kRnBRzWenxLMG3O0CFju3nF2hmOBtlIs3LP11TUILWCwnO3GcOaH/WWf4b0YLxJQYpcdZVzaUnLWPnHwVsDirQxGMnTB2JtjRje6jz04zP6L8GNNX/OhyVtWXxA4GBxh8ZlwCFgdJnDlmp5WdeHbmY6sfPA2PnUN2SCh2xbZ3CDvYHPDQDg56POIaB8msj+TAzh8HcJzJZKfI27opAcuXGqFrbRKw2JZ6lp1RLKGoEJ0wxQEN30sOPtme8R1kJFBsiW0K31MOYNnGcKBOIYbf0+gSxQ1GS7HNpUDOgXFMe2IxAoTCE99tftu51Dq6ZYAcYLAMTBy8cHAXW6KQRw4UhTh4YXmja2fYPnHgRvGKgxley4kOb9ukuN4y2sfZe0a3sPwUhGKLSOP3moK/56Sl2AQslp3RQO3bt3ei3zhg55KZmOxk9A/bbj6DA3yKRFETv0UcPHJigX0rlp0TDOwYe3zINpwDWA745s6de90vcbHw5ff+FrAovlLA8kTp0Af8ZjJiLXKiAMI6y59kSWEwOvGHDPke0Z/sV/DbzTofWzIVsFjv+X3l+0dBNqYVCKwXrD8Uhdnf4PJFfr+jJl7HukNxgzw4UUUBgf6Prg5R/KMYQPGOy/lY93zd9sDbOsCysV3gZJg3AhbbGtrL957CBn1BcZ1ie3S2sC/DaCpGolEAYRQ8I8A4Joiu/WE7wjaC7RCjedhvim0vKW/tjO06XwUsMmNfkxMT5MDJAQqOrKOs59Fx8IiRjNhj28D3PmoEEsvIe1PgYxvD7wo58D2JLXkrYLHM9DUFJpaby2FjOiWZkyOM7GWbxEjgZ599NtoisLyc8GD7xb4m6ziFsahJApY/amrC34NtJ99XbrnCxL4LI839HQWa8JYk7BMkYBnwTWgBi50GLougcMXEThQ/wN4kdiA5u8QZYY+I4IuAxRlJRpNQ4OAsAAcM/MmwZnYmos6oUmzjTCuv4+yn53rO4rBTxM4fO1WcPWUHmh8bzn6yk8gGnGHpFF582QyXz6BAx44FRT6GC9NWzvjxA8/OBjsnnJGJqYPO/JwB5oeN9vEPG3l2eNkJ4r/ZyefAx7O5J2etONvtzVKRyL4KhIDFjgc7evxAkyU/5pyZiekDyQ+dpyMTlZGvAhbFMtZXsuS9yDCmE2AiRy2wflDs8iVxnxfOWDKsPjYBi3WBM3EcWNFnFLLimjmm8MRlvKwbrFOsH6xD0SUuk+GyCdY7zpJwqcPDDz98vb7RHywrBS52HL2NvuKzJGDdIM4POds/fsQ52OJ7SUGBg5zIIimjZOgvties9zFFz/lS15LKtTYJWIwM4MDNcwgD/c4BUHTvF0UiCjpslyjWs87E9h5y0E8hnpEa3DuG3zDWvZiiRFkf2RZR8OIgkvUvpiVRvA+jRDybtLI9ii5xaRTbcbZvXP5FG2KaiOCSOT6fedj2cG+f6AZlnudQ/OFeRrSPAylG30TdByW+dZ5iFJcokS+/QfxWxpW4vxEnNBhFEJuAxb4If8/OPZfbsF8UW/QY/U0uvD/tZD/Bc8Kup0zsh7ATzG8D22iPUBF56RH7M1zeyGVz9GtM39K47Izt9wkhYHGww7rJxDJTaI26LI0RfWTJxP4Cl2NSEIiuv8QBNEUTJkaFxFR3PXaaCFicROJ3nWIyfUjhMLYtAvgOlClTxumvUshlvye6xO8C+yXsA9BuRu5E3vczch6+J2xT2A/mN4Z9pbg2wjepAxRIGGXhjYDFus2xAKPS+I3je0ZRMaalnfxekgsFE9YFnlBNoS/qPluRy89IrbFjxzr/xSVo0YmCJvZGzRtZwCJv+ie6CVC+sxwb0ddsH2kzl86xbrKtjC3Clu8xJyUo5DGxrnNlS3SJvqDNbKspdjJaNbbkjYDFfgxFRiaKY7G103x/WPf5kwIlo0lj29OW/Xhex74uv19s16MmCVj+rLEJdy/uGekZE3HpL98N1lVfVqokXOmC584SsAx8kdACFovGjy0/ukwcsFFl9ybkn+GHFIQ42+zpjPgiYDEqhrMTbAzZ2HMmm4kdZIpjUQeGbCwZiULhiA0uPzBM7JhR2GJHiUvVaANnfPPmzevMFlPI4GwQZ7v4IaGt3tjH8FvOkHCQz/z8OHs6OJyN4O85qGEnlyw4aIjuY8iZe37U+WGh2MGPFTvfDDMmu//X3pkA7VHU+b9DOAIJpOQwEg65RFexIOAu2YBZFAwSCaAVOQVUdjEblEOyLHJDEVBCLBaIwCIQrhASYQmHLAJZroAcAuJWAYGCyGkFWI4UZ3D5/z/9bsNkMjPPPO/vfed9nu5vV6UCeaZnpr+/nj4+/etf885MkmhM2BrBaghlBFpw33aBGxCDVT08niyJd0Y7PISyAzvKDiQErABi6ACvvPLKUtjGVhQ0Z/CXT+0CLFZ4qXNsXyBVbadhpTG4eLOqRDnaSdkJXhnAos6GAxGwPZ4RdSZUvAf1GQDC5IVGkm+nKDHxCcfcUl/I18rVvG45BbCc/9ZC7DIgdTYV2Z1vlW8X6MyKMbCCetxXHiZ1bTcQ16UEsIBMbJ2h3WZCRnuMt0YRmGI7DBMR2iW8gpi4VUHsLMDCjrSzYeJeZFfuizcVbRqAgD66yKOUthkvF8A4iXpNf1KUmLgzKWMhiW0DwBe8C4oSk0wmmyTuD0RvlegPQ6wUFpQCxGiVr+x3ygYoos1kIgVoAuTVCQDN2IBJJZ4JZQCL+wP/KCf9Gu16mFxXvXOYhDOpxT55ryEmw4wT6C9JgC68LcpAQG/1aZWvPwAWdTH0xcA5dM5vPwrQk4kt3w5gijFPUXsJkAzei3wPfBdVyQKwQvgMxlfhnaqeRT/BuBKIA7jD+444T/kUABb/ztgnBDsvu3dYoEIPwGxRkOxWtq37e28BFvdnoZY2sCwxHudbAMKRADK0Q1UTYsY8aE9iDFnk0VO3bHWuywIsxrTA8LKt4bT5tC14WpWBrqJnArzYvsdiAynsPii6lm2a2CSAc+pU1diuCmDRfgHoWdBlIYJdAa0W1xi78B3U3brMAjmxzvgu0Y05XB5QCmDVqYkDfw1tNbZnntfOCev5N+e7x+GEOH5loH7gS9v7NxDA6r12/mQTvHxoMNgnbU2ADYLz4f0REvv7GXQxEKHBZlWABrtqQgZ0ChP37ACyHYCVLQudHu9E41cGsLLXh4EmAIGBGavfPBs376JBRRYCMAChgylLdATB/ZcPm1UJVr2L9GCgyyoVcIR3II5JWYcNuEIz3p3OkUkwQIaVK4AQ/xZWl3k34gywelfnlL9QliY8sHhWOGqdCQEJ4MjKVD4xSWLQQ0fJql8+tQuwWLHkXgz0aDDRsmyFiUklXgDYCKgJ+GkHMtQBWOjAgJtyAjOoK0XxA4rqGkCVCQB/sxpPXSgacGTrLoFPgbV9lVIHWLQ3TPAZPJOYzDCAxA7UFVys2RpWtDLP98xEDPhO/jqnmvWV3QbqPikBLOzL4SR8b3zbIU5UkfZ8R4Dr4OEDsKlapc8CLK5jEYRTqsoSExfiLXFftqHhLUU/nk+0jyy04M1L4p2LTk7jNzxn2MLDs/ECA2AVeUDwjQC6QpBeFrzop1oldAsHaACyGHtYEu04K8T0sSQG33jz1PFWYqIIWKwCWGgMoGA7F6muN3oW7hWByDzAQhMW0tpZmLLoFvL2NcDK9l88g34PwMjCYTaxiIjN0ImxLH13WZ+Nx17YQodXIpOrqtRbgMWiEWNextcsZgIUW2375dsCNlHn2BbIt1W05TcLsChzWBwuKwdwMwQGr3O9pS70FmBRV2lTaC/KEu0EC760D4yBWWwGdlQlxoYB7LaC+JZyh7xZgAXkYUzYbmiJOu/BmAHgxzfBf5dN7Bk74MlE/0H7Txtb5TFVBrCYs1CXWeSgnWXhu1W7iL2oD3yzgGXaf/JXpXCaJosT9BkskLClMJsEsOrUkIG/BvCEBzbOGUUx7eq+IWMZFmVYZA8n1NfN2w3XCWAZrNQEwAoTfMBVOB2HjqVqgMUKLFssMG4WCvQWYNEwsgrMlr86AAs3XRpfBqSs1LE6RmdZFlQRbylOGqNxpcHFXbysgeferETzYTIxBRxWgQ8GQ7wL29v4iBlkl01egFYMJIFWeA+xLRJPqbB1g86OeBjYhE6I+7XajpatXk0BLOoJXk3oSMLuvGtWU65hksHkrywGSrsAi2dxX+yILlV1NAuwmJgBl1p16lkt6wAsJjvAUN6pjgt29v50IGwJZGsCEJjVN6BcPmUBFlsNWg0K22luUgZYtDnUW1Yq+V75Lhn8EX+F7U543jDRZCBeBqf49gHv1HHc9puelLZj6764NiWAFdoaJuDYtcq2eNbi2QPAwtOUlem6AIu4gPS9RcHbg82yAAuPAABWWXwgJmkhMGsVbKL/BhLQTrLowz2LvGTxCgZgAQtIrLbimdgq0XeGdh8vi1Yxtlrdjy1NAGXeB+gAXAyB7VvlrQOwqNshVhP3Z/EIfVolJn5h4I5HOV562ZQFWEwU8cimDW9nMaXVO9T5va8BVph0h1MImYCztRS4k091++wswAI4BphYVr7eAiwW3LAtbTyecHjL5Lc+FpUBEIdHDfWD8VsRlM0CLMZHrbYEZgEW9w+ejnVs2u41vQVYeNfh9Vk10c0CLPpP5gitPKqyAAtvrbrfc7vlDtc3BbCo73X6jSzAAqQBsPJxYrNlLQNYeH4yHkd3Ft/z25iL9GJuye4J+gH6NraRMfeqSpQLBwC2YzP+ZnyUr68CWL2tnc3mw5achknfzNbVIsePOm/EQhjwn/tUAe469+rEawSwDFZpAmDxejScrPACQHANZVBbtRKAezArifmAk70FWLwDE0cmAHUAFo0u1BfvMcAXA2oGtGWTBiYYACzyMfBnxa1ooAUIQwdOHuKjZHBadF3epMEjjFX7kLfI7EAUtGPQhxs6jX82SCzgCu0ZrOPR1O42g6YAFmVDG1b36agZvDKxybpjMzhk4sNKZdngsDcAK6srjTDPodNGN2Jw4EkYApzTsXNNfwEsPOcAjSTgKfatazM6erwomJAxGEDPoglTFmCxHcHqyZDVL2WAxeQHDz3AA159+eOwaStYbcfGVd5VDEKZqDNZqet9Z+gSBjRrbACLtgFwA6yuEyOPtoY2hYk2bQ1bP4ASgHGCENMW0r9wTV2AhUcVE/+i49iDsfMAi7aiCDZxPdvqmGAEj6Wy+CvYku3YbMejfSTWTVE9JyYc7Xg4bY4YhHUmSCwu4d0FqGFxg5VeS8LrG+BP38l7EoOoDkjjmXUAFlADLzrqBLajXahzIhPvBbAk0VYHj5JQ1izAAnzgZVMU7N2iTZ28fQ2w8NwIMTx5Pp6sIfZTq0kw3xH1KttnM4lmUSFo2Z8Ai2+eNpsFCPpetpfWif1Cn8GWW67Fw7Bou18WYLXy9kenbgBYLLABsKq81LIAC+DFuI92oyrFCrDyZabtDPWd8QKL42ExlcV16mFvABZjR+yC51uIRUcbhPdXq8Va3of2k/aUa/EEqxOnkP6Cb5TvJsSFzJZXAKtOa9wZ1zBfZc5CrDTmHkDQdnb8UIpwuimL662+984odXtvIYDVnl7LXN0UwOKhgCO2MTF4YxCcP3o7vBgeI0zqmPThRppNAwGweD4DEgbtZYlBJidKMelgEMyEoWjvOxMDBjZ4x9C50hHUSQyQ6QCY9AKoWJ3La8N9iJFEI0GHxsSHiZA1Nkj2/ZoEWOFEQPZSk/Ir80Al/g0yX7avv7cAi4Euq6bozEo5ExpgEC7QuMUCQwnSGrYQ9hfAYjWWxp8EUMW+deKrcT0dPe8XYiXgfQecyq/MZwFWnRXdOvU1XJMywGKyhQs8q/xFbUFdgMXgEy9QvDBaueC3Y5tOvDY2gAVc4PviW6Q/K0q0NfTDeBTgVcTAHWAf2hoAFAspwQNroAEWXswMJIFovBN9XRFUZ+LDYg3ggMlmmbcEA1zux3Z9JjhsByS4fd3E/QG7dSZHVfdkbIJnNH0cE2qAW6tTu8L96gCs7KmMLN7hxUYMtLqJSSDxYJi8Z1MWYKEBW+jKTvqq+6zeXNfXAAv9WcAK9YL2lO2rZYnvCBtSfr4jdGIBlFV7+me80AFaYVG0PwEWISvwdGcCh8cL48e83ao0BmBRp4v6egGsX/mxL21KKw/GmAEW3z0LI9Q1Fh6pa8yx0IS5Aoc1sNsjbCFsF2DR74T5FnWOcShzM9ou4H7ZiZqhXtOu8y4sdGAvvoE6CxMhP/0g7V1+bC+A1ZvWufk8tNssjLFgA1AF1ABTgdQsbOF0QDtXdhhN8DKkrvGt1/VYbr6kticKYBn0axJghaCWvC4QB3fmok4d2k9DDKjJp4EAWHxkTKzKTmXiHcNRzlzH0c9s16IDyCcGUwTgJdVZPQv56QSAEQzA+ODZTljkjpsFWJzSggtnladbu1WnSYDFu2FvvFRozJgMAQBDYmsVA/Wi2Fjhmt4ALLRmW2c47Ya4UOEUyqxeTWwhzAMsBgV1A6zT0TPZZXJFqgOwiEPRl/vMUwZYTGCYEBe1Y9ijLsBioIoXHt4a4fSfdr/bbrk+NoDFpJoYhgAZ+rV8CnELQ9By6gzbxPKnw2a3EA40wKIMwbsKmAWIIWZVdkUeT2egFNtGaKfx0irzGMOjmGvZ9k5sOLY7spWv6cRCCUCOPo5VYgAK3mB1Uh2ARbkCEANq0JeVhSSo88xwTYwAi+8Cjzq2V5MYS7EYV7Z6j2ci28MAVwBN6iPeG/lFvqa2EIaYpUziGIMAGto98bmsDghgCWCxqMW4mL6CxOI6ECsPPC1bCLkvsbXwhmLswdgwxElm7oGHZNViKu064S9YrAesM9dke7o1CWBZFWwmP97RgCr6dWtiDk79awWsrc8ZiPwCWAbVmwRY0FdcqXHvZhLO4DYflwNiS2NMwMWi7TIDAbDwnsD9v2oPbxZgbbbZZn6bX/79KTfbMlhNJ9EBtDNQZ8WD1W4ScXWKJrNZgAXcYdWyyFOrt1WmaYBF/QTcheeyFZWtMHi6cQQ2e6urOtF2ARaedKwkA/7QDTd+dCw7Gay/PbAYwIeYJ4A6AFZRsPoiezJwAGKyLYHVLFbAig4XyHpgCWD19stYNl84/IEtIGWT1LoAC3iLjZiY1fXY7JtSNH+X2AAW9YA4IHg+5oOds7UCryTadPpDvnXaniLQ02kAi3aZ/oft1LQvwAPKQnvLVke8zTgtC/DKhLvKO4rjtgFYQC8Siz8MfJtO2S2EtLGs/DJeqZPqACzgCYAM2ELfQltL3bCmGAEWbSN1As1ILH7ilV+UqDfUPbYsAYn4jlggLeqz+wNg8XziK/E9BE9EvO14J75xFmkBWPng8721uwBW2gCLk4ypa3il0FewuErMu6IDeiwAC+9Q6jHzH7z2GYNzqAwesoxFWJignS+LoUu7jpcjixxcQxtZtY297vdQB2Ax9mXszjfYF9Cs7rtxHU4KbAOm/0s5sSDErpH8ydu90UQAqzeq9X2eQR8xG+mg1CTAYqDFqSoBwtD4EZA8u6UJcEDgcSZqRQ3yQAAsGl1WT0Mg9CLz5QEWg/D88a+UCy8iGnQSDXo7WyUAKbhRksqOgM4CLGKIVW2v6001bBpgQe/pBNkuSD3Ba4/VVQAn8cSoP1WpHYCFtwQDAaAfCXDEKm6Zi2uZBxafOBNXOu2qOAF1grgDrJhE8e0woOD/y45lzutAnDNW0HDfZeUaqFrktSeA1ZsvoToP9sLzhi0vxMYrSnUBFoMxwAbeXJzOE3OKDWDx7bGFm8lG9gQ+IAbbW5hs423S6vTPMoAV2homFNl2KnsKYV/HwOLdCVbMVnnqN/05p23xjniv0taw3ZrDTOpMWOg7WVllQYtEH9cXJyK3+53QtxGjii3XLIrQ1xB3qU6qA7CY0DC5AaJgLxZfWgXgrvPsGAEWW9kZ71C/8XzHG5rFmHxiMounFgt6JBa1GPOUpTKAVdZn1wni/vjjj3u7sqU2eIjxLRBSApsDp1ms7KvT6ASw0gZY9BnU83DQEd67ZV75VQCLdpw+I3t4SDaIO/CBcXc20a8Q+gU4QVgNPA0Zn5fNiViIYI7JM5jbcU9rqgOwgCZsVQMsFx1cZH2HqvwCWD3qsPuCRfdQpxgHlc2lyvSkjgJCaYfpExQDqz9rbut7Jw2wkIf92kzsaHxpYIiTQbwJUpj0sXrGZK0oDRTA4njxqhW0OgCLLQMMiAELJCZrnC5WN7GKz6owCajBFsQ8IMkCLDq5MhBY95n565oGWDyfiQQr+bhNA3FwaWY7DoCuVQyRdgAWg1smUsTeYosHA9Ky44l5L7Zx4oFFvc3GwCL+GBM7VoyrAGUdgIW3HttYwmECAKxWJ7kEm1Ee4Ak2w9OR/y8KJCuA1duvoTofcJX6xzbQohPm6gIsBgJMrPn2B8IzpX/UKb5rTACLPo5BFyvVtMvZoOjZmIYAJtryqgkuExEG/0wgslsI8eqlX6Cdz26l7k+AhccJ9ZBDTcrgbLt1hkUJYheRqrxtiu4btijUPdyi7N1CUHr6GxKQji06dQbddQBW/v6AFxZI6iTqEv0fKV/O2ABW9kABtGerFJ4fRQlPB/psvOcAXcQbBKyWJXYB0GeTsjGwCBzN4hXbOTj8JqQ6AIs2i10DWYBFfhZr+e5ZyGJRrC4MJS9jRPoMxcD6xJLZIO6pxsCivWduRH+AVytjOkKWlKUQAJsDL/IxsIDnLDJk42q2Alg8hzrNQjztLvMX/r8oXArXhkV35imA5fwJqlVtX1m7Xhdg0Tcx3xTAqtPD9P01jBPQnjkUzhu9PRUXAEpbSgy2GGPAaguhoe416YHFazIggOAzIaeDhvDjVk9iJYvJHqCnLOBlNwMstgywpSgALE74qDraPG9WoAgrHmHwxaQnP7jOAiwGyOhV5MnW2yozEACLZwJtwlY4TmECGLLqWnUSF2VsB2Bx0iMTKSYEbLXDyyvA1SK9gEkEyCT1F8DCOwMQwmSR98I7gUFHqxNgeCc8HLE/EydO8GCAXpQEsHr7NVTnw2uTeGJse82fpkrOOgCLug/QJxgr9a3KC7R/StHsXWMCWEw28CRiskG7nIXZxFcK3jeAKQ6jqDqJMntS30ADLCZDDExpf6uCardTc9iiT3wovA2ZePDN1Dm1jRVaxgxM4srat7rvASRi+yN2AWgwUcQudWIX4ZEAEOGbZjzD1psie+K1y5ZiJmeUk4F9ncSkjfJRznwstdgAFjAWaEW52AKEh0nZFlT6aLavkhhXsiBaFSwdT8GwLbQOwMKe1EtCFnCwAm0wi1vZBBTjtGe87rPb+6+55hr//nhjEweRdy3bbpW9H98AHva8Z1EwfnlgpeuBRXsBsGVrKv0Jnn1VIUIAXPQvtDd9BbAYkzJmDPAdMMvYuQhQML9jmzTtF4sefH+txux8C7TreCUz7p80adIy3xvPB6DhlYnnGeOsAKXDhYA4FnRoD1otctdpf9u5Rh5YPWoxdqWOMpdiO2dvEyCMvhLQg91jSwJYBos2DbAYlDDgYEsFA0YaJ/ZUkxio0NmzTaZs1bObARZeXHyANK4kVg/bWR2APtNok1h1J2hjPnUTwALGUAa8FFodrZpdoWeASp2pc9JSOwCLCVmYHDDxZNW0Kt5U9lACBs8Mbqm32Jd4N7h6VwHKOh5Y2Hfx4sXeAweIgdciJ3i2OnGLyTMdB4EU2c5DvSmDHwJYhga0IiueeEx+GHBxmmUA9SFLK4CF3YHQfCdM6Ji4FHly9c/bD8xdYwFY9HMAZOzHAJqDO7KHgHA6JYsZJAb2fNNlCw30k3hzAu6B0XzPgBYmAtQR+gK+4ayHV397YOEVyqo7/XhfHBKCdxHtKW0u7Tvb6wAMrVZtOXWO7bX0I0VbzNqtxXyr9DXYB33Z9lLmDR7ujX34RhnLMGivAliMb4Ad3J++haDjdeJgAUHRgwWsrJ15h1gAFpNWvN+I6UN9oK/D67QK2rMwE2KBog8T1jLwiZ24N39ILD4xoSYBLJkw085mPVpYbMT+bCulvuNllY+FitcXE3gWKLPecWxjYvEBCAr04hsHPlcl3hFIwaSGshfFXRXAShdgAcaZQwA5mTtQV6qALfWSg0FIbOFiYYCA7CQW1xjnZgNj1/HAIi8ej3gdsr0rxIqlrucT7SHtHe0zCwF8I4yVWyWgMN817WM+FAt52cXD9kAWctEkfyIi3zPtMHCr6vCtVu/Rm98FsHpUY6wCPKV/s8RuJc4mbTse0WgbWxLAMli0aYDFqwJuqNgMUnAvZHWZQTADUSp61batbgZYNPo0qiG4XzvBahmkohkTFxITGgb8+dRNAIv3p0NjYMfko2qywkCTVUziXlE/iOdU5rYcNGHVhwEgDSCu+K2OYWXFlMkgq1W8D+9V9gy8wfCMItYF20cATAAsBhPYl21DQIuqAJJ1ARblxnt6/wAAIABJREFUYWDOxIp3Y5KHFmUwg7py7rnnes+EMGioOk2LbyrEDWHQ3FdeFbx3yqcQUn4mLwB7BpzULQaMxAUC2DLIYsLEtxy8NWgTOaqa75zfqEt4bAAgq7wBDV1AR2XtFIDFZBoIHU49xV585+uuu25LvfhG2Q5HjCtWyvn2AA9h4sANACMMyngOkBtvWg7/KEp4PDEJAEoxsOc6JtSsPrPdmTqFd0e236Rucf9HHnnEx8yjr6nark5cRhZI2J5Nm0m586va4d0oH7CGMjEZoV7TzgSvUNpxQD4ggXdkEYE/rVbeAb54neBVALygb6g6dh24wCSHa4ASdbxbWhrv/y8O4R2OFxYxuZjkMQms8nKgD0A7vLAAEEwssW/Z4gfQEc8cJlfBS6AqPAF1iIWVtdde24PKPKABulF+BsL0c/QPRZPJOmW3XJON0clkmT67brxGNKcPYssP/RoTFRapWnm/0UczoQcM8ky+o6LDfygXXlSMOfiOWNjhAB3qO3UVGxKSACCbf2YI3UD9YqyaP/X4zDPP9AcQsGCVX3jFy56y8GxsTrtQBRwYq9DuANcAVUUJIEGdJDFmqdpWk4d2VZ7YFtuTl2cR9wuvGxbY8DasGstTr+kbGdvwrfB31TiFPhQvROAvGlJXWnlknHDCCf67IKEZ4KM/ExAUb3kS0BK40s4idat3A9gDBKhv3J8wFmWHSwFQ0Yt5B20NYJb3of8ALtDG0a9kt4HTD+CpRb/CmBZgW5ZYlKFO04dhZ/qYom+PbxtIRvvIVjCgVNXCMNCLMSjeV9ivKGH7sCW3aC7EexNChfahVRvSSvN2fxfAalextK8XwDLYfyAAFg0UjSburQx6WcFi4MWAlUl/lZdBNwMszIRXDI1qux1qcKNkJZbE4JqV+HzqBoAFYEEDOinqAh08A8+qwS6DFzpUBkV4IlAPWnmjAA8YVIe99Az+6dTKJjo8gwlZgIQ8hzz5xECNzp/OmxUwYBEAFu3p/KnPrA5Rpioo1w7A4h3YdsTEBP0YLJQFxGQgSOdOeYBqVYNCBv4MAkOdZNBMefoqpQ6w0DEEXcVuITGxZyCJjViVxw5oBcABvIbEwJBBZ9VEoK9s1Qn36RSAxeAfu+D1SKKt4d2q7ABIwMuWSQzfdkhs+aU9yE5cAfFMVMN3Vxb3iXoBpKGNZHWcWEDch++axRD6ASYptD3ZSQEQiO+ardZMqoEJ+VXqrL0B8nia0M/QFwPEgDdl7Rdb/ujLmHDXSUyy2HJCm1/VJgLemACwss+kB6BQBo/w1OaboZ2tOom2zvvlryGcAX0BEzngUNlEiskhgINvGZvgVQlgYgJV1D+H5wAlw0SHvgSwUbTlkDoFvAJE0uYXeRcB8ujn6HdITErxJm7VP/ZGl7I8tGNsk+YbIWFvIF5VfB6uo07TJ7Nwwj3om9luAqSps02e/CzmUP9JTAYYG+QT3xELQNRxFgiwKeMNABDfOf04cIcxQz6hO3WdiTqLVnhWhsT3AviiDGUegNQlgCzgkmtDwPn8c2gT2DrI9x08APPXYGu+C9oZUqug9VlIxPV8M4yx+yPxreBNSttH3aPfqvK2wQ6AOuoMtua98tvFsu8ZPJoZA9Km4ZFRdcgO9uK7wMakVgdlWDXhedgZOEqinQPyM07sy0R7wViQ+9P2UFfy3zrvgvcv3yH1CVBI20E+6jJ1kj6Hdh4wHhLzQTyGGeOyeMtYuGxcTjmxL2N4Et86bVDRN0/dYLwKzOJ7DbF887pwL74RQBo7M8q8kmk/eTbzIYAy0DQskADnaAcoe38DyyK7CmD1ZW2P/14CWAYbDwTAonHE02ratGl+4gaYgNzTsOKWWpW6HWDhBURnwiQVWEBgujorxwyw0IYBGxMLtlsWDXg7GWAxMGXlhIEcW9yyE3o6KrwbNt10U39NkecS9QX701nlV0GpMwBRPJ8YCAOt6DSzMIBBD50xutHhoz9ef9nEBIQJIx4vvBOa4wnDu1FXmQgCJPBuCq7crDriVYirMt4UTGqmT5/eMsBxuwALvViB49lMaBgs8t9MbpnoMKlkcMwqMb8RgBhvn/xEAO0pI6vDTNTRifwkdMEbIGjEhDNs0ehNMyOA1RPPgYk4k58Q/66OltQrttS0Eyevzn07+ZqBAli0q0z8eT7fOW1UHs7gQcWqd9bLgr6Mb4d2huuZZOUPGmbSiB3z3hl8hwzW8Xbiu2MyxzdLG8g9Od2P/oE2iO2GTEaBYYAB2jEmzEygmcQRgw9oBcxiAA8IClvVsTcQiDxMYgDz9LV4cfFu1Em8UihzSAAh2mD+pk0NcYbC77RFTJ7xPgltR6t6xYSL7SDAmqrDCNAFmEAbyjtQdiY9eFrRPtM2402BJwJBgftiC2P+3bEhejDJY0EAL0jGLMAO2lN+A/TjCRxicKEpEysSk0baUeoME/Oibzjcg3JybTi1lHLShwDmmGAy8QOg4YEZ4F+Iq4RnD+ADGBBS6OewOfUK7ahndYBQKxuG3/EUDbH5eBdsRv3P1n3KhG3y9T6c+Ed9RoPgwQG0YnJOX9vOu9J/hT6b+s1JVfTZ1HfejTER/SJ1mP4MvfBOZAJO/QrfEWAKAJFP3ANIQPvAFkHqHDCE9w9xyfAeKwOzlJd3DNsCgZ3Yg/ekn8X7i3EhoIWxHffMwm68cKlj9KVoDJQOYycm7YAG3ovvgWfQBlGXgAX079TJYBfqA7pQNwDg4cTlunbPX4dXDYA1tB/8HRLPYPsngASQg9YsCFBG2gzqDGUJiUUdrmHcBdzHpsEjje8BqEG7FspC2bkeb69Qdq4BbNG2FY1teB9AP953tF1lp/fV0YNTq6mzADXaXN6V+pz9Bmg/eSb24X2pJ9aDWGjXaQ9oV5g7sDDBfQFPvBNzBeoy/07bzbcK6AIu8U3i2UTdYCyN9y7jZuoc3wX9Sbbfw/OYPNiQZ4RxNwu71B1smE2UF3CEgwLtY5jbhPaU9+LfGSsDlHk+z+B9qP/UE/oy2toqr1fqP4sc9JlAL6AR7Sh5sCueafQTdeIo1rF1O9cIYFWrRf3CdrRrfBf53ST8O/Mp6q/1YJZ27DZQ1wpgGZTva4BFg8SEmslaVaLBYjWMjolEXAcasFZBirsdYNFJMAkJ7rYMgMu2jmT14xQ+XGUZDJKnaKDF9Z0MsFiRA7KEI9/DIJXOjT8MAugAGXwVTUoYvHAPBqFFKzN4EbDXnoEkz+Dv7ECYZ9DxMXiio8czqcg7id/RGO8IJrR00jSk/OGEIzp7bBbuzeCUCRWDOSYsTLgYJLSK39IuwAr1gXcHpKEFz6RO8SwmOGyjYCLFAKKs8+Z6dKJc6EQ58rbgGfxhwBKC3vammRHA6lGNesegCgjLt18FsoD5TA4ZfLaKDdcbm3RynoECWNiDbxhA0teJOGhlR43T1uCtQ98HUGZwx3fLpIyVbAAT33RoS5hg4M3FpIM2kokeC0AktGNlm4lSaP/IF9pXvmfaWDw46G+BHiwWhC1/tAHZ63k3Ju+0kZQh1GPeF08wNMPTE08jJtzkD+04z+F3+nfei61awHfuR/0GClVtreF7IR+r8IAGys2/MfkEOAA6GD/UWfyx2BMNAIN4LrBoQPnQCI0BzEARxix4NDCZpcxowUSKv+kPgBVV292ZbM+dO9f3jZSTZ5CfCSnlBGDly4ktWRBiMstvjAtCHQn2DvYLbXir/qgdnYBOQMYsgGgnP+8CPEAf6gEB0i2HzaAHXklMWrFFCBvAd8TWWdpS/g4aUC9ZBGRbMO+A51NVfCruTx2m3+T+9KFsTWIsh9dQnYkW92ALMHWfCRrvyPtwH74hxs75+GZoSj/NAgjPDP11KEd2PEP58PZhQs/2S+oidSN819wrAHfehTpp9VChDSFeHd97vs0J4yyeD/yjvQqH72DrsrJwr1BngYQADxYl89eHstCmMC6j7FzP+wDS8mVHK/5wf8oO1LEADsoHjKcuhW8QjbFNth0NNuJ64B3tuTVhP/oA2kf6DeoIOtNuAIeok9SpMK6j7lDf8djlGqAB7QrtBmM06hcpb8Pw7vw7dT2c0El7RXueb3tCmwNYpG/Iw2t+Jx/vzTcQgB/tOmNmbBj6s1YaYX/gLyCNcnEv6hX9AgsPZVsrW93X+rsA1vIK0ibR7vFtMn7gGyRRT/j/rMMC9QN+QPvI33hR9mXfZbVvX+cXwDIo2pcAi0ENjQedCQPjVsdPZ2MmQPcZFLdye2d1hYEbH0Ag91UxBYI0NHas7NGxMQCGAFdtO6BjBhLxdzgGtAquAVcY6AMlWEEHgBQFH+R9gHes6AI+WFkDTJUNxHnvcOQ6787KIgCl7HpWWZjUsPqEVrjK9+X2ir48hdBQbaPI2luA1U2FF8Ba3lp8x3jdsF2FCSuDOgZeTED4dpkYt4oX1E11oJ13HSiA1c47pnwt/RoTGWA5AD1MaFppQj/GpAe4z2SKiTMTqpgHpq000e9SQApIASkQlwICWMvaE48qYCae4/kEZGRhoCh2GmALL0zGw0AeC2zu5BomgGWwTl8BLNxUqaQMUoEruIqyClAFpAjmxwom4IuVqVYntHAd3iAMoklUaCh+9njyMilYrcArBQCDCzXPqwqcysfGQB13bJ7DKmzVijGeMNyf61nhYDWQVcWiATqDeVZdcSFnAsv2ElYAi7RixYq93tiJVQUCA1fBLjw8cL9lVYoVGOJyZPe4G6qKzyqAZVXwk/wCWH2nZbfeCXjFKmfwoChqL1hJp67QzvUljO5EzQSwOtEqPe+EdwP9L30pq96t4lnlS0I9x2uHrYcscgHA6gTF71xF9GZSQApIASkgBT5RQADrEy1YrMWzlG2tJObGbPfF0QWHkEsuucQ7pBQBLObJzH/xQsbZJZymGVtdE8AyWNQCsEKAWQa0bN9i/3k2QVdx1WWfMnED8gmXT9xYcR9lW03ek4oKzNY54BDwispM0L5s7CRikrCdi7xMAhlYB3dEYBqQjBVf7hFigjBJxM2Wj4YVZKAPE0NijgCTiGeCW242JggDbTwk8JRgGyMuztyTvehMMHmvsB2ScuIWTtwLXNhxn+b0jXwifgXxSDjNg98BgEAw3oVYAbhbEgODe7DnnIaxiELjYg2o4j1wvwxBFXkeXmDYgHsSYBwIVhQ7q24VEsCqq1Tr69iSsttuu3lPPNzZsSO2jiml7IEF1GerJy7xVbC8lb2D1wtu8rEHcxfAalUbBu53VkoZjNJ/sq2vN1s0aPOIcUJ/RP/catFq4EqrJ0sBKSAFpIAUaE8BAawevVicZf5OHE/6fBgATh0h7hzzVbZ2s0uo7ORYGABbtvHcZi7c6lCQ9izVGVcLYBnsYAVYABzAUlEcBvZpA7nwXCIORFFiXyyTO47szgfupPICbtjnHO6f3c/P/bL72gFPBPILp2YAhohjRJ6wf5483De8GwAsHD+N1xUfSXZ/fnjnsHeeZ1AWYhUAufA0A5yF/fbh/uEZXE88m7LTWPjICbrNlku2CgLbeFYIhgitBmxVHTvLVgzcLYFbvEtWx7CHnS2XbG3k3QWwDB9Mm1mBpoBRACxxcLLecNidmAisUlAH2UIb29axlAEW24qB2HyfeHP2JtGO0KZxcADbnvmGY04CWJ1rXfoYABZ1Eo/kskFnVQnwPCaIMX0Q/TNxnpSkgBSQAlJACsSggABWjxWZ17ALCAcWHEPyO4fqAKwAwjg0g9A/MXphCWAZvnoLwDI8Vlm7VAF5YNU3HHCSIMwEhyYR3wgvK7wFmQRyshEx0PhvQGtRQPn6T+vMK1MGWIB9vB4B0JwU15t4P3i2EnSbexEEHs/RmJMAVudalwEng1E8AYGqtG3t1GkWU4jhyIorK7IE3O7vIOydq6beTApIASkgBWJTQACrx6KE0cEDi10IRYdy1QVYzI+IF0t8Zxw9YksCWAaLCmAZxEswqwBWfaPjfciJgP/5n//pM7FdhkaYY9KZzHGMMHDrK1/5ig9kGGN8o5QBFvHtAFh4TeFp2m68H7ZmH3LIIT5eH0GzBbDqf3u6sn8U4JRbTrDCy5c6TQiAuolt7pwyRTvHqX4cZKIkBaSAFJACUiAWBQSwenY5XXfddX5ewxbCotQOwGIsDOgBZMWWBLAMFhXAMoiXYFYBrPpGB1LhbYDXAcELacgJSMg2QTxrOJqerYUcKUzssxiTANZW/jhgglez379OomNn2yGnk4a4ggJYdZTTNf2tAG0aW6KPPPJIX6+J78hBLMDZsgNLOIVoxowZfvWUbYe//OUvPfhqx3urv8ul+0sBKSAFpIAUsCoggNUT2mfWrFl+/HrYYYeZAdbtt9/uxxB4bceWBLAMFhXAMoiXYFYBrPaMTiBvPK2Il4Y3DR45ixYt8idxER+NLYXExoo1CWBt5WMBsPUP7zsOgiibuLNqBdgECgAJsolDIfDAUgysWL+U7ioX7Rpx2a644go/SCXGI9sLOV2QGJL8TpvHgPOee+5xn/nMZ/xJu8RgjPU47O6yoN5WCkgBKSAF+loBAaweRdk6yOFsnDJYdrp2qyDu3CcEg2fuySFtsSUBLINFBbAM4iWYVQCrfaPTABOcn62EuMIS94Xj6DmRg8lezJ4IKQMs4lZtueWW7pVXXvGVhoDVHCe81lprLVeJqCN4XR1//PEfn5bKRH/MmDEear3xxhvu4Ycf9ieuxpwUA6t7rAtw5XCQt99+23G6INsF8LZ66623/Cm8QNuvfe1rHmpx8hAHqcTc1nWP5fSmUkAKSAEp0B8KCGD1qMpch/ivs2fPdp///OeXk7ruFkLGvxz8AughfEFsSQDLYFEBLIN4CWYVwErQ6IYipwywOIVwiy228NtD99tvP3fNNdf42EFsJc0GtXzqqafcscce62MGAAQ4SRTAydbTL3zhC/7fOckUD6wYjxHOVi8BLMPHpqxSQApIASkgBaTAgCkggNUjPQtbf//3f+/h1cUXX+wPr8qmOgDrxRdfdPvvv7977rnn3K233uo23njjAbNrfz1YAMugrACWQbwEswpgJWh0Q5FTBlh4TRHHaq+99nKjRo3ycIoVKeKhnX766d77bu7cuf6kFjxXSMQSYnvppEmTvMcKia2mbEMcOXJk9Ke2CWAZPjZllQJSQApIASkgBQZMAQGsHunx0Mb7ijEvB1ixIMuBVeHk4SqAxQFYt912m/e6euihh9y0adN8+IEYkwCWwaoCWAbxEswqgJWg0Q1FThlgFckGjJo4caL3pGJrIQH82T7I1iq2GxL4kjhZqSYBrFQtr3JLASkgBaSAFOhuBQSwPrEf492DDz7YXX755f4f8cY64ogj3Pjx4/0C7ZQpU9xxxx3nNtxwQx/4nUVfFnUJp7Fw4UI/LiYMAbsQ8h5c3V1LPnl7ASyDJQWwDOIlmFUAK0GjG4osgLW8eC+88ILbc8893X333ed/HDp0qI99RZD/YcOGGdTu/qwCWN1vQ5VACkgBKSAFpECKCghgLWt1TitmbDtnzpxlfiDGK9CK8S+JHQrvvvuu/7eQgFccBDN8+PBoq5IAlsG0AlgG8RLMKoCVoNENRRbAKhbvsccec9/97nf9CtM555zjdtppp9IA148//ribOnWqO+OMM/w2wpiTAFbM1lXZpIAUkAJSQArEq4AA1vK2xbOK8euMGTP8IS+t0qqrrupPbyecRtGhR63yd9PvAlgGawlgGcRLMKsAVoJGNxRZAKtcvPvvv99NnjzZxwbYeeedSy+88847Pey69957dQqhoS4qqxSQAlJACkgBKSAF+ksBAaxyZRctWuROPfVUd/fdd7vnn3/ee1yFhEcWC7TEyzr55JMLTy7sL5sN5H0FsAzqC2AZxEswqwBWgkY3FFkAq1q8efPmuRNPPNHNnDnTbbXVVoUXExPgJz/5iVuwYIHbdNNNDdbo/KzywOp8G+kNpYAUkAJSQApIgeUVEMCqXyvefPNNx0mDI0aMcGuuuWbpLoT6d+y+KwWwDDYTwDKIl2BWAawEjW4ockwAi2Drl1xyiaNMfZU4qeWWW27xJw0edthh/mTCkPht8eLF7tJLL/WnED744INuk0026atHd+R9BLA60ix6KSkgBaSAFJACUqCFAgJYqiLtKCCA1Y5auWsFsAziJZhVACtBoxuKHBPAAihNmDDB3XTTTQZFepeV1SkBrN5pp1xSQApIASkgBaSAFOhvBQSw+lvhuO4vgGWwpwCWQbwEswpgJWh0Q5FjAljIcMABB3x8JLBBlrazCmC1LZkySAEpIAWkgBSQAlKgMQUEsHqkZsE3e6JgMAAHF62wwgof24Pr3n//fX8q94UXXugXagniPn78eHfggQe6zTff3A0ePLgx+zX9IAEsg+ICWAbxEswqgJWg0Q1Fjg1gHXHEEe6ss85yW2+9tTv++ON9UPVsZ2yQarmsdOzPPfecO+qoo9xLL70kD6y+FFf3kgJSQApIASkgBaRAHyoggNUDr26++WZ/kiD/nU1rr722u+qqqz4O0r5w4UL37W9/2z3xxBPLAS9A1r777utP6ua/Y0wCWAarCmAZxEswqwBWgkY3FDk2gEVnc8IJJ/hTVLbffnuDMvWzXn311T4+loK419dMV0oBKSAFpIAUkAJSoEkFBLB61GbRdc899/Tj1uHDh7uJEye60aNH+4OIxowZ4zh18OWXX/YnbHMNiWDuP/3pT92oUaPcO++84x544AH3q1/9yh9idNJJJ/XbYnGT9SP/LAEsg/oCWAbxEswqgJWg0Q1Fjg1g0Zkecsgh3jNqgw02MChTP+udd97pO39crPH4ijkpiHvM1lXZpIAUkAJSQArEq4AAVo9t8bxi8RXvqX//9393X/rSl5YxOtsLWQyeOnWq//eNN97Yh+fYbrvtPr6Oe9x7771u0qRJ/reyk7q7uTYJYBmsJ4BlEC/BrAJYCRrdUOTYABYB3I888kh31113uU9/+tMGZepn/cMf/uB++MMfuuuuu8538jEnAayYrauySQEpIAWkgBSIVwEBrB7bvvXWWz6O1dlnn+1DbuTTiy++6HbZZRf3pz/9yf80Z84c742VT5z+ffjhh7vPfe5z7tBDD42u4ghgGUwqgGUQL8GsAlgJGt1Q5NgAlkEKZa2hgABWDZF0iRSQAlJACkgBKdBxCghg9ZiEMBuzZ8/2Hlj5OLF4VrFtcKeddvIB3DfccEPvabXeeustZ0+uveOOO7wH1sUXX9xx9ra+kACWQUEBLIN4CWYVwErQ6IYiC2C1J94tt9zipk2b5jOtttpqfsvg7rvv7t2qV1xxxfZu1oVXC2B1odH0ylJACkgBKSAFpIATwHI+GPvcuXPd66+/7rf/5RNeVRyGNGXKFP/TV7/6VXfrrbf6uFhFCS+t008/3c2aNSu6GiaAZTCpAJZBvASzCmAlaHRDkQWw2hOP7+vVV1/1md59911/8uCMGTPcAQcc4A4++GC30kortXfDLrtaAKvLDKbXlQJSQApIASkgBbwCAljOAaguvfRSt+aaa7o99thjuZrxwQcfuH322cdde+21fkxLkPbp06eX1iDGhaeccor36IotCWAZLCqAZRAvwawCWAka3VBkASyDeP+X9emnn3bf/OY33W9/+1u3+eab22/YwXcQwOpg4+jVpIAUkAJSQApIgVIFBLB6ArjPmzfPx8Fi8TWflixZ4r7whS/4kwqHDRvmPasmTJhQqCn3+v3vf+8uuOACN3PmzOhqngCWwaQCWAbxEswqgJWg0Q1FFsAyiPd/We+55x4fDJNOftddd7XfsIPvIIDVwcbRq0kBKSAFpIAUkAICWC3qwH/913/5RdcQEiN7+f333+++/vWvu3feecfHvXriiSc8yCpKeHP97Gc/cxtttJGbPHlydDVPAMtgUgEsg3gJZhXAStDohiILYPWIxyoSWwPxpvqf//kfhwv1hx9+WKksWwgfeeQRd9lll7k33njD3Xfffe7v/u7vDNbo/KwCWJ1vI72hFJACUkAKSAEpsLwC8sDq0eSZZ55xP/jBD3zwdYK0h8S49qSTTnJnnHGG/ycWZW+44YbCqkQsrYcfftif/H3JJZe4TTbZJLoqJ4BlMKkAlkG8BLMKYCVodEORBbCcW7p0qe+s6ag4caU3aa+99vIu1MOHD+9N9q7JI4DVNabSi0oBKSAFpIAUkAIZBQSwesTAc+p73/ueD8x+/vnnu5VXXtkHd+ckwR/96Ef+mqFDh/px7X777bdcHSI/nlrE0AKC7bzzzlHWMwEsg1kFsAziJZhVACtBoxuKnDrAwvPqn//5n91FF13U0uOqSGY6fYK3H3fccW7EiBEGS3RHVgGs7rCT3lIKSAEpIAWkgBRYVgEBrB49GPuyNXDixIkfbxV8++233ZNPPukPKCJxQuHZZ5+9zOFEgCtiXv3iF79wbENcYYUV3DnnnOP2339/N2jQoOiqmwCWwaQCWAbxEswqgJWg0Q1FThlg0RHT8R577LF+y+CXv/xlt+2223oQNWTIEH/CICtS/FtIdPoEvly0aJGjbWal6h//8R9Ljxc2mKYjswpgdaRZ9FJSQApIASkgBaRACwUEsJYViDAYRx99tPvd73738Q+cTnjEEUe4ww47zK2++ur+3xcuXOiOP/54Hyrj+eefX+YmeHGdcMIJ7phjjomu/glgGUwqgGUQL8GsAlgJGt1Q5JQB1ssvv+y++tWvuvfee8/98pe/dHvuuecySl511VWOa376058WKvzaa695z6t11lnHDwBWW201gyW6I6sAVnfYSW8pBaSAFJACUkAKLKuAANbyNYKFWqAUWwJXXXVVN3bs2OXCYRAjlqDvLPYWpS9+8YtuzJgx0VU3ASyDSQWwDOIlmFUAK0GjG4qcMsC68sor3SGHHOJXnv72b/92OffnW265xc2fP9+ddtppbvDgwYUqE+idgJdrrbWWX63CnTrmJIAVs3XhHywmAAAgAElEQVRVNikgBaSAFJAC8SoggBWvbfujZAJYBlUFsAziJZhVACtBoxuKnDLAAl6tu+667qijjvIBLPPpoYcecmeeeabfZoiXVVn6y1/+4rcS4sW16aabGqzR+VkFsDrfRnpDKSAFpIAUkAJSYHkFBLBUK9pRQACrHbVy1wpgGcRLMKsAVoJGNxQ5VYCF5xRHCB900EFuhx12KFSQb+lrX/uaP6Flm222KVWZWFrs/SeGFqe6xJwEsGK2rsomBaSAFJACUiBeBQSwlrdtiO165513uttuu83Hf33ppZfcyJEj3Y033uh3GIR0xx13uJ/97Gf+ZEJO365a3I2hFglgGawogGUQL8GsAlgJGt1Q5FQBFvv4Cb4+efJkN3r06FIFgVscE8z2wKoTVs477zzHCS5TpkwxWKPzswpgdb6N9IZSQApIASkgBaTA8goIYC2rCfGv7r33Xrfrrru6N998c5kfN9hgA3fXXXe5jTba6ON/5/pHH33Un969dOlSd/PNN7tPf/rTUZ5ASKEFsAytiACWQbwEswpgJWh0Q5FTBVisOB1++OHewwpAVZYAUhwVPG/ePLf++usXXkaHzkmGa6yxhl+ZijkJYMVsXZVNCkgBKSAFpEC8CghgfWJbxq7nnnuu+9d//Vd/mFE2MZ7FuwqPrCzACtdw/dy5c30MWCDW5ptvHmWlEcAymFUAyyBeglkFsBI0uqHIqQIsJJs1a5Z74IEHfJB2ThB89913HXrgNs0xwqSbbrrJff/73/cnFE6fPt0NGTJkObU5jXD33Xf31+HVFXMSwIrZuiqbFJACUkAKSIF4FRDA6rEti7i33367H9sy9v3mN7/pxo8f77bddlu3ySab+N9//OMfu5NPPrkQYHEPPLAuvPBC76V10UUXuaFDh0ZXcQSwDCYVwDKIl2BWAawEjW4ocsoAi2OBd9ppJw+mtt56ax+/imOCP//5z7trr73W/c3f/I3je9ptt93cPffc44488kh36KGH+sDvYTvhW2+95U4//XR/D1ahdtxxR4M1Oj+rAFbn20hvKAWkgBSQAlJACiyvgABWjyZAq7Fjx7rXX3/dEQLjG9/4xjJiLVmypCXAIgNj5IkTJ/odDUCw2JIAlsGiAlgG8RLMKoCVoNENRU4ZYLHCNHv2bDdt2jR38MEH+zhXxMYicfIg8bFWWGEFd91117nvfve7jsDvuFTTWbP1cPHixe7Xv/61++Mf/+hPH5w/f74jZkDMSQArZuuqbFJACkgBKSAF4lVAAKvHto899pgPn8EhRePGjVvO4HUBFtsQL7jgAvfss8+6M844I7qKI4BlMKkAlkG8BLMKYCVodEORUwZYyAbE+s1vfuOOPvpo98wzz3glV199db+3n04dTytWqqZOnep+/vOfO04czKcVV1zRe2GxAsV/x5wEsGK2rsomBaSAFJACUiBeBQSwemzLboPLLrvMXXHFFYXj1roAizE0OxRmzJjhF4RjSwJYBosKYBnESzCrAFaCRjcUOXWAFaR7+eWX3Q033OBXkbbbbju3yy67uMGDB3+sLAErjznmGO9xRcceEh5a3/rWt9zMmTM/jptlMEfHZxXA6ngT6QWlgBSQAlJACkiBAgUEsJzDa+qqq65yf/7zn/24tii1A7AeeughHyvrxhtvjK7OCWAZTCqAZRAvwawCWAka3VBkAaz2xHviiSfcqaee6hYsWOADv//oRz9ykyZNciuvvHJ7N+rSqwWwutRwem0pIAWkgBSQAokrIIDVs/OAOK9PP/20P4HQArCAYZdccok/rRtvrtiSAJbBogJYBvESzCqAlaDRDUUWwGpfPDp/Om22F+KBlVISwErJ2iqrFJACUkAKSIF4FBDA6rHlbbfd5s4880wf47XodO26HljsTiB4OwciHXfccfFUlP8riQCWwaQCWAbxEswqgJWg0Q1FFsAyiJdgVgGsBI2uIksBKSAFpIAUiEABAaweI77wwgvuH/7hH9yxxx7rfvjDHy5n2ToAa+nSpd776sQTT/RbEnfYYYcIasiyRRDAMphUAMsgXoJZBbASNLqhyCkBLDynCMiO19Qqq6ziPaiU2lNAAKs9vXS1FJACUkAKSAEp0BkKCGD12IEDiQ466CB38803+5MId9ttt2XivrYCWIylZ82a5cNo7Lzzzn5LIuPq2JIAlsGiAlgG8RLMKoCVoNENRU4BYAGuCLJOkEmCVpK23HJLN23aNO/2LJBVvwIJYNXXSldKASkgBaSAFJACnaOAANYntmD8P378ePfUU0+5bbbZxntTbbHFFv6CMoBF+Iz//u//dnvttZcjJuzw4cPd3Xff7b785S93jpH78E0EsAxiCmAZxEswqwBWgkY3FDlmgAW4mjdvnjv66KPdwoULfeDKbMITa8yYMe7ss892o0aNMqiYTlYBrHRsrZJKASkgBaSAFIhJAQGsT6wJjMIDa5999vHAijHx+uuv70aOHOnWWGMNP25mjIxn1RtvvOFeeeUVf1L3Sy+95MfTq6++uodee+yxxzLeWzHVFwEsgzUFsAziJZhVACtBoxuKHCvAonO99NJL3eGHH+7efPPNSoU233xzd9lll7ltt93WoGQaWQWw0rCzSikFpIAUkAJSIDYFBLCWtShbCX/3u9+5yZMnu0WLFtU292c/+1n385//3O29996183TjhQJYBqsJYBnESzCrAFaCRjcUOVaAdccdd7j99tvPrxRl0+DBg/3/0mlnE/CKlahPfepTBjXjzyqAFb+NVUIpIAWkgBSQAjEqIIBVbNVXX33V/eQnP3E33XST98YqS0OHDnVjx471cbM23HDDGKvIMmUSwDKYWADLIF6CWQWwEjS6ocixAqztt9/eLViwwCtDvCs6Zv5ttdVW8/+GO/Ttt9/upk+f7k9jwXWarYacprLyyisbFI07qwBW3PZV6aSAFJACUkAKxKqAAFa5ZdlS+Nprr7k//vGPfmvgY4895heB11lnHfelL33Jx73ipMG11lor2i2DeXUEsAwtgQCWQbwEswpgJWh0Q5FjBFg33HCD23fffd2wYcPcL37xC7fnnnu6IUOGFKrE9zJjxgx32mmnuVVXXdU98MADSawq9bbKCGD1VjnlkwJSQApIASkgBQZSAQGsgVS/+54tgGWwmQCWQbwEswpgJWh0Q5FjA1jvvPOO23///d1vf/tb7+J84IEH1lLn1FNPdaeccoq74IIL3A9+8INaeVK8SAArRaurzFJACkgBKSAFul8BASy7DfHKOuaYY3zIjQkTJvgTDDmNMMYkgGWwqgCWQbwEswpgJWh0Q5FjA1h//vOf3bhx49zWW2/tYRQnqdRJL774oj9JZfTo0e7MM8/0p64oLa+AAJZqhRSQAlJACkgBKdCNCghg9Y3VGDP/x3/8h9/BMGjQIB87a+ONN+6bm3fQXQSwDMYQwDKIl2BWAawEjW4ocmwA69FHH3Vf+cpX3Hnnnef+6Z/+qbYy7P0nBtaf/vQnN3PmTDdixIjaeVO6UAArJWurrFJACkgBKSAF4lFAAKtvbfn++++7q666ys2dO9ddf/310cXGEsAy1BcBLIN4CWYVwErQ6IYixwaw5s+f73bccUf34IMPepDVTrrxxhvdGWec4S6//HLHEcFKyysggKVaIQWkgBSQAlJACnSjAgJYfW+1t99+202ePNkdfPDBbrvttuv7BwzgHQWwDOILYBnESzCrAFaCRjcUOTaAde211zoGKGwlbPeIX7yv8Nq68sor3aabbmpQNd6sAljx2lYlkwJSQApIASkQswICWH1vXXYwHHrooW7s2LH+0KSYkgCWwZoCWAbxEswqgJWg0Q1Fjg1gXXPNNf6o3+eff96tu+66bSnzzDPPuP32289dccUVAlglyglgtVWldLEUkAJSQApIASnQIQqkCLAATH/5y1/cfffd5z766CPvJdXu+LjMfNyPxd/vf//77qyzzvIQK6YkgGWwpgCWQbwEswpgJWh0Q5FjBFj77LOP98Bqt4N+9tln3b777iuAVVGfBLAMH5uySgEpIAWkgBSQAgOmQEoAC3DFidxAmD/84Q/ur3/9q9d9yJAhbvvtt3fTpk1zW221Vdu2AFpxEuFDDz3k5s2b52644Qa3+uqr+/9fc801275fJ2cQwDJYRwDLIF6CWQWwEjS6ocgCWJ+I11uA9fTTT/uVp+OOO8595jOfMVij87MKYHW+jfSGUkAKSAEpIAWkwPIKpAKwPvjgA/frX//aHXXUUY4YVUVp5MiR7rLLLvNxY4vSkiVLHHOEF154wT311FNu4cKF7vHHH/d/XnnlFe/NFRKLv4TfiC0JYBksKoBlEC/BrAJYCRrdUGQBLDvAuvvuu913vvMd75692WabGazR+VkFsDrfRnpDKSAFpIAUkAJSIE2ABVi6+uqrHbsRWqWNNtrI3XHHHcscXLR06VI3Z84cd/jhh7tXX3211S3cGmus4QjfsdNOO7W8ttsuEMAyWEwAyyBeglkFsBI0uqHIMQKsvffe2z333HONbSG85ZZb3IEHHugWLFgQfewsASzDx6asUkAKSAEpIAWkwIApkIIHFp5S48aN86E0SCussII/1GjjjTd2H374oSPe64svvuh/GzRokA+8Pnv2bP//zCGPP/54d+655/prW6WVVlrJb0U85JBD3Iorrtjq8q77XQDLYDIBLIN4CWYVwErQ6IYixwiwJk6c6N2eN9lkk7aU6e0WwrPPPtudeuqp3gMr9tMLBbDaqlK6WApIASkgBaSAFOgQBWIHWMS9+vGPf+zOO+88t/baa/vTATmcKDseJhYWY+SLL77YXXjhhT421vz5892WW27p/u3f/s0deeSRLa0FuBo9erQ74ogj3IQJE6KEV4gggNWyKpRfIIBlEC/BrAJYCRrdUORYARadNqtKBKusmwhKSbwAOv86sazo9FnJAmC9//777sEHH2wbmtV9t065TgCrUyyh95ACUkAKSAEpIAXaUSB2gMXuA2JavfPOO27u3LluzJgxlfJcf/31HnCNHz/enXTSSf7vRYsWuREjRvgTBTmxcL311vOACk8u/l5rrbXcF7/4RR+4PfYkgGWwsACWQbwEswpgJWh0Q5FjBVgGSXqVlZNXBLB6JZ0ySQEpIAWkgBSQAlKg3xWIGWDhfUUsqu9973tu6tSpbsqUKS31ZCGW7YJ4Xu2yyy7u/PPP938TkJ3YVmwxTDkJYBmsL4BlEC/BrAJYCRrdUGQBLIN4mawCWH2jo+4iBaSAFJACUkAKSIH+UCBmgPXee+/5LX133nmnu+uuu/wWwjqJnQRbbbWVA4DhvQW8GjZsWJ2s0V8jgGUwsQCWQbwEswpgJWh0Q5EFsAziCWC5oUOH9o2AuosUkAJSQApIASkgBfpRgZgB1pIlS3xcqu23395dcMEFtVVkuyHbCIFebDv8+te/Xjtv7BcKYBksLIBlEC/BrAJYCRrdUORYAda+++7rgy+OHDmy31ygcb1+8skn3UEHHeRPe9EWQkNFVFYpIAWkgBSQAlJACvSjAjEDrFdffdXHpjr22GPdYYcdVltFThtk6+BFF13kfv/737tVVlmldt7YLxTAMlhYAMsgXoJZBbASNLqhyLECrEceecS7RDeRLr/8cvcv//IvbsGCBTqFsAnB9QwpIAWkgBSQAlJACrSpQMwAi+Dr22yzjT+BkEOM6qaPPvrIzZs3z82ZM8fNmjWrbrYkrhPAMphZAMsgXoJZBbASNLqhyLECrOeff96tv/76BmXqZ7399tu9+/U999zjNttss/oZu/BKnULYhUbTK0sBKSAFpIAUkAIuZoD11FNPuW233dZdeumlbsKECW1Z+7bbbvMQ65xzzmkrX+wXC2AZLCyAZRAvwawCWAka3VDkGAHW3nvv7ThKeN111zUoUz8r4Gr33Xf3rtef+9zn6mfswisFsLrQaHplKSAFpIAUkAJSIAmAdfXVV7tvfOMbbVl7/vz57vrrr3dnnXVWW/neeustd+KJJ3pdib0VWxLAMlhUAMsgXoJZBbASNLqhyLEBrBdeeMHdd999btddd3WrrrqqQZn6WYk7wKkvDBg4djjmJIAVs3VVNikgBaSAFJAC8SoQuwcWQdzZCshpgu2k3gKsxYsXu7Fjx7pTTjmlrW2L7bzbQF4rgGVQXwDLIF6CWQWwEjS6ocixASyDFMpaQwEBrBoi6RIpIAWkgBSQAlKg4xQQwCo2SW8BFovGwLLTTjvNe2HFlgSwDBYVwDKIl2BWAawEjW4osgCWQbwEswpgJWh0FVkKSAEpIAWkQAQKxA6wiIE1c+ZMt9tuu7Vlrd4CrEcffdR961vfcueee6779re/3dYzu+FiASyDlQSwDOIlmFUAK0GjG4osgGUQL8GsAlgJGl1FlgJSQApIASkQgQIpAKzPfvazbtKkSW7YsGG1LQZrePjhh93+++9fKw8nF7722mvu/PPPd88++6ybPXu222OPPWrl7aaLBLAM1hLAMoiXYFYBrASNbiiyAJZBvASzCmAlaHQVWQpIASkgBaRABAqkALBef/31Ri21yiqrCGA1qnjxwwZ9BFbsoCSA1UHG6IJXEcDqAiN10CsKYHWQMbrgVQSwusBIekUpIAWkgBSQAlJgOQUEsPq+Ughg9b2mvbmjAFZvVFOejlFAAKtjTNEVLyKA1RVm6piXFMDqGFPoRaSAFJACUkAKSIE2FEgFYK288soOsDRo0KA21Kl/Kb4+H374oXv33Xf9c7SFsL52/XWlAFZ/Kav7NqKAAFYjMkfzEAGsaEzZSEEEsBqRWQ+RAlJACkgBKSAF+liBFADWqFGj3G9+8xv3qU99qo/VW/Z2H3zwgZs+fbojTtSVV16pIO79qnbrmwtgtdZIV3SwAgJYHWycDnw1AawONEoHv5IAVgcbR68mBaSAFJACUkAKlCqQAsA666yz3AEHHNBILVi4cKHbeeedPcj6zne+08gzm3yIgrgb1FYMLIN4CWYVwErQ6IYiC2AZxEswqwBWgkZXkaWAFJACUkAKRKBACgCL7Xzjxo1rxFovv/yy22GHHdzUqVPdxIkTG3lmkw8RwDKoLYBlEC/BrAJYCRrdUGQBLIN4CWYVwErQ6CqyFJACUkAKSIEIFIgdYI0ePdrNmTPH7bjjjo1Ya/HixW7s2LHu5JNPdnvttVcjz2zyIQJYBrUFsAziJZhVACtBoxuKLIBlEC/BrAJYCRpdRZYCUkAKSAEpEIECMQOs999/3y1atMitv/76bujQoY1Yi0DuPHOdddZxw4cPb+SZTT5EAMugtgCWQbwEswpgJWh0Q5EFsAziJZhVACtBo6vIUkAKSAEpIAUiUCBmgBWBeTquCAJYBpMIYBnESzCrAFaCRjcUWQDLIF6CWQWwEjS6iiwFpIAUkAJSIAIFBLAiMGKDRRDAMogtgGUQL8GsAlgJGt1QZAEsg3gJZhXAStDoKrIUkAJSQApIgQgUEMCKwIgNFkEAyyC2AJZBvASzCmAlaHRDkQWwDOIlmFUAK0Gjq8hSQApIASkgBSJQQAArAiM2WAQBLIPYAlgG8RLMKoCVoNENRRbAMoiXYFYBrASNriJLASkgBaSAFIhAAQGsCIzYYBEEsAxiC2AZxEswqwBWgkY3FFkAyyBeglkFsBI0uoosBaSAFJACUiACBQSwIjBig0UQwDKILYBlEC/BrAJYCRrdUGQBLIN4CWYVwErQ6CqyFJACUkAKSIEIFBDAisCIDRZBAMsgtgCWQbwEswpgJWh0Q5EFsAziJZhVACtBo6vIUkAKSAEpIAUiUEAAKwIjNlgEASyD2AJYBvESzCqAlaDRDUUWwDKIl2BWAawEja4iSwEpIAWkgBSIQAEBrAiM2GARBLAMYgtgGcRLMKsAVoJGNxRZAMsgXoJZBbASNLqKLAWkgBSQAlIgAgUEsCIwYoNFEMAyiC2AZRAvwawCWAka3VBkASyDeAlmFcBK0OgqshSQAlJACkiBCBQQwIrAiA0WQQDLILYAlkG8BLMKYCVodEORBbAM4iWYVQArQaOryFJACkgBKSAFIlBAACsCIzZYBAEsg9gCWAbxEswqgJWg0Q1FFsAyiJdgVgGsBI2uIksBKSAFpIAUiEABAawIjNhgEQSwDGILYBnESzCrAFaCRjcUWQDLIF6CWQWwEjS6iiwFpIAUkAJSIAIFBLAiMGKDRRDAMogtgGUQL8GsAlgJGt1QZAEsg3gJZhXAStDoKrIUkAJSQApIgQgUEMCKwIgNFkEAyyC2AJZBvASzCmAlaHRDkQWwDOIlmFUAK0Gjq8hSQApIASkgBSJQQAArAiM2WAQBLIPYAlgG8RLMKoCVoNENRRbAMoiXYFYBrASNriJLASkgBaSAFIhAAQGsCIzYYBEEsAxiC2AZxEswqwBWgkY3FFkAyyBeglkFsBI0uoosBaSAFJACUiACBQSwIjBig0UQwDKILYBlEC/BrAJYCRrdUGQBLIN4CWYVwErQ6CqyFJACUkAKSIEIFBDAisCIDRZBAMsgtgCWQbwEswpgJWh0Q5EFsAziJZhVACtBo6vIUkAKSAEpIAUiUEAAKwIjNlgEASyD2AJYBvESzCqAlaDRDUUWwDKIl2BWAawEja4iSwEpIAWkgBSIQAEBrAiM2GARBLAMYgtgGcRLMKsAVoJGNxRZAMsgXoJZBbASNLqKLAWkgBSQAlIgAgUEsCIwYoNFEMAyiC2AZRAvwawCWAka3VBkASyDeAlmFcBK0OgqshSQAlJACkiBCBQQwIrAiA0WQQDLILYAlkG8BLMKYCVodEORBbAM4iWYVQArQaOryFJACkgBKSAFIlBAACsCIzZYBAEsg9gCWAbxEswqgJWg0Q1FFsAyiJdgVgGsBI2uIksBKSAFpIAUiEABAawIjNhgEQSwDGILYBnESzCrAFaCRjcUWQDLIF6CWQWwEjS6iiwFpIAUkAJSIAIFBLAiMGKDRRDAMogtgGUQL8GsAlgJGt1QZAEsg3gJZhXAStDoKrIUkAJSQApIgQgUEMCKwIgNFkEAyyC2AJZBvASzCmAlaHRDkQWwDOIlmFUAK0Gjq8hSQApIASkgBSJQQAArAiM2WAQBLIPYAlgG8RLMKoCVoNENRRbAMoiXYFYBrASNriJLASkgBaSAFIhAAQGsCIzYYBEEsAxiC2AZxEswqwBWgkY3FFkAyyBeglkFsBI0uoosBaSAFJACUiACBQSwIjBig0UQwDKILYBlEC/BrAJYCRrdUGQBLIN4CWYVwErQ6CqyFJACUkAKSIEIFBDAisCIDRZBAMsgtgCWQbwEswpgJWh0Q5EFsAziJZhVACtBo6vIUkAKSAEpIAUiUEAAKwIjNlgEASyD2AJYBvESzCqAlaDRDUUWwDKIl2BWAawEja4iSwEpIAWkgBSIQAEBrAiM2GARBLAMYgtgGcRLMKsAVoJGNxRZAMsgXoJZBbASNLqKLAWkgBSQAlIgAgUEsCIwYoNFEMAyiC2AZRAvwawCWAka3VBkASyDeAlmFcBK0OgqshSQAlJACkiBCBQQwIrAiA0WQQDLILYAlkG8BLMKYCVodEORBbAM4iWYVQArQaOryFJACkgBKSAFIlBAACsCIzZYBAEsg9gCWAbxEswqgJWg0Q1FFsAyiJdgVgGsBI2uIksBKSAFpIAUiEABAawIjNhgEQSwDGILYBnESzCrAFaCRjcUWQDLIF6CWQWwEjS6iiwFpIAUkAJSIAIFBLAiMGKDRRDAMogtgGUQL8GsAlgJGt1QZAEsg3gJZhXAStDoKrIUkAJSQApIgQgUEMCKwIgNFkEAyyC2AJZBvASzCmAlaHRDkQWwDOIlmFUAK0Gjq8hSQApIASkgBSJQQAArAiM2WAQBLIPYAlgG8RLMKoCVoNENRRbAMoiXYFYBrASNriJLASkgBaSAFIhAAQGsCIzYYBEEsAxiC2AZxEswqwBWgkY3FFkAyyBeglkFsBI0uoosBaSAFJACUiACBQSwIjBig0UQwDKILYBlEC/BrAJYCRrdUGQBLIN4CWYVwErQ6CqyFJACUkAKSIEIFBDAisCIDRZBAMsgtgCWQbwEswpgJWh0Q5EFsAziJZhVACtBo6vIUkAKSAEpIAUiUEAAKwIjNlgEASyD2AJYBvESzCqAlaDRDUUWwDKIl2BWAawEja4iSwEpIAWkgBSIQAEBrAiM2GARBLAMYgtgGcRLMKsAVoJGNxRZAMsgXoJZBbASNLqKLAWkgBSQAlIgAgUEsCIwYoNFEMAyiC2AZRAvwawCWAka3VBkASyDeAlmFcBK0OgqshSQAlJACkiBCBQQwIrAiA0WQQDLILYAlkG8BLMKYCVodEORBbAM4iWYVQArQaOryFJACkgBKSAFIlBAACsCIzZYBAEsg9gCWAbxEswqgJWg0Q1FFsAyiJdgVgGsBI2uIksBKSAFpIAUiEABAawIjNhgEQSwDGILYBnESzCrAFaCRjcUWQDLIF6CWQWwEjS6iiwFpIAUkAJSIAIFBLAiMGKDRRDAMogtgGUQL8GsAlgJGt1QZAEsg3gJZhXAStDoKrIUkAJSQApIgQgUEMCKwIgNFkEAyyC2AJZBvASzCmAlaHRDkQWwDOIlmFUAK0Gjq8hSQApIASkgBSJQQAArAiM2WAQBLIPYAlgG8RLMKoCVoNENRRbAMoiXYFYBrASNriJLASkgBaSAFIhAAQGsCIzYYBEEsAxiB4C1xRZbuPXWW89wJ2VNQYEPP/zQ3XrrrW6DDTZw1BklKVClwNtvv+0WLFjg1llnHTdq1CiJJQUqFViyZIm7//773RprrOG22WYbN3jwYCkmBaSAFJACUkAKSIGOV+CBBx5wb7zxhhs3blzHv6tecOAVePLJJx3zpAcffNCNGDFi4F+o4g0GffTRRx910ht+8MEH7vzzz3dz5851S5cu7aRX07t0qAJDhw517733npWJjXUAAAGfSURBVPvrX//aoW+o1+okBVZaaSX3v//7v6ovnWQUvYsUkAJSQApIASkgBaRAnynAeHfIkCGOxTglKdBKgdVWW81NmTLFA88VV1yx1eUD+nvHAawBVUMPlwJSQApIASkgBaSAFJACUkAKSAEpIAWkgBToOAUEsDrOJHohKSAFpIAUkAJSQApIASkgBaSAFJACUkAKSIGsAgJYqg9SQApIASkgBaSAFJACUkAKSAEpIAWkgBSQAh2tgABWR5tHLycFpIAUkAJSQApIASkgBaSAFJACUkAKSAEpIIClOiAFpIAUkAJSQApIASkgBaSAFJACUkAKSAEp0NEKCGB1tHn0clJACkgBKSAFpIAUkAJSQApIASkgBaSAFJACAliqA1JACkgBKSAFpIAUkAJSQApIASkgBaSAFJACHa2AAFZHm0cvJwWkgBSQAlJACkgBKSAFpIAUkAJSQApIASkggKU6IAWkgBSQAlJACkgBKSAFpIAUkAJSQApIASnQ0QoIYHW0efRyUkAKSAEpIAWkgBSQAlJACkgBKSAFpIAUkAL/D9I+zOqXUsT4AAAAAElFTkSuQmCC;" vertex="1" parent="1">
          <mxGeometry x="110" y="130" width="430" height="127.56" as="geometry" />
        </mxCell>
        <mxCell id="9WVaIaBoCg3rjbjGImSN-16" value="" style="shape=image;verticalLabelPosition=bottom;labelBackgroundColor=default;verticalAlign=top;aspect=fixed;imageAspect=0;image=data:image/png,iVBORw0KGgoAAAANSUhEUgAABLAAAAFkCAYAAAAwtsJRAAAAAXNSR0IArs4c6QAAIABJREFUeF7s/XVYlcv3/48/FAO7u7u7+9iJWCAtEiKipAoqoCCgtCCCQUiKgIHdXUfE7mMHigpKCWzYe39/Gz1HCWUDHs/r/fmxr4u/mHvudT9nzcxaz1lrTRmxWCym9FeKQCkCpQiUIlCKQCkCpQiUIlCKQCkCpQiUIlCKQCkCpQiUIlCKwP8oAmVKCaz/0ZEpFasUgVIEShEoRaAUgVIEShEoRaAUgVIEShEoRaAUgVIEShEoRSAHgVICq1QRShEoRaAUgVIEShEoRaAUgVIEShEoRaAUgVIEShEoRaAUgVIE/qcRKCWw/qeHp1S4UgRKEShFoBSBUgRKEShFoBSBUgRKEShFoBSBUgRKEShFoBSBUgKrVAdKEShFoBSBUgRKEShFoBSBUgRKEShFoBSBUgRKEShFoBSBUgT+pxEoNoElEqTw8MYVLv0Zw7N3SYhE5WjSoRv9BwymW9vGlCv73363KPMTp/ZEEpvRkQWzB1Olgsx/JpAgOZ4bMVe4fDWWx68/UL5qPVp37ErvXr3p1r4pFcvLUOZ3SyfMJO7xPWKvXeXW/Wekfv6MTJW6dOzei359+9K6cZ3/fAz/hiQ17horzSxpPHMVi2b1o8JvxSqTq/siuJFUiU6dOlK/bk2qVq6EjFhIyqcPvHr+iKtP0pkiP4VWDar8/nEEslI/cOdmLJdjbvDifRJUrE6nngMYMaQfTWtX+W1oJd0+gN4yD3rO0Gdg67pUkq1AuXIylCmTX7vLlq9Mq7ZtqVGp3G+RTyTMIu7RLWIvx3DtwTOEZWSp36QZHbr2pnePztSt9nu16u+PFqR94N7N68ReucbTt58oW6kmHXv0ZciQ/jlj968vo+Is3j68RvieWIYqKNC3Zd1CxyMt8TU3Ll/k8o27JKRkUE62Fp17D2BA/z40rVOFsr9gMcv6nMjlo7u4I2rPLLlh1JZSTSR3kiS/fUD0riM0GjyL0T0b/1IM3z+/xq49p+k4Ro3hnX6OlViUTeKrR1y5HEPM9ZskpAmpXr8ZXbv3olePbrRuWueXyCbKSiXm2F7Ox1VHU2kctauU/+kYZiS/5/a1K1y7cYdnbz/k7N31W3akZ+9e9OjSjtpVfsFckKyP756yO+oo9YdOZnSP5kg5hN9kF6ZzPtyDNYc+sdrekl7Nqxaqm4U1EGal8dfF/Zx4VJapqrNoWvEnT6T+xbaoM1Ru1pE2TRtRu0ZVZCuUIys9hffv4nh44zqiFkOYNbJ7Ya8t5P8iEp7fJmr7QdpP1WBkx0ZS9ScWZvH22QNuXL1C7O2/SMuGWo3bMmT4SHp3aoFsuZJNRKEgjZsXD3HsgQyqSnI0rv5jG+p8oDVLdrxFX0uRVnWrICtbnrJlC169KlavT9uWTahYDPkk8zvl3V/siz5Ktd7Tmdy38PmdnZHE/WuX+fNyLE/fJlGhSg2at21H1+596dpegpNUcP+0kViYwf0LRzl+K5mZcxVoVOnnc0gsEpLy/lnO2nD95n0S04VUq9ucvoOH0Kd7O2rK/nwO/0wYYWYKf926SkxMLLcfv0QgU4Vm7TrQq1svenRt/9P5LUhN4O7VP7kUe4PXiSmUlalM66596D+gP+2alMQmFJH8/gWxl/7k2rU7vPyQQtV6jejYpTu9evembbP6SGOif058zvF9+0hu9AfKY7uUeP2U6Pjzeze4EhvL9XtPSReVo3HrzvTs1YOe3bpQ7wd2gVgsIu39S67GxPBn7FXefPyMbI0GdOwmWdu707lNI2QKsHuk1bS0Dy+5HiPZN67z8l0yFarWo13XHvTp1ZPObZtQ/gebrDgrnaf3bxJz9Sp3H71CIBBQsWZjevTuS6+ePWhRvzrFFUuc9ZlHEjsz9iq3Hz5FUKYSDVt1pHevnvTq1olaVSsUwf4V8u7+aSysttBPaxV6EzsUbyzFIj4nviLm0iWuXrvJ84TPVKrdgA5dutGnZy86tmxE+QKXoVTO7YnmQVZterZvRd3a1akiK4s4O5PkxPc8e3SPRx9l0VCRo1IxnFlh9mdePbjF5Uux3Lj3hDSRDI1atqVnr1706N6VBjVkf76eiMWkJbzk9s3rXI65SXxKOmUr1ab3oGEMG9CLuoXs8QV3LiYt8Q03r1wm5voNnr5KpEKN+rTv3C1nDnZu0xjZAr418f5RtBa60kdhHsM610NWVpZyMjIFj1e5SrRq3SZHF6T9iYUC4h7d5kpMLFfv3Cc5owx1m7eje48e9O3Zg4a1K/1Qr0RZGTy9G0vMpcvce/EOcbnKNGnVmk7d+tC7e0eqFncZFYvJTH3PrdgYrsRc4a83SZSpXJM2nTrTp0dvundujewPjHPJ2pCR9JYbV64QG3uNNylZVKxWn579B9GvTzcaVv/52P8MN7Eoi7dP7ub0e+veE5IyMqlYqRbtuvaiT99edGpR/4ePi4QZvLx3k0t/SrCKJ1tYjnpN29FnwAB6dWlFlQrF9TbECD4ncefqZa5dv8XjNwkIs8tQq1Frevfrk+Nf1ZZibRBKOKWLxzh8T4Tm/JnUlEKBikVgCTOScV0oj+fxFPQdPNEd3xkZwUeiXJeyKvQaWm5RLJvZg6rlS2ZASSF/7iZiER/jn3J851acPf258fgtdUav4mrkUhpU+5mlWuQ3Sf1AwsPj6Krp8bbZJAy0Z9GrWQ3uHAvBzmUzDxLFjJ1rwyZnQxpX+b0E2153PUwDHzDXbAlzxg+iWkUZXsREoT/fgquJNVjgHoiD+uAfbpRSA1Dihll4LZiEie9FdNftxHnBOH4fJSMRPhl/I1VMvfaTJlOB8uVlcgzzMmIxQmE2Qiqjbu2Ls9k0alYoW4QNvMTA5HTwIjaKhXPNeFR1AFb2qxjfqwmitHh2OFkQmdYLH+dltKv1Cyz0QsUV8/CgFzM1jLmdIEamrASnH8//Om2HErJvP6NbVyq055I3SOfAOgtW70tE39yQKf3bI0MmT64exWbxSp7XG4e/rzO9mv5ezfr45CymOroci2/KSkcXFIa1IuP9Q9zNDQm4VwufkE3M6N2s5J9fQA9ZaYncv3mBzes92b7vNB+yOuB9OJz5wzv/9H2pDw6gPdeI2HJDWe9qyZAOdfn47Co2i42JflKbrZFhyPWSzgHP/6JsEt884kx0KB4bA7lwO57uyraEeJnToUYhMGRn8uTeJcI3euC34zjPUythvn4nNnMHF504yfMqYeZnHl4/Q6ifF1t3nOaDqAbWfodZPqPLT4QScDF8DfOsw+kxfR7zFMdQPTOegyGeOG89jKhGW0zdA1g8qz+VizM9xSJSE19zIjoEL68tnL/zgtqDFnAycg1t6/1YjxMfnGDJgsW8azEJMyMderWqTVbya0Jdl2K1+ThtRusS4u9Kl7rFEQpEgjSePrhCeMAWNgfv4lVybZb4hrJSfThFnelPzgWhpqTHjZoTOBDhx4jOtYs5F0SkJcVx+cguNnr7sO/CQ+r3USZwZzDDG/6ky2d7GT9Jh2MPEylfvjwyMmUpW6YMEvIhO1tEnY5TCQxdz5iuDYolV7YgmWd3LhO+xYstkUd59UEWy4jj2Cj0LLQ/Yfp7trmaY+FzluGaZqw2VKaurIiX149gZr6escu8WCxfeD8FvSjl/SvOH4nEa8NmTl55RPXB2uwNdqdvsx+NYAbBFspoO+8mm7LISPbHH3rJ5ek6y4KdPitoWaMIBnO2gKf3L7MzwBufsAM8T5VFb20U7gZD+ZmPkvr2Ng76+jxoNIFlphq0rVedrPT3nIv0xtZtD21nr8BvlQbVZYthf0mc509vuXhyH97rvTh66R7V2sgRdTaYQbV+tpcIubbfG3VtS+qMXIT7akPa1ivHo/O7WDjfjIqjzAjeZPVzcvUHGiL4+BhXCz0CYmXRMdBhUr92vL17Fg9HR47cfkP7P9Tx37Kefs3zO1EZb29iY6hF4K2arHZzZdaQVnz+8AQfGzM8Dr9l9ZZtGMoVg6wVi3h0KgCdhfbUHKaGrspkWtYRcizMBzefKOKFddG0Ws/6xdMKHkuJ0/b8LtFBG/Dy38n9t5+ZaORLlJNKyQ4zhUn4LNHG7dg7VBcaIt+/LRlv7+DhYM/Oi09p2GUiPoEbmNwj734m5Oml7ejor0amxwxMdGbQVFZAzH5/bD3DeC+qhaKpOy5LFahTZLdDyPt7h5kzZzGf203GUGsG7WqV5frhINZ4hvDsc2WmLXTEzUqDhnmGMCsljvA1erherMDCJWbMHNwFGVE6N4/6o2fkyLtqXVgdEIXu0MYUVdszkl6waakqPleroLFgARP7tuXTgzNsXufE7pg3tOw3Db9wXwZLaUN9jr+PjeZEXM+VYanPduzU+hWLwHp8IRQlFXPqj9JEX1OOttXFHI/yZ627Hx8qNkLJxBXPJQpUy8c2vGGtlgrLtp7JWdslB605hLvErs/OpmyVZpi4BrFKYyDlinoil5FAkIMh5sH30DExRX5kDwTxN/Bb587WQ7do3GMSHr6bmN6rQcH+giiTv84HozHXFkHbCTg6WdOvRTUyP75kw3ITrjeZQYi9HtWKQjiIJYThcRZpmfC8+VhMtWbRrVFFrhwOx2mdLw8TZZiywJGNjrrUy7P1Pzrqw9jZxjz7lPVlbZf8/WD9qdyyH2GR0UzqUfhBqKQLUXYq0e6GLPW9waR5JiiN6kn5xIcErXfA/+BNZBv2wD10O+pDW+d7oyAtnhCrBQQ/bYSljTG9WtSjTHYqN0+Gs3qlD586KLLTbyXNaxV5EpL0MgZ91bk5fpWxoQY9G1fjzrm9OK5152ZiWfrOWEyo+xJa1cm7+4h4desIc5XmEld3DOvXO9GnRSUSHv+JhY4ON2uOYde+ADpVLnSLz98gK5Xz4bbMc7mAgsFy9GYNpkpZIS+uH2bxAmMuvK+O9tpI1mr3Iu8XSwJ6DvsuR2v1HqYZOWO7YDIVstK4sMMDA6utdNdyIGKtVrHW05S4q1iqqXO3wXgWm+oxoH0jhJ8/cGjTaozcI2jQW5HQqE30rFMAqSkSkvbxNeeP78XdzZNTVx9Rr4sqh68F0UkKiIpOYGV/YsdaHRZseon91kA0R3Wg3D/GSjq73I3RXLkP66C9GE3rXWLnQYpvyGmS9eYaS5av5mmKLK3ad6Zp0hnsA45Tefh/SGB9uo2pgTXVRhtjpjaE6t8dMSU/+xODOepsvxDHIE0nQly1aVa96BNNWny+tRPz7ow3E+dtYMgCD2zmjaTWd0eQr6/4M3HSIh6XbYfvnmgU+rf4bWOY71uy0zjjZ4G+bTB332Wj7/EfEViGqphvOcrHjEyEX4UsV6UO/UbKMXe+AYpje1KjQvEcvqKP39cnRAJuH/FlvpkrFQfpsMHBkI71vxjNaS+uYjxXjZBYWbwPRDBnUNtfEhXzU1nF2ZzwW4H6QjeSZKtRuWL5HGcv70+YkUJKmcYsdffDUmMYFYpqHBQRMEkUzKWQ1TgcScdl3So61M29c2R+eMAy3bkcKzeFvVtMaVGz+KcjRREt4/UldFQ1OJbYji1Bm5jcs+k/Bpwk4nCR0gwuMJTg0I30a/YLI/uEnzkZto712y9RtXFLureuyr4QP04/aoDPkZ8TWJKNapHyLK7LTiAoyIWuDSr/I3PKm2usnK/J4ZQ++Pq7M7BljSKRuWmJ93G2WMXVj2Vo3bE7lT5eZYv3blqp2hVKYD097Y/5ut2UqdaQzt168PCgJ9v+/MQyr10lJrDuRm9gVcBhKtZtTpce7fgz2I39D4Ws8v85gXV7vxdWW2LRsrJhYp9v0Uei7AyuR7ujZ7KWG59qYrM5AjOlAUUyHLLf32Odox2nn2TTom1nWpV9gvumMMr00C+EwErCVn0yIU+as3mrJ3+0+2ZkZiW/wnH+DOwibtNnjh2R7gtpXF36U1SJ7j88G4KVQxhlGjSjU/um/HU8iG1nMljiX3QCKzvhNiaac/E9epUybadysNgEViJ+NtbsuPaG5m060axGEr72PtBHma07gxlRCIE1aao+Jx/EkyHI/nvlp1H7HkxV1kBfW50ezWoVZdp/bStZu4NZ67MLYc2mdO3WjOs7gtlx4R1WEScKJbBEyU9wXmqI94lPWG3wQWVUNyrneKSZXApdg5qhE43kbTnqv5iirGYZiXH42y/m0FMhzdp0oJHMGwI3+pPaU/fnBFbWK2zmKOEQFUvlalWoWL6AvVASsZL8kXo9ZrI5yIdR7WtJ7bC++jMCI4dgZKo3pGPnrrw4uZHA8x8xcIrE3WDYDwksUdorvKwsuNFYAZdFctSqmJswe3gyMMexH2jqi43m4CLNQTLiCPN0IuzcS5q26UDnBul4um/hc91x7Dj3YwJLEm1weYcj85Z4UnmECSHrTGlT++soiQQ8ObkZpXlraTxjJQGrtahVBGJNKPjAFpslnMvsw1prPZpW/+ZcfX7/F95WC7H1P0m9gaoEbnVlaOtvhHBW6mucFs1my5UabIoMZGzHuv+MT2byc/xt9HE5kska/xBm9mtUBAJESPyNfSyxC2W43io0R3X6RgiIsvjr4g505uhz8X1VVC29WGckR43vHPOk+8dZareB98JqdOjSk9Tr2/HafQM5E1+inFWLNmbfzVSJg7XfaxnbXrXHxnoh7er+HeUhRpD8hgjXpSxYs406vWbis9WX8Z2q/7Ofvbm+DzOLDQw1cEBb7puzKCG2n12KwGiBKfvvpqO1yg/P5TOLRNy/v3MUU6PV9J7vgv6s/v/MX0lUx+tr+zHW02f3jRRmGLux1Umbb9aMiDMBy1G02ImpZyjGs79lKkh07myIJarzXEhtMY7t0UGM6/TjSI18C1rGB8LcrAl93on1a3RoXfsbkS1Me89GKx3MPQ5Qt+9s/AI9GN2xzs/XRMEnwp2MWLgmgoQyjVi2sRgElljIm7sHsVzlzwD9NWiM6MA/U0Uk4O3tI2iq6nL8CShaeOBloUitXFzDG9bqqLEy9CLZGemIvkpcpV4Lho2fgc78ecgN6Vhk/RJmJnHQewVb79bC0dmKNjW/7aGC1Hj2eCxB334bFdqNY2NYAHJd8oyDMI0ToS7oWfgw3MAVe2NlGlb5sm59engedSUVLqd2JvJcBMPrV5N67/n45BLLTO1pomjBcpUh381fEW9un8RMU5nI2wLGaNkT4qJHnX9O1bI4G7CKGQudSC9fjcqyFQpct7MzU8ko1xgT10CWqw2ikjRnE1lpxOxch83uZKzXLKNfy5r/zDFhZjKH/VahusgdmVbDcfQNRvOP5v/ILRYksd/bis2P2+Cz1oAmVXLvOe/uncJIQ5Os8WsJtlMq0hxMjrvKmsVLkBllzhKNcdT4ewjFIpJeXMFivjYbD//FMHUrwjevoPF3bvvTCyHoahvzpP40wkPc6d/s6xiJhSQ8OIqOii5PmimxO8COVrWL5u8/vRDI1FnmDDP1ZY3JFGp8ZaElPs6LmB0oyqtzPbMl7uHRLBj/Pf0j5PTWZcwxD0PJOZyVakP/GR+JPXp7nxcahuvpa+qL+8KxVCuKK5v1ic1LtVh17DOB4UGM/U6fhZmf8F86k/kbztNurAF7tznSruZ3nQves9HWkj23EmnZriMtZONYZe9P3Z7qHPm3CKz4i0FMnLWAStOciHKaT6Ovk+vvmfT52UXGjh1PXAtVDoZ70KFuUcJKpZ6PhTZ84KfHCBM/ZAav/I8isLL5c50W+tveYOTizezBbZCV+X5Wi3i8254JOqt5lCCL28ErGE9oXySnr1AQCmyQziFbTdQdIsioNYKoMzsY3+7bhpP+6RnqI/ux40Y6ap478NIbT43ihmEWT8CvT4l5cmkbug6X6Vr3DuuDLzL/PySwnnQ1YfGMDjx/8ZasctVo27YVNSv/J8Dk4PP+wVFmT1IkvqMGkUEudP7uJCD5wVnUVVU4/a4lPruDmN27ldTOQnGHTGIkhdposldmGluXz6JSAXHbWUmPWbtQh7c99HEwVqRGURbKYgqWnfkRS8XRvBjqgL/J+ALTai6G26I8fwfrLhxmWuefebTFFCLPY+LMeDaaqrB083km2UbgaypHtYrfk32ZHPc0RnNFKIPNt7JpyXRq5vr/r5Ejp5c3l1BXVCQ0pibePyOwxEJOrJ/HtCU70fc9gKP6oHxCvNy/mqEaLgw0DcB/6TSqFBy7L5Xw58KtUVBdQ1OVwgms7zsUCTJw0R2JRdSTX0Jg5Rb2PRZyo3E7m1gIgZXBKsUxnKg4FDd7c3o3z+usZxJkPgtNp320GKlDaNAGBjUt/j758oArY+cuJ62T3s8JrNRY5AbJs+9+EqrWfvhYKfLNBP7MvnXG6C7eQmLj8Rw7E8IwKdJJfziYqa9wXCjHitAPLC4igZWd8pJNVobcSW/Fg5ObuVhhbAkIrNwSvri+jYlDNPjcQ0kqAktn1THUVjrQXPCYhFQBtRu3pkWD2r82vV7wFCt1ZRwiHmJZCIElyvhAuK0ORptuoOUSjO2coXzjZdI55mWO5spAuqk6sttzfr6TWKkmX04jIQ9P+KKsaEBcV52fElji+BgMzdbQad56Fgxvkv8VYhFv7x5mroE7s2280BzRXnox8rQUZWXitWAURmGPCyGwxLy+sB09cw9mrDuGVp8CIqIEb/AynUdkYm98/WxoV9QQwe9ky7wfxZAJOsRVGfVTAivtzWVUJ0zl+Lu6uEafY17/vIkSCayaPQnn46l4HzjGnP7SRrOK+Xg1HAV9N3pq2GKtM47qFXPH2WQ8Pc3smcrsvZ2EimUIgdbTvziEYhEPD65jvJotvQ3Ws22VGhVkch8+Jd/azfjp2ogGm7HDaylNq0u3eYsz4gm01WZDbAPWutnyR+fGuVPrstM4unEJyiY+pDUYzq5jEUzo+OOIxvAVM1B2PFhiAivu7j7UJ2jRdqEHqxcpUK9SuVy2d/LbG+iPH0XYbQGj9ewJX7eIuhUkmGQRslyD1WfBdb0TE3s2y0PmZXPW14Jx+m5Ubj0cz6iDqHT7cQpUbvXOYsdqPYwi3+Lh58W0fq3z9R0TZss4bXtEdXvgtvccWj0rf5U7hQ3601m48QTthusQsXczPav/3buY11ei0Zw5k2OvarEyfD+rFAZIOQfFvIndg56eBa30XLFSHUfdPCHDSY/Ps1BxMiFX05mxwo8oO7Uf+jFiYTrX92/AbftDGpW7gsuOT1gUg8ASZaaw004Jm1M1cPFxY0yXhuRRWU5vNmKynieiZv0I2h7NrEHfz6U3uC9dTtIfq1nQPYtXbxKgSh3at2lO1TzzRkqgcpolPzuJ0iwj6k8xw3WZOnXykOakPkZn8iT8LrxmiLoT0b4LqPPVLZSkhz0+HYCKqjniYabs9ltGk6rf5tmH64eQn63JmxrDCDscwMBaUqbUi1M5tHk5ZlseY+npjtLgPH6mWMCdw15MVlhMfIX2bDhyAq0+jb98tvAj21yWsitxLEGOigUciEjSx+Jwmq/LXx202Gg+k0pSpoYnv7zOCqUpxA23wHmpLq1qVcylNxkfn+GmNoAVBxLoIW/C4dC1NPiaqZT0LBYztdnUNj2M04w2+YdImMKpgGUYbfrApuPhDPxnLhQ2mmKuBJkzbeUZrHw2M3dcd/IGuj0+vpm+Y/VIq9Ecc+8j2Cp3yJFbnPEGM4XxrD/+BsOtZ3FV7JjnZWmEWOswZ+1RVgQfwXZ278KEyfX/E+sXMdrQi5qtB7Bxzylmd/l2PJX59i7GKmPYeDKeaStD2bVK6euzYrLe30Jx3ARiKw7n/P5AmuUJCxWlPGP5HHm8b1QlMjqa8V2li56TvECUcA9thclsPfOKkQsCOOGp+k1mURZ3dy5nmIILKfW7smPfUeT6/di/en1mAx1GLKTWv0lgbV+tgpbtbjQ9InHSn0yVvEEWn5+iP34s/ldl8Dh2EJ2BrZFSn4s0mIU1/u8JrE/4aMljEXiGsi2mcORCGP0a5mbMRQmnkRuuxIG7b9Fcs5NNFtOLzPgXhkP+/4tIuhPNfBNHsvro4rFMjSbfRX6lJlxh+uCxHHtSFuOA3dipDCMPR1n0VxbjifSXZ1iyzIfRi93J2L0IVfuD/zGBtRi7eSOK8SX/wiPCeFznK7Dc/zpLQo5jq5wn/FqcTcKblyQJK9GkUX0qFiOHv6hSiwTpOBrpU1vRHJ0/OuUzJuAzW5bMZ0d6PzbZzaNFzaKdPhRVnr/bZ6U/Rn/MaI4ylMjtPvRvmv/U6mzIcpRMjrL53H4mdyjCyWQxhUq8fxqNGZPZ/6AWKyN3sGxa/++c0C+dJp7xYbzGUh5UkuPUcW96N5YmI7wYAklLYH28icHs2Wy8VIWAI+FoDGyb72UZL/cyepgmcY3k2LXfh57fndQWVbL/2wTWQ1T7jSPs6gemmLjit0aP+nm47qt71jBx+nISGw5my7YgNIa3KTbJLDWBJU5j66qFeB99j6mbFwoDW35zkLKTCbPXZaFtBNmdlTlz0IeeTQvL2/zJqBabwMriwAZrtj5syrJZzTDXVeFcuf+WwJrj4MGwr/Z8UfVYqvZFILCenPFjwiQ9yg3QYfvODXT7+xj264uyMpJ58TKeavWbUr9GCRiZIhBYH2/sw9LrKAvXudCpgNosiQ/PYGW2mqZz12Ii3+dbpIRU4ORuJD2BJeTuIW9UNFfSSM0Jf9u5NPoSpvbtl/4SFxNt9qcPx3+TJa2KEq6WR3bpCCwRt6IcmahtTVb90URdjmZYAektux1UmbUymqlmGwlYq4Z0s1DIjYg1zNSz5m2FtrjvPY9u/3p5wItnlcY0bEKv0Ed+CVGRDrSUrEufX+NtoY6p71MWbwrCRm1Y/v07+QZqE2ey92UTgo5sR76jdAc9gg+PcNAdi+3u53SfsYxTwTbUzEWAiHl1Pozps+dy9V0NVkacxnraj9PYfxWB9fDwOv6YaEJ89fZYbdrOitk9c0XyiT4nsNV8KjpeF2g0dA4nIjfSISdn7y0rlabSXL+2AAAgAElEQVRju/0K3SctJGqHO+3y6E3cjQhGD1HjYbmmGLttw1FrgJRZDO9YqzWbZQGn6DR6Pjv2+tApzxR+/2AvE4YocS2jBvMcI/E0GPLVZxBx64A3hlab6alph92CqXyrSiLk4blAVKdpcyW1Oe6792A8oYeUsy+LG4fXMXvaUh6Im+F14BAGo3KPjzjjFesWa7B0w0naTzbl/D7XH9avkZQpMXOIRtfClHubtTHZXjwCSxLNtEZ5MKv2PaPdWF32b/fOSbX8/vf0ajiKY5W5ktyQFX7bsdMY/t2//yawHFg1SVqSuHDIXp8LZKyCPo/S62Dkcwpn5bzkipBA08louh+lWT9FIvZsY+DXqZSWcAcT+XGEP66N3a5zLBqYO4pdLBIQ//IlGeVr0KxhHWSkzV74/Aa/FaoYrDtJgyHaXDznS97tTPDsHOMmTOXss2w0nA8RsGhwzseKUp7js3oFMvJrmD8kfzmLrJR4djgbsDtzDJ4rdamfd439CWSv7+1Gqf90zmXURt8lEE/DKbm4AnF2Mme2GiI3L5ByHSdw4vh2ejb6wkTF3z/MnLHyvO5rRIS/HZ1yh9dBVhJHtxhjFiIk4EgQfaTk+iCbbRazUHGMpn6XMYQdOMTo5rn3jU9xl9HoP4C9b6ojt8idbW5aVCkrJuHOMcZPkONOSms2nT+ORpf8enVjuw19lGzpMs2aI7tWUpTiA29vH8RMfzmZg/Rwt5lHs3/C3MSkPL/GvGkjCb8uYI7bDraaTPqCvDiT+6e8GD/Fksbyy9gXYEWdvIfh4hT8ls9B1/UE+t7RbNApgp+bncrejdZYBlzHyHkzWqO++QWSoIaYrQsZprOFCi36s/vgUUZ3+jGT+BsILBHWCn2wi36M5dbDWKoMyk+4iN7jMGUM9oceIO9xDL/5Q6j0u2thAf89gZXNrW1rMF4XRYWemvi6LaBJlTxOe8I5pg2fzZ67ccyx28mmFb+DwPrZIizk4e6VjFV3JqXxIKKidzGyY63fEBWWW6bsz2/xXLaUD53nsEp3FNGrFZltV0pgfV2R+BC7g+mK2pz/2I3os9uR69KY7KwMUlPTKSdb9UuY728uPycSZhN7NYaGbXvStFbuE0dRdjoXglbgdrYitmtX0rVBCTyFwm2IXC2EglTWao/BOiSWJn0nY77MmNnjB1GniuS0R0xm4iOWaatzuqoC0V4LaVrj3yfWnl/ezuwpqvyZ0Jw1eyMxndQn/zr6VwSj5Q0486QSW06cR3Pwv1MLS7oILDEfru5BUUmdM5nD2b13C1O659+cBSkxzOwrx5mMZvjsPIRKn0JSCX4ylv+3Cax0Nptrs+H4S5TMHDBWHpYvhP3GHicmTjPnXYNB+IYFozHyNxBYP8H787sHmKlOZPPpRKaa++C7YjZ1flSlVJo5WBwCS5TN0zNBOITeQ8/WnhbvjqM6W6GUwPobb3EaAUvV0HLZzSQTP3a6aVFRlE16Whrp2WWoWr0qFXJFeUszUD9qI30EVuq7J9x4lUK/nt2okKdwe3baa5wWG/KwkSLrzWfl1NosyU96AkvM+xv7UFdS4/ADIaPVF7HcRIdBXVpSqbxEBhEPT4WgZ+zAsKXBWKv0k5JkKFh66QisdI5vWMpssw2UbzGF6OtR9C+g2Pt5P0NG62yg9fgFhIZ40quudJu5pNiykelKnsh0wX2zB/0b5Sm0Ik7AQX0aK0Iv0UvehKhIJ1qXh9SXN1isPJYt9xvjFBCKiVwBxdFFLzAePwWfPxMxDziM7cyf1f/7hpE4M4H9m62x8f2TgerLcDKanic6W8zrixFMn61B7JvKrIw4h/X0H/f9qwisD4/PYam/iNgyXVm51p3JvermsnNFnxMJspqBtttpGgxU58TOTXRsJGGTMjnoZYXFliMMmr0Up+Uq5HXJ3t7YwbghytyRaYqx8zYc50lLYAk44WuHybpI+sxcirvN3HzkZcKDA0weosjl9OrMc4hkvdGQn9aAyyEhstLY66yDumUkNQersmubN32aSVvvU8T7+2ewXryUi5/b47nZleFt87jdGXF4LZ6DyYZjtJtgysWDrvlJV0lR8rc3cbFxo4bcMgyHVmK96fRiE1giwWeO+lmwfNNFes4yxXmpMrXzZLy/vLYT5TEKnE+qh4V/OGs0/vjXCayUVzEsN1rMn4n1sPQJZGrHvDiLCDafiobTQZr1mUHE3kgG5phSYu4f9OaPWcaU7ziTI3+G06mciCxBOqmpmVSs8qUsR7F+onQu7lrPErtgmo5bSIijXr61TvDiAhMmTuX0YwFqDvsJNB2W8ypJyY/bN29Tu0svmlXJY7cL0zkaaItV+Ce2BDrTrZHULFFO36nx9/FarEvYo6qY2LsxZ1Sn3Id42Smc22rKlHm+lGk/npMnI/4hsNLibmOuPBrvs5/oNkYZG2szRvbtSI2cyy/EvLt/BiM1FZBfT6DVjCIFhtzc78m85VuoP0gFT7dltMyzjCa9uYpev/5sf1OZKYtc2eamS9WyWUhS/MZPnMersl0JjD2KQuv89NSLk+vpMsqQyu3HEnD0EJOaS5Nr+fNRlxCbd494MnXmUt7WHkhgdCSzen+JhBZnfuKkuxITl59n5Ly1RHobUC3fK7PZ66TPVIsABmmu46z/wiKkiP9YtqzUN9irjcX2wHMGqtqya5MJDX5SleI3EFjvmDuwD1uvJbMm+DhLFPsW8KGJuCuNwSrqGh01AznlpUrVIuTxF2uCFvDQf09gfQnNFgiyKFOuPOVyCpvmFvTDmfWMVDLn9pss7HdeZdn0br+dLPpeok/3D6M0Q40jL6rjEBjJ4um9il7AsMQDKOCUhxHBn/rhYK5JfdmyRNko/A8QWEbM7ZGKo9MGjv95D0HVOoyfpcNyY62cW5ekMzFLDA6IhZzyW4GKviMfu2lxKdKKxJMbMbUP5NmnNISiygyebYCHvRnt6/0dXv4L3luCLl7FhDLDcB92AesY2/EHhStL0P/PHpXcWvXydDCKagb8+TqVsjLladBlNF5bvBnVOB4jJQ3+ajiVgI32tK9Tsdg39BRF/Lhr0SjLzeTMm+as2RWJqVwfcrITvvtlPQxn7LSFnHmUhnXweVYVMdxYanmkisASce/gRhRVF3GvjjyHd/swukv+zVmQfhOlQRPY+6Iya7fsxWymNGUYC5b0/zaBBZJbL7OyRZQrX6HAk9LoNSrMXL6N+oOVCQv2ZUTr4s9VqSOwfqQUwhR2rzVE3TaI9nLm7Ny6muZVS3gzbjEIrJT4WBZoOzFxxVqUB7Xiw42D/xMElpKFKa93u+O77QAPP3ymTY8/0F24BOWx3ZAtQZrsP8MhbQTWhyvoKSiz+dQT5nsdY83EClgYGrPr/CME2UKqt+jDgpX2GE0fVOIbCIuSQvjDtUbwiR0uCwh/OxgvtwXUL1fyS06kJ7Ak5lc6e9YsQnmlP+lCqFC5BkMUTfByWAjXtzLXZCNdNexYZyYh1krmSEhHYAk457ucGYZuyDSdQnRsFP0LuOXulO9CxutuoEpPOUJDQ5jYWbr8F8lel50lQIQMFSQ3W+czOGNQlVdk2+V4ZphtYdta1Rzy4+2do8ydMJEjgp6s3xqG/sSCSlnEsWTaZNwOPUXNejuBy8dLvcVIakMJsrKRKfflIoRcW50og3Nhq5it48j7qn2JPL0b+S4FpKF+fduvIrAkWAmzBQjFZalQvny+ff9z4mMspw/B/WwKQ+fYEultSsNKXySX1Jz58j0VKFcAYXw90pbhqqso07QvLuFH0ekvfT3IHKwEWciUL7jv+/tcGT7bnM812uMQdZ5Fgws7YBby4kIIcjMX8kK2O/7Re5DvVqdoB5wSvcrBSqJX5fJhlf76BkvUJ7Dh5Dsmmvmw32VePntYlJ3GVqsFXKk/AxfDqVROfYFHCQgsCUkhEonIkoyDBKsCTmyvRVoyStGezw174h++G9URLb7T2S8RWJ9GWDM+6wge3oFcuPWcyk3aME11Acba02hUjNvivuhVFkJRGSpULJ/fL8iKw1R+PO6HH9FvlhV7ty2ngWTpESWx3WERmtbBtJazIHa7MWH2i7HbvI+PAiFlZRswUsOUdcu1inXI+mUOZlG2XAXK59NZiY6EMmHqXJ5ktcLpwGkMh/x4Dn6ZBNk8uxTOIutozELDGFEv/xwqdIH4ehFWllBMhQr5D92zkt+y1Wgo87c+of2EeZzY7kWjr6nLYnEW16PWIae1gtepkvkiS6eRqmzY4Ei7jDPoay4loYs2EV5mNKpWNOJPUm8uSyCgjOTSrgKyV97GhtKrnxrvqzbB2G0vTjq9KIuQV5cjGD9RlafCrgT+eRSFDvlt5KcnPOg62hhx486sCT2F0R95omQLBS1/g4QnZ5k3TZEDcdVZGnwY6/Et/rE5BUnv2KTdF8NdKcgZuhPurvld3by/+xJxzHMhY4020fqPhZw96ZEvQq/IYmWlcincgal6LtQZpMve3W60qZY7RTRvn7+BwLrDlC4j2f9YgEvoSUxmSgYu7+8TG9XGsDQ8loZTnbgUakztSkVToCKDVcAD/xME1k8+RCRIwWWhPKv8z9JgvDn7A5bR+WsR7l/x/dL0Icr6zPEdmzl06RGJb19x8UIMFTpPxMnBklE9Wkp1rbE07ylKm9uHN7Ii5ClW9svp2/xL8Hzk/wCB5XbsPYPlFZg5ZTQdWtRFnPaOPb4uuO28hdoyJ5aqj6dGCY1gqXCS1JparYGOzXaqj5iDSpeqVOs0DE3FibSoU4mPL2/hY7+MLaeSMHX2QE9uAJVKdugtlVg/apQRdwXzhYupPd2BpcqDqSRd6YwSvTP/wwIenN3NKitbos/fJT1bTLnK1ahWqTKj5trhulyNFrV+X1SY4N0dzNRnsPHoB+Zv2oXj3OF5bqIT8WiXHdPm23MnoQwmHodwM/j+9PAXwiMVgSXk4o61KKtb8qqFAsd3bGBE5/wbryDjLhqDxxDxlwwrvCJYOWdQsaMa/q8TWD8bobSnJ5irMpeomCQM1oWzVn/Cd+keRR/bohNYYj7cP09Q+G4ev0nk8Z1Ybr7KRs1kNYvUJ9CsdnGuyMkjdxEJLEHiYzbZ2ZLUTxcTxaE5eLz/HyCwpikt512jPqgpKjCsT2fqVpHhydVDONm587bhKJxdrBneriiJAAWMr5QEVtLt/SgqqXHkTiaz9A1oJFOWSWo6DO3VGllhCuej/Vlpt55yfTVZ52BK18bSF/nNL5X0EVg/0th7RzajahHF2sBgxnUrIUZfX1IUAkvySGbqW05u88HacSMxj9/l9CJbrQZVqjdjsdMmjJUG//A69KLMROkILIi/sp1x8rq8LNcN/xPHmdYm776TSYDZdLTdDlK+1ShCQ0OZNUi6dL2fySuW3GAVbIOKkTvpzcYSsM2fKV9v13t6PRKFEYpcq9IPn63b0B3XpoADuXgsZ07Cfu9D5E02sd1RpQT11b5JmvbuLhbKU/A+95HR+msIddCh3k+uZf1VBNbPxzab63s8kVO1IL3hYFxDI1DvX1+qFO/MD/dYZaCKY8QdJhp7EOI8n191CbTg01McjZSxDb7KoDk27Nq8jHyXoEmqdCW/Yk94AGdvxRH//BEX/rxFxynzWWmuz8B2DYpGXkkxCc6HWjJLx4H0JiPxCd2K8oDc0eIS3bsc7YnPn1VYZW1AS0mV6KTnJSSwfi6YKPUF5spTcT38mFHaawhxW0DDXJXF3+CkN5fNMVnMVFZh8shBtGpcnZS4B2zbsIbwa1kYrnZlweQ+0qfqFYaV5JKGswFMUTDiVaVuuG+LQHtwqy9Ppb3EzVSJJZsv0GmcGkrtZagxRBWFicORuIXPbx5nvZ0lB143Y5W7K7MGtf1lpXkyk1+y0VCepcH36C5vwu5AG5oUQvqkvb6OiaY+9VQdsdf8PjWzMBCk//+TC6GMH6fG68qdWeIdjuXMbnyfzCUUpHD1YDDWtq4cuvokp+PylatSrUotFMzW4bJ4BlV/se8jiSgNsNZB2ymazuMXsmu7O+2/pvFnvr2JwsQJHH5UAfu951j8R9M8H5vNqY1mjNb3pEzttlh672fV7GLUgxQkc35/GDtP3eHD22dcuxSDuM147NZYIT8gd2mP9MTXOE5vg835SsibeBLmrF4AgQWnNpgwcqEHzXupcigmmE5FxU0s4lPcDQK9Q3mc+InHD64Se+ct8ovssZivRMt/Lsn48fj/BgIrloltJ3DodTYu205jMq17AYt6MlvmjMEsLIb6E+w5v30xDSoX7TYj6VX8xy3/pwkskYA7BzyQ11hFVptJhIRsYmiH2r8viudv2ETZxD2+x7N3n0hP+ciVwzvYGrGPKn2VcbAxYWT31pT/bbloYj6/i8HYZBPTl69hXJf6/0T3/bcE1mf2Oltyv/ZkDLVH5zbaUh6wZNZ01l8QsCo4iiVTe/y6ze4Hqi3OzmSj+XQM3A5SVkYWNZswfFZMz5WilP7yYk7Bzv2vWrMlKoTZg1oUeCPgr5hnPzWaRQIi/3/hynY7ktm6N4TeOSH4/8VPyKfXj9jl58iG7Rf4mPqJ13HvyMwWQ4VaqC5Zy2pTVVrUqvLLjbuCvzabZ/ucmKxrT6URK9jpY5brql9B8nOcTNRxDjpPsrgci9z34blo7L8DnJQE1vltq1HWsCGuozLHI9czooCbhrIy/mLO0D8Iv1+GxZ7hrNYaWmwn5/9VAisr+TWeZnNYHRpDD2Ubwlz1aVLCenBFJ7BAkBzPvYdPSE0TEPf0OhHBgZx9lIG62WrMtaZQp+rPT8sKVcaiEFiiTHauW8GON+3wtNWmzleW+z8nsOLPYrXuOBP1TBncMncUzJ1oRyZrrqT+SDN2ha2mSUnSLaUksOIv70BBRYOzjzNo1HsKfmHBTOzwvVxZXAqwQm6hG721XIhcZ0j1ohqi/wxsSQgsMVmf7rFMR58HLbTY6jCHPHVjC1WfHzUoKoElzPpM3N1LrHNaQ/Slp3xOfkf8h5ScW8ckxXCXO7oxb8oAapQwS0BaAkuY+ZEtZgosDb2D1tpdOOoMoOLf1aclTsDjA2iqLGRfzHNoMSInAmv2kLyOUFHhE/H8SjRaynOJzWzLyvVBGMh1/qc48eMrocwcqsatugPxCdqG7qiWBdiiCVjPmsDqPfeZtMibCFd1pE1CK1haMZJbqvZ4LkHdOpTOkxcR5OdEx0IKfv3bBJYkgibhwUnMtDWJuCODqWcQ9hpf0qkK+0kOpaM9zJhvHUztoVps81tLz+YlIZG/vVGcnc4x/5VoGHpQdaA6/ptcGNbhB3UxBWk8f3SfVx8/k/zuJeeitxFyKJa2E7RxtzOic5O6v4b8EAtJfnYJjelKnIivwTLPcJYqdM2TlSPi4cUIlq7axbLNmxjQ4qvM/yKBJcxI5LifFRoW/jQYpkNowFq6NsirrYmEurjzpq0qRtM65krDTI+7hLacIgc+tiBw/z6mdpI+gu7HOiIm4ellFitMZNuTWiyw34i97th/DnRFHx9jqy+PzfY7yNZsiZ7zzpzInu8956RHJ5CfOIvH1UYTudefgU1KrltiYSYXtq1horodDYcp4R3oy5hCigGKhSkc9FmBYcgbgqNCGNT0F5fdEItJf3eXVfpzcD3wFM2V/mxcJp/vMFQkFJDw9DZB3o5474pFcmHT67eJCMUgW6cN2is9sJo7hgZVf418YmEGNw/5oKRhQUL9EWwJCUC+z/eRalkccddntuU2Bur7Ebl2NlX/LgAu+ab3N1k+XwOvXTcR1mzNsg17sFeRLhU7l16Jsnj7/AlP4t6RnvSe68ej8Ys6QoX2E1m3zp5BHRv+s6ekJzzFbmIHHK5VZdri9YStUS3wRsZz3ksYZuBKk24K7I3dTq8ixxyJyUpP4q87d0hIF/L+2Q32hgezP+YjM81ssZw3nca1ZH/KcfwGAusGUzqMYf/zLFzCTmIyo+AIrC8EViwNpjhyIcyEeqURWLn07/bRzcydtxxBd2W8nS0Z2K5+7ptZCtsp/63/i7J4EhOFgoIej2iLU2AYmiM65isw/W+8PivlDWsN5lF2wjKWKA3OdfPDf0tggSg7G2RkCiCBRFz00mbqsmAaDFnEgV3ONP+3Q4yyM/FbPgs9530I6w5i14lIpnXLE+4rSsLXYCamvqfoOdeTfd7zqf4bCrnn1QvBpysoDJ9G2tg17F6jStW813n8G4qUt0+xkLsntmJs7kr1P+ZjaTCb5pVSORLkzmrnrdz9kEYZGVnaDdMkItSRHo2lS9coseiidA77WLJoTSSD56/B2USRelXK55yebnV34HFWBc5GhHPx6SfMN51kjVb+W/9KLIOkAykJrIsR9iirr+RVG8UvEVid8t9UkpVxjzlDxxD+oCzmXhHYzhlUaH2OH33D/5MEVpbkRp8lLHLcxwQje1wXq1O/WvFvH/wbu+IQWHlxz/z4DI+lc3EIjaXTTAtCPExoU4Ii/EhNYGXz7NgWbCLjWLRqGb0afUul/M8JLMQIhSJkZPKzQEmvrrBQbjIRL2ph67cT02mdi63rSElgJcTuQkFZnZN/pTHBeAs73HSonCf1OOGv/cgNV+FuxY54bjuAxqDi1qErAYElyuRiuD3zrHeivfk4hqMaSBW9Is16ViQCKzOBbetWYO17EbXlTujJ90cQdxM/FzucA4+RLjmxr9qQuZbrWWs6i7x1gKWR5+820hJYiMV8fn8PrxVGrD2ahNNmP3TGdcvpJu72MaxstlC1jojgTVEIOo4nLDSUqb2LO4aSXsUkPDrDEm099sY3Yu0GT9RHSmqVffs6SbHrWcOUuV6z/5cIrLGtC3A03mE9ayKr9zxE7msEVkmOoyR1W477LUN/RTCtpy3Dw1aXjg0Lr6HzbxNYmZLoaG0Vou5UwHr9ZuaM7UEVaewW4Wcu7vJAfaE7zSbos9lxCW0aVP01ei9K59oBHzQNnKg8aA6+rsvp1KSG1H1LamCd3u7MvEUOJDcZyaagLUzr3bwo6l1g28Rnl7DQVmdvXGNWeXihOboLFfOkp2XE32SVpSuNVexYMKLZt9tb/zUCK5MzQQ6oGbjSVmkZXnaGdKxfrcCDSZFQ+MWuz/N1krqp2yxnoe52jpFazmzz1qdBiTIHxGR8uI+jiTZOhz5h4+WH/sxBVPm+z09PsDeYjlXYTRr3VeDQ2Qi65i05JXiHzayx2B+LY7pFECHWEwu4FVD6YZUU2b57yIu5i9aS1VWVzR5W9GtVu5AOxCQ+OoOhsgrxg53Y7a76yy/5ykx+gZOhOh5H4pnnvAXzmYOoIZtnALLTOL/DA2ObQHqqrMBKbyoVUp8RvcUFK9dw3kvSLstXYazmSvzXL6FxiTmsbJ5cjEBTw5T3LScRsMWZvi3q5COCBSmv2e1hyaIN59C198FOa0wOnslxd3FaacMn2ers8vLlQ/322Pgew0Ku5LVtJWvp04u70VbXJiatBTYbAzGb3ifnvemJL1g7vS2256syzWQ9Yc4FE1invU35w2AdTXsqs/9yKN2LTGDlc7zISksgbLUWC9xO0Gb0HMICXOmacxFGwb/fQGC9QrVff8JupuEQdJSls/sXUAPrI56zx7Bix1XazNnCmQ2aVM+rfNLPsWK3/F+MwJKcotw57o+BhQ91R+jgaq1Hy5I4CcVG58cPigUpOOnLsdL/NOW7zOHUAQ/6fE3l+xde96VLYSoHN68m4kNP1pjOomGem4z+SwJLkmefnS2ifAG5/xLR44/ZM0DJno/VuxFx4CjjO/7LBEhOVJMOWsuDyeqnR8wOZ7o1y3sSI+KgzUzUHHdTrYsKB05upXPVEq9IRRz+LGI2L0Ru8X40NkVhN3tgvutoi9hhsZonPzyEiuIisoebEuSoS/3vCMaEZ1fY4OTAlvCDvEoSou2wHY/F00uUzlU0IQXcPR/Nps1hPE0tT91aVchIz6brKFXmD/zEzFmGnH0CngcusWB066J1LW1rqQgsEbf2r2e2qjEP68pzaPdGxnTNn9YiSL+NysBx7H4pi92WaMxnFr+m3/9rBFZ26huCnS1wjX6ElqUzuvIDqfYr6icBv4LAkji6Hy5sZZq6MRdeiDHzjsZed2SRip/mUjkpCaz3906zZKkHU6w9mNUvtzH33xJY4pz6KmVkZHLqV+b9ZSS8ZPXcsTjse8WUJV742mhS7LsppCSw0v86gtJsNfZcS8TA5yhe80fmkyvp/Z+oDJnEgbjKLHQJw2X+sGJGQRafwJKkpNjOGU/A/eZsO3+IEYX5RNKuVTkFqTPxWjAKo7DHGDhF4m4wrEDiUOKcnfK3ZIHjUdScAjGb1v2fVEFJ6YQ7Z3bg6LSOXcevImzQj/WBIeiOKUY6x1fZpSawvrYXpL/j2LaNBO+7TFal2lQrL0JUoT4KeiZUuurC5HnrafyHFmEhGxnYpJjeszib+AdnWLLQjKe1R7LGwZKhbfMPRtztA2iMm8LJ7F54bg1lwaSOBRBYb7GQn4TT4ccoWYURsmKy1ARK3uHN+pzIia0OmG88wx86y7GdL0f1CtKFCv6bBNa7h+dYbWrIFXEfVqxeycReTQu4TTm/sooEyRwLdmaxYyRj9CUpM9Oo/4vqNkjS705vX4fRqgD6a1hht1idBkW46e1vaYWJd7HSU2Zt1E36K9oQHWJNg2KahJJ6Sh/+OoOlmQUXBF3xcF/NqC75r2kVpMThZ2fOi1aq2M2fkNtX/BcILGFmEscDHVix4Sh91SV6NY16VQueOxLyKlskzqnplc/1zs7gnL8xY/Q2U6vPNKKiwhjasrglJkQkPr+Bvak+xxNbsWqdO3I9Gub3m9Pj8DJXw2T9SdpPX8HNnXb52oiyM9g4fyQGftfoNsGQ6GgnWhUzuUkoSOPKHm8WLPejq4IZLja61JNimRGLsjjtvYCZy/eiG3yBtfK/1i5NeXOb9SvNCLldCfPVdswZ3bXA3eHBsRfTK2sAACAASURBVE2oaNnTfdFG1ptO+idVUCLfq1vHcXV0YWvUcVIrNcPIORxH3cHFjzqU1Ns65I+puRM1RhrgaGVA+7o/ZsSE2WlcORTEpqADfChTgzpVypKVXYERsxcxVPYs/cYsomKboXjvPc7sTsUcwHyL6if8V2ij7byTJr1nsONoJANql0WQFM8mnR4Y7sxgioE74R5zqZKvYLOYox6LGGfsTZs/DDh5cj0lp9UkAop5/+gUqmMncPSFDOr2IQRZzPjhbv8bCCxYKtcV50PPWe57AOs5BRhHwnhWTxzLmqN3mOh8ghCj4f9/egth/nGKjXRgqq4PS4L3Yyj3Lf1SkPaOz8LK1Kxe+AlUEWy9HzQV8eH+TZ4IqtGje5sCjNss9jvro23pR7ygEq4Hb2I6IXdebcllyN1DQkwg0+asIK1aK6oXsPG/e3GXe88SaNKuC60a1UaGchg4BaHQ/9+821wiYxL+ZsoY+D/Ga/d+tEfkx+HDGRcGz1zJc5kWhOw6hsKgf1smIedDVqGsa8f77vOJ3eFE56b5Q4mP2M1ExWEnsu1nsOdoOL3rFdNaKe5gJz/EWFGeDZersGlPGHOGtv8lN1sUTZxkoiyUMN4nykm3Gde9XoEhrFci7Zk515KKI4zYEeBKt/rSGdNFk6VoreMOuTFR25IHFcZx4lwAg5vUKloH0raWisCCt5d2MktZjUsZQ9lxwA/5Xvm3uMzkS0zvLc/ZzEZ4RR5lzsDiF6j8f4nAyk5+hbuRCkFPWrJpqxeDWlXP0UNJsdCkTx8oL1uTKgXcRibtEEpNYGV/5MqVB9Rt3YUW9avlnwsJMcyRVyXo/GMGK1kT7L/y/2PvPMBryP4w/IkWBCE6q2WVxbKrLf6W1UVdvZcoIXoPEoJgEb23SPQaiRpW3dXb6hKrhdVrer/J/zmzSwqRe1PunZn7zfN4tpg753feb26Zd845g5LJHWahlcAKh8vITpi05wEsi1p89vkg7uB5e99BgEkuVPiuDMyzZELp2p3hOHkACifzd9+Ta1th9b+eCKnUGW67N6JuIssL/XN5F9q06IxsTadi6yr7z+7gRvg/w8zBzTB1821U6TsXu+aPQIJZhtrGB21HYMH/Jmw7d8HKQz4YuvooFvf/fF28gDcX0LtOM3g8zAjrmeuwZHSzZE71Sr7Aent9G+o37IfQCt3x54mVSL2H1GsvsMKD/saIJg3wV3FbHHO1g9mXBEnoK6yeaI3hS46i1eRN2D65o/aZJdhTV4H1tYa2ObRDl1leaDx0MTYv6IfPx7pqV+bTG/vQpbU1LPuvwJKJHfDxV0J0ZCjeB4bDPLe5NC0n4NE1DOvwCzbeL4JZ6zZhdNsfPpdTGl8MbdQSqy69xqjVRzGry7+jxnTfgrBz2lAMdPWFm8d2tPwh33+HiEZwwAdEp8+O7NkSf3OnjcASj6E/BZueA+BfcSg2zLZBnv/W4dJEhsPPLwA5cll8cUHn6PAA7F84FHYbHmHyBnd0qpL3E7vggDeIgBly5Ujeh2h0RDBOuNhjyMLzsFvviZ41Cnw6dkjQO4RqssAi58f1CjV4fOMmnqe3QNXy33xB6vrBzcEG/WfuRI5va2PR7uPoXiF5vwnf+pxA19Y9Yd7WCZt/6/2pLSFF/ILCYJH73xGD3ocWw6qvM/IVt0TWhE1pwvH04W08eBWBYqXLoVi+HMhRoDSGz1qNhsV1P6sQ5Y/9q+xhu/g65mzajC7V/hthFhON0EB/hJuYwtzs3xxC/R9hWtcmcPMtig1eXmhUNEFxmnBc2DAW9fssASx/wU73XWhWKXmjIP0en8foTl3xuOJYrF9oi8L/xRWtCceHdwEws8iLfx/MGoTd80ag+zgXWP7qgJvuTp9BiI6KwJrBv2Dg6ssoXW8APD2X4Ltk3S/X4E+3ceg26Xc4bduL3v/7bx0uAGHBgQiNzoBc2b98zmrCnmFs84ZYcyMj1vzxBzqXS73fpZF+vhjdtR3OZGyIvZucUPi/B1xER4XDP+ADzHLkRcYMApY/5vVojAUPSuPknlX4Nu8X1uyU1vybiNa2y1CyrT2OuE1FzszJeNRWdBh8/liD9v2Xo8PsbZjQrtKnm3oRIYHwC41BHoscWsv8C24TUcN6Nko3HYMjXrOhyzjId4+9cfMFUKPad/jSjPcza+xR22YmMpgXxbhVJzCjY0nEhH7A73PaosXUS6hn/Rt2rRqK/9bBj3N+RWLPbwPxq/16/NhzHi64Ddd+NHlEEG5duwXTEt/j27yfTyrXvLuPsSIrr0co+fMQnP5zSaK/B/QisNZP7oCBM/aji/NWLBr+K7InvNYLuIe+jRth47X0mH3oEIbULRVv4bVkfDQl6yVyGoElfjDsXzUOyw6+xYCpM9G8cvHYdQ8QDM/xXXC9xHBMGtBA6zdCsqAAeHJlG9q37IcrfrnhsG0/7JpXRPwbOpHYP38g+k5ch9fhWeF84CrGNEv+nUlt6gx/54uzl2/AL0Tzxd09Fo3FxlNP0aTfOPRu+iMywwQVazWE5Wfz2rVpTYd9Xv+Brs16YtuVp+i34ABWj2j62Ysf7p2Aur0XICR3dez08kL9UilbGSLp6mLw/uputOnQB6cjfsGx42vxy7cJRUEE9k5sj97z98GixgAc9lqKkmk9tTFB4e/vHEXH1q1wUlMHHu6uaPFjQf2v8Rb1HLN7tce6Z6WwafMaVEvkqlfzwRsTenTE3qg62O62CJUKaHErKumgkthDg9fPXiKjeR6YZ0uw3lB0MDxm2mLgTE9UH7Ua6+07IHcq3dH9rCgtBZbm7V/o37Ez3M6bYqXXTtjULfPZocLu70TdejZ4kb8Zdh1ci+r5kvfDXRxYLQIr9I035k51wDVNFThMtMWP38T+4IsMf4IxA2eg7sApaPNT8t8fWgms0JdYMa4bxqw4gbzVrXHwwGKUy5Xgs8rvEnq26IaNZx6gRicHbFw3Fd8mdz13rQSWBr43zuPqf4trJzyhnt44iPlz1+J5rp8waexglC+SHeYFLFGt+vfJXpxVW4F1as1w1LNZjPxVWmPj7p2on+AiJ+TNI0zqVg/zj35AG4eVWOXQBXmTKdW0FlgIgqtdd/SZsxedpuzAFsf2n/1e8H9xGp1rtsIRv1wYt8QdU3v8oP2P0XgBJFdgaXBx/UQ0HzQXBZs64KL71BRNc0l4Tmg7Aiv4zVl0qNUOGTvMxo5pPZD541okCQ74+sYuNG3UHyUGLIX7tG7J/lTXXmCJtUIC8OZdCCwKFUDmhGuMhj/B6LatsOJCBBbsPogBdXS/mhejz3z+2Iyp891RvuNYDOv4vzhTcGLgs38Z5h6Pway5Q5HHBBALXi8c0xXjXR9j2LL1mN23/ucjj95dQudmHXDgaSG4eLmjY0XdtWSY3xOsmzoeh98UxPipE1DdMs8naa3xe4hlDmOQsf1s2P5SKtEcUl9gReHRub1wmLocRZoNxYSBrWEe531877QLxi64jvlr56NkgtXYIwJfYMviSdh02RR20yagUbylHPyxYMxYBFYbDYdOZXT+XR8Z/BruKybD9XQUhjtORrMf417qBsJ12kTcLT4QM3uWh0lMBG4eXIT2XSfC18QSS/Z7wSaOlPgX5ge4Odqgv9Mu5LD8Hxa4H0PPirrPq/L+ww1TZm1AhY7jMbhLA+T+dCUdhbvHXTB35xssX+EgfeYEvLyHPy/ehnjKXMJNjGDdOM8OXr450HbgKHSrUxqZs5qjUs16KKKjlIkOewuXmROx40Y07GfOQJ1ysVOWIwJfY+2EoQitPx6j2/4olfHutgca1O6G2+nyYbSQse3j35iOiQrD78ts0GLEZuSv3hm73N1Qo4iOsk+sU3T7GCY5LIZpnb5wHNwKeUxjj/H88k4Mdr4Ap7VzUUEyyzG4e3g56rUbgcxV+uDsH6s+u9CPjgrCEusGGLHlJqq0n4h9mx1QUMefqpEhb3B4ySQsPRuJwZOnwOrHONM6I99i9/LJuFJwMGZ0/PLaTMEPTqBZk3a4Fv4d3C97oWF+HcNK5J390ucEpox3QLof+8B+dC8UiTNy7tXdo3CwW4Pxq11hmS8rEPUPhjS1wmnzZvBy/Q0FP5MQ/zYS/voaujRqhcdluuHYhhkw13GdypiIIBzZvADT1p3HwKnO6FK/XJybbNE4tMgOWz78jDWOrfDRjWkiQ/HmxRtkL1gI2RKO7ov6gJVje2LwsrMYtXY/nHtquyxINN54H0O3Vu1w/FlmjFx9CM7d/50iGLvF4My6iajddxYy5CyCsUuPYGb3skB0GO4ccUbjX6chf/NROLRxFvL+9zTVT6+N8ceqcT1gu/AP9F24C2sGa7feriY0AAdmdkSXmb/DrFJrHD2wCd8XjP+bMurdfYzr2QgLDvqieG1bnDm1PNEnHOpFYD08ugqtuo5E5hZTsWfRSBTOniHehWnA/T/QpFFzPCncEUd3Lsd3BZM79DLZvyWkF8pFYEUJA7p8DKafyIKp00fjxzijZaTHHr/3weR+tqgw3gPDmyf+xZ0yGrGvvn96DVo1H4qH6b7BpM0eGNW0Qryn1MVEBmPpiA4Yv8ILkYWb4vDpjahXLLn3AFOn6tk9qmH8Nm/YLtoN50GNk3lHORm1aB5jcqfuOJ2pMZbOH4lyCddoiA7G9rHtMWDZEVToOA171tnBQrpDkMab5jXm9m0L+y2P4HzgCIY1Khf/oyz8GWb2aoMZu2+g9eRt2DChNTJ+XCg2jUv7ePg7f6xC6+YD8bxoOxzYsRq/VEjFeSRa98Ef2+26YfTeUCzduAmtqhT84loIGn8fTOjVFfeL98PKOYOQL7kXolrXFYPnh+bglx5TkK2uHfa5TkCR7LE/JgOf3sSgds1wMqoqtuzYgJ8tU75YZ6KlaSmwgDB4OvVFj2me6LNsHxba1E8gJDX4230yGvZfhMoDV2GzY2dk+/fWYrI2uQosu5YNsODUe0xZdxgT235tAc5o+D2+hhmjR+BZia74bUz7OFNTYxATHY1An90YtfwuxsxxRu2Ed4F1oKaVwAp8glkDf8WU7bdQtE4/7HOfizK54tqpGPhf3YI2XYbixP0w9Jm1E8vHNE/m9DNxQ/kpZg9pCfvNbzFm3WY49qjzxcVDv9bNu0eXoXPHIbhb6Fd47XBB3XIp/wzRVmD5eC1E8wHrYTN3GUZ2rPXZVMqX3nvRuWlPXEEpLNm8Fz1rF9T5IvVT37WcQij2f3hyJZpYDUaOZmPgvnUWimeKf1f5xaXNaNR0APyKNcI6j51oXEzHK5xPRSVTYMV8gNvkfhj8225U6uqMsxvG6HAmJ72rtgIrLNAHQ5s2wdXCveG1fjLyJnID4PUtdzRrOQ2tZ67CpC41ki4gkT20FVia8CCsGdMaI11vob/zLjjbxs5iiImOwqPDK9Gu/xTkbu6AnQuGIPdXnsj3pVLENKPrR9ZhsOM2dJ3ojM61LePtpol4hz0rnHApawdpYeR/P6EjcXXHHLTqNxM/2MzHrtk2cW6wir+PxtvLO9C8w0BEVB2GfasdUCSXDl+SMTEIe/8Ay53scDiwEn6baIOiOeOcl9HReHX3NBwnLkHftVtgVSZxOZaqAismCt5/bsE4h9X4afBs2DSMK5pioImKxDHX6djw5DtsWjQUeT51OQahH57CbfpI7HpaCkvmjkS+OE+4EyNrI19ehv3U9fhl0nr0qqTLNZAQnO+xcfpQuN3KD2fnMbDMHfvbQDr262uYNWMlyo/aggFVTaWL1As7ZqB9z5nwy/09Fnt4wrpmfPEZHfAAMwZ1x5TN51Gu+TDs9lyEUjp8NIjz6tHpLRg8ZTvqDZqO3vVKxJGcMdCE+uPo6nE4pGmDjTN7JPk+Cnp6B3Yda2D5jTyYsHI7pnevlqzPz5B3vnCbORj731bCb9NGoXCc62fB6sPTy7Afvwxtp7qgS41/h9sGvLqCfo27IKbeCKyYOwh5EnCIDH6Jef1awt7jAdpNWAMXx3afRi8m2THp7RKJBxc8YDPQEf8bvhDDWsWRDTExEKOvTm9bDJe7hbBhxQh8HNsV/PYORjRvAI/XxbH6xB9oWzz+eywq8CGGtGwC1+vhGLL4AOb10GEUZEwMIsPeYPs8e8w4boIVS+xRIX/s979gFfzCG8tmOqG83Ub0/vFL78Fo+P65EY3b9sGbXA1x5Lw7qlqkbNZQTIwGr24fw8RxTsjU0B4O3avGeSqsYBWN2/vnwmlPFLZsmYcCZmI6vx/m9LDC4rtFcdDTBRULfbmG8DfX0bV5T2Rpao+1Uzrq9LTZqDB/eK2dhNl7XmP6kgWokCdWPorrdk34SyycPAUxjX/DrM6l//stHINji2zQYswm/Dx4FTwX9vz0xD/B993t47Du2AU++drg4M7FKJVX288FDZ5d3YN2zTrjWkhejFh9ELM6VYp/KmoCsHFqf/R02oG8pRtj/bHDsPrv2R+hz6+hnVVjXE//P/xxeAu+zRv3xnIMNP6PYNezFVZcNcOWfbvRupJ2s4iiQj5gx+hf0GO1NwpX+xWHdruiXKF4b0D4+Z6FdfOG8PTRoOW4tdg7q2eibyG9CKyYyA/YPLYThmx8htm7PdG/zrfxFrc+uLA3Oo72wOj1RzCpW/XkzzvV6pMisZ2icXlBTzRz2Ir0VUfh/D4nFMuh7cmSooYTvDgQq0Z3h92yg4BZbphlib9grzipo8JC8T6oMLZeOYJ25VP+uOSkqg97643R3drD/8dxWDK1O8wzp48vIB8cQssmXXH6pSnGrtoNh07VYWaABcBj+xGFaR2rwtH9b/SdtxnzR7RB6jj/pEiJv4/B3aPLMWjBTUxf+htqlog/XPbxha3o3MkWD7PXx/otK9GkQl6kS5eMYaralJJgnxc396NDiy7Az3bYtsYBReJ8Jt09vgYduo5AZJX+2Lp2BioVyAY9lfWpykue09Gi3SSEft8B+7euRp3vEnliTjL6rv1LYhD46Di6/doXr8r2wPY1k1A8x+c/vE+4TcTAWWcxd/tmtKhUWA8jxWJwZ/0oNB62FHkbTcE+1zGxAivkGRbY9YOT51tMX7MOA5p+n6ZTL8Mfn0K3jh3h/pcZ5u/ZhZHNEnwxxoHt9/gC+rf5FbfNm2PHruWokDuWpVis1b5PJ+x4VQlum1agfplcKTrnjq8bg/b9F6Bgm4nYvmIqKuT9fB2iL50H4tHK07vXwdR9/2D4wh34bUD91BsBEuWLAY2bwOWSH8Yv24/pPasleiq+8T6CUf0HYOell8ieyxymGePKvBiItfXCgwJRpuVorF87Bd8m++spGnd3zUTzAVMQWro3vDzno+KX7orGROLu3lnoueAKRs1dgvZVxPousZ9V0WHv4GrfHaMW/Y7sVXvCc8dCVE3B2odRfk8w1aYZZri/wZClG/GbTWOd15a7dmgBOncYBd+CzbHP3RWNvk/+lNSPQT0664IGDQcivFwLuO7chcYlvixZw97dw4xB/RD+v/GYNizBYrli6plDP4xedgZtJ6/AKrtOXxzSr/XnVKAPRvfoggV7fDB6/Qk490xcpGhCXmK9Q29M2P4c41Ztx/Dm3336jaUJeoKldv0wYfPfGLdsIyZ1+zn5nx0xUbh6YBG6dBmDl2W74eDW5aj1rRbfvBHPMG9YD0xcdQLV+87HqbUjtcagzY6ayGA496qDCR5P0GfGZiwZ1fiLjwUXT9f6c/0U9J+0HVYOqzG9f0NkT3ChKp72unTiQHiF1sGK+WPwbU4dR1nE/Wy8ugV1Wg3AK9P/YcuJnWjwhWn9Yveo0ADMsa6NyfvfYpCzO5xta36SxK9uH0LPDt3wukQXuLk6o2K+LDp9FwkB9ufGqeg7aj6eRWRGrpzZ4o2kki68osIRGm6CQSu8MLNz5U89iAh4gik9W8HVxwLrDnrAqmRs1uIBOxscu8HBIxTT3HaiTx3t1ob6ePDw13cwaVBvLN13HabmFsiWYDqnkPnhoYFIX6IZju1Zi/JFErso1mDdyJbou+Q4mgxegh2L+if/t6AmFHePrENXGwfceqeBhXmOBE+Q/ldgBYVnRYfxa7BsbEOY/vdxGfTyJmYP6YmF+72RIbs5zOKMrBG/GWOihYQKQs4yLbDh982oocP9p5C3d7FcPKV2xzWkM/v32LGf0jEQGUaGBsO0UG1sOrMfP0sxxSDoyWkM6DsOOayc4Dy0Pszirq8YHYU7h5agc89x8I4phYVbdmJQk/I6nFsROLd9LroOmIaXmizIbR5/cXpRk5jeFhCQHjaLNmJ+/38Xrv7aFvDkOka1qQmXO7kwetkmzO5TT+fPqrA3f2P2qD6YsfUCsuXOA7PM8d/g4js2MiwYmUvUwebd7qjz300iaVF7Nwcs+9MUC9f8hiJxv3ujw3HDaxk6WTvCpFJP7N25AJZxh+Ql0S9p9OPRteg9YAL+ehkNC4uc8Z/kLgmsSIREAFYjN2KTQ+NP4k4sxu39+0p0s56KfO1mY+v8fvj0E0sTiusHFqN1rxko0dYe25aMRn4d5HaE/xMsG9cfkzecgImZxWfrUotr0YiwEMTkqoK9J3ahZpEv/V4Px80DC9C84wSEFGuOY6e3o1LulMw4icI/V/agZzdbnPUNgUUe8wQPMxOsNAgOiMRPPaZg55Ih/01/i8G9k67o3GUcCnb5Da6z+n82+lk84fTQyhGYsj8Dlm5aiur5v/4EvLixRga9hvvcwRg8Zy/CM+eEeYInMkufo5Gh0GQrilme59Cn4scTKAa7HH5Fx9nH0HDwGngu7PLpuynk5S2M6tEOXm9LYZ3HVtQrnl0nYasJ/AdTBvfCmaztsH3BwPg3ZIQcu3cS1q3bYt9DEwxesAULBzWNfWpjTCSOLhuO9na7Yb3yAOb2qPLpvSa+J70PLULrXs6oaOsGV8dmyJHIaOWEp75Yb8z3rAt6D92Mvqu3o1vVQvG+b4T0Pjy7H9o7boPptw2xc+9W1C+d+JTTe4cXoELTUbD4ri32XnJHVS1OrXQxIg0dt4jAf7BgwhC4/fEObWwGomnV72Aa+QanDrjBZd89WA12hr11HZ3vHulYRvzdQx5jkdMMnL0fgNDAN/C5dRvvxKeESSaUKFsORQrnRoZIE/SdugxWqfBDOOlag+Fp3ws28z3xJuzLU+M+HsPEsjMu/bkClQvp4yI/GgGPzmKm0wJc88uBOvX+h/IlCyNLBg2e/X0NG9aswP3ob9FvuD1G9W6YagsNJ80r7h5RuHrQBYtcvPDqzQvcuvMAgVFRyJwjP74rUwK5chTG0FmzUL9Uyi9okqpLjEg7uW0eFu+6gm+rN0CNit/CLH0UHt86i/UbPZDu20ZwnDIeDSoV0ekDKal2k/z76AjcOuqGcY7LEVm8Hnq2r4/8ZiZ4fvciXNftRKYf2mOG4whUT/KpIkm2lKwdLrlPR4tOkxBTtSf2bF6GmpYpu1OTrCKk33bReHhhH5ymz8bVwLxo0bwJfixTDGYZo/Hh9TNcOfU77oXkQ98xE9D0x2JIpXW1kyxX8/YqBg+wQ0Chn9GyYRXkNUuPD8/uY/+ubbgXXgxjHKeieQ3LNHgCaCRuHdmKJev2411kFF48/hsPHj5HRAxglucbVChliaxZMsDyl96Y1K8JzOJOto+JwuPL+zHJfiZu4DsM6t8FP5bIi4AX3ti8ZjnOvMwDp7nz0K5OKZ1/jEYEvsN654n43fsdNEHv4eNzFy/9Q4EMpvjGsiwsC+dD+myF0Wf4CDSu/E2847+5+zumz3LD84BI+L18AJ/7/yA4UgPT7PlQurwl8mTPgvzlG2LM8IEokcRj2hMG9/aKO+wX7cLb0FC8/8cX3g+fIiIqBllyFkLZMiWQN3tmFK3RGiOHdUfBT9e/zzC8sRWWHLmJr365psuAduPXwHVmb93u8IY+x7ZV8+F55h+EBn/AQ587eO4XIn3XFbYsheJF8yFztAnajJyNrrXjLrIagoOrnbF8xxkUqFwbtatURJHcZgj58Aznju7E+j2XUaFRbzhNG49qJc11/jx75n0Cc6evwD/h0Xj/+jH+9n6IEE0MMmXPh+9Kl4JFzizIUqohnEb1RPHE7j4G3ceC3+bh+M0n+OfvO/B9+QGIzoDCJb+DZdH8qNCwC8YOawddVt44tNIRa4/dRrqwQDy8/zcevfIHTDLCooglypYoAtMsOdC42zD0al4xzkirGAQ9vQznGXNxMzAPGjWqi2IFciDS/wW8drrh+J1QtBzkgHG9miF/IgsFf+1D4OXlg5i1zBUvAyLx9vljeD94gtCoGJiaF0CZMmVhYWaCIt+3wKQJPWART34CmoDHWD7NDquPPEerXn3wP7GAcsh7HNnlBq/r/uhjPwe27X7Gf0uIJPlZ9HEHTfBb7HeZhU2nfREpWPncxdO3AeJZfShQvDTKFMuP9BlyopntMPSqV+nLC1yHPcW8YT0xce1J1B28HL8vGah1+4nt+OHRn5gyZTmeB2kQ8MYX3nd9ERSpQeZsFihVrhTy5sqGfN/WxrCRw/Fd3KVqxEXMxsWYvmwrspWth1aN/odiBSxgEhmM574+OPXnWaBYXThMHIpSeXSd7hyEYxtXwGXfFYSEB+Cf+z548sIPGpMMsCj8LcoWK4Qs2bKgdoeRGNY2VhSJH/3XDi7BxLkHUbVtD/xUthAyR4fiwY0z2OV5DDkrd8akcf3wQ1FdfwtG4+GxNejQYxT+ehHyVeamuSpihZcnev8Uu/aN+J589/AinCc7YLd3BvQdYoM6FUpA4++LfdvWYueZDxg8ZR6GddbtybJR/k+xdGwHTHA5j7Dor5WVARXajMN+VycUyxl7syLszQ04z1iE608DEfL+Gbx97sE/LAoZTXPA8rsyKJg3B3LmK4uBE51QXYf7v4/PbcKvVn1wzT/yq6wy5S+LCasOwrF1if+Ez3ssHtQdI1Z4ff2zHcCP7RxweJcTtP+V6oc1Y/pg4DwPkkoefQAAIABJREFUfBUVgFINB+HUkWXI/6n6aNw/uxu/zVmN9zlK45e6NfBtkXwwiQrGgxtnsWbNRoTk+wnjJk9H9ybfx5t18fU3aBTun16P7u2G4MLrsK/ums68HBZt2Y6hVl9eeFus83R88zKs2nEWb148xi2fR4gwSQczi8KoULY4ClpWxXCnqfhBi+9oMbNl7YgWGLH6LMK/niC+bzoUHh5zYRlHVEWHvoWHyxysPPA3fm7aHJVKFYGpJhTXTh3Epp1HUaJhXzg6DEPlYjl1EH3Aq2v70KFDL5y6/+GrVWXO8Y10s2LGr/FHSEITjJM7lmCc0zp827A72jauhhwZonD7rBfcNh5A+Y7jMG18P3ybS4fpn+HvsGvuEPSZsh2BUV+/3C9cuzvO7FmDYrm/dEctAlf3LUTLTnaILN0Op05uRGlzXT83Y7G8eXActo1/hfvDwK+fglkLwnqaG1aObhz7/RwVimtHNsNx5lK8zvYd2rduAstv8iFLuki8fvoIF06fhG90CTg4OaBGSV3WL9Pg8AJbtB21Bl//FAUKlW+N3ec88VMcQf3sL3cMH+WM/PW6o2G1UsiZKQZP712Fx053BOSviwnjR6OhliOcEkL58OgCnKfOxLUPOfG/+nXx/bffwDR9BJ7eu46drqtxPaQQ+o2bihFdGyJ3gumSEUEvsX/lFNiv/AO1uw9B50Y1kNMkEH+d3Ivl6/agQtuxWDRjICx0GJUp1acJxak9azBruQfyVaiDn6tVQpH82RER8Ao3zhzA8g0nUOKXjpjk5IjGZRPmEIK9y+dgw3FvREYEwPfuHfzzJlD6bZa/aBmUKZofmbPnxM89pmJI48JfPEeSJbA+HunN/XNYs3I1Tlx+gKgsuVGzUVsMtO6AormSf1Kn+NcOD6A1gaAXd7Bz82YcOHFOuvjLV7QiWnbqhQ5WVZAjwY9mrQ+q0h0jAl7iqPtabNh5Ei/CMqJktV8woE9v1CgT+xPCEF3XhL3HOa8NcNl0GPffhuKbSg1ga9sPP3+n+xoVqVl/8IvrmD7JHllrDcPwXo2RI/mzyVKpLA1e+1yGp4cnTp6/ihf+JihZ6Rf0HtgDNcoU1Ju4iteZ8Hc45bkdGz1+x/1XIchfqgq62fRHk6olk7luTSqhSuowUcG4ftIDK13dcfvxW2QvXAqdetmgfZMaCdbTS+pA/HtDEIiODMO1kzuwfvt+XPV5DpOsuVC5bjP069kZ5eKs0WWI2uTXpgbPbpzGymUrce7uU5jmKQarjn3QpWXdtFuXTksIb+7/BVeXpTh69j4isuSDVU8b9GnXGHl1uLbRsikddtPg/ulNmLj4JDqMdECHmgku0HQ4UurtGo7rR/dh9z4vXPH2RUT6fPipaXv07tIElvkMc2Ml5LUPtqxahwNnr8I/xgyVfm6J/v06olx+w9TzibUmAk9unsDyletx/vY/yGRRBE3adoN1x2afXRSlXj48UmoRECNpXt+7iM0bNuPYuesI0GRAkVLV0cXaGk1qlUn+lPDUKlBmxwl9/wQ7XJZg9+HL8DMxQ9WGv2Jgr64old+w17CRwa+wb/NybNtzBs+DYvBDg/YY0K8nvo87RcsALMPf+mCK/VSgYlc4DmgBUy1H66RdqZF49Ncp7Ni5Gxdv/I33oVnw/c8t0Lt3G1QuYZilb8QTp/dvcMX2w6fwzD8GpavVR5+B/VDDMrfONwU/4xYTjaA3PvDYsBWef5zHqw8RKPhNOTTp0hMdmtVE3JnZnzOPRvD7+9ixZBl2nroKf40ZqtRsjj5DrfFDweQudvpvK9GaMNw6vRfbduzBmZsPkM40D8pVrgvrAX1QrYQuAlG3MyVFAku3prg3CZAACZAACZAACZAACZAACZAACZAACZAACehOgAJLd2Z8BQmQAAmQAAmQAAmQAAmQAAmQAAmQAAmQgB4JUGDpETabIgESIAESIAESIAESIAESIAESIAESIAES0J0ABZbuzPgKEiABEiABEiABEiABEiABEiABEiABEiABPRKgwNIjbDZFAiRAAiRAAiRAAiRAAiRAAiRAAiRAAiSgOwEKLN2Z8RUkQAIkQAIkQAIkQAIkQAIkQAIkQAIkQAJ6JECBpUfYbIoESIAESIAESIAESIAESIAESIAESIAESEB3AhRYujPjK0iABEiABEiABEiABEiABEiABEiABEiABPRIgAJLj7DZFAmQAAmQAAmQAAmQAAmQAAmQAAmQAAmQgO4EKLB0Z8ZXkAAJkAAJkAAJkAAJkAAJkAAJkAAJkAAJ6JEABZYeYbMpEiABEiABEiABEiABEiABEiABEiABEiAB3QlQYOnOjK8gARIgARIgARIgARIgARIgARIgARIgARLQIwEKLD3CZlMkQAIkQAIkQAIkQAIkQAIkQAIkQAIkQAK6E0h34sSJGN1fxleQQOIE0qdPD41GQ0QkkKoETExMEB0dnarH5MFIgARIgARIgARIgARIgARSl4D43S42/nZPXa7GfrRMmTIhHQAKLGM/E1K5/2ZmZggKCkrlo/Jwxk7A1NQU4eHhiInhR5axnwvsPwmQAAmQAAmQAAmQgHwJZMmSBenSpUNISIh8i2RliiOQO3dupNu6dWtMgQIFFFc8C5YngaVLl+Lw4cOYPn06KlWqJM8iWZXiCGzevBkbN27E8OHDYWVlpbj6WbA8CXh6emLJkiXo168funTpIs8iWRUJkAAJkAAJkAAJKIjA+/fvYW1tjTx58sDFxUVBlbNUORMQM7zs7e2R7tGjRzHFixeXc62sTSEExMiYkSNHYv369RAXhnXr1lVI5SxT7gR+++03SYoK2dCnTx+5l8v6FEJg2bJlkhSdMWMG7OzsFFI1yyQBEiABEiABEiAB+RJ4+fIlypcvjyJFiuD69evyLZSVKYpAVFQUWrVqRYGlqNRkXiwFlswDUnB5FFgKDk/GpVNgyTgclkYCJEACJEACJKBIAhRYioxN9kVTYMk+IuUVSIGlvMyUUjEFllKSUladFFjKyovVkgAJkAAJkAAJyJ8ABZb8M1JihRRYSkxN5jVTYMk8IAWXR4Gl4PBkXDoFlozDYWkkQAIkQAIkQAKKJECBpcjYZF80BZbsI1JegRRYystMKRVTYCklKWXVSYGlrLxYLQmQAAmQAAmQgPwJUGDJPyMlVkiBpcTUZF4zBZbMA1JweRRYCg5PxqVTYMk4HJZGAiRAAiRAAiSgSAIUWIqMTfZFU2DJPiLlFUiBpbzMlFIxBZZSklJWnRRYysqL1ZIACZAACZAACcifAAWW/DNSYoUUWEpMTeY1U2DJPCAFl0eBpeDwZFw6BZaMw2FpJEACJEACJEACiiRAgaXI2GRfNAWW7CNSXoEUWMrLTCkVU2ApJSll1UmBpay8WC0JkAAJkAAJkID8CVBgyT8jJVZIgaXE1GReMwWWzANScHkUWAoOT8alU2DJOByWRgIkQAIkQAIkoEgCFFiKjE32RVNgyT4i5RVIgaW8zJRSMQWWUpJSVp0UWMrKi9WSAAmQAAmQAAnInwAFlvwzUmKFFFhKTE3mNVNgyTwgBZdHgaXg8GRcOgWWjMNhaSRAAiRAAiRAAookQIGlyNhkXzQFluwjUl6BFFjKy0wpFVNgKSUpZdVJgaWsvFgtCZAACZAACZCA/AlQYMk/IyVWSIGlxNRkXjMFlswDUnB5FFgKDk/GpVNgyTgclkYCJEACJEACJKBIAhRYioxN9kVTYMk+IuUVSIGlvMyUUjEFllKSUladFFjKyovVkgAJkAAJkAAJyJ8ABZb8M1JihRRYSkxN5jVTYMk8IAWXR4Gl4PBkXDoFlozDYWkkQAIkQAIkQAKKJECBpcjYZF80BZbsI1JegRRYystMKRVTYCklKWXVSYGlrLxYLQmQAAmQAAmQgPwJUGDJPyMlVkiBpcTUZF4zBZbMA1JweRRYCg5PxqVTYMk4HJZGAiRAAiRAAiSgSAIUWIqMTfZFU2DJPiLlFUiBpbzMlFIxBZZSklJWnRRYysqL1ZIACZAACZAACcifAAWW/DNSYoUUWEpMTeY1U2DJPCAFl0eBpeDwZFw6BZaMw2FpJEACJEACJEACiiRAgaXI2GRfNAWW7CNSXoEUWMrLTCkVU2ApJSll1UmBpay8WC0JkAAJkAAJkID8CVBgyT8jJVZIgaXE1GReMwWWzANScHkUWAoOT8alU2DJOByWRgIkQAIkQAIkoEgCFFiKjE32RVNgyT4i5RVIgaW8zJRSMQWWUpJSVp0UWMrKi9WSAAmQAAmQAAnInwAFlvwzUmKFFFhKTE3mNVNgyTwgBZdHgaXg8GRcOgWWjMNhaSRAAiRAAiRAAookQIGlyNhkXzQFluwjUl6BFFjKy0wpFVNgKSUpZdVJgaWsvFgtCZAACZAACZCA/AlQYMk/IyVWSIGlxNRkXjMFlswDUnB5FFgKDk/GpVNgyTgclkYCJEACJEACJKBIAhRYioxN9kVTYMk+IuUVSIGlvMyUUjEFllKSUladFFjKyovVkgAJkAAJkAAJyJ8ABZb8M1JihRRYSkxN5jVTYMk8IAWXR4Gl4PBkXDoFlozDYWkkQAIkQAIkQAKKJECBpcjYZF80BZbsI1JegRRYystMKRVTYCklKWXVSYGlrLxYLQmQAAmQAAmQgPwJUGDJPyMlVkiBpcTUZF4zBZbMA1JweRRYCg5PxqVTYMk4HJZGAiRAAiRAAiSgSAIUWPqLzdfXF05OTrC1tUXVqlX117ABWqLAMgB0tTdJgaX2hA3XPwosw7FXc8sUWGpOl30jARIgARIgARIwBAEKLP1RP3/+PGrWrIl169bB2tpafw0boCUKLANAV3uTFFhqT9hw/aPAMhx7NbdMgaXmdNk3EiABEiABEiABQxCgwNIf9YMHD6J58+aYP38+Ro4cqb+GDdASBZYBoKu9SQostSdsuP5RYBmOvZpbpsBSc7rsGwmQAAmQAAmQgCEIUGClPXVx3f3u3TsMHToU27Ztg6OjI6ZMmZL2DRuwBQosA8JXa9MUWGpN1vD9osAyfAZqrIACS42psk8kQAIkQAIkQAKGJGBMAkuj0aBr1644c+aMXpGLdj98+IDw8HCp3REjRmDBggV6rUHfjVFg6Zu4EbRHgWUEIRuoixRYBgKv8mYpsFQeMLtHAiRAAiRAAiSgdwLGJLAE3DZt2sDT01PvnOM22Lt3b7i6uhq0hrRunAIrrQkb4fEpsIwwdD11mQJLT6CNrBkKLCMLnN0lARIgARIgARJIcwLGJrD69u0rLaIedzMxMdGKc3R0tFb7JbWTkGi7d+9OajdF/z0FlqLjk2fxFFjyzEUNVVFgqSFF+fWBAkt+mbAiEiABEiABEiABZRMwNoE1duxYzJs3D7Vq1cLSpUtRqVIlpEuX7qshChkjph0OGTIETZs2Rb9+/ZA1a9YkgxfX2w8fPsTcuXPx6tUrafH24sWLw9TUFHnz5k3y9UregQJLyenJtHYKLJkGo4KyKLBUEKIMu0CBJcNQWBIJkAAJkAAJkICiCRibwPp4neLu7i7JKG2206dPw8bGBrNmzUKzZs2QIUMGbV72aZ+AgACsWrUKf/zxhzTyKlOmTDq9Xok7U2ApMTWZ10yBJfOAFFweBZaCw5Nx6RRYMg6HpZEACZAACZAACSiSgLEJLCGSxCisy5cvo3Tp0klm5ufnh8GDB6NOnTro378/tJ1umPDAoaGhENdI4mmEYgF3tUssCqwkTy3uoCsBCixdiXF/bQlQYGlLivvpQoACSxda3JcESIAESIAESIAEkiZgbALr6NGjmDFjBjZt2oTChQt/FZC4Xhajr8Rv0G3btiUNM4k9nj17hkaNGsHNzQ3Vq1dP8fHkfAAKLDmno9DaKLAUGpwCyqbAUkBICiyRAkuBobFkEiABEiABEiABWRMwNoGlSxjh4eHSqKmCBQtiwIABurz0i/uK4y1cuBBiMfgJEyak+HhyPgAFlpzTUWhtFFgKDU4BZVNgKSAkBZZIgaXA0FgyCZAACZAACZCArAlQYCUeT3BwMIYOHYrWrVtLf1JjO378ODZs2CCNwlLzRoGl5nQN1DcKLAOBN4JmKbCMIGQDdJECywDQ2SQJkAAJkAAJkICqCVBgJR5vUFAQ+vTpg7Zt26Jz586pch5cuHBBevrhxo0bU+V4cj0IBZZck1FwXRRYCg5P5qVTYMk8IIWWR4Gl0OBYNgmQAAmQAAmQgGwJUGAlHo1YeH38+PGwsLDA5MmTU5yhmDq4f/9+7NmzBy4uLik+npwPQIEl53QUWhsFlkKDU0DZFFgKCEmBJVJgKTA0lkwCJEACJEACJCBrAhRYicej0WiwdetW6amBFy9eRPr06VOUZUBAgLSWVokSJTBz5swUHUvuL6bAkntCCqyPAkuBoSmkZAoshQSlsDIpsBQWGMslARIgARIgARKQPQEKrK9H5O3tjTZt2qBJkyaYNWsWsmTJkuxMPTw8pCmJW7ZsgZWVVbKPo4QXUmApISWF1UiBpbDAFFQuBZaCwlJQqRRYCgqLpZIACZAACZAACSiCAAXW12OKjIzEsGHD4OrqimnTpsHW1hZmZmZIly6d1vmKpw8ePXoUgwYNQtGiRbFr1y7kz59f69crcUcKLCWmJvOaKbBkHpCCy6PAUnB4Mi6dAkvG4bA0EiABEiABEiABRRKgwEo6tps3b6JOnToQi7pXr14dzs7OqFmzplYSS4zgGjduHI4dOyaN3jp06BCqVq2q1WuTrky+e1BgyTcbxVZGgaXY6GRfOAWW7CNSZIEUWIqMjUWTAAmQAAmQAAnImAAFVtLhCBnj5eWF3r174/3799JaWJUqVUKtWrVgaWmJXLlywdTUFCYmJhCjrT58+ABfX19cvnwZly5dglgMXsgrOzs7ODo6Jt2gCvagwFJBiHLrAgWW3BJRTz0UWOrJUk49ocCSUxqshQRIgARIgARIQA0EKLC0S1E8QXDTpk3SNMDg4GDtXvTfXkJeDR06FOIaSUguY9gosIwhZT33kQJLz8CNqDkKLCMKW49dpcDSI2w2RQIkQAIkQAIkYBQEKLC0j1lIGfE0wkmTJuHEiRMQ19NJbWKklpOTk7QIfKZMmZLaXTV/T4Glmijl0xEKLPlkobZKKLDUlqg8+kOBJY8cWAUJkAAJkAAJkIB6CFBg6Z5lREQEtm3bhrVr1+LRo0fStEIxTVBsmTNnlqYUFitWDG3btoWNjQ1y5sypeyMKfwUFlsIDlGP5FFhyTEUdNVFgqSNHufWCAktuibAeEiABEiABEiABpROgwEpeguJaWkiawMBASV6FhYVJI7LEWljiT/bs2aURV7o8rTB5lcjzVRRY8sxF0VVRYCk6PlkXT4El63gUWxwFlmKjY+EkQAIkQAIkQAIyJUCBJdNgFF4WBZbCA5Rj+RRYckxFHTVRYKkjR7n1ggJLbomwHhIgARIgARIgAaUToMDSX4JiIXgx/TBjxozSkwzVvFFgqTldA/WNAstA4I2gWQosIwjZAF2kwDIAdDZJAiRAAiRAAiSgagIUWPqL9/bt2+jcuTMWLVqE+vXr669hA7REgWUA6GpvkgJL7Qkbrn8UWIZjr+aWKbDUnC77RgIkQAIkQAIkYAgCFFj6o37+/HnUrVsXHh4eaNasmf4aNkBLFFgGgK72Jimw1J6w4fpHgWU49mpumQJLzemybyRAAiRAAiRAAoYgQIGlP+peXl5o06YNPD090bRpU/01bICWKLAMAF3tTVJgqT1hw/WPAstw7NXcMgWWmtNl30iABEiABEiABAxBwJgElliD6tSpU3jz5o1eUYvrbn9/f2zatAkXL16URmA1adJErzXouzEKLH0TN4L2KLCMIGQDdZECy0DgVd4sBZbKA2b3SIAESIAESIAE9E7AmASWuP4V4ujIkSN65/yxwaxZs0oCq3HjxgarQR8NU2Dpg7KRtUGBZWSB67G7FFh6hG1ETVFgGVHY7CoJkAAJkAAJkIBeCBiTwBJAxSLq27dv1wvbLzVCgWUw9GxY6QQosJSeoHzrp8CSbzZKrowCS8npsXYSIAESIAESIAE5EjA2gWVra4uVK1ciU6ZMKFu2LHLnzg0TE5M0jUZcd4eGhsLHxwcREREcgZWmtHlw1RKgwFJttAbvGAWWwSNQZQEUWKqMlZ0iARIgARIgARIwIAFjE1j29vZwdnbGxIkTMWHCBGTIkEEv9MX6Wxs2bMDQoUO5BpZeiLMR1RGgwFJdpLLpEAWWbKJQVSEUWKqKk50hARIgARIgARKQAQFjE1jz58+Ho6Mjjh8/jmrVquk1gTNnzqBBgwaSwLKystJr2/pujGtg6Zu4EbRHgWUEIRuoixRYBgKv8mYpsFQeMLtHAiRAAiRAAiSgdwLGJrDc3NwwYsQI/PXXXyhZsqReeV++fBm1atWCu7s7WrZsqde29d0YBZa+iRtBexRYRhCygbpIgWUg8CpvlgJL5QGzeyRAAiRAAiRAAnonYGwC6/Xr17h37x4qV66MLFmy6JV3YGCgJM7Kly+PPHny6LVtfTdGgaVv4kbQHgWWEYRsoC5SYBkIvMqbpcBSecDsHgmQAAmQAAmQgN4JGJvA0jtgI22QAstIg0/LblNgpSVd4z42BZZx559WvafASiuyPC4JkAAJkAAJkICxEqDAMtbk07bfFFhpy9coj06BZZSx66XTFFjaYxZDiR88eAAxnDksLAwWFhYoUqQIChcurLenomhfrWH3pMAyLH+2TgIkQAIkQAIkoD4CFFi6ZRoZGYlr165Ji8B7e3vjw4cPMDU1xdy5c/HNN998OlhQUBCmT58O8fTBHj16SNMGTUxMdGtMwXtTYCk4PLmWToEl12SUXxcF1tczDAkJwaVLl7Bu3TrpKSRCYiXcqlSpAhsbG7Ro0QIFChQwqi+8xOhRYCn/s4E9IAESIAESIAESkBcBCizt8hBC5sqVK7Czs8Off/4JcS39cTM3N4eXlxdq1Kjx6f9pNBpcvHgR06ZNw+3bt6XXWVtbI2vWrNo1qPC9KLAUHqAcy6fAkmMq6qiJAivxHMXCjcOHD4d4CokYcfW1TdylKViwoPSFN2TIEKRLl04dJ0gye0GBlUxwfBkJkAAJkAAJkAAJJEKAAivpU0P8ZndxcYG9vT38/f0/e8GXBNbHnSIiInD16lWMHDlSElzz589PukEV7EGBpYIQ5dYFCiy5JaKeeiiwPs9SDDcWj8ydOHEiHj16pFPY4gkpffr0waRJk5A/f36dXqumnSmw1JQm+0ICJEACJEACJCAHAhRYX09BTAFcuXIlhg0bJk0HFNMEhYiqVKkSSpUqhRw5cmDbtm0YMGBAvBFYcY8qrrvF739xQ7pdu3bSSCy1TyekwJLDu1tlNVBgqSxQGXWHAuvzMI4dO4Zff/0VYj78xy179uxo0KABGjZsiOLFiyNbtmx4/vw5bt26JU0t9PHxiXegESNGYN68ear/wkvsVKbAktGbnKWQAAmQAAmQAAmoggAF1tdjFGvViiU9xD8nTJgg3YzOnDnzpxeJpUGmTp2KNm3aJCqwPu589OhR2NraYt++fShbtqwqzp/EOkGBpep4DdM5CizDcDeGVimw4qf8999/o2vXrtK8+Zw5c6J3797o2LEjKlasKEmrL00NFHd4njx5gpMnT2LJkiUQUw/NzMywePFiaSHIDBkyGMOpFK+PFFhGFzk7TAIkQAIkQAIkkMYEKLASByxmUKxevRqzZs3CmjVrpJvOCX+D6yKwxILv4nd8+/btpesBNW8UWGpO10B9o8AyEHgjaJYCKzZk8cU3efJkODs7S08fERKmdu3aOp0F4stOHMPNzQ0lSpTAwYMHpScVGttGgWVsibO/JEACJEACJEACaU2AAitxwgEBAWjbti3q1Kkj/Rb/0qaLwBLXBeIhTmK2hbhBreaNAkvN6RqobxRYBgJvBM1SYMWG/P79e2maoBhlJdbAKlasWLKmAIaHh0sSbPbs2Vi6dCl69eplBGdS/C5SYBld5OwwCZAACZAACZBAGhOgwEoc8Mff8WIJj/r166dYYInr7yNHjkgSS6ybpeaNAkvN6RqobxRYBgJvBM1SYMWGfPjwYQwePBgLFiyQ5s+n5EmC4ku0f//+sLCwkNbCEmtoGdNGgWVMabOvJEACJEACJEAC+iBAgZU45RcvXkhr2IonEFaoUCHFAkssESLWv9q4cSN27dqlj3gN1gYFlsHQq7dhCiz1ZmvonlFgxSawYsUKnD59Wlq7SoinlG5eXl7SsYTMKVmyZEoPp6jXU2ApKi4WSwIkQAIkQAIkoAACFFiJhySW8bCyspJuRNesWTPFAis4OFhaCF6j0Ui/5dW8UWCpOV0D9Y0Cy0DgjaBZCqzYkMWij69fv5am/6VPnz7F6T99+lR69O78+fPx/fffp/h4SjoABZaS0mKtJEACJEACJEACSiBAgZV4SmINLPHgpSZNmmDkyJEpFlhi7auff/5ZWhR+wIABSjg9kl0jBVay0fGFiRGgwOK5kVYEKLBiyYonl9y+fVsSWJkyZUox8levXmHo0KGYMmUKypUrl+LjKekAFFhKSou1kgAJkAAJkAAJKIEABVbiKYlF111dXbFw4ULs3r0bZcqU+Ww5EG0WcRfX3UKGjRgxQloDa+/evahcubISTo9k10iBlWx0fCEFFs8BfROgwIolfuHCBWm9qrlz56Jo0aIpjuLvv//GjBkzIBgXKlQoxcdT0gEosJSUFmslARIgARIgARJQAgEKrMRTEuLpwYMHaNWqFSIiIqSF16tWrRrvBdoIrDdv3sDW1lZ6knjv3r2l5UAyZMighNMj2TVSYCUbHV9IgcVzQN8EKLBiifv7+6N79+7SUwPbtWuXokXcxXx5IcLEQvBiGHPGjBk/i1bss3btWvj4+EiSy9TUVN/xp1l7FFhphpYHJgESIAESIAESMFICFFgZznmZAAAgAElEQVRfD15IrCVLlmD48OEwNzdHp06d0Lp1a9SoUQO5cuVCYgJLPEH87t272L9/P9avX4979+5Jo67EA55SY11cuZ+uFFhyT0iB9XEKoQJDU0jJFFixQYmnjQihJO7YiKHHOXPmTLbEOnfuHEaNGgUxLTGx9a/El4WdnR1u3rwJDw8PZMuWTSFnTdJlUmAlzYh7kAAJkAAJkAAJkIAuBCiwkqYlbkjb29tj+fLlENfQYhM3icVyHmXLloWvr6+0tlWRIkUgFn739vbGn3/+iWfPnn06eP78+bFhwwY0btw46QZVsAcFlgpClFsXKLDkloh66qHAip9lYGAgxo4dCz8/P2kElfhy03W7c+cORo8ejbZt20qLuCc27FjM1ReLQoq1snbu3ImsWbPq2pRs96fAkm00LIwESIAESIAESEChBCiwtAtOSKxp06ZJ0/+EnNFlE2tnLV26FA0aNEj2jWxd2pPDvhRYckhBZTVQYKksUBl1hwIrNoy3b99C/Hn+/Lk07S9PnjwYM2aM1kOHxfBjMfJKPHWwadOmsLGxSVReidFe4o6Po6MjfvjhB2nUFwWWjN4YLIUESIAESIAESIAEZEaAAkv7QMSN4l27dkk3pMVsB/HfX9vEzAsx3VD8Ni9ZsqT2DalgTwosFYQoty5QYMktEfXUQ4EVm6WYMy94iPnxYWFhEEJKPI1Q24UbxZpWYtFI8X4VQ5VNTEwSPVHEPmJf8Rqx2OTWrVspsNTztmJPSIAESIAESIAESCDVCRijwBLi6fr169Jv6woVKujEVPzeFrMrTp8+jZUrV+Lo0aMIDQ2NdwzxoKUePXqgb9++KFasWKo8iVynImWwMwWWDEJQWwkUWGpLVD79ocCKzWLdunXSyCvx6Fx9buJuz5YtWyiw9AmdbZEACZAACZAACZCAwggYm8A6e/astCD75cuXpbVixegosUzH124SJxapuJ4ODg6GYCiWChEPWBKzLfLly/fFhy0p7NRIUbkUWCnCxxd/iQAFFs+LtCJAgRVLds+ePdLdl3fv3klfklmyZEnWF6Q2WYn3tBjpJf60bNmSI7C0gcZ9SIAESIAESIAESMCICRiTwBIzIdq0aSM9CVAsvSG2Ro0awd3dHdmzZ//iWSB+X4s/4ing4g837QhQYGnHiXvpQIACSwdY3FUnAhRYsbjE8OL27dtLC7e7uLigQIECWk8f1Ak6IH0Ri7W2+vXrh4IFC3INLF0Bcn8SIAESIAESIAESMDICxiSwbt++LY2+srS0xJo1a6QphJMnT8a4ceMSvcF848YNafF2se5V8eLFjezsSH53KbCSz46vTIQABRZPjbQiQIEVS1Y8PVA8LrdTp06YPXt2msmrjy2KOf3Dhg3D48ePpUUmuYh7Wp3lPC4JkAAJkAAJkAAJKJ+AMQksMX1w7dq10pMEjx8/Ls2MECOwvradOnUK3bt3x8GDB1G+fPkUBe7j4yPdaBbXSj///HOKjiX3F1NgyT0hBdZHgaXA0BRSMgVWbFCvXr3CTz/9hIEDB2Ls2LFInz59mqYoviwmTJiAa9euwdPTU5q2qJZt2bJl0l2zGTNmwM7OTi3dYj9IgARIgARIgARIwGAEjElgXbx4EU5OTvDw8ND6pnJqCiyx7latWrWk9ps3b26wzPXRMAWWPigbWRsUWEYWuB67S4EVC1s8lURMHaxcuTJq1KiRZutffWxRTCM8duwYnj59im7duqnqqScUWHp8E7MpEiABEiABEiABoyBgTAJL/D7u0KGD9EfMWNDmqeCpKbDEscSILyGwrKysVH1+UWCpOl7DdI4CyzDcjaFVCixjSFn/faTA0j9ztkgCJEACJEACJKBuAsYksMT1r7W1tSSQFixYIImsxBZv/5h6agks0faOHTs+td+kSRNVn1gUWKqO1zCdo8AyDHdjaJUCKzZlsSaVGC5ctGhRFCpUiE8vScEbgAIrBfD4UhIgARIgARIgARL4AgFjElii++J3uXgSoeh3qVKlpLWoateuLS3QbmZm9tlv9atXr0pLVzg6OuKbb75J1jn08UFLq1atwv379yWBJtbIVfNGgaXmdA3UNwosA4E3gmYpsGJDfv/+vfTFKBZ/FE84Ses1sNR8elFgqTld9o0ESIAESIAESMAQBIxNYGk0Ghw4cAA2NjYQa9XqexMPWKLA0jd1tqcKAhRYqohRlp2gwIqN5cOHD2jQoAGKFCkCd3d3ZMyYUZaZKaEoCiwlpMQaSYAESIAESIAElETA2ASWyEZcB9+8eRNdu3bF7du39RoXBZZecbMxNRGgwFJTmvLqCwVWbB5+fn5o2LAhHj16hDVr1qBVq1ZaLRgpr0TlUQ0FljxyYBUkQAIkQAIkQALqIWCMAutjemKmxOnTp3HlyhX8888/CAgI+CzYt2/fQjy9UEwzzJEjR7KCF9fd4qa2mL4oRoBxBFayMPJFxk6AAsvYz4C06z8F1ucCS3wxZsuWDYKNeDqgubl5mj+RMO0SNsyRKbAMw52tkgAJkAAJkAAJqJeAMQssbVJNzUXcV69ejREjRkgCq2nTpto0r9h9uAaWYqOTb+EUWPLNRumVUWDFJvhxCqFYAFJs4nG9Yjph586dMWjQIOnf06VLp/TI9VI/BZZeMLMREiABEiABEiABIyJAgfX1sFNLYIlWzpw5Iy0tIgSWlZWVqs8yCixVx2uYzlFgGYa7MbRKgRVfYNWtW1cakiwe1/vjjz9Kw4d37dqFW7duoWbNmmjfvj1q1KghDUumzEr8HUKBZQyfHuwjCZAACZAACZCAPglQYOlPYIlrAPGbXwisli1b6jNmvbdFgaV35OpvkAJL/RkbqocUWLHkxdz6WrVqSWtfzZw5M976VyEhIXB1dcW0adMgPuSdnJzQu3dviMUduX1OgAKLZwUJkAAJkAAJkAAJpC4BCqyv8xR8Tp48KU35E0uApGQLDAzEjRs3ULZsWVhYWKTkULJ/LQWW7CNSXoEUWMrLTCkVU2DFJhUZGSmNtMqfPz8KFiz4xRFWYqH3S5cuYceOHbhw4QK+++479OrVSxpinDlzZqXEnuZ1UmClOWI2QAIkQAIkQAIkYGQEKLCMLHA9dZcCS0+gjakZCixjSlu/faXASj7vp0+fQoia3bt3I1euXBg6dCjq16+PfPnyIX369Mk/sApeSYGlghDZBRIgARIgARIgAVkRoMDSXxzixraYnZEzZ06Ymprqr2EDtESBZQDoam+SAkvtCRuufxRYKWcvFn+/efOmJLPEqKzq1atj9OjR+Omnn1J+cIUegQJLocGxbBIgARIgARIgAdkSoMDSXzTXr19H8+bN4eLigiZNmuivYQO0RIFlAOhqb5ICS+0JG65/FFgpZx8dHY1Hjx7h0KFDWL58Oe7cuYNMmTJJi7536dIFjRo1QsmSJVPekIKOQIGloLBYKgmQAAmQAAmQgCIIUGDpL6bz589DPNxJLOLerFkz/TVsgJYosAwAXe1NUmCpPWHD9Y8CK3nsxXtSDC1+8uQJpkyZIq2JJf477iYklhhyLJ5W+Ouvv2LixIkoUaKEtDi82p9gSIGVvPOKryIBEiABEiABEiCBxAhQYOnn3BC/8/ft24dOnTpJAkssCq/mjQJLzekaqG8UWAYCbwTNUmDpHrKYD79t2zbs2rULFy9eRHBwcLyD5M2bVxp51a5dO1SoUAEPHjzAnj17sHfvXhQqVEha9L1169aqfoIhBZbu5xVfQQIkQAIkQAIkQAJfI2BMAkvMcBAS6fnz53o9KcR1t/itL9a49fHxkQQWpxDqNQI2pgYCFFhqSFGefaDAis1FrGUlpvtZW1vD1tYWJiYmn/4yNDQU9+/fx5YtW6S58G/evIkXaLZs2VCmTBl0794dffv2RY4cOT4L3N/fH1u3bsWGDRukR/tOmjQJVatWRcaMGeV5cqSgKgqsFMDjS0mABEiABEiABEjgCwSMSWCJ618rKyscPnzYYOdC1qxZJYHVuHFjg9Wgj4Y5AksflI2sDQosIwtcj92lwIovsMRcdzHPffr06dJUPzEtcPv27ViwYAG8vb0hRFbcTezTp08fDB8+XJoe+HHKYGIRivdyeHg4Tp48iXHjxqFfv34YPHiw6p5aSIGlxzcxmyIBEiABEiABEjAKAsYksESgYkaDmPVgqI0Cy1Dk2a7iCVBgKT5C2XaAAiu+wGrQoAECAwMxduxYPH36VJomePfuXYhhzB83Ia2qVKkirWvVsWNHFC9ePN5oLW3DvnHjhrQulvhy7ty5s6okFgWWtmcB9yMBEiABEiABEiAB7QgYm8ASN3nFA5LEDeIaNWpIS3HEnSGhHTXd9hLX3eJaQCziHhQUxBFYuuHj3iTwLwEKLJ4JaUWAAiuWrJ+fH4TA+uuvvz7DLRZdz5w5M+rVqwcnJyf88MMPKRZO4n39+++/Y9asWZIos7CwSKuY9X5cCiy9I2eDJEACJEACJEACKidgbAJLLLcxZ84caWaEuLmsz00sGyKWBfH09OQaWPoEz7bUQYACSx05yrEXFFjxBVbDhg1x5cqVT/9TiKtKlSpJ0wTFAo4lS5aUpham1iakmY2NjbTmlpBjatkosNSSJPtBAiRAAiRAAiQgFwLGJrDEEh6TJ0/GH3/8gcqVK+s1hrNnz6J+/frSYu5ieRE1b1wDS83pGqhvFFgGAm8EzVJgfVlg5c6dG3Xq1JHuvIiF3cXoq9TaIiIiIBaMz5kzJzJlyiQJLPHEQrFQpVo2Ciy1JMl+kAAJkAAJkAAJyIWAsQks8eAjsc6suLksbiLrc7t8+TJq1aoFd3d3tGzZUp9N670tCiy9I1d/gxRY6s/YUD2kwIolL6SSGIElRkWJBSPFyCshmFJzE3PpHR0dsXnzZpQrV06ajijuLon/9/3336dmUwY9FgWWQfGzcRIgARIgARIgARUSMDaBFRwcjHfv3qFgwYJ6f2q3eOjSixcvkC9fPojF3NW8UWCpOV0D9Y0Cy0DgjaBZCqz4AktM4xPrYM2ePTtVpwp+bEU8yVC08erVK2kRSiGxqlatiqVLlyJbtmyqOeMosFQTJTtCAiRAAiRAAiQgEwLGJrBkgl31ZVBgqT5i/XeQAkv/zI2lRQqs2KTfv3+P2rVrY+DAgRgyZEiaPOXkyZMnaN68OW7dugWxvpaYz+/m5oYKFSqo6pSjwFJVnOwMCZAACZAACZCADAhQYOkvhMjISIhrA7Hkh3gKopo3Ciw1p2ugvlFgGQi8ETRLgRUbshimLKbz1a1bVxJZQjCl9ia+IG7evIlTp07B3NxcWhyySJEiqd2MwY9HgWXwCFgACZAACZAACZCAyghQYOkv0OvXr0vr07q6uvIphPrDzpbUQoACSy1Jyq8fFFjyy0QNFVFgqSFF9oEESIAESIAESEBOBCiw9JfGuXPn8Msvv8DDw4NPIdQfdrakFgIUWGpJUn79oMBKfiahoaHw9fWFGFWVMWNGaSSVmZlZ8g+ooldSYKkoTHaFBEiABEiABEhAFgQosPQXgxBXXbt2haenJ0dg6Q87W1ILAQostSQpv35QYMVmIoTU1q1bUaVKFVSsWDHJKYT379/HuHHjIJ5eKCRWQECA9M/ixYujXbt2aNOmDXLlyiW/0PVQEQWWHiCzCRIgARIgARIgAaMiYEwCKzo6Gjt37sQ///yj14zFdbe/v78krh4+fCiNwGrSpIlea9B3Y1wDS9/EjaA9CiwjCNlAXaTAigUvHtP7008/YfTo0RgwYECyFnHXaDS4fPkyJk2ahPTp00vz5gsUKGCgdA3XLAWW4dizZRIgARIgARIgAXUSMCaBJRIUa1AdOnTIYGFmzZpVEliNGzc2WA36aJgCSx+UjawNCiwjC1yP3aXASl2B9fFoQUFBmDJlCsQX38SJE1X/9JKEpywFlh7fxGyKBEiABEiABEjAKAgYm8ASU/jE7AhDbRRYhiLPdhVPgAJL8RHKtgMUWGkjsMRRfXx8MHz4cCxevBhlypSR7TmQFoVRYKUFVR6TBEiABEiABEjAmAkYm8AaOnQoli5dKi3JUadOHRQqVEiaIZEWTwr/eF6JqYuBgYHSE8Nfv37NEVjG/IZj35NPgAIr+ez4yq8ToMBKO4El1sjq1q0bVq9ejUqVKhnVqUiBZVRxs7MkQAIkQAIkQAJ6IGBsAmvy5MmYM2cO5s2bh4EDB0rLc6T1Jq67xR+x/pa1tTXXwEpr4Dy+OglQYKkzVzn0igIrbQSWWAvL2dkZv//+O9asWQNLS0s5xK23Giiw9IaaDZEACZAACZAACRgJAWMTWIsWLYKDg4M0GuqHH37Qa8rnzp3DL7/8IgmsZs2a6bVtfTfGNbD0TdwI2qPAMoKQDdRFYxFY4j0kpJL4Z2Lb+/fvUatWLYwaNQr9+/fXeXiyGHIcHBwsPZVQLN4+f/58tG/fXppCaG5ubqCEDdMsBZZhuLNVEiABEiABEiAB9RIwNoEl1r8aO3YsTp8+LT3lW5/b1atXUb9+fWzevJkCS5/g2ZY6CFBgqSNHOfbCWASWuLNgZ2eH8+fPJxpDZGQkbt68Kc2vz58/v04C66MgCwgIkObL+/n5IUuWLHBxcUHHjh11OpYczxNda6LA0pUY9ycBEiABEiABEiCBrxMwNoElfk8/ffoUpUqVQubMmfV6eoSEhODevXuSOMuZM6de29Z3YxyBpW/iRtAeBZYRhGygLhqLwBKjo44cOQJvb288efIEDx48wJ07d+Dr6wvxoZ3aW6ZMmdC7d29pzr6ZmVlqH172x6PAkn1ELJAESIAESIAESEBhBIxNYCksHsWWS4Gl2OjkWzgFlnyzUXplxiKwEsvp2LFjGDZsmCSzUmszNTXFwoULpWmI4kkpxrhRYBlj6uwzCZAACZAACZBAWhKgwEpLusZ7bAos480+zXpOgZVmaI3+wMYusMQJIIYni0UiBYvw8HBJPDVq1EinaX/icb5Zs2ZFnjx5UKZMGWTPnl2n16vtRKTAUlui7A8JkAAJkAAJkIChCVBgJS+B0NBQXLhwQZqN8ffff0Ms+SFmZ4ipgSVKlJB+99epUwfiJrQxbhRYxph6GveZAiuNARvx4Smw/g1ffLGNHj0aa9eulWTWgAEDjHb0VGq8HSiwUoMij0ECJEACJEACJEACsQQosHQ7G4KCgiCeJjhhwgRcuXIl0ReLG9FinS2x9IdYuF3clDamjQLLmNLWU18psPQE2gibocCKDV2sh9W0aVMMHz6cAiuF7wUKrBQC5MtJgARIgARIgARIIAEBCiztTglx7fzs2TPY2tri8OHDEA9q0mYTC8VbWVlhxYoVKFCggDYvUcU+FFiqiFFenaDAklceaqqGAis2zeDgYPTt2xd169alwErhSU6BlUKAfDkJkAAJkAAJkAAJUGDpfA6I62YxTbBr167466+/pNdnyJBBElK5cuWSHq6UPn16aQqhWDrE398fr169QmBgoLSvGI1Vs2ZNuLm5SaOyjGGjwDKGlPXcRwosPQM3ouYosGLD1mg00vBiMR++dOnSRr2GVUrfAhRYKSXI15MACZAACZAACZBAfAIcgZX0GSFGXrVs2RJXr16Fubk5Ro4cKd2gLly4cKIvjoiIkNbImjx5Mk6ePCnt17p1a3h6eibdoAr2oMBSQYhy6wIFltwSUU89FFjqyVJOPaHAklMarIUESIAESIAESEANBCiwvp6iEDH29vZYvHgxxo8fDxsbG2nklRhVpc0mXi9GbYk1s4TQmjt3LgYOHKjNSxW9DwWWouOTZ/EUWPLMRQ1VUWCpIUX59YECS36ZsCISIAESIAESIAFlE6DASjw/cb188+ZNdOzYEd26dZMklJg6mJztzZs3sLa2xsOHD7F//36ULFkyOYdRzGsosBQTlXIKpcBSTlZKq5QCS2mJKaNeCixl5MQqSYAESIAESIAElEOAAivxrMQ0wKVLl+Ls2bPYunUrMmbMmOxgxbX3tWvXpLWwtmzZgrZt2yb7WEp4IQWWElJSWI2pIbBev34N8cb+0iaGVYp1f7Jly6b1EEttEIq6xYJ44o/49y9t4jGluXPn1uZw3CcNCFBgxUIV74/z58+jRIkSKFKkSJLvhTt37khz6t+9eyed35kyZUKePHnw008/SfPmq1WrJv0/Y9wMLbDEopzic8fExOTTH/E5F3cIucjs4+eSWP9MLOYp/mlhYSEt7smNBBISEOeLn58fnj9/joCAgE9/xAKw4pxp1KiR9NlhTJt4nwkWiX3Ha8NC3CEXvz/EH/Ge5UYCxkBAfG58XDQ6Of0V7xWxGLV438jlO0v0SXw+in9+/IwU/x4aGop27dqhYMGCyekqXxOHAAVW4qeDOOc6dOggjb7q2bNnis8bcTzxFMOiRYtCXC+peaPAUnO6BupbaggscVF98eLFRHtQo0YN6TGjOXLkSLVeigv7OnXqQFzoJ7b16NEDGzZsSLU2k3sgcfEaFhYmXcSampome8hpcts31OsosGLJi/NVvE9Gjx6drKcQivfpixcvpDs14g5QixYtMGvWLOkHprFthhZYp0+fhvhs8fX11Qm9WCfh0qVLqSIhxPkgRJp4dLN4LPOXZObHfcQPB/H34m6htus06NQx7pwqBITgnDp1KpycnD47nqWlJTZu3CjdrTWmbc6cOdKit+JcT+lWvHhxdOnSRbpgyJ8/P98PKQUq49eL95L4zSW2LFmyGKW4FO+bL32W6BqbEFj16tWTpjs1bNjQoEJr/vz50m+ohJu4WX3ixAlUr15d1+5x/wQEKLASPyXev3+PZs2aYcmSJdJN5JRu4nNq165d0hRC8f2u5o0CS83pGqhvqSGwTp06BfHGDg4Olp7KsG7dOunfxbHFyBMxAmvnzp3SHeTU2pydnbF8+fJ4F5FidIv4khVPeROi6JtvvkHlypVTq8lkHUdcYIov3dWrV0tMxOiZmTNnSiMx1L5RYMUmnFKBFfdcEU9AGTdunPQFOmTIEKMRoh8ZGFpgiSzF51xQUJD0uXfu3DlpOLl4f3/cxGdep06dULVqVem9LkaBCNEkpLu4oErJJj5XxY/1UaNG4enTp5LUEFKzWLFi8Q77f/buBfr+qcwf+C73RO651DRuCRUJIyWiXEsXRsggQpFLI5cp1DS0avwpstySMEX8RVJKuaSSGUMTqdxKLvVfI4mGpFbWf70+zfY7jnP5nO85n3PO53yevZblx+9zPp+938/ez36e9/PsZysQesghh6S77747rbXWWum0004r/h1tOhEg1zvuuCPddttt6d577y3mlJtLtaYSWObu7bffXpARMi/YEQjk3GSGKIC72WabdSRx2R+uL3dUQxDt/vvvLxzwddddNx1wwAHFsQ3rMtrsIPC73/0uffKTnywcQvNjzz33LIotIzma1KybO++8syB/77vvvvTFL36x2LdyW2yxxdJBBx2UXvWqVz3rKJRg6x/+8Id0zz33pKuvvjqx8TnbgjBbbbVVgeckblP++c9/XqxluoDjr1/0ZhBYo5vZQWB1x1IQ+e1vf3vh447KlrrqqqsSm/bSSy8dnRCn8E1BYE2hUOrepVEQWK0Y2Pg++MEPFselOHS33npr8dcHH3xwOvbYY0eSMcKBFEl1fSmDVuMUfulLXyoyU6bpmIDNdvvtty8M59woqre97W11nzp9+x8E1jyIRklgeatMHuvp05/+dHEssUlt0gRWO9acZCnlDGpNlhMHytXKcy3w2Uuevvee97zn6Yid78lU8b181IPzwUE/55xznn7Vxz72sXT00Uc3aarUeqzXXXdd2m233QqSsqkEVrsA6T1BII6E9opXvCJ99atfTbKr+jVr4pJLLinWSs7cdkz7Qx/6UHGEYxqzE9lT2jTZNP1wnvTfcwiRLBm7JZdcsriqXvCgqY2dj+xxzO6hhx4qYNh8880LXBBZvRoc77rrrnTUUUelyy+/vCDEVltttcLplpk1TB2gYeShmLYxGE+dCKzW8gLTuK6DwOo+K5HjfEw3B44iGxqpI1BFZ5177rnDLIep/20QWFMvovp1cNQEFgRE+i1IUU4khvPpyCbHDFdfffWhQRIROv3009Paa69dHLnQHAm47LLLimNa09RkZ7zlLW8pahnlhr2XKTbrLQiseRIeNYHl+NrOO+9crAPrrElt2ggsG7OMuE996lOFGJDp1jj5VNEQWLIKGD65yerUh0xgqX3iqJSoe26OlGR9WUW/4p2jRQBxxeG0bwaB9VdsZWRZVzkzzX6POC5bG4y9o2aO26PoTqSVLG3rZI011hitAId8G73CqaHrR3EUbMju1ObnSBlZErkJIiA5t9lmm9qMoYqO/uQnP0k77rhjkdGosUvtITISyzQE8Mknn5w++tGPFiSW8gX+e1K2LJtqiy22SLfcckutCCzZpDKjZY1WZSOUkWe3Z4LA6o4eu8oNhPTLvvvuOwzMxW/VvFSOYp111ikC0rPchiawONPSahEKnRomXWTXsYdRMsOycRgIjlx0axb0K1/5yqmMgs3ypKqCwHJc7lvf+lb6yEc+UkRLpSFriC3p/sM2EVNzRfF4mV2a1GYE1rSdgcfYS9O+8MILi3o11pY6RqMg8obFserfB4E1D+FRE1if//znC+fms5/9bCPmUutcnTYCy9EKRypE5TQOAQKLoVNFo7Pp1wMPPDA5UiEKTre26xRHrfbff/8i2+TVr351cYyZoRStHghwJBjK7KcgsP4qM/Od03fTTTcV/62+JgJrpZVWGkiossPPOOOMwkZhlwqG0aWjiKoP1JEeD3N0lUpwBNIR4WjlEHD8VmadY9YISjVrkJUrrrhiuRfM6FM/+9nPCgIrZx8OSmCBhT271157FZlbmjIdfLtNNtlk7Kg5vi/Tji6oUwYWItAJDPYBf3vaWhBY3SWChJHV/oUvfKE48ie7c5jmWLt5gEimp2a5DU1gffnLX80xV0EAACAASURBVE5HHHFEUbfDy0RyMemUfL7lhcFEOKM6L26xOu4l9bT1JplceFZ0BHFGCWLT29O49fGEE04oyAmMJ+NlVH2b5clSdmxVElgcTXVaEDaaehOc7mEKT2OsOWUyDr7+9a8XNYC0aSWw9I2D+81vfrOI/FJSstGa0ILAmiflURBY5hESVAbiPvvsU2QbMsxlHzapNZ3AyrK2h9tf6dNuASdzhrPe65kmzZ06jTUIrGdLa1QEljfTpfvtt1/hkLCDZETI1Ol3pGpcc8gNVex1WZVBYA2GOp3HPuRfsLnURG16GwWB5TihNcKWz/6czDY2/rjt2roSWAhpgX3kVRBY9VuVMhjxJK997WuLYu5zqWlq7cisVXpCQhF+pGwWcf0Q+2uPhyaw8sCBx/CVhu0ownLLLVfUVKGcOEOOf7385S8fCU5qIMmYYXjk1FX1CpBkjr4go7rVHmBgqOshcuzPjHRHIJzFjjYaBKoksM4666zidgUZSCI35pnIjajpXOtNeKfz+MgRWQd1ILBGI6n6vaUpBBaSQDS/142YounqtSmYKto/yPy3RnMRY8VYf/GLXxTGoyNrHLBRZsvWYZYFgVUHKUUfh0UgCKxqCSw6lD51hEN9IIFU9oRaccME2YaVe/49+QvYssWDwBoVqs19zygILOi5ZEIGEZ9Ok4UiQDvu0w91JbD43YgLtYKDwKrfemTvuwHcUVpEpOPdL3vZy0rb9JKGJOTI/nUZgaQO7xnEJ6gfaiMksPLgZbPYIIEPUIxgjvaI8Od6GsOAJQUaSeUIFSNBU0wRSdav+J+sBYqy9dYZ0RSkyKwLexjMB/lt1QSWxa7onWMQmjotFv5cWGsZTBx2pOvWW29dFJEMAmsQaY/32SYRWObiD37wgyK7leNBlzovX0Wj+6TOOw6+zDLLVPGJqX5nEFhTLZ7o3IgQCAKrWgIrv50DoV6cSPjiiy9eBFcdr5p0++EPf5je+MY3pl133TUIrEkLYwa+PyoCC+lrTl5//fUFKvw4FyMoAzPOVkcCS5II/QIrmAWBNc4ZM7pvyaLDkcjylLHrGCCb3E3Q/lvGZz7ZJvMo31itDh27XV1L2aHqx0nQaUIbWQZWBkuKMiZ4yy23LJwvGQIIBwSTG91WWGGFoXCV5eX9CAtHya655prifb6X03t7fcCALXALXr802VdR0HIosTzjx1UTWNKKERnkRnmrVeF690FrVui0bD7vcqRUPYMgsEY3D6p4U1MIrIydtWSO01vIVsf7TjzxxOLPo2w2TtgutdRSjSTyg8Aa5WyKd00rAkFgjYfAckMwwkoxaM3xEEeiJn3sjI4XpVc6IzKwpnWV1qdfoyKw3AC6++67F0kImkQHpyzYOuNsdSSw3JjIfpOx5vhZEFjjnDGj+xZb3/xzyYrbgjWEFVLKevDnTGBlvwCHkXkMpyYcvVX7alqOrI8Onc5vqozAwhwqLm0Tt8AIAMHk/w/TXFnsPW6q2H777QcmsHz7N7/5TUFY/OhHPyoKbIqUOYoWbTQIjIPAkjIrY8rcYhSKeM6lwDGDDiFmA6AogsAazRyo6i1NI7DacbS27rzzznT00UcXhYb9t4Lbg15WYSO0ySF9Hb+VMbvgggtWJbapf28QWFMvoujgCBAIAms8BJZ6SYKs+RIG9iUbhf07iUx/+4QyCbJc2E4HHHBAEFgjWE9Nf8WoCCzHnhy7zQkJbHFlYsZ9w20dCSy1jhTSR2AEgVXvFUlPy8RSj1lpm26X47WPki0vKOEm3KWXXrreIAzQ+0oJLEex3vSmNz3NqrvFQ2rbXOurYBqRTd6p4J+sq0EzsAbAJh6dIwLjILBk+r3zne8sog6aW0w+/elPD8Q8I78cH0QGqJ2mjZrAkj0DD3N+EoZrGRHqn38yw1/mN5N6pukEVsbd3DXnkfki6U2sWzXKORgE1rPRzFG+vF9Pq/4adh7kenAud+E4OYpe1kbJulMfyv5m2P4O8/tRElj2Nq0O+0YvzEZZxL31O7L86Wi1VjVHfJS/MMfKttY1OMz6Q6j5PqdIGzWBVScboiz28Vx/BEZFYKnByZ7PN4G6kMsNnkitMm1UdvYkCKy5rh2/czumC82UUxHIDwKrzGyZ/mfMZ/VvnTJzNNBxwZxplXvP3kBcrbnmmoUP4FboprXKCSxFgQ877LACfFF+V3W7JnUuzbEZ6ZGyp7zDWf4gsOaCZLW/GQeB5RuMsUMPPbSoC6Ruj5vUXvGKV5Qmii666KJi/oiS5gKroyKwvvvd7xbHZykhBfYoGjdM/P3f/31abbXV5lwLjjEsgxBL7x8OiX+7cnjjjTceSLDqDjjWICLrHYyG1VdfPW233XZp8803L1VTzLpWV04/RNH8479FhFZeeeWiP5QxPFzqIMsHAb3WWmsN1Nf8cBBY82BzPEWGq6hLEFhzmk5P/ygIrL9CQa9yJugua1aggF6wd6sd6Va1fnUmM6jWvd/TCY6I5H/cdKmkQG50GseFEU53KODrGQbZXOoa5nE88MAD6Tvf+U4xHqSBvUH/1STK7Y477iiMPzUxOfnGKvLPKejV7DkyIL/97W8X42NMymYUVJMZ/oIXvGC4CTmHX+forbqg99xzT2Fz0bOyzHOG+bAElhIObDhRfzX5yE5ZCHsPB9TNvd2a/sG4dS74s/0QbvYGzzh+5yrwBx98sMgs9XfkUlWrisAyn9WD5WRqMGKj9DtGCAPYKrlBlnkNrrHGGkXgdtNNNy29Bn3XHDenySyTaaMisH71q18V/TRWc4ucVl111WJfcgN4r/VLP6iZa/34rbnAtnFyo1U/uGxEiQh2CoJBhgEsXV4yjqxhThK91DpvBZAcC2UvtTfyY/MZS9Z9xkdHsIsc0886yt9fe+216e67706LLrpochmVsXUrh5HXh3lkjTvZ8tKXvrSYE0pgjLuNisDipDv+RL6aMQlOZxuy07hgTG+z42WlC0CYG/SdY1jeMWgbJ4FFfo57sYvNJ2uFLrTG7VO9iG5z0nFLvrUaSOZFEFiDSnv6nzfH6Qg2DF+STUNvul3QfkD/4ELGoQenEa3KCSzH9Bh0jBILkrLx33Mp5i4FmzDdtMCItkEGgTV902ocBJZRu4UQKWQT1UQ33TBZdm4x4pCgrfNxGALLuDliakzYkPQtG1n/9V//VRiQjFmGPuLNzXGDNL/hbNmo2xuiuEzBS04NvGDFSdAHGFCEDGWGqPPXDFHF8Rmi3ZwxRqXN1ppsbQwxmUGMKuNWq4ysKF34MFplvb33ve8d2EENAmse0qIyIpQcvCCwBllJz3626QRWJj/oF5evIHte97rXFTcII7qtZ+sdkXXMMcf0JRU4bBwxRnp7s4aPPPLIIj0eGeKb9NIqq6xSONj0E7tBHzjeCPV+Tn/+ht//+Mc/LoISLmbhxHgvJ9gRKrqH3qGDjeecc84pHGbrCDmDuOIEffnLXy6Kp7Y2GNHrn//854v3c0RdAOOmLO+94YYbCkKLbWIP4ESNg8jSbzpbQIdjywniCAvqcLoZvXS8ccORzqbnEQ2Kv3L4+jXBQ/Pik5/8ZFF/j7NpfsCE88nZtH/Yfx3H71SSgRyvuOKKZ31KVj08yejUU09Nl156aeGMG5d3O+Isc7+XM9uv/73+vioCy16P5LAHakgJTqc11KnlNag8BgzWW2+9p9egdWQNwsMNgtYg+7cXscfecJOtwtjmZ2tDpnSyk8wPWCPeujUOFJ2gHuPnPve5woEiW2SjuWYussvNQ0fAOhGQisnvtttuT9tu+Vu+7+jlEUccUZCdxiwTBzbWI4dF4Mbt42wXtWsFxMqS6oPOE3NeP+21rU0//Z2xtTZ6jH4jH31ubWxBpDd9RBeZ63QG/JZddtnCNkTSIcddKkRHsply3Rt60dwwn2BBT5EDAoTe8xs227B1hgfBaBQElr4bF79OM6fZunRoJ8fcHGBHwtk+w860JlzshdD6xje+Ueg9cvMeeJfNXixLYNk3YG0N8Wutp5xJpX/2TeVufLu1WTvISuMVPKYLrB32N9Ja0AhpLfBgHZjbrZm9dK/1YH8i9/asHP3plAlM99Ap+aTJIDIexbPkZL2az7ku4CjeG+94NgJ8LTpYEHCcumASsqicwLJg1SayePxZvRaLT5R1kGYzQzTYGCgsLQisQRAc37PjIrCM6MADD3y6lgODmtNSxmlgkDDonTX+m7/5m6fBmSuBZcycMSmfjC/Oiw01b5z+nmLxTRubSLXoiz6X3Vw5HYrOM2YZQgzvbCSVJbBsvAcffHBhMDFuraVcIBAI+TgN0oljyUBjqHaKCIqQI8H04ytf+UrRN7/PBJZvGC9izSZNNgp1ckxgIztigw02GGhiBoE1Dy6GHyOIbGTM1eEI00DCHuPDTSew8u3BSA9HsZEzeT5Z0wyFs88+u9Ad9nFExcc+9rGuDrQ1/tWvfrVwyugIjkXO/sgEFh3DGaNnOHEcAd/yW44vUoNuknGtoG+ZxrjntHB8OAnImuzk0/mcAscsvNeaOe2004pv08FuNUZkIUpklXA4W5sgHL3O+fZv70fUZP0NF+QZHedaeLcB0bFlAyplxtf+DMdAIAZZwQlybI2jwKHXL30SxYWhMXH43VQ1CIHFqdt///2LPcd+hfSic/L88A3EHvJPNglcBRvb9wwkl2wgTjtiIpMCCCzE2Ic//OEi0yXXjUKScXZ8x55qr66iVUVgWVNuS843q7FLkBbqUHVqnG4XFLFHzC1Z4a1rkLOKXGJj+DMH+rjjjusKCaw5yxoZkb/9QrMfw729+R4iqteFOC5nImvZVzJArCnrLa8DuoKMPQMDGcL+ad2fzBdkq8wCcyFjlAksdh1bn2zYNtZo/r35TA/BAkYnnXRSQd5Usf8hFfQTluw2/dG6EVhwNmdhJGOCTjGntUxg0W/WrJIqMvLz7WJk6rfmjHXNNrLmjB2hTwf6JxP68PabrI+QhzLX6ABEwTjaKAgs2VNvfetbC1JSU9uWPdmNnLWvwI4es16yrsv2q7nlpI7n6Gfznt9ZppUlsMjDHG29zd77nbRAWgv8Gkc+2ZHXIP24xx57FAQbPWce5P7b+8hTv+1D/v+xxx5b6N48t5H85M2X0KwF+ylCzxoUyOxUZxqW5lMZ36gMToM+EwRWb8ToCGufjIYtwE730AM4l2m4+XbQuTLI85UTWDrDcJE6i4SidG1WZaJ+rQOxiVjwlHMuUhYE1iCiHt+z4ySwGO42BArdvLBZiTb3a4wem4GoT6uDMVcCi4JmsInsK6bXzZiSrWTTRd4gePSXwT9oYxhyonIGYj8Cy0bHceMEOEKDPBPZ7kaeMbJsjIwEmRSIr/aMhNY+iwzZuG3QCCzr1G8oUHVAfAcRxvCUQWazpWBlMAzSgsAaBK14tiwCTSaw7MvIAxk0ObOoE24ypmRuWoP0m99wpvtlRzHKZeXIXNIQXwxpjosoOz3Y3jje9BtSXJSanlxnnXW6ipPjyNnjEHBg6DmkR7se5qAIqLEnHFH84he/WKTia8bPVrGPOMLRui9w1DhNiB9HKRFl3YqlCmT4Bp3LcUc09MOo7DxtfY6DrM6ovYTTgvTodKTJb5CHMCQ/xAMcymRgOQaF6OC8i97T6QiO9mbPZ4Db2/QLVojJbuO2/+aMYfslWSA9kKfmBrLQ/pSzexEUef7MBatev6mKwDLvkXCy8jRHhD7xiU90JGOtQWuBXMqsQcQVB9f8YsP0O2KpL37jG9pcjhCSsaxFskA8IQmMp/VIbivOyGGEizlgLrDTOjW2AzIAMepZxJW1Z54isl2y095kKglomx+IIU5/1aQNgoU8kVrdCKzWfsJLJgS7kH2on2SQa1bqf3vLhEQuXo5wpgfJjR2FFGlvnDjzwLxhZ/mG/x5HG5bAQrzYQxBBAhh0Kx3Vzda0Z9BHiBq4dAoO5GOWsgjpFPr9vPPOKzJl+7WyBJb3CFaQoSAN2VqH7NlOJFEOcAtq8FXMd8SvQG6nOeD2RacUrC17lHnXqdmTkaBI4DhC2E+60/v35qn5KqO1jP/aayT2SaQn/6qTvpheFAbv2VgILEYQAyunUlu4oq+DRCYdJaCIGEj5bPBcCCwbOQfaRuHf2Znudgthjj7nZ/PvbKqY0tboKwNY+i9Q9ZHy8cwwkSHvkumCsKD48nsZz6Lkrdkz3cTfaQwMWllwrRECffcdz1PC+l82O6h94xahF4UVSckZc4NPz3m/EG3jGDgm0WrQ2HAQJ1JvNRsD56V1XO3fzVeVim445tfa5kpg6Z8NDDHDMNePbhsZBYPIyUfAOEP9DNBORovvcQS0fgSW7CeRX6QdIkmWQL9ishxB0UBGK4cMNjI0ujVGsQgzAouRwSiHca75wPigpBmAjgch0Qat2xAEVu9VZO3CnVOAhKQ/ZPtZM61rmWz9Pb1XhXM9zFqfxG+bTGAhiRjeooCMJ0RIt+Na9nL6nOMiM4DjWOZYAmLCnqDRJWruyU7K5FEnmdNRnFrz1rNIkW57qX2LsUZX6Rd914loQXTRf/SzP8vWQtL32qPpTCSLvtgzEWW9gg7sAPpPtot1h8BwTHGUzdEh+HCQHRd0bKbb0bT8XeMwVk4xvdCPwPI8W83eYn+yRvoVVeZo0/nsHjIj6042hH4jCTVOK13Exsu2Ah3GgeN4In7MSft8Fa0qAktfBXDMRc1+i1hA4LY3tjFnmF42jwWbuhEyHGYZJTKxZUohXR2h6tVGQWDBif1tjSFK8xHdbt+VEWSOCmo5Dun4ZLeTFzkDDykna9I+hpDpZh+w4ZBjnHvvND8cGauysf3VGnV0qwyBpS9IODaUjB0yQsLDgi7sZlsLSiJn6DTELp1MHyNtOjVY0THmGj/F3ID1MH5HWRzbCSzZYdZsJ2ImZxhZ6zKQONh0in2HnJHxMvq6+YXmMN3tOUEPxBccu9nOCFSOvIZsNUf61VQsS2Dpi+A5mViv9rdep4qQn4gmmbnILkkcvfrCRs7F2WXTOK7aicgNAqvsTJ3u5xwNp/+dWLGHztXvRugLFCDErK/2I87TjcLgvRsLgWWxc+opFH9GGkit7ZWm3DoUhhTmmuHlXH1ugxBY2RijOPzZws//JuRO0T1/bzKIBvpz6+8YaSJRlC2jg1HCKPPfiCBKmuNOoVPKc7na0sbP4KT8KHjGPuKJEkR+cBwYeb0KlzN0LQjkQeuYyYHSZSyYBMgEkSEkmc2HseV3HJtBiEayGWcGlu8ZB+PX+GBu8fYq4CjFksGE7W4nZOZKYMkwEJ2GJcNBxFpadKdGFowN/9ZPimbQouatUTff6EVgUWoyIOHiXLQjvGXWHgePEcmJMfcRbZzIbs0aR6gx7jhH5q7IUSvJywFmJDibjeAbVFEHgdVdydNTnEZHtkR86SH6QjSXsd9aT4IuJlsGMsKXvAaVxeDbzfT+oskEFgc4R3jpLo6BKH6n+iPmEx2AzNHMI0ZXv9aqVzkfAlici14kugyvfGzMHmoedzP66VD9sn+pGyJ40q3+g+wr+zrnkjPJFmm1K9rHYm9Ezns3x9K+0esohv3P95FkmZhhu4yywY+MyEvGiv2vTB0gRIksYTV4+hFY7Bl7GDKcrSHTq98RFJkU7Cl7MQcsH/NqHzs7zHFEzZE5ThrnVPAjN9ghQcxDZE6/gMtc8a2SwOKUcHRzMyc40u1NBgWiQyNTz8lE6SRTth9C1bzU7Msc9F5tFASWOcwWYBfY6+3FvYIfnvMbtrJ1K6ukWz/9nYxJvxE4tTf1sjXoIfapPsAIEe3PVbZMDrEfyxJY9mE+gGNfiBZZhWzDHNTr1F+ZjMgOa9ScR+rKaO91QYJMJkQwnYbI5jv0en5UOLUTWEgWeqWTz0C27FZ2iQCG9e24szkBI0R8L18DgWhdmO+a8bG5Ox2Z8/dIQ1lX5grfid7vZ/eWJbDUqWLzW4f2v06EXSvGgs2OcWt8tk4kduvzsLLnWRcwRWh3ImiDwBrVTJ7se5Di7Bb7LFtm0BJLeo/0tD7UmaSfgsCag0xFH0VpKBVMeW6cZ040Z5pS5kTbsMtECURZpGvaCFuNmEEILAudQawfNhXETr4GGomjP+3Nb4yFEeV5mVC55hCyh+Ji/CNDsPAyXKS+MhZEqWzyNhbRV4Z+2SgsjBjuuUYS49Rvs3LXh3yk0sTnnIpEdErlFqUzbkYaB1fkQ2MUUv4MLP3XT+8RIaIoRYFsEDbbXkfNOk2RcRNYxiUylm/7YQh3i1bpr81DcUUGdvuGOVcCy2bDMGXkIAIoj24Elo0YiSsNXqRaJLP11p0yy64sgWUu2vwUBPVdmQGypMo28xhO5hFDiuPa7RbRTGB5N4OBETXqIoJBYD1bcnRuLixNV7U3Tgf5t0YqzQu315gLHFPkAP08KFlddh5N+3NNJrAQFfZr+oHuYmznI0rtcjNvzCd7seZZjna/1qpXZRPQef1IewQ4p1bjLCDpWwmO/E37DRLHnmlPl+VpD+hGtnAQ7XECQcg0hFS3WhEcLTaA/db6oX9yJlmvMXOe2AMcPHYKG0Zh32GbsXKG6WQOLixletmjyzTBMFlR7KleBBYckXZw1PxZoKgfiWQPRvLZ25BOiKrWGpO5j0iAnP1MpuZQp5pMZcY07DNVElgCgLLjNNiZz3nttPabveVZa5BNzBYz/zsRWJ5BDOX6V3R7P/JmWAIrZ08jQJEvAiX2i34NeScLSzaR9cAO7mSnZgIrZwyzHfplFDq+yDa2JugHfaoyCDNXAoufYz1kfUlWvdYRrK3RXOzanCHvXgQ1XeY39A3bVmbsoJcE9ZNlp79vJ7B8W2CiF7HpdARdSL50Qxkf0LfhT96ZCOKfCBR0yzLh0MtG828JBLLS+mUL9yOwkGF8IrrQnMu1qnphR+ciF9VREzDX5zKlM/h/uV4eoowd3x5UCgJrLrN2+n7D/5ZpmevadvMdO/XcfsDfFNTKNfoQqkFgzUHO3Qgsr2qNRvmzBdqPuc4LlFJsX/SDEFjtQ6FQpGVq3Qis1t/IQBExzBsRAosCthkxgDud2WaUMH4RZhwENzB2qxeQv4WM0TdGKiOGouy2KcNGlEptC3jqR69MLwSczRTplQksURD9YmBTro5HIOZy4UnklujWII7tuAksC1gUR5RKgx+ipdMxQlH0XDS2k8zmSmCJfGW52dgYV51SfrOckUH52KOMmUFTPcsSWNYjh8LmrTHybIZlG6MBuYbIMg8RvcbZaU62EliOe5hT/VK2y/YjPxcE1jMR45hwqOmjTK7nJ+hWRq+/byewWt+CwOKgmrP0Q5VOwKDyHtfzTSawZHRwkkS2ZYQy0LtlsCI2OBDqOmn0bo6I95JVq15Ftggk9Wutxw5lTJnjnXQ6XZjXgHdyKhCz3Y6Rq9FkX0YyIU/oRP/dqal5pQZgPlZP/7E7+jVZS/ZkOr5fplO/d7X+PX2M2BDF1zhoCJKyR9A5UbI7+hFYnD5GtOOled+wr/XTDRxAUWCkGluHbdEpQ6KVwOLMcrjL1KgZBKuyz1ZFYJkzAptKH2j2QvuX8gHtTVaKQCOCx1EzeHQLFJnvyNy8BgXrMtHYbczDEFjGwca0RvyZ3UtHrLnmmn0httasFzawbEf2Zafjya0EluO5fINuZT3yR+khesvY6AeXTJQlQ/p2vMMDwxJYbGiBpn7HcNUXQ0bxNawhc6Jb4f/cTUQS4t56lclET8G76tZOYPGRZBP283Pm2i/6C3GKsOtXx00wj60KRxktdFG/+kK9CCzrzvFIBDQyiT/aTx/aL/kiTutojrWTTa+M34wNPy3rRP4CMri9wHcQWHOdSdP1u5yBxW6QRII76JWlmXsvMIAbydm4+f8HgTVH+fYisDDPChFa1IwWTnW/s/uiEQgUqejt2RzDEFiMYYaWVobA8pyU5Zz6ie1k3NpAuylF5JC0QMYaQxlRwRjupvSQZCKr6kZRjgipfmnAjmQxlBEMxiMq16v+E+XrGTLgIHBejcG5bP1izEnntVFYBI5X+O9+irp1uoybwPI9m4Txm3/mFmUva621355j5Nj8GD+djJ25EljGT36cQZtlP8KvlcCy4bcetSuz9MoSWKI/5mDOzMHK29QHaa3XnzMaRMs7EVOtBFbO4uh0DGmQb7c/GwTWPETyrVSy/xjX5hDZijIiZxGo+VhwLwLLG60fGZkM7E4ZE8PIrA6/bTKBRT7mEmPIuvZPN33fTmCVLa7dqlfNU2nu/VorgcXp845uN/TQC/ZnEUzOH1KqWwABceV99gH7q322W0Sco5JvQBTgka3WL3PMuOCEAJJpNkjUvR8mAjAc1UyKlMU/v7csgWX/9G4OnWwKwQh2Ur/G5kHEkB37AbHSyWFvJbAQfOyQqotwd+t7VQQWZ0RAIN9U1o+MsKdbg2zFXoGfdgJLEFNt0F5tGAJLgBBZlo8+OnZu/pVxsAT2ZMfL4EasWA+dMoNaCSx7mL2o33HVVgLLHLN39bO7+s3fXn8/LIFFdyFA+tlfrQQWEo/Nygbr1VoJLHv///2//3fgG57ngs24CSx9RNogfM2/XplsbF6BVNkt9gJOfr+i1t0ILHrNHGX78pfUsivjE9EBCIZ8+6esU2ugV3A7y0GGLf/YvFMmxt7TfrQsCKy5zNrp+w0CC59hXpvT9t5eNdvsAfxG/rz5nZs9l67Pp4D6zffpQ2KwHo2lBlbuEjJKpok0cxuNKKnNt9emwwHz9yK97Sm0wxBYNjuZKAAoS2DZMDnmGpaUoSzy28vYoLwYccgT9YFk/3RKBdYPpBjDj9PPoSybRojc816EDGNcpKwbppwAxghD302QFKpF0ErmWBCIK5FThVb7HRton3LjJrB838aDSMwXBXBmOO2tqcwKwyJQGTu53kR734chsFrfBQOEFoJRjTROE+fBn5FsGHZ91jgLg5KEZQksjgfSyUaqSc3PxXPLqgrHgW3jsAAAIABJREFUbbxHU0MLEdvJuGwlsGTzIJ4HnTv9+hQE1jyEHG9CTjJiOOxI0fZ1bxPk9PYjsLyDDqET6MUyxlk/WdXp72edwOIY27+s5V6F07PM7A+ycM0dNwLKCJZF4T2ydxw/1coSKK16VQSdg9WvtRJY+s1e6EZgIcQcVdLnfJV8twyWfJW5bGcRbn3pRtq26jTOg72yjPNhbMgvQS4BJQ65TNhhm1IGCAH/1jhTdG3ZVobAsnfBWkDInxEvykGUOZJkXxIkEYSz95pzuZByax9bCSzBM6UY+mXclB3joM9VRWAhbTjQ+SgYgs7eWYYANYa8BtkJnFlrMF/oI9NGdpPGpmH39WrDEFjsJnNX3zUZWDkDsB/W7A5He5EJ5OsdnY5xtRJYgriyOjsdF279Xt0ILKcjnBLo51S2ElhqNvEFZFr2ak0isFpxoJ+QS+xqul+2lbXiz+wjtarY23Q2EqnbbX75nZ0ILBmD/Ak2lsAEMsmeIUu5n52kZAsbLe+X/MacOdlv7fAd+ISC4jK27CXtJ2yCwOqHYj3+nmzNk1zv0TzEjSBK27Or7QFsC2Sq4IKmRjYuwl5rbsqWtg/3I77rgU73Xo6VwLKJIg+kcvozh8ufuxkuNk7Pq7nR6UahcRNYNllOuabPmPQNNtig5xyggDjdFB/ySwZXJ8ILwaEOh40e647g6HS9eKePiSQjZBCDFCRjsFvmlnRk/aD0ObvG0G9DHXSST4LA0kdGVa6DwshyM0trVNfGZi45Ftkt2jsKAsvGIyIq4iMCCWdkoCg/JwBLjmR084RWJYHFyLP5WkuaDT0Xzy0rVxcocMA0mzmCs1P0tdXZQ9b2K9Jc9vutzwWBNQ8NBplsSpsZA7eTMVWWwPJWx0LMRUeUyuqeuchwGn8z6wSW4JF1LCCEMOjWkO7mAP3FSaY3OJwcceQmR0AmdSZNpoXA0k/7J3IKuc5RRra3N/swRwQ5wwZR+82+0c0RYX/ko+mMRNmO3Ui0bpgigNg6oyBoOGjGmWtZ2s/o97KtDIEl4k+++b0yyBjEMqUGaQxv4+5EJLYSWLLSlXPodcPtIN8d9NmqCCz7u4L5jmNqsGCb9bv1lVPqCKE1mC/scRxMoNXxW/MPqZHXYNUElqwAx/pypJ8+aK1vWxZv8vWeTutnFASWTKVRB8xaxzZsBpbxk1s/e7uVwGKn+k2/oGMTCSy2NV3uSB59KAjvNAp82f/mraCcgMtcCSy6H/5IMPuFTFF7BZKVTdzv4gxBEusFIeF39qR+Fy50Wk9OHyE42r8XBFZZ7TPdz6kVSb/T6bk+JwJLUI5fpZl/iC62S07UMOfphlzSyBzDA7D72WbI1lluYyWwAOmoG0fegga+VORuNSUoJoYNJdWJ9JkkgYVkUt+i320BHG4kFsOZMnW7Sqe6X61El5oGiId+Eag8MSlXkYV8OwoHQ52LTkZ5K4HFILdwpHaPsk2KwDJ+WWuiMbATlWRA5oax5tz0yvobhsBCXMnsU59CH5Cb6olxOGygrfJoPUJYJYGl+Kc5aKPTzFkR/EEaRWhOaQwq6a6dCNJWAgupYr6POqU/CKx5koM3g6bbjXGeHITAEtF3A53f9LrFc5C5U5dnZ53Aclzf3mNdrr766s8SS05J9ww9inRA3jCgEBc5Q3cURwiryMCy57Al6HaOjUATY7DdoXVBCucDkU8POtLTqRZiBqg1+9Sa8LtREFFzXRf2a9kwsgs0a19h47KtLIElEITc02SnIctz0fWy3+r1XCuB5b0ytmaJwDIfYcZZRQprsmBl8HXbE0XTZRKy/bJdZv35R+Aor8H2I4TjILA4STLANFF9gc9RtiCw5qEZBFbvmUWH8wkRvGxuepzeR161lk9pP0I4aAaW9cY3Yquz6QWB6F6klO/4f9Zer7prMmUlFchcZv87taOe3KhaEFijQnKy75Fti3AV7GKzsLMQrwIF+ABcB9+dD5v3Ez6Y8gZs9rI1MCc7ytF/fewEliFQOLkuQLdrhbGNnH+Cs+g7KYlJElgiSc6g9oumMaLVhDAhGTMyU9oJLMaO6DZyT6MYZa8MUj+IUyBl0Hf8lqPfqZBiK4HlOKcIw6izLSZFYLXXB7GpOYZis/F3iBiETqdsvry05kpgUT6yqvKV2cgbcuymWMZFYJG3lGVpyJrMvn7p6O1qxrjyGX6FWzkfnY7RBIE1egXd7Y3WOeNJ9kKvovyDEFgcf4QvkqNXls74Rjm+L806gSVabL8yH9prSTIC6EnZPDKZGNzWe6ejTtNKYJkpbAZ7H8dGAINTTOdnEsuxEnpZYMz8tl92O2aYZ56C27n2j4CPDKh+dSmrnLWOosjmtVa1KjKw7N/WQ64RirBzhLxfAeRBxj3rBBZ7wPEPOGqOgrG1umXS5DXoNk1Oqci50wmdbuIbN4FFJ8gOyHXX2O/q8fQ7PjXIfAgCKwisMvMFca9gvwxbel15DCcqOtnZwxJY3k8HIg2QzvSigAdCAdmM2Gfv9/InZIbRm/m4L93t0o1RrZ0gsMrMmvo+4xSR7HdcAB82N8E0QZ8yF2nUd/T9ez4RAguJILrH4GQsUwLthiTGGoGFAOqWITRJAgsTz6jrx3yWIbAcHxQ9wOxr3ou0GyQdmqJVC0uas0ktktcJt1YCy5ESJEu/Ypn9p9Ezn5gUgeW7MHDMgwHJ8GZ05TnmiBTnvFeR+7kQWBwjJIJsQX1A5DBEe+E6LgLLPJBJkettcd7KFONtlWjrVeDSsxnWnY4BBIE16EqZ+/MUN0KcPBR17tYGIbBk1iE76Yh+V5jPvefT+ctZJrDoJDpRVij917521TsSxWOUI3bUUOh2XGxaCSxjRNDJgLUXIqeMwx7A0bBeHLMRcEJi2V9d9tHPkZCRBjtNoEfgbZLZiRwido+xaHSuPbxsK5OB5V1ui6Nf1DBCBiJf+hWfLtsHz806geXyFJlKsmkEXwUbHPPoZi9al+aZNaguG1sF6dWpVUlgsZsEMfQlB7pE/BG5bCtN/zhWo7xpLgisILD66Q82rIBEDhKbo0qydEsiGJbA4pMim1pr/zntYv/IAV1rRXCoWx+QDgLp9iMN+csm7+WD9MOh9e/LEliSI+xlZWpPDvL9ss+qnwlHJzhyTcCyv23yczKz7MUyscx/ezH7hr3WLfHE/kCPe3aQJJg64jwRAoujJGNIeiWSRsFwR79aU6sd/yIwhcm6ETmTJLAoLseqBiGwKDIOZXsGFsObYuZgaJSdY2eDHL9SzFV2FwPIxFWvoJMT2kpgST/sd2vhXCb1pAgsfWVwy0rJEQ/RGU65Ba/2EyO8V8rvXAgsBUdtaghZ5CF5droquhVLhYYdR9FajxAyFp1vFoHttcmVLeIuxRpZlh0eRrSoVdkmc0u2oTWrIWRh2ensfxBYZVEdzXN0o6KejhB1m9NlCSzEhKxNGSbmiGyTJrVZJrAYj47CMSA5iq37SustUoxwZJYId7f5ZJ4whO03WmsNLMETx4xkeLUfy6u6iDt9yMmWHeWoFv2kzqP+KKZtT7Qf+qeX/m+f8wgr+o8hKSDBmBxlJtKga4xhSn+ry6IpFeBIStkxlSWw1IUS+XWMAclnXsg86Ef4lR3PLBNY7AB1BPOtmIgoQR92SadGJuxf/1YqA9bWVbdmLiIt8xpsPULI/uMgWoOtQeGyRdw56GxPJS3U3NGseUFVAU/vcQkEgq1sMfoycyIIrHkoxRHCZ88Y805wgiNvjtvLzMFewQQElnVlD2ivgSVBwjpx8qXVyW8t4m4PQza1znO+jXUqaOj39hWZltZiJz/VvoTgojtzAXhB5E7H+Musk/ZnyhJYjiTz9crc/juXfvT7TRBY/RDq/vf0vQAH+5zt5Uh5r32Y76/WmvVR9iK4ufdusr+cCIHlowggKXAWNSKKYZiPJeWUZUfvOPrd2qwQWIxRipnxoMnkUZS9rFHqN5SoYyD5fCzCYf31138WdK0EljohIhidanINMy0nSWDpNyxz6j7yhoGPxJL516veid/OhcBi8OWaEI6wIBJ7Zc/ZgJFpuShqK4HlfL/MQ4qq1+ZclsCywelTLsLuzxmbMjLWR5s1h0Y2g3Wq750UaBBYZRAd3TNIfhcFuOXULTWdWlkCy9GkXXfdtajxQO8OQp6PbkSTe9MsE1gKR6v7hPCUGZqbvZdh5FIP+sR+QVf2KtbNkXBsTS0frZXAyjfnMJraHfCqCSw6VTairBd6aJDs5V6zzlE9JNENN9xQODr2y0wclJmtcLW/v/rVr+551KTMuzwDf8Wq6XHvZqiyF2STlWllCSxzgwwzUSYbC7HSr2hx69zSL0R4p2L6s0xgCQLYM93eycG1VpCOnbAjT/rbnM1rUEB3lVVW6SpOc50twyHVWgksQVBzwxp09D8331HXLK9//RGoaG8ce79tJbA8g8hksyO8Ebnmgv2ibBNIQ4JZS50yy4LAmodkEFjPnlUyT+kgBEw+OmjO9PKRXJ4g+CCA0U5gWaMyWQSbW+sY9yOw9IxuRA6Y/8gFZDH730ULnRqiSzBAP3yL/h4km5VPwFcWWGqvi1yWwBKIsf6DwCqrsabnuXyjPfm5pMae3CtBQrYd3kQijNMzs9wmQmABlOKwIebb0RiIbljRMltsw+tVJH1WCCwTjXLOx7yQBBTcIE4kJ4RBwrih4GXxKDTf3upKYDHyHAfktPcrnO8GHyy1bCyFYUXMRWx6ZapknAYlsOBt48oZXyKjMtt6bazIII4WZ0KrksCi/K6++uoCD0aAiJPNt0wdFxs1IyHX5eh1CYFxBIE13q1ChFEdO0c6FP5tv2JZb8oQWJx0slPXhC4aZbHm8SIy96/NKoHFwLW3WPPmCOc2N8EOxD4SS6OTOM+9Lg9hsIsmi4Zr00JgGYv6Qsg3R53KXoDSb8bQgQxG64NzL1jBASlbcNxNjsgCxuegl2d065tSA5wnToljBIITLnEpkx2lP+wuR9xgZWz2hE7NMTFHLY1bnRf7b1mizI2/bi5klwjGtbdZJbA4m8oJsG/JQ9a99dXtiJEsQcHHXGeNwyFbq9f8ZTMLcuXbMcsQWOYx+1CWokYnyBxvb5xs69t8bQ2A5hs7kWb9LiTqNJfYtIg8/+4UbAkCax5qQWA9ewYhTgUonNpxBF6At1ftT2+g69hGbPRRElje7WQCf4LdwMbWNydyOh3rsnYkCwhsa/ZcJ0PKNGuNz6P2Fp3SfmzX3wtO0RkCLLl+cvu7BbHUhrT+JtEiA2t41PEDfEs2mEsMOtUh9hW2nuAFW77fjafD92qyb5gYgfXggw8WxUjVf9JENkV9bPr+zLhiaPWKpM4KgYWwYygyfjSKBuFQNtqZDRIKlEBFuDijnSLpdSSwbBAUPvaZIu9nRFvonDFXjmrmlN/KxurV2ovXInlEkW2C3ZpjM67JzUf0OImMxG7kYy4EKRsiF+XzDY6RftqgKSkbdLesGn0pm4GV++2dNlvEGsNXJLRfhh8cHfWFnY3TFcK9inu3E1iM7FFlQuRxxC2E82aiOQAPGTGcY06QdHdzLzuz3Qgs89DvEd1ICPOXo61gaacbXye7TVX/9WkjsNrXtyxZpJF9omxj6Djyyxm1DhnCrb9vJ7A4zwisXkeXBQUQnAh7c0h9PTpZoy9Eie3bjiy2trlkYDHGHVfWvE/WR6fae/6eHkbq0FG+JZNwVLqHAyKjhvFvT4aRiHq/xnGSzQgX+26/cgP93tf690gr5EjOlEJO9CPtjINtYS+AF/uA7LodbTM/OGkIGFgiIOxb/fYN88J47TOCM52IdTaPTF7N9+2BZUnBQXAq86yAEvnmjGiBVLLuVoOq0zuN2d6NIM5ZIvZYc7FXwA2B5chrJpERkZzRXmuQnUjfI5t815rLGdYyney71nnrDcyeU//GOP25WzHpG2+8sdhTrL32GqpwEli97bbbigCYcZa57MMYkWzmm9q3ndblXAksZIA1QA8hlke15jvJ2JpRFyzf9m3OCiD1ahx3BK6MH/MbYdzPqawzgWVvMC9GWR8NvuwTa+Pee+8t1gY7xTzv1sxx+51n6D1Zg7BnZ2tOqLBXkUKtREBrBpbaiWpgdTsqKyAsW9G76ERHhrtlrwsY2F+tWevAOltqqaX6qqecEWmeIbo76d7Wi0Z8n//c+pzx08X8IXp5Eq1JBBa8BQfoy1E3JQTyxQH0fmvQih4UjGYnuewAgdVPP426f+N+38QILB+mQGTWEDhjxsZNmYgOZRKrFyCzQmBRUlL+pGlrDEWMfb8bDjM2Jq4i8DYOiluRbrh2igbUkcDiNHFObBTmCKz6GdGcNmn2jHBpxIou9iO+YMeQEjXWGN6MlH4ZKYzFXByR42Sz6CY7Bd85AZwNMtI4H6KejC/Gkf+PwOp1XfugBJbNlhOIjFKnC46txSnb15k1yUiwDhEaGH+bdS9SlfGeN0g1QHrVr5urogsC65nIycJCQMmyYxBxBs13x3YcQzHvbXqcJBE6zoTjgubBd7/73SKLw9FlzzPwkKZlMjnmKr9p/d00EljWTz7mYw1y0HoV7G/FFjmO9Dcu0WL7qtob5kbrvsHQ8h2ZWupyOELY7ShErsXAGFe/z785wo5P0F10DKedIZ/r5+Rv0av2NM1eRa/2a/pv3mrGTQd1c4zsgY7Qc2g5K9aBgrH0sPlsv/CPNeDv7Y0cE/+UKaiLsGMwIjnsP4JF3S6XyeMSCYUF0qjTMbp+4+/19/mWO/IzHtnq7Zi3/57M6Ghys3843mccvWp6cTw4geTl+L3newWC7KGCkmw7RBmir9NeTf/kueh4JUdx1Lchl8UXHuYtYkbbYIMNiii2+VOmITY8z+Zgw5lzMDv66KP7Oqnmba7tw1ahf61BmHRq1iD7QF/pb33n2Ms6twZl5yFzBDXabzxszb4z72VltF+ehAhjZyGw2gsA6ysnmB2BrGMPcJZ62VXGpL/ka+50y/xGtAtgszsEzZAPvUgQ8yxfkOTPMg7gOEjQt4xsW59pLf0gSATzfkd07M8ILMfI6GB7bKeMxNbv3HnnncV8JC/H08iknyNqPviN+YB4MYe6ZVYOOu5ez+sjm9dxWU3W3lVXXTXyi6EkPNBd9jD6xH5A93Urf4LktQaQ0PwpwQP2rFME5os+srG9r1X/s8+RlNYx/WiNqEfbrbFHkfyatST7txNBaV67OdHapLv5DPb2blk03sdWs2/ac7y3mz8goJLtAmvHXtC6dvmX9l57oqDHJFqTCCzzSwIFnTepZl0EgTUH9DlDNhOGrVpEvZooHOWHLbQhYMORFZx4mSz9jtDNCoEFI4qVgW7yw8Rm3C3a3I4p5c6IUawQZkgEEa9O+NWFwDKPpMpTfAwgTgADitPAsWHgMdwZOZ1uWmAEMOg5VQwnG0Y7Ht5nk7C5MAxFL5FX+Zw4x4dD5CiEKKrf+1Z7hoqjFTYmciAz0VQbSnvEXX0KEUjnlzlBokHGx5BXy8hY1FexUdkUexEJgxJY5ozxMQI4I9YOA9Dm3O5gwATejg4aq026U1FZfeD4wg7OnslRbE4OHBisMIOdd/Vb0/1UThBYz0aIcy2NnBFrTrc2c4iBZkMjV2QGHZObv7emGNb9iNp+sqnz30+awMpriS7iEIukKZqcb+whJ2QOUsA6atUNOZuOs0gHXXPNNYUDmLNCyUX0H8nZfuU3nWDdZp0nUCBrrz1rRp8YyhwjRyE4B8hRRjv9KiMEKWF9MrbpOPrbuOhyUeJMWnHSM1ma9SnH09zNvxEJ9xs2gaZwNJ3k3/k37XpfzRPBL+NvneO95iVcjBkGjtz3coCtMw4ABz9nPAoCdNKfSD0kACKHUzGs3us0hpxBB2/kI31L77bvG+aUzDQEC3IGppmsETixx3GkEC/tc8t3OeFITiSN+WOtyEpuz3YxR5BkMgUE0exlrX0hW3uFPcMcs/9o9lZzyj5IT8FTP8iiCjIdEeEfuNCJiAhy0n8NaSAIJbuok9z8DvacXTYsRzrbXoJDgj5I2n5BtixTdgFSiIOryb6HcTuxqn/sBP3NZK31iFhkL7Ip2CLWoPXVXu/TWmR/wD3Xc6NP8pyX3WLNsUXZ792ao6WekU3C7vG+Tjd6cpzpBgSM/rYSnzDMtgOygW7LdURlqBiPtQV/c0Ifs7yMQ1/NL+PVzEtkGv3g2fybYfckmOunf7NtrH+2jsZG4+OYq/7J+siz5oc5pn8wpc/MZRmlOYDZakvmOenfMiw8g+gwFn8mJ0FP/53XqG/4lt8gYjyXL3HKcsw3kcFjFGvJ+32XLNgSAqFwsK7zWqaPkCXZ3mMHjyL71LyzNtjM3s0v4Gu2rlF6nz8peG2f4QNYi/YGc9qeBXf7F33n3+ZTxlL9IPsB7PXZ3GZbebZVXvYqQSLrVJAiN7Y7Peu7/BNrOPcPZlm25i+dQ1fag9r3c+/mDyKjrPleJBo84GDfo7vokfw8PJzG4dd4z6iKxw+6rppEYMGGPie7SbUgsOaI/CAElgUtgpE3IdE6igH5Qun0a7NEYDEwGX0UF+Of0mmPjnXDg0GNDKG4OaOiC90K8daFwELIGRejNxemz+O3IdiYbSqM9k7HavyOcc6wFEURlWpvDCcGGMckG6XtDj4jNJNk/swZyen++X1+q6+ILo6BzdWmlyNAjAwOoo3NRuPsfu47kkhfydwGaVyyufpF9+dCYOmvbzHORTszWco4YvgZezaOjcP64oTZ9DoZ8sZsrXKC28kRG7KxZCMmG5i9CkT3W+/+PgisZ6NEjmTAIGKkDNLImIMh2ljW4Rrk/XV5dtIEliMFisrKbLC2rSf/tDbOC6MYcdBu8No38+/a9aV3IJI5YJ2ORSEoRGgRFOaS4ABdJYPDnJCxJ5uEfkI8MNJl2Qi0cGKRXd7L0eOoikCbj/Z2RBynh13QSq7SDf5B+MvWtPcZO13O2TAGTkTrbxhlWe/TS77f2jzr6Jfsl3w8u+z842hwJpA53Y4hwcZ7RfIF2OwL+suJpT/9HRIPRnSpZzKGZfsx6HOwVeDX2udE2s9cL289w4OcZCDIzNFvshNcydneeX/jrJEXXM2x9kYW9g17mnnpWU6yzDJjNX/ti+o6+p7snHaC0XfZNfopUGm+5uZZMsiklfmHVByF090+FmsdFuaYvuh/Jq/ys+Zldvrb11omjM13/8DQCQJriLyNY9B+kw+5mb9+izwTqMvZ5jJdckAJ2UeO1jM7mXNoDcoYMx/MO2uwkz63Ln0HsUTO5rygFjKOPDnT5m+v46jmFZ3Bceek+TbimP1DD1jzbHr95FD7t9s/WzExL33XcTkYml+tpHMOuhiDzFP2oOPu7A0Ekt/kS4+yzPSZzHIQsV92VJm1JhCA9DNX2E6tOtlcpQPoCwQBcsoYrCEyYBcaV6s+9izc/ZZskT3mvmwgBJzfGBc55tb6G9lB1hm7ClFKjn5jPbXOYfZatluRKb2OX5fBIT9DVxufcfqe8bWuY88ZDxnot3GyNdniwzbjpD+8S8aXb7CnrQvzDGYIXfNX8IedrQ+ymOh1cwmpCzvzFMlrHSGK6DXv7yTjvOfKcMu16qw5hKy9ql13ZOzZushtJUZys3bM+Rwo5+PZrxAeSGB7oMwZ2VlIKP6avbuXPiGLfDMiPcGXMP/Mf6QWfJSHsDdMysZrGoHFp7JO6TGEKJuqyuPN5pe5xadF/gtkRgbWHDSOqIuz95RmPorV6zWUh40M+JQdg0ikt8w17rNEYNkYOTBqUpjoFFf7GdduOIoS5PPRjEcGSrfFUhcCyyJkbBkHpUuB+4ey9k/OVKCk11lnnY7QMNItaOnXnTYAm74IkuiY7+TaQfnZ/C3/zg4iQ6zT1aSeMfcZbjYNjh0lYrO00fqd6FF7VNfzIuL6YByecZSinwE8VwILUPpq4xXRQpzaUHO0zyaqjzATRet1jJXRLfKnLxm7vEFm7DJuDGO4daqHMoiaCQKrO1ocMUQpo1smBCO/U2NgSvXnDCABeqWxDyKbOj87aQKL4YpAokOqaI6Xyh7o5phy5EWfkf2yvugu/4/xzoBGMHEic1aI9a3GA4fBsRXPmEv2bzqAPkGMct5adXjWP5kE8N8i44x1BBAClhPR+ptWPUzv58BXjjLTMWrMyARgyNs3OXp0Ts4u8Yzx5IwwwR5ZuhwiF8joJ4fPXsoZ75WJ5ft+K2NEBg5n3lqj5x3bdSQPsTCumk7wQRo4smDvoZftH8bMUWOLCQ7qD5nJ1EACGK9/yNg/srPIsFcNPPsGHeP4mj2OnM0p30He0PGCL532L2QHrGDbvqdnAzxnQ8OQjuq3D85lrTg2bd9rd7wHeZf5aS1wQAVnOKvDOocccGtQBoU1yP7RR7LhoFuDiKm8hsmdDBCLiuZbgwJs/Y6rmqsyQQSr7P3sIPuy+lbmftn6RdaTdWc+INPYWvprP3GDsmM07IhOJwk8KyPTnpXXOvyzjWfuZhvPuNlP5jh7I19UlPFu/w1cBHT9ZtiGmDVX2Det9mG2CXMfZS8jpPx/ey+dYp6325TGlW0ia8Z68ww9BMP237TaUfA233IpB4FqhEW/3yBtrP9RZEHBwjHSdnu53WbO8vNvRE++oGtYefi9dUHX0b2ILOQrnWU9IosQBmzpPD/MF9nH5il9xb7lo1pTmvEIPOSTAu2+Rt47Wm1/70E++rv2/S0/j0yFeydf1jqhh+y3guz2I7+TjSrz0DFT+rRfXcOMZ848s38ai/VlnctCY+d5XxVZwGXl2TQCC+nNV0F4Ivar2Me6YU9HIkSjiHvZ2dnynE2GoUthSfHst6kjGSwuBjwhizqJJpY5y27DsFloDFYbf5nfeV5UB0NvA7JxE3a/JkqCHNKw8Rj8fpuCSKLoNeXEgRCN6qaUkFiUlswW+CHyOmUOtSotxioHgBNho3fMolfRUKywdG3fwhK7VaZMDZB+2LT+PWXN2LxjAAAgAElEQVTKSBYdEh3uVzx9kHfHs39FYBgCq84YBoFVTnoICOQCh5aTwvjlXHMKkaTDZsKV60V9npo0gVUfpKavpxw/NoRIuIh3t7pLnXpur+LY2Js5ETKpOPYc8GiBQCAQCAQCgUAgMBwCTSOwEFcK6iuH1Ov453Codv61IAhuBKcxiizUKvo4qneOtIg7pwnBgwUWdXGcQIp9L5KHY8WhcmxKOqeojEhgvyaCqA5FrvSvKKWIRGbV+/1eWqVz0proCfKrH9stdRXrrukj9rzXTRJIK6msiC6Gsv4yjntlPOQ0aRE4UYJehWux7LDDuIt0WTS9zjgTtiwvJJc/648MpG6FNfth2O3vg8CaK3LlfxcE1meKyFK00SAgSmmzFYlvr5M0mi9M91uCwJpu+XTrnQwOGVcCJTK+ZSCXDWLld9qn7dECOiLrMuEEtaIFAoFAIBAIBAKBwHAINI3Akm3s2KbsOoHjcTYBPVm47JhOp4XG2ZeqvzU0gaVWDqAUjEWkiGK2NumQiBIFUqW1daqvwHGS8uvWDFkDnTKCfMdRK1FWi8HRK+RVPjcve0vaqFoEjkFJB5Wea/L4O0cETCqkj6wlxI3UaY3B6zii7ARkTu4ncg1hJUXV+JBP+Qy8dExFRxUzRUiZKMgjR8GMwW+c85fqmo/yyEbDjMqukqYti0uKZ3vTP2e2HVHgTDoa4TvIslzvRuaZM/CIPLUlZFJ1Isak22JiyQWG3tl6jt9ER+B5t9/DbFhCKwisqpftXzOwOGwy+jTZjqOoM1B9z4f7QmRgzcMvH+FQ+8RxhGHSlLMeodNai5IOJ636/DoIrPrIqrWn9kEElsxv9kGvG/V6jdBRFME2ASTHCBWIjhYIBAKBQCAQCAQCwyHQNAJLQFgpBHzHuI9u8g1xG3iUfifEhpPq5H89NIGFFEK2cKZaz2IbWj4HTZicLOfuOx2J85wCc/n2wk4CVxtKrax8G0S+Frv97LUB5ZtuZHU5zugZ9TUYt2o4EKpveEc+Y+43SC5EjnPe+mkCSv9TVDGfj26t8aPfxuabajaJ2jrK5ziDWib5O7mP+fw7Eg6JhERTJ6C95QKJUgFliqkzIDvMYvAtUWekmPE4nogk7HQTn/cirRBcHFTPtNYbyGPPmHm/PnW7wrnsdA0CqyxS/Z9DQJI1gqJ1XZiv1oNsOk3x1/aixv3fXr8ngsCaJzNkuaPTCHcFZIfZKGV8uniAHlZPr2ktCKx6SlwWtON/Akb27bnWWmFgqx+krkoQWPWcC9HrQCAQCAQCgelDoGkE1vRJYDZ7NDSBNZuwTNeo1AdTNDYXNVeMFWlVptj3JEYSBNbwqFuY+YpebLqbrtRTywVREacy+JDCap7JRDAnZr0FgTVPwkh5maOKi6o3N+jRqda5ouik+eVYtYBE01oQWPWUuCLW9KBsZ9mo0vYHbfYrRckRwQxtGeUywqMFAoFAIBAIBAKBwHAIBIE1HH6SX5Q3EKjzZ4k2k8juGm4Uo/91EFijx7TxbwwCa/gpgJxQlF9WgabotjovjuJqsm8c/3T0xWUErgUve3vQ8L2b3BuCwJqHvSxPBJaNTf2/Xhc+dJOYTFBZfI4Neg9880UVk5Py+L8cBNb4MR/VF138omCqbGmZ2nTkIMdprSNXmcvYRlwpG6AeZ7RAIBAIBAKBQCAQGA6BILAGwy/f0nzvvfcWdokAtRuWW5vbRdXA9g/bv9sprMG+XK+ng8Cql7xq0dsgsIYXk2OiFFO+HdNNjueff/7TV/K6bUsNLOecZWG5GngQp234Hk7mDUFgPZPAcozYVdoyp9zeWvbMuzXq6nVklTp9jqQ6ghgE1nFR/2gyS3vOX3XEX/F2N+y6RfDEE08sbvPtdwOyDzIKZRy6idBaQl4pd9AEXTpnwOOHgUAgEAgEAoFASQSCwCoJ1P8+9uMf/zgdddRR6brrrnu6Vne3Nygv5BI3JyicxmhSCwKrSdIe01iDwBoeaBgiphwddFzQbZSyA/z/G264Ie2zzz5FFpbsA3WL1DZrQgsC69kElhp5Lq5Qv84lEf2a2n7mlvp5MvhyQ2DZBOMIYRTw7jeHpu3vcx1KJNYvfvGLou6jf1ySYm2onal57qGHHkoim9/+9refvlVY/U0BAcfzowUCgUAgEAgEAoHAaBAIAqscjuwTl9F84AMfSMojDNLYOuwfZFaZ4N0g757WZ4PAmlbJ1LhfQWCNRnhw/OlPf1ocj8HEq3EkM0DGgRs3Tz311LTuuus2RllBNQiseXMrX0zhql5N1gkSS228bk1mH/JTWvJf/vKXZzyGwJLJcuSRR45mAtfoLXGEsEbC6tJV+tKFF+phnXDCCUVmoUZvLrLIIgXJb/4zesx9Rw5dfrDtttsWmaxNMfrqL+kYQSAQCAQCgUBdEAgCq7+k1LYSVHvnO9/5dNYVu2X99ddPq6++elp++eWLExbsFz4ggsutyffff//TL2f7n3POOYVN04QWBFYTpDzmMQaBNXrAH3jggeKqeNlYK6ywQlp55ZUbk3XVimYQWM8ksJBWsqg22GCD5LKHDTfcMJ1yyinPyiSh6JFWjhq6KdUa5djbLNVQY2DIvHKjm9TlprUgsGZL4ua3+m70pstPZB36fwxCBVAdE1xiiSXiqOBsiT1GEwgEAoFAIDBlCASB1V8g6h3vtNNOhZ3iVI0/q+cpuNatCcTBVoLDF77whYIAW2uttYp/N6GOZxBY/edVPDEgAkFgDQhYPF4agSCwnklgqdujmP/JJ59cbGTvec970nrrrVeQUJx1TaaWWwZPP/309Kc//an4f45VybbaY489CiLL7SaHHnpo8duDDjqotDxm5cEgsGZFkjGOQCAQCAQCgUAgEJgWBILA6i0JwbY999yzuE3+ggsuKE5TDNq846Mf/WhxMgcB5jjhrJeWCQJr0FkSz/dFIAisvhDFA3NEIAisecCJvvzyl78srtNdeumli2wSWViyqDbaaKPiZsErr7yyILMUepeirL31rW8tjmK+9KUvLQq3R0spCKyYBYFAIBAIBAKBQCAQCIwWgSCwuuPJX/7+97+f3v3udxe1jt/whjfMuZzBH//4x8Lu/+IXv/j05V6jleR0vS0IrOmSx0z0JgismRDjVA4iCKzeYrH21MRSkFrhagX/H3300eJHK620UjrwwAPT+973vrT44otPpXwn1akgsCaFfHw3EAgEAoFAIBAIBGYVgSCwuktW3U51jgWYP/3pTw89BQS1N9544/Sxj32sOJExyy0IrFmW7oTGFgTWhIBvwGeDwConZDcTbrPNNkX9H00hSGfkZV3J1Ir2TASCwIoZEQgEAoFAIBAIBAKBwGgRCAKrO56PPPJI2n777dM//dM/FTb7sE0W1vHHH5/++7//u6iHO8stCKxZlu6ExhYE1oSAb8Bng8AqJ2THCy+//PIi22rTTTdNJ554YlpxxRW7/tgmKmvrVa96VTrggAPKfWSGngoCa4aEGUMJBAKBQCAQCAQCgalAIAis7mJ48MEHCwJLjVq3yg/bZHJ9/etfLwLWF1544bCvm+rfB4E11eKpZ+eCwKqn3OrQ6yCwBpOSgo4nnXRSsZnJwuqWfWUT3XnnndMWW2xRpDM3rQWB1TSJx3gDgUAgEAgEAoFAoGoEgsDqjjBs3va2t6WzzjqruHVw2Mb/dgshQuySSy4Z9nVT/fsgsKZaPPXsXBBY9ZRbHXodBNZgUnryySeLNOJLL700ffazn00ve9nLOpJYd911V9p1113TjjvumI444ojBPjIDTweBNQNCjCEEAoFAIBAIBAKBwFQhEARWd3HkI4SKrwsgD9vY/OzZO+64oygKP8stCKxZlu6ExhYE1oSAb8BnZ5XAysXXb7nllpFL0Zl4V+q+5CUvSfvtt9+zrta1CXzta18rru91De/hhx8+8j5M+wuDwJp2CUX/AoFAIBAIBAKBQKBuCASB1V1ijz/+eNp///3TKqusUtwgOGyD9ZZbbpn23HPP9I//+I/Dvm6qfx8E1lSLp56dCwKrnnKrQ69nlcCC/cc//vF01FFHJetnEm2++eZL8D3ssMMm8fmJfjMIrInCHx8PBAKBQCAQCAQCgRlEIAis7kJl71955ZVFvdqrr766ILKGaWxZRNhXvvKV9LrXvW6YV039b4PAmnoR1a+DQWDVT2Z16fEsE1g2HoXUZUxNogWBdXA67rjjGnmEchLzLb4ZCAQCgUAgEAgEArONQBBYveXrtnA1aB9++OF0zjnnpHXWWWfgCeHo4HnnnVecothoo43Sueeem57//OcP/J46/SAIrDpJqyZ9DQKrJoKqYTdnmcA6//zzixsAH3vssfTSl760+GeRRRbpWnh9FOKzVp944ol06623pvvvvz8de+yxcYSwgTXARjGX4h2BQCAQCAQCgUAgEAi0IhAEVv/58KUvfSntscceafnlly9OYzgGuNRSSyWB5W6N/Y64uueee4qi7WeeeWZadtlliyLua6yxRv+P1vyJILBqLsBp7H4QWNMoldno0ywTWK6+3XvvvYtCjieccEKxkY2r/fCHP0z/8A//kHbfffdGZiDFEcJxzbT4TiAQCAQCgUAgEAg0BYEgsPpLWiAZAaUG7VNPPZVe+MIXplVXXTW99rWvTSuvvHJBTM0///zpL3/5SxHkvu+++9Jtt92W/uu//iv96le/Sr///e/Toosumo4//vjiOGITWhBYTZDymMcYBNaYAW/Q52aZwLr++uuLmwDVoHrve9/7rGLrVYqZgbHLLrukN73pTelDH/pQlZ+ayncHgTWVYolOBQKBQCAQCAQCgUCNEQgCq5zwlA/55Cc/mT71qU+lRx99tNyP/vepZZZZJh155JHpoIMOSgsssMBAv63rw0Fg1VVyU9zvILCmWDg179osE1g/+9nP0k477VRkQO22225jldRvf/vb9K53vaso+qiQfNNaEFhNk3iMNxAIBAKBQCAQCASqRiAIrMEQvuqqq4rTGA888ECRjdWrPfe5z02rrbZaOuOMM9Jmm2022Idq/nQQWDUX4DR2PwisaZTKbPRplgks0Rck1korrZSWW265sQrsz3/+c7rzzjuLoo8veclLxvrtafhYEFjTIIXoQyAQCAQCgUAgEAjMEgJBYA0mTT60gu7Kilx88cXpu9/97rMyshwX3GSTTdKOO+6Y3vKWt4zdZxhsRNU8HQRWNbg2+q1BYDVa/JUOfpYJrEqBa3m5bKt77723+D+iN0gr9bZm/caSXvgGgTWu2RffCQQCgUAgEAgEAoGmIBAE1twlnS9a+vnPf15ctOS/X/SiF6VVVlklLbbYYnN/8Qz8MgisGRDitA0hCKxpk8js9CcIrOFledFFF6VDDz20eJHMK5lfikQ6d//617++ILWa1oLAaprEY7yBQCAQCAQCgUAgUDUCQWBVjXAz3x8EVjPlXumog8CqFN5GvzwIrNGK31p1o8kll1ySzjrrrOL2ww033HC0H6nB24LAqoGQoouBQCAQCAQCgUAgUCsEgsCqlbhq09kgsGojqvp0NAis+siqbj0NAqsaiVmz++yzT1pyySXTcccdlxZccMFqPjSlbw0Ca0oFE90KBAKBQCAQCAQCgdoiEARWbUU31R0PAmuqxVPPzgWBVU+51aHXQWBVI6U77rijuPnwb//2b9Npp52WXMnbpBYEVpOkHWMNBAKBQCAQCAQCgXEgEATWaFG+6aab0imnnFKUAFlooYWKi5fWXHPNtPnmmzfKdg8Ca7TzKt6WUlFk7gMf+EA699xz01e+8pW06aabBi6BwEgQCAKrO4z//d//nW677bZ0zz33pN/85jfpT3/6U98reG2A9913X3Jt74MPPljUxooMrCNGMlfjJYFAIBAIBAKBQCAQCDQZgSCwekv/1ltvTccee2z613/91yKI3K+5rfzCCy9MCBw1bB944IHCfn/kkUfSNttsk97//venFVZYod9rav/3QWDVXoTTN4AgsKZPJrPSoyCwni1JSvy8885LH//4xwsyCik1l7bsssumr33ta1ED64ggsOYyf+I3gUAgEAgEAoFAIBAItCIQBFbv+fC9732vOAFxxRVXpLXXXnvgycPnZvc/9NBD6cQTT0z//u//XhBcK6200sDvqtMPgsCqk7Rq0tcgsGoiqBp2MwisZwrtL3/5Szr55JPTUUcdlf7whz/MSaILL7xweu1rX5sOP/zwIgV5/vnnn9N76vyjOEJYZ+lF3wOBQCAQCAQCgUBgGhEIAqtaAqv17Y8++mg68MAD0ytf+cr0wQ9+cBqnw8j6FATWyKCMF2UEgsCKuVAVAkFgzUPWOvv617+e9t577yJ9eLHFFkvLL798Wn311dMLX/jCgoj6wQ9+kFZZZZXi/+f21FNPFc///Oc/L9KP//mf/zm99a1vLX7f1BYEVlMlH+MOBAKBQCAQCAQCgaoQCAJrfAQWv0BJkM997nPpS1/6UlUinYr3BoE1FWKYrU4EgTVb8pym0QSBNU8a//M//5N22WWXdPXVV6e99tqrILLWWmutoqjjc57znOLBgw8+OG233XZpyy23fJYY1chCYp1//vmJgYHIWnHFFadJ3GPrSxBYY4M6PhQIBAKBQCAQCAQCDUEgCKzxEViOEv7bv/1b+uY3v5kuuuiimZ5hQWDNtHgnM7ggsCaDexO+GgTWPCkjrvbcc8+CuPrwhz+cFlhggWdNgYMOOii95jWvSTvvvPPTpFaneXLqqacmN5uccMIJackll2zCVHrGGIPAapzIY8CBQCAQCAQCgUAgUDECQWCNh8Die99yyy3p7W9/e3rb296WPvWpT1Us2cm+PgisyeI/k18PAmsmxToVgwoCa54Yjj766HT77ben008/PS211FIdCaojjjiiyMhCcPl3tyZqc9hhh6VNNtkk7bDDDlMh63F2IgiscaId3woEAoFAIBAIBAKBJiAQBFa1BBb7/cc//nGRefX5z38+/f73vy8udlIYfpZbEFizLN0JjS0IrAkB34DPBoH1VyGrYyXzap111kmHHHJIV8mfcsopxc2CF1xwQd/Mquuuu644M+8636WXXroBs2neEIPAapS4Y7CBQCAQCAQCgUAgMAYEmkxg/fKXv0xvfOMb02OPPZZcutSpIaCUBFl88cUHvkSJv+0CpyeeeKJ4tfIh66+/fvryl7+cXvziF49BupP7RBBYk8N+Zr8cBNbMinbiAwsC668iUHz9Pe95T1F8/e///u+7ykWR9/3226+4ntetJL0aI2P//fcvCCy1tJrUgsBqkrRjrIFAIBAIBAKBQCAwDgSaTGBlfNWc/clPfpK+8Y1vpIsvvjjdeeed6fHHHx8p/Mirl7/85enyyy9PL3nJS0b67ml8WRBY0yiVmvcpCKyaC3CKux8E1l+FY43ts88+RX0rmVjd2q233lqkEe+0007pn/7pn9J8883X9dlf//rXxbMnnnhiWnfddad4Foy+a0FgjR7TeGMgEAgEAoFAIBAINBuBILCeKf8nn3wy3XXXXelf//Vfi2N/w7ZFFlkkvepVr0rvete7ivpXK6ywwrCvrMXvg8CqhZjq1ckgsOolrzr1NgisedI6/vjj06OPPpo+8pGPdCzg7klpxfvuu2+68cYbi41ygw026FrM/fvf/3465phj0mmnnZbWWGONOk2LofsaBNbQEMYLAoFAIBAIBAKBQCAQeAYCQWB1nhDs8zPPPDOpVevyJJlZg9re888/f3H08LnPfW7jZl0QWI0TefUDDgKreoyb+oUgsOZJ3m0jRx11VHFz4Etf+tL00EMPpbPPPruoj+V2wuWXX754WF0rJNaGG25Y/HmZZZZ51vTJRxK946yzzkovetGLGjXFgsBqlLhjsIFAIBAIBAKBQCAwBgSCwOoOstpYbgv/1re+la688sq09tprj0Eis/GJILBmQ45TNYogsKZKHDPVmSCw5okT6fTBD36w+B+ysQ499NAie0rbcsstiyKOz3/+89PDDz9cpBVff/316dWvfnUR7Xnzm9+cFlxwweLZ3/72t+lf/uVfCuLKsUQYL7zwwjM1b/oNJgisfgjF3wcCgUAgEAgEAoFAIDAYAkFgdceLv/wf//EfRa3a888/PwisAaZWEFgDgBWPlkMgCKxyOMVTgyMQBNYzMXPDieyqVVddNV111VXp7rvvLh5YffXV09VXX13cQmI9Xnjhhel973tfeuSRR4q/X2mllYo6V25F+fd///fi/y+22GLFMUOF4ZvWgsBqmsRjvIFAIBAIBAKBQCBQNQJBYPVG+Fe/+lU67LDDihIeL3vZy6oWx8y8PwismRHl9AwkCKzpkcWs9SQIrGdL9Be/+EU6+uiji4wrxSE1xRw/97nPpYUWWqj4b///E5/4RJFp1e0q36222ip98YtfTEsvvfSsTZu+4wkCqy9E8UAgEAgEAoFAIBAIBAIDIRAEVm+4EDEPPvhgYXtnm30ggBv6cBBYDRV8lcMOAqtKdJv97iCwusv/9ttvTzfffHN6wQtekDbZZJPi363tf/7nf9Lpp5+eTjrppCTi09rWX3/9dMYZZxQ3mbiKt2ktCKymSTzGGwgEAoFAIBAIBAJVIxAEVtUIN/P9QWA1U+6VjjoIrErhbfTLg8AaXvyOC6p3ddlllxXZWLvuumvaY489iiOETW1BYDVV8jHuQCAQCAQCgUAgEKgKgSCw5o7s448/nr7+9a+nb37zm+nOO+9MSBuXNr3hDW9I73jHO54VqJ77l+r3yyCw6iezqe9xEFhTL6LadjAIrNqKbqo7HgTWVIsnOhcIBAKBQCAQCAQCNUQgCKzBhOaCJqSVExMKvDs90aktuuiixcVMBxxwQNphhx3SfPPNN9iHav50EFg1F+A0dj8IrGmUymz0KQis2ZDjtI0iCKxpk0j0JxAIBAKBQCAQCATqjkAQWOUkyHeG1Uc+8pF09tlnd61X2/62BRZYoDhFcdxxx6Xllluu3Mdm4KkgsGZAiNM2hCCwpk0is9OfILBmR5bTNJIgsKZJGtGXQCAQCAQCgUAgEJgFBILAKifF+++/P73zne8sbgbnR7e25z73uQlR9dRTT6U///nPz3qh7Cu1b13EtOKKK5b7YM2fCgKr5gKcxu4HgTWNUpmNPjWRwLrtttuKdOLrr78+PfDAA2nhhRcurtrdeuut0+abb56WWWaZ2RDuBEcRBNYEwY9PBwKBQCAQCAQCgcBMIhAEVn+x3nvvvWm//fZL3/rWt9Jqq62W3vzmNxeE1Ctf+coiq+r5z39+ccES/xqB9dvf/jbdc8896Uc/+lH69re/nb7zne+kRx99NO28887pvPPOS/PPP3//j9b8iSCwai7Aaex+EFjTKJXZ6FOTCCyb1KmnnlqkE9uYOrUNN9wwfeELXyg2vCbeHjiqWR0E1qiQjPcEAoFAIBAIBAKBQCDwVwSCwOo/E4455ph07LHHpve///3p+OOPTwsttFD/H7U8ceuttxZF3R988MGidpbLmWa9BYE16xKewPiCwJoA6A35ZFMILITVUUcdlc4444yO6cKt4l599dXT5z//+bTxxhsHiTXHdRAE1hyBi58FAoFAIBAIBAKBQCDQBYEgsHpPjdtvvz3tuOOORdYVIut5z3vewHOJ3y0ja999900PPfRQ+upXv5r+5m/+ZuD31OkHQWDVSVo16WsQWDURVA272QQCi1L+6Ec/mozVefcybdVVV00XXXRRWm+99co8Hs+0IRAEVkyJQCAQCAQCgUAgEAgERotAEFjd8XTS4swzz0yXX3558Y86V8O0733ve2m77bYrTmZsv/32w7xq6n8bBNbUi6h+HQwCq34yq0uPm0BgXXHFFWnvvfcu0q410ZjXvOY1xXW5Sy65ZHEzyX333Zeuu+66dNdddz1Ncu2yyy5FJtagqcd1kX2V/QwCq0p0492BQCAQCAQCgUAg0EQEgsDqLvXf//73xdG/f/iHfyhuEhy2Ob0hC2vllVdOn/jEJ4Z93VT/PgisqRZPPTsXBFY95VaHXs86gfW73/2u2MgUbV9++eXTwQcfnHbbbbf0ohe96FniQWTddNNN6dOf/nS6+OKLC3Lr/PPPT1tssUUcJRxwMgeBNSBg8XggEAgEAoFAIBAIBAJ9EAgCqztADz/8cJEx9alPfSpttNFGQ88lfsGXvvSlohj8ueeeO/T7pvkFQWBNs3Rq2rcgsGoquBp0e9YJrGuuuabYzF7wghekCy64IG222WZ9yagnn3wyHXHEEQkJ8+53vzudeOKJxY0l0cojEARWeaziyUAgEAgEAoFAIBAIBMogEARWd5TcLK7+ldMTa665Zhk4ez7D/7722mvTSSedlC677LKh3zfNLwgCa5qlU9O+BYFVU8HVoNuzTmB9/OMfL4o4+vc//uM/lr4K95FHHkmOEN5xxx3p+9//flpxxRVrIM3p6WIQWNMji+hJIBAIBAKBQCAQCMwGAkFgdZejDCy1qk444YT0d3/3d0MLXAbWhRdemL75zW+m8847b+j3TfMLgsCaZunUtG9BYNVUcDXo9qwTWDvssEP67ne/m77zne+ktddeeyCJuDr3yCOPTF/72tfS6173uoF+2/SHg8Bq+gyI8QcCgUAgEAgEAoHAqBEIAqs7ompg7bTTTsU/e+2119DQq4G1zz77pNVWW60IhM9yCwJrlqU7obEFgTUh4Bvw2VkmsNxGgnhaffXV08knn5yWWmqpgSR68803F/Wy/uVf/qVISY5WHoEgsMpjFU8GAoFAIBAIBAKBQCBQBoEgsLqjxO4/66yzijq2V155ZelTF93e6BbCbbbZpihB8pa3vKWMeGr7TBBYtRXd9HY8CKzplU3dezbLBNaDDz6Yttxyy7TrrrumQw45JC244IIDictZegXgkVhuMYxWHoEgsMpjFU8GAoFAIBAIBAKBQCBQBoEgsHqjdPvtt8PljFoAABk8SURBVCenL97whjckPs5iiy1WBtZnPPPUU0+lu+++u8i+ktV1+eWXd7z8aeAXT/EPgsCaYuHUtWtBYNVVctPf71kmsO6999607bbbpkMPPbQoxv6c5zxnIIG4wXD33XdPb37zm9N+++030G+b/nAQWE2fATH+QCAQCAQCgUAgEBg1AkFg9Uf0wx/+cEFeIaCOP/74gsQq6wPI4rrllluK4DesTznllMIXmPUWBNasS3gC4wsCawKgN+STs05gIZ8OP/zwIpNq0PbYY48Vm9ZWW20VBNaA4AWBNSBg8XggEAgEAoFAIBAIBAJ9EAgCq/8Uuf/++9O+++5bHCN88YtfnN74xjcWRwE33njjtNxyyz3jaCEfW5bVnXfema677rp0xRVXpP/8z/9Mjz/+eHEC4+yzzx76KGL/Hk/+iSCwJi+DmetBEFgzJ9KpGVATCKwjjjii2IQGbQisPfbYoziGGBlYg6EXBNZgeMXTgUAgEAgEAoFAIBAI9EMgCKx+CP317++7774iCI2Uam0LLLBAWnzxxQtSyi2DTzzxREFWtbb55psvvelNbyrqaa200krlPljzp4LAqrkAp7H7QWBNo1Rmo09BYHWX4zAEluOH73//+9N6661XHGFsWgsCq2kSj/EGAoFAIBAIBAKBQNUIBIFVDmG+88MPP1zcJi6LSl2rMg2xhfg68cQT0wte8IIyP5mJZ4LAmgkxTtcggsCaLnnMUm+CwKqGwHrooYfSzjvvnDbddNN09NFHz9KUKTWWILBKwRQPBQKBQCAQCAQCgUAgUBqBILBKQ1U8+Ic//CF961vfSp/97GfTNddck/74xz92fMEiiyxSHDHcf//9ixsHZWo1qQWB1SRpj2msQWCNCegGfiYIrGoILAYGAsvxww996EONm1lBYDVO5DHgQCAQCAQCgUAgEKgYgSCw5g6wjKxLLrkkXXvttemee+4psrJWXnnl9JrXvCbtuOOOaYUVVihd7H3uvZjOXwaBNZ1yqXWvgsCqtfimuvOzTmBtt9126QMf+EBxC+Fzn/vcgWQxzBHCn/zkJ8UNJv5Rg6tpLQispkk8xhsIBAKBQCAQCAQCVSMQBFbVCDfz/UFgNVPulY46CKxK4W30y2edwNp2223Taqutlj74wQ+mpZdeeqDIirRjZ+fXX3/99Pa3v730PHEF78UXX5xOP/309M///M/FLYhNa0FgNU3iMd5AIBAIBAKBQCAQqBqBILCqRriZ7w8Cq5lyr3TUQWBVCm+jX94EAuunP/1pcZZ90AwsEwMZ9ZznPGeg31qvNgK3mMD3sMMOa9wcCwKrcSKPAQcCgUAgEAgEAoFAxQgEgdUfYHWu3D7olsE3vvGNacEFF+z/o4Y/EQRWwydAFcMPAqsKVOOdEGgKgTUJaQeBdXA67rjjGnmEchLzLb4ZCAQCgUAgEAgEArONQBBYveX7q1/9Ku25557pqquuKgLJ/nzKKaekhRdeeLYnxpCjCwJrSADj589GIAismBVVIRAEVlXIpsjAOjgIrOpmV7w5EAgEAoFAIBAIBJqGQBBY3SX+pz/9KX3mM58pyobktuGGG6Yrr7wyLbHEEk2bKgONNwisgeCKh8sgEARWGZTimbkg0AQC62c/+1laa6210pprrlkcJXQksKrmRpPHH3883XDDDel3v/tdHCGMDKyqplq8NxAIBAKBQCAQCAQahkAQWN0F7vKlAw44ICkdctNNN6X5558/HXLIIcVpgDhG2HuhBIHVMEUyjuEGgTUOlJv5jSYQWIir0047LS277LJjE7LU5T322CMddNBBjTxCFzWwxjbV4kOBQCAQCAQCgUAg0BAEgsDqLmgB5P333z9tttlmafXVVy8IrPXWW2/O5JX3CYKvuuqqackll5zpGRYE1kyLdzKDCwJrMrg34atNILDe+973pve9733FRjaudt9996VddtklveUtbyluMmxaCwKraRKP8QYCgUAgEAgEAoFA1QgEgdUdYRcvnXnmmemOO+5IJ5988tCiuPnmm9NGG22ULrnkksKen+UWBNYsS3dCYwsCa0LAN+Czs05gbbfddsUtgLvvvnulRwfbp8pvfvObtPPOO6fNN988ffjDH27ATHrmEIPAapzIY8CBQCAQCAQCgUAgUDECQWD1Bvjee+8tsrAErvkAw5QNufHGG9Mmm2ySLr300rTttttWLNnJvj4IrMniP5NfDwJrJsU6FYOaZQJLFtQOO+yQPvCBD6Rdd911rHg//PDDBWm28cYbpw996ENj/fY0fCwIrGmQQvQhEAgEAoFAIBAIBGYJgSCw+kvzG9/4Rjr88MPTMcccU5BYiyyyyJyIrGuuuab4PQJr66237v/hGj8RBFaNhTetXQ8Ca1olU/9+zTKBJZXYdbpLLbVUWnzxxccqrL/85S/p17/+dbFpLrPMMmP99jR8LAisaZBC9CEQCAQCgUAgEAgEZgmBILD6S5MN/stf/jIdffTR6ec//3nad9990zve8Y6B61ideuqpxY2GCKytttqq/4dr/EQQWDUW3rR2PQisaZVM/fs1ywRW/aVT3xEEgVVf2UXPA4FAIBAIBAKBQGA6EQgCq7tcBK5lTd1///3FQ/77P/7jP9Lll1+ennzyybTGGmukl7zkJWmJJZZICy20UNesLDeK//a3v01XX3118TsE1pZbbjmdE2JEvQoCa0RAxmvmIRAEVsyGqhAIAqsqZJv93iCwmi3/GH0gEAgEAoFAIBAIjB6BILC6Y/rYY4+lvffeO1100UUjA/55z3teEFgjQzNe1CgEgsBqlLjHOtggsMYKd2M+FgRWY0QdAw0EAoFAIBAIBAKBMSEQBFZ3oJ944ol0xBFHpM985jMjk0YQWCODMl7UNASCwGqaxMc33iCwxod1k74UBFaTpB1jDQQCgUAgEAgEAoFxIBAEVneUHff7P//n/6SjjjqqqH+70047pbXWWivNP//8A4mG3+028YsvvriooRU1sAaCLx4OBP6KQBBYMROqQiAIrKqQbfZ7g8Bqtvxj9IFAIBAIBAKBQCAwegSCwOqOqZpX55xzTjrkkEPSkUceWdwCPt98881JCHzvyy67LO2yyy5xC+GcEIwfNR6BILAaPwUqAyAIrMqgbfSLg8BqtPhj8IFAIBAIBAKBQCBQAQJBYHUHVfH1r33ta0UdrH/7t39LW2+99VASUAD+9a9/fbrkkkvSdtttN9S7pv3HUcR92iVUw/4FgVVDodWky0Fg1URQNetmEFg1E1h0NxAIBAKBQCAQCASmHoEgsHqL6Ac/+EHafffd0xe+8IW00UYbDSXPH/7wh2nTTTdNF1xwQXrzm9881Lum/cdBYE27hGrYvyCwaii0mnQ5CKyaCKpm3QwCq2YCi+4GAoFAIBAIBAKBwNQjEARWbxH98Y9/TA8++GBabrnl0sILLzyUPNXUeuCBB9Lyyy+fFl100aHeNe0/DgJr2iVUw/4FgVVDodWky0Fg1URQNetmEFg1E1h0NxAIBAKBQCAQCASmHoEgsKZeRLXsYBBYtRTbdHc6CKzplk+dexcEVp2lN719DwJremUTPQsEAoFAIBAIBAKBeiIQBFY95TbtvQ4Ca9olVMP+BYFVQ6HVpMtBYNVEUDXrZhBYNRNYdDcQCAQCgUAgEAgEph6BILCeKSJHBh955JG0xBJLDH1kcOqFX2EHg8CqENymvjoIrKZKvvpxB4FVPcZN/EIQWE2Ueow5EAgEAoFAIBAIBKpEoOkEFp/4z3/+c/rRj36UPvKRj6SrrroqIV/mn3/+tNlmmyV+zTrrrJMWWGCBKsUwc+8OAmvmRDr5AQWBNXkZzGoPgsCaVclOdlxBYE0W//h6IBAIBAKBQCAQCMweAk0msPjDd999dzr00EPTlVdemf70pz89S8ALLrhgcWPg8ccfn1ZZZZXZmwAVjSgIrIqAbfJrg8BqsvSrHXsQWNXi29S3B4HVVMnHuAOBQCAQCAQCgUCgKgSaSmDxhW+66aa02267pTvvvLMvvGuvvXa68MILk39H649AEFj9MYonBkQgCKwBAYvHSyMQBFZpqOLBARAIAmsAsOLRQCAQCAQCgUAgEAgESiDQVALr//2//5fe9a53pWuvvbYESn99ZIsttkiXXXZZWnTRRUv/pqkPBoHVVMlXOO4gsCoEt+GvDgKr4ROgouEHgVURsPHaQCAQCAQCgUAgEGgsAk0ksJ588sl0zDHHFMcC+cTPe97z0mte85qi1tWyyy6bHBt0nPChhx5Kt956a7rhhhvSY489lhZaaKHid4cffnhRIytadwSCwIrZMXIEgsAaOaTxwv9FIAismApVIBAEVhWoxjsDgUAgEAgEAoFAoMkINJHA+ulPf5o233zz9Jvf/Catv/766Ywzzkjrrrtu12lw2223pf333z9df/31ac0110xXX311euELX9jkadN37EFg9YUoHhgUgSCwBkUsni+LQBBYZZGK5wZBIAisQdCKZwOBQCAQCAQCgUAgEOiPQNMILMTKKaecUhRu32677dK5556bllxyyZ5A8ZsfffTRtPfeexfF3vk6Bx54YH9wG/xEEFgNFn5VQw8Cqypk471BYMUcqAKBILCqQDXeGQgEAoFAIBAIBAJNRqBpBJasq3333bc4Fqgo+6abblpK/HznW265JW2//fbpFa94RVELK44RdocuCKxS0yoeGgSBILAGQSueHQSBILAGQSueLYtAEFhlkYrnAoFAIBAIBAKBQCAQKIdA0wis22+/Pb3+9a8vjg5efvnlab755isHVErpj3/8YzrssMOKI4RXXHFF+tu//dvSv23ag0FgNU3iYxhvEFhjALmhnwgCq6GCr3jYQWBVDHC8PhAIBAKBQCAQCAQah0DTCKwbb7yxyLo66aSTikysQdsFF1yQPvrRjxbZW73qZg363ll7PgisWZPoFIwnCKwpEMKMdiEIrBkV7ISHFQTWhAUQnw8EAoFAIBAIBAKBmUOgaQSWGlY77LBDuuqqq9JGG200sDwVcn/3u9+dzj777PS6171u4N835QdBYDVF0mMcZxBYYwS7YZ8KAqthAh/TcIPAGhPQ8ZlAIBAIBAKBQCAQaAwCTSOwLr300rTHHnukm2++Oa2++uoDy/nHP/5x2nHHHdNnP/vZ4ihitM4IBIEVM2PkCASBNXJI44X/i0AQWDEVqkAgCKwqUI13BgKBQCAQCAQCgUCTEWgigbXXXnsVBNYqq6wysOjvuOOO9Na3vjWdeeaZQWD1QC8IrIGnVvygHwJBYPVDKP5+rggEgTVX5OJ3vRAIAivmRyAQCAQCgUAgEAgEAqNFIAiswfAMAqscXkFglcMpnhoAgSCwBgArHh0IgSCwBoIrHi6JQBBYJYGKxwKBQCAQCAQCgUAgECiJQBBYJYH638eGIbD89r3vfW869thj02tf+9rBPlyzp4PAqpnA6tDdILDqIKV69jEIrHrKbdp7HQTWtEso+hcIBAKBQCAQCAQCdUMgCKzBJDYMgfWf//mfBXGlDtd222032Idr9nQQWDUTWB26GwRWHaRUzz4GgVVPuU17r4PAmnYJRf8CgUAgEAgEAoFAoG4IBIE1mMSGIbC+973vpTe96U0FgbXNNtsM9uGaPR0EVs0EVofuBoFVBynVs49BYNVTbtPe6yCwpl1C0b9AIBAIBAKBQCAQqBsCTSSw3EL4gx/8IL385S8fWFzDEFgXXnhh2nPPPQsCa+uttx7423X6QRBYdZJWTfoaBFZNBFXDbgaBVUOh1aDLQWDVQEjRxUAgEAgEAoFAIBCoFQJNJLB22mmn5CbCj3/842mJJZYYSF4IrO233z4dffTRaf311y/1W2TOXXfdlY455ph07733FgTWlltuWeq3dX0oCKy6Sm6K+x0E1hQLp+ZdCwKr5gKc0u4HgTWlgoluBQKBQCAQCAQCgUBtEWgigfWOd7xjYvJ63vOeFwTWxNCPD9cagSCwai2+qe58EFhTLZ7adi4IrNqKLjoeCAQCgUAgEAgEAlOKQBBY4xVMEFjjxTu+NkMIBIE1Q8KcsqEEgTVlApmR7gSBNSOCjGEEAoFAIBAIBAKBwNQgEATWeEURBNZ48Y6vzRACQWDNkDCnbChBYE2ZQGakO0FgzYggYxiBQCAQCAQCgUAgMDUINJXAWm655dIWW2yRllpqqfSc5zynUnk89dRT6ZFHHknf+c53in9HDaxK4Y6XzyoCQWDNqmQnP64gsCYvg1nsQRBYsyjVGFMgEAgEAoFAIBAITBKBJhJYu+66azr11FPTu9/97rFC/7nPfS69//3vT1/5ylfSVlttNdZvj/tjUcR93Ig34HtBYDVAyBMaYhBYEwJ+xj8bBNaMCziGFwgEAoFAIBAIBAJjR6CJBNbuu++evve976V11113rHhfe+21adttty0ysLbeeuuxfnvcHwsCa9yIN+B7QWA1QMgTGmIQWBMCfsY/GwTWjAs4hhcIBAKBQCAQCAQCY0egiQSWzKsf/vCHaZVVVhkr3jfeeGPaZJNNCgILkTXLLQisWZbuhMYWBNaEgG/AZ4PAaoCQJzDEILAmAHp8MhAIBAKBQCAQCARmGoEmElh77bVXuvnmm8dOYPnm3/3d36VLLrkkbb/99jM9r4LAmmnxTmZwQWBNBvcmfDUIrCZIefxjDAJr/JjHFwOBQCAQCAQCgUBgthFoGoH1+9//Pv36178uyKsFF1xwrMJ94okn0i9+8Yv04he/OC2++OJj/fa4PxYE1rgRb8D3gsBqgJAnNMQgsCYE/Ix/NgisGRdwDC8QCAQCgUAgEAgExo5A0wissQPc0A8GgdVQwVc57CCwqkS32e8OAqvZ8q9q9EFgVYVsvDcQCAQCgUAgEAgEmopAEFhNlXy14w4Cq1p8G/n2ILAaKfaxDDoIrLHA3LiPBIHVOJHHgAOBQCAQCAQCgUCgYgSCwKoY4Ia+Pgishgq+ymEHgVUlus1+dxBYzZZ/VaMPAqsqZOO9gUAgEAgEAoFAINBUBILAaqrkqx13EFjV4tvItweB1Uixj2XQQWCNBebGfSQIrMaJPAYcCAQCgUAgEAgEAhUjEARWxQA39PVBYDVU8FUOOwisKtFt9ruDwGq2/KsafRBYVSEb7w0EAoFAIBAIBAKBpiIQBFZTJV/tuIPAqhbfRr49CKxGin0sgw4CaywwN+4jQWA1TuQx4EAgEAgEAoFAIBCoGIEgsCoGuKGvDwKroYKvcthBYFWJbrPfHQRWs+Vf1eiDwKoK2XhvIBAIBAKBQCAQCDQVgSCwmir5ascdBFa1+Dby7UFgNVLsYxl0EFhjgblxHwkCq3EijwEHAoFAIBAIBAKBQMUIBIFVMcANfX0QWA0VfJXDDgKrSnSb/e4gsJot/6pGHwRWVcjGewOBQCAQCAQCgUCgqQgEgdVUyVc77iCwqsW3kW8PAquRYh/LoIPAGgvMjftIEFiNE3kMOBAIBAKBQCAQCAQqRiAIrIoBbujrg8BqqOCrHHYQWFWi2+x3B4HVbPlXNfogsKpCNt4bCAQCgUAgEAgEAk1FIAispkq+2nEHgVUtvo18exBYjRT7WAYdBNZYYP7/7dgxjUJRFATQp4EEEbhAAS01HkAEocMBGICaEkUYILvZZhX8ec0cA/dmznRT98SAVVe5wAQIECBAgEBYwIAVBi49b8AqLT4Z24CV1O2+bcDq7j+V3oCVknWXAAECBAgQaBUwYLU2n81twMr6Vl43YFXWPiW0AWsKc90TA1Zd5QITIECAAAECYQEDVhi49LwBq7T4ZGwDVlK3+7YBq7v/VHoDVkrWXQIECBAgQKBVwIDV2nw2twEr61t53YBVWfuU0AasKcx1TwxYdZULTIAAAQIECIQFDFhh4NLzBqzS4pOxDVhJ3e7bBqzu/lPpDVgpWXcJECBAgACBVgEDVmvz2dwGrKxv5XUDVmXtU0IbsKYw1z0xYNVVLjABAgQIECAQFjBghYFLzxuwSotPxjZgJXW7bxuwuvtPpTdgpWTdJUCAAAECBFoFDFitzWdzG7CyvpXXDViVtU8JbcCawlz3xIBVV7nABAgQIECAQFjAgBUGLj1vwCotPhnbgJXU7b5twOruP5XegJWSdZcAAQIECBBoFTBgtTafzW3AyvpWXjdgVdY+JbQBawpz3RMDVl3lAhMgQIAAAQJhAQNWGLj0vAGrtPhkbANWUrf7tgGru/9UegNWStZdAgQIECBAoFXAgNXafDa3ASvrW3ndgFVZ+5TQBqwpzHVPDFh1lQtMgAABAgQIhAUMWGHg0vMGrNLik7ENWEnd7tsGrO7+U+kNWClZdwkQIECAAIFWAQNWa/PZ3AasrG/ldQNWZe1TQhuwpjDXPTFg1VUuMAECBAgQIBAWMGCFgUvPG7BKi0/GNmAldbtvG7C6+0+lN2ClZN0lQIAAAQIEWgUMWK3NZ3MbsLK+ldcNWJW1TwltwJrCXPfEgFVXucAECBAgQIBAWMCAFQYuPf8/YF2v15/1el3KIPaSAn8D1v1+H+/3exyPx7HZbJY871axwPP5HI/HYxwOh7HdboslRF9S4PV6jdvtNvb7/djtdkuedosAAQIECBAgUCnw+XzG6XQaq9VqnM/nSgOhlxf4fr/jcrmMX5c010dSAjjCAAAAAElFTkSuQmCC;" vertex="1" parent="1">
          <mxGeometry x="50" y="460" width="355.17" height="105.37" as="geometry" />
        </mxCell>
      </root>
    </mxGraphModel>
  </diagram>
</mxfile>
